#N canvas 583 180 699 331 10;
#X declare -path ../pd-externals/puremapping;
#X obj 359 19 gemhead;
#X obj 359 40 t b b;
#X obj 359 61 realtime;
#X obj 359 80 iir 55;
#X obj 359 121 /;
#X msg 359 101 1000 \$1;
#X obj 359 162 i;
#X floatatom 296 103 5 0 0 0 - - -, f 5;
#X obj 359 141 + 0.5;
#X obj 448 115 cputime;
#X obj 448 20 loadbang;
#X obj 448 77 metro 1000;
#X msg 448 39 1;
#X floatatom 448 58 0 0 0 0 - - -;
#X obj 448 96 t b b;
#X obj 448 154 * 0.1;
#X obj 448 134 int;
#X floatatom 221 104 5 0 0 0 - - -, f 5;
#X text 194 102 cpu;
#X text 270 103 fps;
#X obj 359 183 change;
#X obj 328 237 declare -path ../pd-externals/puremapping;
#X connect 0 0 1 0;
#X connect 1 0 2 0;
#X connect 1 1 2 1;
#X connect 2 0 3 0;
#X connect 3 0 5 0;
#X connect 4 0 8 0;
#X connect 5 0 4 0;
#X connect 6 0 20 0;
#X connect 8 0 6 0;
#X connect 9 0 16 0;
#X connect 10 0 12 0;
#X connect 11 0 14 0;
#X connect 12 0 13 0;
#X connect 13 0 11 0;
#X connect 14 0 9 0;
#X connect 14 1 9 1;
#X connect 15 0 17 0;
#X connect 16 0 15 0;
#X connect 20 0 7 0;
#X coords 0 -1 1 1 235 20 2 100 100;
