#N canvas 1198 425 480 606 10;
#X obj 159 9 inlet;
#X obj 159 385 outlet;
#X obj 159 353 GEMglVertex2d \$1 0;
#X obj 212 80 f;
#X obj 227 19 + 1;
#X obj 227 41 % 100;
#X obj 212 163 / 100;
#X obj 212 245 + \$1;
#X obj 212 195 * -1;
#X obj 212 217 + 1;
#X obj 212 267 t f f;
#X obj 261 142 == \$1;
#X obj 212 289 wrap;
#X obj 261 185 change;
#X obj 159 31 t a b b;
#X obj 366 221 spigot 0;
#X msg 411 199 1;
#X obj 366 243 t b b;
#X msg 393 268 0;
#X obj 411 177 sel \$1;
#X obj 383 293 r \$2;
#X obj 366 313 f;
#X obj 346 111 r color-\$2;
#X obj 261 207 sel 1 0;
#X msg 283 248 0 0 0 0;
#X msg 261 229 1 1 1 1;
#X obj 346 133 list prepend set;
#X obj 346 155 list trim;
#X obj 288 37 loadbang;
#X msg 288 59 1 1 1 1;
#X obj 159 312 color 1 1 1;
#X connect 0 0 14 0;
#X connect 2 0 1 0;
#X connect 3 0 4 0;
#X connect 3 0 6 0;
#X connect 3 0 11 0;
#X connect 3 0 19 0;
#X connect 4 0 5 0;
#X connect 5 0 3 1;
#X connect 6 0 8 0;
#X connect 7 0 10 0;
#X connect 8 0 9 0;
#X connect 9 0 7 0;
#X connect 10 0 12 0;
#X connect 11 0 13 0;
#X connect 12 0 2 1;
#X connect 13 0 23 0;
#X connect 14 0 30 0;
#X connect 14 1 3 0;
#X connect 14 2 15 0;
#X connect 15 0 17 0;
#X connect 16 0 15 1;
#X connect 17 0 21 0;
#X connect 17 1 18 0;
#X connect 18 0 15 1;
#X connect 19 0 16 0;
#X connect 20 0 21 1;
#X connect 21 0 2 2;
#X connect 22 0 26 0;
#X connect 23 0 25 0;
#X connect 23 1 24 0;
#X connect 26 0 27 0;
#X connect 27 0 25 0;
#X connect 28 0 29 0;
#X connect 29 0 26 0;
#X connect 30 0 2 0;
