#N canvas 50 112 668 711 10;
#X obj 78 598 glsl_program;
#X obj 232 253 bng 15 250 50 0 empty empty empty 0 -6 0 8 -262144 -1
-1;
#N canvas 0 50 450 300 open 0;
#X obj 75 103 openpanel;
#X obj 75 173 outlet;
#X obj 75 127 t b s;
#X msg 105 152 set open \$1;
#X obj 75 80 inlet;
#X connect 0 0 2 0;
#X connect 2 0 1 0;
#X connect 2 1 3 0;
#X connect 3 0 1 0;
#X connect 4 0 0 0;
#X restore 232 277 pd open;
#X text 253 251 open a fragment-program;
#X msg 35 325 print;
#X obj 172 387 change;
#X msg 34 545 print;
#X obj 78 367 glsl_fragment;
#X floatatom 172 413 2 0 0 0 ID - -, f 2;
#X obj 190 459 print linking;
#X text 97 546 after linking \, click "print" to get some info about
the compiled shader program;
#X obj 13 52 inlet;
#X obj 78 634 outlet;
#X msg 87 324 open \$1.frag;
#X msg 232 301 open \$1;
#X obj 577 95 inlet;
#X obj 13 75 route bang;
#X obj 87 226 getdir 1;
#X obj 87 176 bng 15 250 50 0 empty empty empty 17 7 0 10 -262144 -1
-1;
#X obj 87 273 pack s s;
#X obj 138 248 symbol \$1;
#X obj 87 202 t b b;
#X msg 87 298 symbol \$1/\$2;
#X obj 141 87 gemhead 1;
#X msg 141 109 1;
#X obj 141 133 change;
#X obj 141 157 t b;
#X obj 157 619 change;
#X obj 157 640 t b;
#X obj 157 661 outlet;
#X msg 172 438 link \$1;
#X obj 235 631 bng 15 250 50 0 empty empty empty 17 7 0 10 -262144
-1 -1;
#X connect 0 0 12 0;
#X connect 0 1 27 0;
#X connect 1 0 2 0;
#X connect 2 0 14 0;
#X connect 4 0 7 0;
#X connect 5 0 8 0;
#X connect 6 0 0 0;
#X connect 7 0 0 0;
#X connect 7 1 5 0;
#X connect 8 0 30 0;
#X connect 11 0 16 0;
#X connect 13 0 7 0;
#X connect 14 0 7 0;
#X connect 15 0 0 0;
#X connect 16 0 21 0;
#X connect 16 1 7 0;
#X connect 17 0 19 0;
#X connect 18 0 21 0;
#X connect 19 0 22 0;
#X connect 20 0 19 1;
#X connect 21 0 17 0;
#X connect 21 1 20 0;
#X connect 22 0 13 0;
#X connect 23 0 24 0;
#X connect 24 0 25 0;
#X connect 25 0 26 0;
#X connect 26 0 21 0;
#X connect 27 0 28 0;
#X connect 28 0 29 0;
#X connect 30 0 0 0;
#X connect 30 0 9 0;
#X connect 31 0 28 0;
