#N canvas 1 207 450 428 10;
#X declare -path ../pd-externals/nusmuk-audio;
#N canvas 347 293 399 586 LFO 0;
#X obj 29 97 phasor~;
#X obj 29 18 r LFO_freq;
#X obj 29 38 / 127;
#X obj 29 78 * 20;
#X obj 29 57 pow 2;
#X obj 113 19 r LFO_shape;
#X obj 113 39 / 127;
#X obj 26 390 distortion~;
#X obj 26 459 outlet~;
#X obj 28 143 -~;
#X obj 209 37 / 127;
#X obj 209 17 r LFO_symetry;
#X obj 27 173 clip~ -1 0;
#X obj 137 174 clip~ 0 1;
#X obj 26 268 /~;
#X msg 159 225 1 \$1;
#X obj 159 245 -;
#X obj 26 303 -~ 0.5;
#X obj 26 324 *~ 2;
#X obj 113 59 pow 2;
#X obj 113 79 * 4;
#X obj 89 346 loadbang;
#X obj 27 361 +~;
#X obj 25 426 -~;
#X obj 209 78 - 0.5;
#X obj 209 102 * 2;
#X obj 138 266 /~ 1;
#X obj 41 244 * -1;
#X obj 89 368 \$1;
#X connect 0 0 9 0;
#X connect 1 0 2 0;
#X connect 2 0 4 0;
#X connect 3 0 0 0;
#X connect 4 0 3 0;
#X connect 5 0 6 0;
#X connect 6 0 19 0;
#X connect 7 0 23 0;
#X connect 9 0 12 0;
#X connect 9 0 13 0;
#X connect 10 0 9 1;
#X connect 10 0 15 0;
#X connect 10 0 24 0;
#X connect 10 0 27 0;
#X connect 11 0 10 0;
#X connect 12 0 14 0;
#X connect 13 0 26 0;
#X connect 14 0 17 0;
#X connect 15 0 16 0;
#X connect 16 0 26 1;
#X connect 17 0 18 0;
#X connect 18 0 22 0;
#X connect 19 0 20 0;
#X connect 20 0 7 1;
#X connect 21 0 28 0;
#X connect 22 0 7 0;
#X connect 23 0 8 0;
#X connect 24 0 25 0;
#X connect 25 0 23 1;
#X connect 25 0 22 1;
#X connect 26 0 17 0;
#X connect 27 0 14 1;
#X connect 28 0 7 2;
#X restore 213 74 pd LFO;
#N canvas 658 172 716 547 VCO 0;
#X obj 29 125 line~;
#X msg 29 96 \$1 20;
#X obj 30 275 mtof~;
#X obj 29 44 r VCO_freq;
#N canvas 487 236 672 540 pwm~ 0;
#X obj 62 99 phasor~;
#X obj 63 36 inlet~;
#X obj 235 149 +~;
#X obj 251 41 inlet~;
#X obj 234 175 wrap~;
#X obj 317 304 sig~ 22050;
#X obj 317 261 samplerate~;
#X obj 317 209 loadbang;
#X obj 317 284 * 0.5;
#X obj 63 482 -~;
#X obj 63 510 outlet~;
#X obj 436 341 loadbang;
#X obj 436 404 table \$0-lookup 2;
#X obj 436 383 s \$0-lookup;
#X msg 436 362 0 0 1;
#X msg 327 234 bang;
#N canvas 315 401 852 607 sinc-phasor 0;
#X obj 173 131 -~ 0.5;
#X obj 421 192 *~ 2;
#X obj 459 191 /~;
#X obj 421 219 *~;
#X obj 422 241 abs~;
#X obj 421 263 +~ 1.8955;
#X obj 174 427 +~;
#N canvas 104 50 701 480 sin(x)/x 0;
#X obj 220 229 cos~;
#X obj 221 204 -~ 0.25;
#X msg 288 90 1;
#X floatatom 288 162 5 0 0 0 - - -, f 5;
#X obj 288 116 atan;
#X obj 288 137 * 8;
#X obj 220 181 /~ 6.238;
#X obj 288 67 loadbang;
#X obj 221 148 inlet~;
#X obj 219 291 outlet~;
#X obj 220 255 /~;
#X connect 0 0 10 0;
#X connect 1 0 0 0;
#X connect 2 0 4 0;
#X connect 3 0 6 1;
#X connect 4 0 5 0;
#X connect 5 0 3 0;
#X connect 6 0 1 0;
#X connect 7 0 2 0;
#X connect 8 0 6 0;
#X connect 8 0 10 1;
#X connect 10 0 9 0;
#X restore 421 293 pd sin(x)/x;
#X text 208 426 + v3;
#X obj 175 333 tabread~ \$0-lookup;
#X obj 174 311 +~ 1;
#X obj 127 78 inlet~;
#X text 123 53 phasor~;
#X obj 433 71 inlet~;
#X obj 510 72 inlet~;
#X text 506 47 SR;
#X text 429 46 freq;
#X obj 109 486 outlet~;
#X obj 328 217 wrap~;
#X obj 329 243 *~ 2;
#X obj 329 268 -~ 1;
#X obj 330 392 *~;
#X text 357 387 v2*sin(v4)/v4;
#X obj 110 460 -~;
#X connect 0 0 1 0;
#X connect 0 0 10 0;
#X connect 0 0 18 0;
#X connect 1 0 3 0;
#X connect 2 0 3 1;
#X connect 3 0 4 0;
#X connect 4 0 5 0;
#X connect 5 0 7 0;
#X connect 6 0 23 0;
#X connect 7 0 21 1;
#X connect 9 0 6 0;
#X connect 10 0 9 0;
#X connect 11 0 0 0;
#X connect 11 0 23 1;
#X connect 13 0 2 1;
#X connect 14 0 2 0;
#X connect 18 0 19 0;
#X connect 19 0 20 0;
#X connect 20 0 21 0;
#X connect 21 0 6 1;
#X connect 23 0 17 0;
#X restore 235 419 pd sinc-phasor;
#N canvas 307 425 852 607 sinc-phasor 0;
#X obj 173 131 -~ 0.5;
#X obj 421 192 *~ 2;
#X obj 459 191 /~;
#X obj 421 219 *~;
#X obj 422 241 abs~;
#X obj 421 263 +~ 1.8955;
#X obj 174 427 +~;
#N canvas 102 83 701 480 sin(x)/x 0;
#X obj 220 229 cos~;
#X obj 221 204 -~ 0.25;
#X msg 288 90 1;
#X floatatom 288 162 5 0 0 0 - - -, f 5;
#X obj 288 116 atan;
#X obj 288 137 * 8;
#X obj 220 181 /~ 6.238;
#X obj 288 67 loadbang;
#X obj 221 148 inlet~;
#X obj 219 291 outlet~;
#X obj 220 255 /~;
#X connect 0 0 10 0;
#X connect 1 0 0 0;
#X connect 2 0 4 0;
#X connect 3 0 6 1;
#X connect 4 0 5 0;
#X connect 5 0 3 0;
#X connect 6 0 1 0;
#X connect 7 0 2 0;
#X connect 8 0 6 0;
#X connect 8 0 10 1;
#X connect 10 0 9 0;
#X restore 421 293 pd sin(x)/x;
#X text 208 426 + v3;
#X obj 175 333 tabread~ \$0-lookup;
#X obj 174 311 +~ 1;
#X obj 127 78 inlet~;
#X text 123 53 phasor~;
#X obj 433 71 inlet~;
#X obj 510 72 inlet~;
#X text 506 47 SR;
#X text 429 46 freq;
#X obj 109 486 outlet~;
#X obj 328 217 wrap~;
#X obj 329 243 *~ 2;
#X obj 329 268 -~ 1;
#X obj 330 392 *~;
#X text 357 387 v2*sin(v4)/v4;
#X obj 110 460 -~;
#X connect 0 0 1 0;
#X connect 0 0 10 0;
#X connect 0 0 18 0;
#X connect 1 0 3 0;
#X connect 2 0 3 1;
#X connect 3 0 4 0;
#X connect 4 0 5 0;
#X connect 5 0 7 0;
#X connect 6 0 23 0;
#X connect 7 0 21 1;
#X connect 9 0 6 0;
#X connect 10 0 9 0;
#X connect 11 0 0 0;
#X connect 11 0 23 1;
#X connect 13 0 2 1;
#X connect 14 0 2 0;
#X connect 18 0 19 0;
#X connect 19 0 20 0;
#X connect 20 0 21 0;
#X connect 21 0 6 1;
#X connect 23 0 17 0;
#X restore 62 420 pd sinc-phasor;
#X obj 235 442 *~;
#X obj 486 36 inlet;
#X connect 0 0 2 0;
#X connect 0 0 17 0;
#X connect 1 0 0 0;
#X connect 1 0 16 1;
#X connect 1 0 17 1;
#X connect 2 0 4 0;
#X connect 3 0 2 1;
#X connect 4 0 16 0;
#X connect 5 0 16 2;
#X connect 5 0 17 2;
#X connect 6 0 8 0;
#X connect 7 0 6 0;
#X connect 8 0 5 0;
#X connect 9 0 10 0;
#X connect 11 0 14 0;
#X connect 14 0 13 0;
#X connect 15 0 6 0;
#X connect 16 0 18 0;
#X connect 17 0 9 0;
#X connect 18 0 9 1;
#X connect 19 0 18 1;
#X restore 30 355 pd pwm~;
#X obj 105 44 r VCO_pwm;
#X obj 105 64 / 127;
#X msg 105 84 \$1 20;
#X obj 105 104 line~;
#X obj 368 86 r VCO_tri_square;
#X obj 29 64 - 36;
#X obj 104 144 -~ 0.5;
#X obj 241 438 *~;
#X obj 368 111 == 0;
#X obj 104 125 /~ 2;
#X obj 31 440 *~;
#X obj 139 365 -~ 1;
#X obj 139 383 abs~;
#X obj 240 415 *~ 0.5;
#X obj 241 356 phasor~;
#X obj 241 394 cos~;
#X obj 241 375 +~ 0.37;
#X obj 31 513 outlet~;
#X obj 30 492 *~ 2;
#X obj 481 143 r VCO_mod;
#X obj 466 210 *~;
#X msg 481 165 \$1 20;
#X obj 465 48 inlet~;
#X obj 481 188 line~;
#X obj 347 156 *~ 1;
#X obj 466 104 /~ 127;
#X obj 465 125 *~ 12;
#X obj 553 208 *~;
#X msg 568 163 \$1 20;
#X obj 552 46 inlet~;
#X obj 568 186 line~;
#X obj 552 73 *~ 12;
#X obj 568 119 r VCO_mod_ADSR;
#X obj 568 142 / 127;
#X connect 0 0 2 0;
#X connect 1 0 0 0;
#X connect 2 0 19 0;
#X connect 2 0 4 0;
#X connect 3 0 10 0;
#X connect 4 0 15 0;
#X connect 5 0 6 0;
#X connect 6 0 7 0;
#X connect 7 0 8 0;
#X connect 8 0 14 0;
#X connect 8 0 29 0;
#X connect 9 0 4 2;
#X connect 9 0 13 0;
#X connect 10 0 1 0;
#X connect 11 0 4 1;
#X connect 12 0 23 0;
#X connect 13 0 29 1;
#X connect 14 0 11 0;
#X connect 15 0 23 0;
#X connect 16 0 17 0;
#X connect 17 0 15 1;
#X connect 18 0 12 0;
#X connect 19 0 21 0;
#X connect 20 0 18 0;
#X connect 21 0 20 0;
#X connect 23 0 22 0;
#X connect 24 0 26 0;
#X connect 25 0 2 0;
#X connect 26 0 28 0;
#X connect 27 0 30 0;
#X connect 28 0 25 1;
#X connect 29 0 12 1;
#X connect 29 0 16 0;
#X connect 30 0 31 0;
#X connect 31 0 25 0;
#X connect 32 0 2 0;
#X connect 33 0 35 0;
#X connect 34 0 36 0;
#X connect 35 0 32 1;
#X connect 36 0 32 0;
#X connect 37 0 38 0;
#X connect 38 0 33 0;
#X restore 178 110 pd VCO;
#N canvas 60 490 873 443 VCF 0;
#X obj 198 156 mtof;
#X obj 198 178 bq_coef_lop;
#N canvas 1 91 450 300 5_lines~ 0;
#X obj 80 123 line~;
#X obj 79 147 outlet~;
#X obj 80 71 inlet;
#X obj 136 123 line~;
#X obj 135 147 outlet~;
#X obj 136 73 inlet;
#X obj 193 123 line~;
#X obj 192 147 outlet~;
#X obj 193 73 inlet;
#X obj 247 123 line~;
#X obj 246 147 outlet~;
#X obj 247 73 inlet;
#X obj 304 123 line~;
#X obj 303 147 outlet~;
#X obj 304 73 inlet;
#X msg 193 96 \$1 20;
#X msg 304 99 \$1 25;
#X msg 247 99 \$1 25;
#X msg 136 98 \$1 25;
#X msg 80 97 \$1 25;
#X connect 0 0 1 0;
#X connect 2 0 19 0;
#X connect 3 0 4 0;
#X connect 5 0 18 0;
#X connect 6 0 7 0;
#X connect 8 0 15 0;
#X connect 9 0 10 0;
#X connect 11 0 17 0;
#X connect 12 0 13 0;
#X connect 14 0 16 0;
#X connect 15 0 6 0;
#X connect 16 0 12 0;
#X connect 17 0 9 0;
#X connect 18 0 3 0;
#X connect 19 0 0 0;
#X restore 198 199 pd 5_lines~;
#X obj 20 263 bq~ ---------;
#X obj 21 52 inlet~;
#X obj 21 296 outlet~;
#X obj 198 54 r VCF_freq;
#X obj 261 80 r VCF_q;
#X obj 261 102 / 127;
#X obj 261 142 * 50;
#X obj 261 122 pow 4;
#X msg 343 158 \$1 20;
#X obj 329 48 inlet~;
#X obj 328 114 snapshot~;
#X obj 343 181 line;
#X obj 328 203 *;
#X obj 208 105 t b f;
#X obj 198 132 +;
#X obj 343 136 r VCF_mod;
#X obj 328 223 / 127;
#X obj 328 244 * 12;
#X obj 453 49 inlet;
#X obj 495 76 r VCF_mod_ADSR;
#X obj 453 121 *;
#X obj 453 76 * 12;
#X obj 453 142 t b f;
#X obj 328 267 +;
#X obj 495 99 / 127;
#X connect 0 0 1 0;
#X connect 1 0 2 0;
#X connect 1 1 2 1;
#X connect 1 2 2 2;
#X connect 1 3 2 3;
#X connect 1 4 2 4;
#X connect 2 0 3 1;
#X connect 2 1 3 2;
#X connect 2 2 3 3;
#X connect 2 3 3 4;
#X connect 2 4 3 5;
#X connect 3 0 5 0;
#X connect 4 0 3 0;
#X connect 6 0 17 0;
#X connect 7 0 8 0;
#X connect 8 0 10 0;
#X connect 9 0 1 1;
#X connect 10 0 9 0;
#X connect 11 0 14 0;
#X connect 12 0 13 0;
#X connect 13 0 15 0;
#X connect 14 0 15 1;
#X connect 15 0 19 0;
#X connect 16 0 17 0;
#X connect 16 1 17 1;
#X connect 17 0 0 0;
#X connect 18 0 11 0;
#X connect 19 0 20 0;
#X connect 20 0 26 0;
#X connect 21 0 24 0;
#X connect 22 0 27 0;
#X connect 23 0 25 0;
#X connect 24 0 23 0;
#X connect 25 0 13 0;
#X connect 25 1 26 1;
#X connect 26 0 16 0;
#X connect 27 0 23 1;
#X restore 178 149 pd VCF;
#N canvas 1 207 450 300 disto1 0;
#X obj 39 47 inlet~;
#X obj 40 256 outlet~;
#X obj 143 110 / 127;
#X obj 143 47 r disto;
#X obj 143 174 *;
#X obj 40 154 +~;
#X obj 56 130 line~;
#X msg 56 105 \$1 20;
#X obj 143 132 pow 2;
#X obj 199 69 t b f;
#X floatatom 190 224 5 0 0 0 - - -, f 5;
#X obj 143 152 * 1.5;
#X obj 39 216 distortion~;
#X obj 56 85 r disto1_B;
#X obj 199 48 r disto1_A;
#X connect 0 0 5 0;
#X connect 2 0 8 0;
#X connect 3 0 2 0;
#X connect 4 0 10 0;
#X connect 4 0 12 1;
#X connect 5 0 12 0;
#X connect 6 0 5 1;
#X connect 7 0 6 0;
#X connect 8 0 11 0;
#X connect 9 0 2 0;
#X connect 9 1 4 1;
#X connect 11 0 4 0;
#X connect 12 0 1 0;
#X connect 13 0 7 0;
#X connect 14 0 9 0;
#X restore 178 129 pd disto1;
#N canvas 1 179 450 300 disto2 0;
#X obj 39 47 inlet~;
#X obj 40 256 outlet~;
#X obj 143 110 / 127;
#X obj 143 47 r disto;
#X obj 143 174 *;
#X obj 40 154 +~;
#X obj 56 130 line~;
#X msg 56 105 \$1 20;
#X obj 143 132 pow 2;
#X obj 199 69 t b f;
#X obj 143 152 * 1.5;
#X obj 39 215 distortion~;
#X obj 57 81 r disto2_B;
#X obj 199 46 r disto2_A;
#X connect 0 0 5 0;
#X connect 2 0 8 0;
#X connect 3 0 2 0;
#X connect 4 0 11 1;
#X connect 5 0 11 0;
#X connect 6 0 5 1;
#X connect 7 0 6 0;
#X connect 8 0 10 0;
#X connect 9 0 2 0;
#X connect 9 1 4 1;
#X connect 10 0 4 0;
#X connect 11 0 1 0;
#X connect 12 0 7 0;
#X connect 13 0 9 0;
#X restore 179 169 pd disto2;
#X obj 179 190 hip~ 15;
#X obj 179 209 hip~ 15;
#X obj 179 228 hip~ 15;
#X obj 179 249 *~ 0.5;
#N canvas 1 111 450 300 VCA 0;
#X obj 28 259 outlet~;
#X obj 26 23 inlet~;
#X obj 82 48 r VCA;
#X obj 82 71 / 127;
#X obj 82 92 t f f;
#X obj 82 113 *;
#X obj 82 157 line~;
#X obj 27 196 *~;
#X obj 222 29 inlet~;
#X obj 28 231 *~;
#X obj 221 82 *~;
#X msg 82 135 \$1 20;
#X connect 1 0 7 0;
#X connect 2 0 3 0;
#X connect 3 0 4 0;
#X connect 4 0 5 0;
#X connect 4 1 5 1;
#X connect 5 0 11 0;
#X connect 6 0 7 1;
#X connect 7 0 9 0;
#X connect 8 0 10 1;
#X connect 8 0 10 0;
#X connect 9 0 0 0;
#X connect 10 0 9 1;
#X connect 11 0 6 0;
#X restore 179 273 pd VCA;
#N canvas 1 153 450 300 ADSR 0;
#X obj 53 169 ADSR -------;
#X obj 70 58 r ADSR_A;
#X obj 87 78 r ADSR_D;
#X obj 104 98 r ADSR_S;
#X obj 122 118 r ADSR_R;
#X obj 53 34 r on_off;
#X msg 53 189 \$1 5;
#X obj 53 211 line~;
#X obj 53 236 outlet~;
#X obj 104 137 / 127;
#X obj 124 237 outlet;
#X connect 0 0 6 0;
#X connect 0 0 10 0;
#X connect 1 0 0 1;
#X connect 2 0 0 2;
#X connect 3 0 9 0;
#X connect 4 0 0 4;
#X connect 5 0 0 0;
#X connect 6 0 7 0;
#X connect 7 0 8 0;
#X connect 9 0 0 3;
#X restore 262 75 pd ADSR;
#X obj 159 13 declare -path ../pd-externals/nusmuk-audio;
#X obj 179 403 throw~ analog-\$1;
#X obj 268 179 r analog-mute;
#X obj 333 266 r analog-vol;
#X obj 179 305 *~;
#X obj 268 254 line~ 1;
#X obj 268 201 == 0;
#X msg 268 231 \$1 10;
#X obj 179 375 *~;
#X obj 334 307 line~ 1;
#X msg 334 285 \$1 10;
#X obj 335 327 dbtorms~;
#X connect 0 0 1 0;
#X connect 0 0 2 1;
#X connect 1 0 3 0;
#X connect 2 0 4 0;
#X connect 3 0 2 0;
#X connect 4 0 5 0;
#X connect 5 0 6 0;
#X connect 6 0 7 0;
#X connect 7 0 8 0;
#X connect 8 0 9 0;
#X connect 9 0 15 0;
#X connect 10 0 9 1;
#X connect 10 0 1 1;
#X connect 10 1 2 2;
#X connect 13 0 17 0;
#X connect 14 0 21 0;
#X connect 15 0 19 0;
#X connect 16 0 15 1;
#X connect 17 0 18 0;
#X connect 18 0 16 0;
#X connect 19 0 12 0;
#X connect 20 0 22 0;
#X connect 21 0 20 0;
#X connect 22 0 19 1;
