#N canvas 599 159 836 573 10;
#X text 63 86 background;
#N canvas 515 285 866 505 haut_gauche 0;
#X obj 101 226 list prepend set;
#X obj 101 255 list trim;
#X msg 101 281 0 0.839216 1;
#X obj 101 312 unpack f f f;
#X obj 101 335 * 255;
#X obj 140 335 * 255;
#X obj 180 335 * 255;
#X obj 141 138 / 255;
#X obj 101 201 pack f f f;
#X obj 141 161 t b f;
#X obj 181 138 / 255;
#X obj 181 161 t b f;
#X obj 101 138 / 255;
#X floatatom 238 102 5 0 255 0 - - -, f 5;
#X floatatom 278 102 5 0 255 0 - - -, f 5;
#X floatatom 318 102 5 0 255 0 - - -, f 5;
#X obj 64 366 outlet;
#X obj 169 256 inlet;
#X obj 310 24 inlet;
#X obj 370 24 inlet;
#X obj 428 24 inlet;
#X obj 310 49 i;
#X obj 370 49 i;
#X obj 428 48 i;
#X connect 0 0 1 0;
#X connect 1 0 2 0;
#X connect 2 0 3 0;
#X connect 3 0 4 0;
#X connect 3 1 5 0;
#X connect 3 2 6 0;
#X connect 4 0 13 0;
#X connect 5 0 14 0;
#X connect 6 0 15 0;
#X connect 7 0 9 0;
#X connect 8 0 0 0;
#X connect 8 0 16 0;
#X connect 9 0 8 0;
#X connect 9 1 8 1;
#X connect 10 0 11 0;
#X connect 11 0 8 0;
#X connect 11 1 8 2;
#X connect 12 0 8 0;
#X connect 13 0 12 0;
#X connect 14 0 7 0;
#X connect 15 0 10 0;
#X connect 17 0 2 0;
#X connect 18 0 21 0;
#X connect 19 0 22 0;
#X connect 20 0 23 0;
#X connect 21 0 13 0;
#X connect 22 0 14 0;
#X connect 23 0 15 0;
#X coords 0 -1 1 1 256 20 1 100 100;
#X restore 135 208 pd haut_gauche;
#N canvas 807 401 876 377 back_ground 0;
#X msg 209 143 C1 \$1 \$2 \$3;
#X msg 343 145 C2 \$1 \$2 \$3;
#X msg 470 146 C3 \$1 \$2 \$3;
#X msg 605 146 C4 \$1 \$2 \$3;
#X obj 25 11 tgl 15 0 empty empty empty 17 7 0 10 -262144 -1 -1 0 1
;
#X obj 212 30 inlet;
#X obj 342 26 inlet;
#X obj 477 27 inlet;
#X obj 624 30 inlet;
#X obj 209 318 outlet;
#X obj 25 66 GEMglLoadIdentity;
#X obj 714 38 inlet;
#X obj 64 133 bng 15 250 50 0 empty empty empty 17 7 0 10 -262144 -1
-1;
#X obj 73 241 r rapport_h_l;
#X obj 25 104 scaleXYZ;
#X obj 768 34 inlet;
#X obj 858 42 inlet;
#X obj 25 202 translateXYZ 0 0 -3000;
#X obj 25 305 rectangle 40 150;
#X obj 74 274 * 150;
#X obj 25 34 gemhead 1;
#X obj 25 172 abs/_glsl_frag shader/color;
#X connect 0 0 21 1;
#X connect 1 0 21 1;
#X connect 2 0 21 1;
#X connect 3 0 21 1;
#X connect 4 0 20 0;
#X connect 5 0 0 0;
#X connect 6 0 1 0;
#X connect 7 0 2 0;
#X connect 8 0 3 0;
#X connect 10 0 14 0;
#X connect 11 0 21 1;
#X connect 12 0 21 0;
#X connect 13 0 19 0;
#X connect 14 0 21 0;
#X connect 15 0 14 1;
#X connect 16 0 14 2;
#X connect 17 0 18 0;
#X connect 19 0 18 1;
#X connect 20 0 10 0;
#X connect 21 0 17 0;
#X connect 21 1 9 0;
#X restore 144 450 pd back_ground;
#N canvas 515 285 866 505 bas_gauche 0;
#X obj 101 226 list prepend set;
#X obj 101 255 list trim;
#X msg 101 281 0.294118 0 1;
#X obj 101 312 unpack f f f;
#X obj 101 335 * 255;
#X obj 140 335 * 255;
#X obj 180 335 * 255;
#X obj 141 138 / 255;
#X obj 101 201 pack f f f;
#X obj 141 161 t b f;
#X obj 181 138 / 255;
#X obj 181 161 t b f;
#X obj 101 138 / 255;
#X floatatom 238 102 5 0 255 0 - - -, f 5;
#X floatatom 278 102 5 0 255 0 - - -, f 5;
#X floatatom 318 102 5 0 255 0 - - -, f 5;
#X obj 64 366 outlet;
#X obj 169 256 inlet;
#X obj 310 24 inlet;
#X obj 370 24 inlet;
#X obj 428 24 inlet;
#X obj 310 49 i;
#X obj 370 49 i;
#X obj 428 48 i;
#X connect 0 0 1 0;
#X connect 1 0 2 0;
#X connect 2 0 3 0;
#X connect 3 0 4 0;
#X connect 3 1 5 0;
#X connect 3 2 6 0;
#X connect 4 0 13 0;
#X connect 5 0 14 0;
#X connect 6 0 15 0;
#X connect 7 0 9 0;
#X connect 8 0 0 0;
#X connect 8 0 16 0;
#X connect 9 0 8 0;
#X connect 9 1 8 1;
#X connect 10 0 11 0;
#X connect 11 0 8 0;
#X connect 11 1 8 2;
#X connect 12 0 8 0;
#X connect 13 0 12 0;
#X connect 14 0 7 0;
#X connect 15 0 10 0;
#X connect 17 0 2 0;
#X connect 18 0 21 0;
#X connect 19 0 22 0;
#X connect 20 0 23 0;
#X connect 21 0 13 0;
#X connect 22 0 14 0;
#X connect 23 0 15 0;
#X coords 0 -1 1 1 256 20 1 100 100;
#X restore 135 232 pd bas_gauche;
#N canvas 515 285 866 505 haut_droite 0;
#X obj 101 226 list prepend set;
#X obj 101 255 list trim;
#X msg 101 281 0 0.333333 1;
#X obj 101 312 unpack f f f;
#X obj 101 335 * 255;
#X obj 140 335 * 255;
#X obj 180 335 * 255;
#X obj 141 138 / 255;
#X obj 101 201 pack f f f;
#X obj 141 161 t b f;
#X obj 181 138 / 255;
#X obj 181 161 t b f;
#X obj 101 138 / 255;
#X floatatom 238 102 5 0 255 0 - - -, f 5;
#X floatatom 278 102 5 0 255 0 - - -, f 5;
#X floatatom 318 102 5 0 255 0 - - -, f 5;
#X obj 64 366 outlet;
#X obj 169 256 inlet;
#X obj 310 24 inlet;
#X obj 370 24 inlet;
#X obj 428 24 inlet;
#X obj 310 49 i;
#X obj 370 49 i;
#X obj 428 48 i;
#X connect 0 0 1 0;
#X connect 1 0 2 0;
#X connect 2 0 3 0;
#X connect 3 0 4 0;
#X connect 3 1 5 0;
#X connect 3 2 6 0;
#X connect 4 0 13 0;
#X connect 5 0 14 0;
#X connect 6 0 15 0;
#X connect 7 0 9 0;
#X connect 8 0 0 0;
#X connect 8 0 16 0;
#X connect 9 0 8 0;
#X connect 9 1 8 1;
#X connect 10 0 11 0;
#X connect 11 0 8 0;
#X connect 11 1 8 2;
#X connect 12 0 8 0;
#X connect 13 0 12 0;
#X connect 14 0 7 0;
#X connect 15 0 10 0;
#X connect 17 0 2 0;
#X connect 18 0 21 0;
#X connect 19 0 22 0;
#X connect 20 0 23 0;
#X connect 21 0 13 0;
#X connect 22 0 14 0;
#X connect 23 0 15 0;
#X coords 0 -1 1 1 256 20 1 100 100;
#X restore 395 208 pd haut_droite;
#N canvas 513 301 866 505 bas_droite 0;
#X obj 101 226 list prepend set;
#X obj 101 255 list trim;
#X msg 101 281 0.376471 0 1;
#X obj 101 312 unpack f f f;
#X obj 101 335 * 255;
#X obj 140 335 * 255;
#X obj 180 335 * 255;
#X obj 141 138 / 255;
#X obj 101 201 pack f f f;
#X obj 141 161 t b f;
#X obj 181 138 / 255;
#X obj 181 161 t b f;
#X obj 101 138 / 255;
#X floatatom 238 102 5 0 255 0 - - -, f 5;
#X floatatom 278 102 5 0 255 0 - - -, f 5;
#X floatatom 318 102 5 0 255 0 - - -, f 5;
#X obj 64 366 outlet;
#X obj 169 256 inlet;
#X obj 310 24 inlet;
#X obj 370 24 inlet;
#X obj 428 24 inlet;
#X obj 310 49 i;
#X obj 370 49 i;
#X obj 428 48 i;
#X connect 0 0 1 0;
#X connect 1 0 2 0;
#X connect 2 0 3 0;
#X connect 3 0 4 0;
#X connect 3 1 5 0;
#X connect 3 2 6 0;
#X connect 4 0 13 0;
#X connect 5 0 14 0;
#X connect 6 0 15 0;
#X connect 7 0 9 0;
#X connect 8 0 0 0;
#X connect 8 0 16 0;
#X connect 9 0 8 0;
#X connect 9 1 8 1;
#X connect 10 0 11 0;
#X connect 11 0 8 0;
#X connect 11 1 8 2;
#X connect 12 0 8 0;
#X connect 13 0 12 0;
#X connect 14 0 7 0;
#X connect 15 0 10 0;
#X connect 17 0 2 0;
#X connect 18 0 21 0;
#X connect 19 0 22 0;
#X connect 20 0 23 0;
#X connect 21 0 13 0;
#X connect 22 0 14 0;
#X connect 23 0 15 0;
#X coords 0 -1 1 1 256 20 1 100 100;
#X restore 395 232 pd bas_droite;
#X obj 205 255 nbx 5 14 -10 10 0 1 empty empty empty 0 -8 0 10 -262144
-1 -1 10 256;
#X obj 208 377 /;
#X msg 208 404 powX \$1;
#X msg 208 353 1 \$1;
#X obj 208 328 + 1;
#X obj 330 256 nbx 5 14 -10 80 0 1 empty empty empty 0 -8 0 10 -262144
-1 -1 -4 256;
#X obj 268 381 /;
#X msg 268 358 1 \$1;
#X obj 268 334 + 1;
#X msg 268 403 powY \$1;
#X obj 208 303 / 11;
#X obj 268 309 / 11;
#X text 267 255 centre Y;
#X text 143 256 centre X;
#X obj 518 360 nbx 5 14 1 10 0 1 empty empty empty 0 -8 0 10 -262144
-1 -1 1 256;
#X obj 643 361 nbx 5 14 1 11 0 1 empty empty empty 0 -8 0 10 -262144
-1 -1 1 256;
#X text 456 361 taille X;
#X text 580 360 taille Y;
#X obj 67 129 t b;
#X obj 217 163 r config-HG_R;
#X obj 303 161 r config-HG_G;
#X obj 249 183 r config-BG_R;
#X obj 337 180 r config-BG_G;
#X obj 382 161 r config-HG_B;
#X obj 416 179 r config-BG_B;
#X obj 677 179 r config-BD_B;
#X obj 643 159 r config-HD_B;
#X obj 598 179 r config-BD_G;
#X obj 564 159 r config-HD_G;
#X obj 512 181 r config-BD_R;
#X obj 478 161 r config-HD_R;
#X obj 238 279 r config-centreX;
#X obj 352 280 r config-centreY;
#X obj 116 115 bng 15 250 50 0 empty empty empty 17 7 0 10 -262144
-1 -1;
#X connect 1 0 2 1;
#X connect 2 0 24 0;
#X connect 3 0 2 0;
#X connect 4 0 2 3;
#X connect 5 0 2 2;
#X connect 6 0 16 0;
#X connect 7 0 8 0;
#X connect 8 0 2 4;
#X connect 9 0 7 0;
#X connect 10 0 9 0;
#X connect 11 0 17 0;
#X connect 12 0 15 0;
#X connect 13 0 12 0;
#X connect 14 0 13 0;
#X connect 15 0 2 4;
#X connect 16 0 10 0;
#X connect 17 0 14 0;
#X connect 20 0 2 5;
#X connect 21 0 2 6;
#X connect 24 0 1 0;
#X connect 24 0 3 0;
#X connect 24 0 6 0;
#X connect 24 0 11 0;
#X connect 24 0 4 0;
#X connect 24 0 5 0;
#X connect 25 0 1 1;
#X connect 26 0 1 2;
#X connect 27 0 3 1;
#X connect 28 0 3 2;
#X connect 29 0 1 3;
#X connect 30 0 3 3;
#X connect 31 0 5 3;
#X connect 32 0 4 3;
#X connect 33 0 5 2;
#X connect 34 0 4 2;
#X connect 35 0 5 1;
#X connect 36 0 4 1;
#X connect 37 0 6 0;
#X connect 38 0 11 0;
#X connect 39 0 24 0;
