#N canvas 619 275 1095 656 10;
#N canvas 285 299 1469 655 display_fsr 0;
#X obj 110 -308 inlet;
#X obj 110 -280 routeOSC /fsr;
#X floatatom 141 -86 5 0 0 0 scale - -, f 5;
#X floatatom 173 -60 5 0 0 0 offset - -, f 5;
#X floatatom 243 -83 5 0 0 0 scale - -, f 5;
#X floatatom 275 -57 5 0 0 0 offset - -, f 5;
#X floatatom 345 -83 5 0 0 0 scale - -, f 5;
#X floatatom 377 -57 5 0 0 0 offset - -, f 5;
#N canvas 1 115 450 300 beat-detect 0;
#X obj 143 87 t f f;
#X obj 145 117 -;
#X obj 145 137 max 0;
#X obj 145 176 max;
#X obj 184 177 f;
#X floatatom 145 198 5 0 0 0 - - -, f 5;
#X msg 188 135 0;
#X obj 188 114 bng 15 250 50 0 empty empty empty 17 7 0 10 -262144
-1 -1;
#X obj 143 64 inlet;
#X text 244 108 simple derivating;
#X text 132 220 threshold result to get beat attack;
#X connect 0 0 1 1;
#X connect 0 1 1 0;
#X connect 1 0 2 0;
#X connect 2 0 3 0;
#X connect 3 0 4 0;
#X connect 3 0 5 0;
#X connect 4 0 3 1;
#X connect 6 0 3 1;
#X connect 7 0 6 0;
#X connect 8 0 0 0;
#X restore 7 -89 pd beat-detect;
#X floatatom 448 -83 5 0 0 0 scale - -, f 5;
#X floatatom 480 -57 5 0 0 0 offset - -, f 5;
#X floatatom 550 -80 5 0 0 0 scale - -, f 5;
#X floatatom 582 -54 5 0 0 0 offset - -, f 5;
#X floatatom 652 -80 5 0 0 0 scale - -, f 5;
#X floatatom 684 -54 5 0 0 0 offset - -, f 5;
#X obj 185 -254 outlet;
#X floatatom 138 103 5 0 0 0 - - -, f 5;
#X floatatom 248 103 5 0 0 0 - - -, f 5;
#X floatatom 358 103 5 0 0 0 - - -, f 5;
#X floatatom 468 103 5 0 0 0 - - -, f 5;
#X floatatom 578 103 5 0 0 0 - - -, f 5;
#X floatatom 688 103 5 0 0 0 - - -, f 5;
#X obj 138 122 vsl 50 128 0 1 0 0 empty empty empty 0 -9 0 10 -262144
-1 -1 968 1;
#X floatatom 755 -83 5 0 0 0 scale - -, f 5;
#X floatatom 787 -57 5 0 0 0 offset - -, f 5;
#X floatatom 857 -80 5 0 0 0 scale - -, f 5;
#X floatatom 889 -54 5 0 0 0 offset - -, f 5;
#X floatatom 959 -80 5 0 0 0 scale - -, f 5;
#X floatatom 991 -54 5 0 0 0 offset - -, f 5;
#X floatatom 798 103 5 0 0 0 - - -, f 5;
#X floatatom 908 103 5 0 0 0 - - -, f 5;
#X floatatom 1018 103 5 0 0 0 - - -, f 5;
#X obj 417 -33 gem_display;
#X obj 110 -36 gem_display;
#X obj 314 -33 gem_display;
#X obj 212 -33 gem_display;
#X obj 621 -30 gem_display;
#X obj 519 -30 gem_display;
#X obj 724 -33 gem_display;
#X obj 928 -30 gem_display;
#X obj 826 -30 gem_display;
#X obj 114 258 cnv 15 100 40 empty empty FSR0 22 20 0 24 -233017 -66577
0;
#X obj 224 258 cnv 15 100 40 empty empty FSR1 22 20 0 24 -233017 -66577
0;
#X obj 334 258 cnv 15 100 40 empty empty FSR2 22 20 0 24 -233017 -66577
0;
#X obj 444 258 cnv 15 100 40 empty empty FSR3 22 20 0 24 -233017 -66577
0;
#X obj 554 258 cnv 15 100 40 empty empty FSR4 22 20 0 24 -233017 -66577
0;
#X obj 664 258 cnv 15 100 40 empty empty FSR5 22 20 0 24 -233017 -66577
0;
#X obj 774 258 cnv 15 100 40 empty empty FSR6 22 20 0 24 -233017 -66577
0;
#X obj 884 258 cnv 15 100 40 empty empty FSR7 22 20 0 24 -233017 -66577
0;
#X obj 994 258 cnv 15 100 40 empty empty FSR8 22 20 0 24 -233017 -66577
0;
#X obj 138 64 spigot;
#X obj 171 28 r \$0-gui;
#X obj 1129 -117 tgl 15 0 empty empty empty 17 7 0 10 -262144 -1 -1
1 1;
#X obj 1129 -97 s \$0-gui;
#X obj 248 122 vsl 50 128 0 1 0 0 empty empty empty 0 -9 0 10 -262144
-1 -1 497 1;
#X obj 248 64 spigot;
#X obj 281 28 r \$0-gui;
#X obj 358 122 vsl 50 128 0 1 0 0 empty empty empty 0 -9 0 10 -262144
-1 -1 770 1;
#X obj 358 64 spigot;
#X obj 391 28 r \$0-gui;
#X obj 468 122 vsl 50 128 0 1 0 0 empty empty empty 0 -9 0 10 -262144
-1 -1 99 1;
#X obj 468 64 spigot;
#X obj 501 28 r \$0-gui;
#X obj 578 122 vsl 50 128 0 1 0 0 empty empty empty 0 -9 0 10 -262144
-1 -1 236 1;
#X obj 578 64 spigot;
#X obj 611 28 r \$0-gui;
#X obj 688 122 vsl 50 128 0 1 0 0 empty empty empty 0 -9 0 10 -262144
-1 -1 0 1;
#X obj 688 64 spigot;
#X obj 721 28 r \$0-gui;
#X obj 798 122 vsl 50 128 0 1 0 0 empty empty empty 0 -9 0 10 -262144
-1 -1 397 1;
#X obj 798 64 spigot;
#X obj 831 28 r \$0-gui;
#X obj 908 122 vsl 50 128 0 1 0 0 empty empty empty 0 -9 0 10 -262144
-1 -1 273 1;
#X obj 908 64 spigot;
#X obj 941 28 r \$0-gui;
#X obj 1018 122 vsl 50 128 0 1 0 0 empty empty empty 0 -9 0 10 -262144
-1 -1 546 1;
#X obj 1018 64 spigot;
#X obj 1051 28 r \$0-gui;
#X obj 1129 -160 loadbang;
#X msg 1129 -138 1;
#X obj 232 -366 routeOSC /0 /1 /2 /3 /4 /5 /6 /7 /8, f 154;
#X obj 110 -227 unpack 0 0 0 0 0 0 0 0 0, f 154;
#X obj 111 -192 / 1023;
#X obj 214 -189 / 1023;
#X obj 334 -189 / 1023;
#X obj 454 -189 / 1023;
#X obj 574 -189 / 1023;
#X obj 683 -189 / 1023;
#X obj 794 -189 / 1023;
#X obj 914 -189 / 1023;
#X obj 1024 -189 / 1023;
#X obj 466 -280 expr;
#X obj 111 -170 t a a;
#X obj 214 -167 t a a;
#X obj 334 -167 t a a;
#X obj 454 -167 t a a;
#X obj 574 -167 t a a;
#X obj 683 -167 t a a;
#X obj 794 -167 t a a;
#X obj 914 -167 t a a;
#X obj 1024 -167 t a a;
#X connect 0 0 1 0;
#X connect 1 0 81 0;
#X connect 1 1 15 0;
#X connect 2 0 33 1;
#X connect 3 0 33 2;
#X connect 4 0 35 1;
#X connect 5 0 35 2;
#X connect 6 0 34 1;
#X connect 7 0 34 2;
#X connect 9 0 32 1;
#X connect 10 0 32 2;
#X connect 11 0 37 1;
#X connect 12 0 37 2;
#X connect 13 0 36 1;
#X connect 14 0 36 2;
#X connect 16 0 22 0;
#X connect 17 0 54 0;
#X connect 18 0 57 0;
#X connect 19 0 60 0;
#X connect 20 0 63 0;
#X connect 21 0 66 0;
#X connect 23 0 38 1;
#X connect 24 0 38 2;
#X connect 25 0 40 1;
#X connect 26 0 40 2;
#X connect 27 0 39 1;
#X connect 28 0 39 2;
#X connect 29 0 69 0;
#X connect 30 0 72 0;
#X connect 31 0 75 0;
#X connect 50 0 16 0;
#X connect 51 0 50 1;
#X connect 52 0 53 0;
#X connect 55 0 17 0;
#X connect 56 0 55 1;
#X connect 58 0 18 0;
#X connect 59 0 58 1;
#X connect 61 0 19 0;
#X connect 62 0 61 1;
#X connect 64 0 20 0;
#X connect 65 0 64 1;
#X connect 67 0 21 0;
#X connect 68 0 67 1;
#X connect 70 0 29 0;
#X connect 71 0 70 1;
#X connect 73 0 30 0;
#X connect 74 0 73 1;
#X connect 76 0 31 0;
#X connect 77 0 76 1;
#X connect 78 0 79 0;
#X connect 79 0 52 0;
#X connect 81 0 8 0;
#X connect 81 0 82 0;
#X connect 81 1 83 0;
#X connect 81 2 84 0;
#X connect 81 3 85 0;
#X connect 81 4 86 0;
#X connect 81 5 87 0;
#X connect 81 6 88 0;
#X connect 81 7 89 0;
#X connect 81 8 90 0;
#X connect 82 0 92 0;
#X connect 83 0 93 0;
#X connect 84 0 94 0;
#X connect 85 0 95 0;
#X connect 86 0 96 0;
#X connect 87 0 97 0;
#X connect 88 0 98 0;
#X connect 89 0 99 0;
#X connect 90 0 100 0;
#X connect 92 0 33 0;
#X connect 92 1 50 0;
#X connect 93 0 35 0;
#X connect 93 1 55 0;
#X connect 94 0 34 0;
#X connect 94 1 58 0;
#X connect 95 0 32 0;
#X connect 95 1 61 0;
#X connect 96 0 37 0;
#X connect 96 1 64 0;
#X connect 97 0 36 0;
#X connect 97 1 67 0;
#X connect 98 0 38 0;
#X connect 98 1 70 0;
#X connect 99 0 40 0;
#X connect 99 1 73 0;
#X connect 100 0 39 0;
#X connect 100 1 76 0;
#X coords 0 -1 1 1 1000 200 2 100 100;
#X restore 63 351 pd display_fsr;
#N canvas 273 208 1498 660 display_cs 0;
#X obj 41 -373 inlet;
#X floatatom 72 -48 5 0 0 0 scale - -, f 5;
#X floatatom 104 -22 5 0 0 0 offset - -, f 5;
#X floatatom 174 -45 5 0 0 0 scale - -, f 5;
#X floatatom 206 -19 5 0 0 0 offset - -, f 5;
#X obj 41 -192 iir 5, f 6;
#X floatatom 277 -45 5 0 0 0 scale - -, f 5;
#X floatatom 309 -19 5 0 0 0 offset - -, f 5;
#N canvas 1 116 450 300 beat-detect 0;
#X obj 143 87 t f f;
#X obj 145 117 -;
#X obj 145 137 max 0;
#X obj 145 176 max;
#X obj 184 177 f;
#X floatatom 145 198 5 0 0 0 - - -, f 5;
#X msg 188 135 0;
#X obj 188 114 bng 15 250 50 0 empty empty empty 17 7 0 10 -262144
-1 -1;
#X obj 143 64 inlet;
#X text 244 108 simple derivating;
#X text 132 220 threshold result to get beat attack;
#X connect 0 0 1 1;
#X connect 0 1 1 0;
#X connect 1 0 2 0;
#X connect 2 0 3 0;
#X connect 3 0 4 0;
#X connect 3 0 5 0;
#X connect 4 0 3 1;
#X connect 6 0 3 1;
#X connect 7 0 6 0;
#X connect 8 0 0 0;
#X restore -62 -174 pd beat-detect;
#X floatatom 379 -45 5 0 0 0 scale - -, f 5;
#X floatatom 411 -19 5 0 0 0 offset - -, f 5;
#X floatatom 482 -42 5 0 0 0 scale - -, f 5;
#X floatatom 514 -16 5 0 0 0 offset - -, f 5;
#X floatatom 584 -42 5 0 0 0 scale - -, f 5;
#X floatatom 616 -16 5 0 0 0 offset - -, f 5;
#X obj 143 -191 iir 5;
#X obj 246 -191 iir 5;
#X obj 451 -191 iir 5;
#X obj 553 -191 iir 5;
#X floatatom 553 -169 5 0 0 0 - - -, f 5;
#X floatatom 375 -308 5 0 0 0 - - -, f 5;
#X obj 375 -334 nbx 5 14 -1e+37 1e+37 0 1 empty empty empty 0 -8 0
10 -262144 -1 -1 5 256;
#X obj 123 -345 outlet;
#X obj 41 -345 routeOSC /cs;
#X floatatom 684 -42 5 0 0 0 scale - -, f 5;
#X floatatom 716 -16 5 0 0 0 offset - -, f 5;
#X obj 653 -191 iir 5;
#X obj 680 -211 r filter_coeff;
#X obj 455 -310 s filter_coeff;
#X floatatom 814 -42 5 0 0 0 scale - -, f 5;
#X floatatom 846 -16 5 0 0 0 offset - -, f 5;
#X obj 783 -191 iir 5;
#X obj 810 -211 r filter_coeff;
#X obj 275 -83 s cs_proc;
#X obj 41 2 gem_display;
#X floatatom 944 -42 5 0 0 0 scale - -, f 5;
#X floatatom 976 -16 5 0 0 0 offset - -, f 5;
#X obj 913 -191 iir 5;
#X floatatom 1014 102 5 0 0 0 - - -, f 5;
#X obj 940 -211 r filter_coeff;
#X obj 246 5 gem_display;
#X obj 143 5 gem_display;
#X obj 553 8 gem_display;
#X obj 451 8 gem_display;
#X obj 348 5 gem_display;
#X obj 653 8 gem_display;
#X obj 783 8 gem_display;
#X obj 913 8 gem_display;
#X obj 134 126 vsl 50 128 0 1 0 0 empty empty empty 0 -9 0 10 -262144
-1 -1 0 1;
#X obj 110 262 cnv 15 100 40 empty empty CS0 28 20 0 24 -233017 -66577
0;
#X obj 220 262 cnv 15 100 40 empty empty CS1 28 20 0 24 -233017 -66577
0;
#X obj 330 262 cnv 15 100 40 empty empty CS2 28 20 0 24 -233017 -66577
0;
#X obj 440 262 cnv 15 100 40 empty empty CS3 28 20 0 24 -233017 -66577
0;
#X obj 550 262 cnv 15 100 40 empty empty CS4 28 20 0 24 -233017 -66577
0;
#X obj 660 262 cnv 15 100 40 empty empty CS5 28 20 0 24 -233017 -66577
0;
#X obj 770 262 cnv 15 100 40 empty empty CS6 28 20 0 24 -233017 -66577
0;
#X obj 880 262 cnv 15 100 40 empty empty CS7 28 20 0 24 -233017 -66577
0;
#X obj 990 262 cnv 15 100 40 empty empty CS8 28 20 0 24 -233017 -66577
0;
#X obj 134 78 spigot;
#X obj 167 42 r \$0-gui;
#X obj 244 126 vsl 50 128 0 1 0 0 empty empty empty 0 -9 0 10 -262144
-1 -1 0 1;
#X obj 244 78 spigot;
#X obj 277 42 r \$0-gui;
#X obj 354 126 vsl 50 128 0 1 0 0 empty empty empty 0 -9 0 10 -262144
-1 -1 0 1;
#X obj 354 78 spigot;
#X obj 387 42 r \$0-gui;
#X obj 464 126 vsl 50 128 0 1 0 0 empty empty empty 0 -9 0 10 -262144
-1 -1 0 1;
#X obj 464 78 spigot;
#X obj 497 42 r \$0-gui;
#X obj 574 126 vsl 50 128 0 1 0 0 empty empty empty 0 -9 0 10 -262144
-1 -1 0 1;
#X obj 574 78 spigot;
#X obj 607 42 r \$0-gui;
#X obj 684 126 vsl 50 128 0 1 0 0 empty empty empty 0 -9 0 10 -262144
-1 -1 0 1;
#X obj 684 78 spigot;
#X obj 717 42 r \$0-gui;
#X obj 794 126 vsl 50 128 0 1 0 0 empty empty empty 0 -9 0 10 -262144
-1 -1 0 1;
#X obj 794 78 spigot;
#X obj 827 42 r \$0-gui;
#X obj 904 126 vsl 50 128 0 1 0 0 empty empty empty 0 -9 0 10 -262144
-1 -1 0 1;
#X obj 904 78 spigot;
#X obj 937 42 r \$0-gui;
#X obj 1014 126 vsl 50 128 0 1 0 0 empty empty empty 0 -9 0 10 -262144
-1 -1 0 1;
#X obj 1014 78 spigot;
#X obj 1047 42 r \$0-gui;
#X obj 613 -301 tgl 15 0 \$0-gui empty gui 17 7 0 10 -262144 -1 -1
0 1;
#X obj -149 -354 r \$0-display_cs;
#X obj -14 -264 unpack 0 0 0 0 0 0 0 0 0;
#X obj -75 -254 tgl 15 0 empty empty empty 17 7 0 10 -262144 -1 -1
0 1;
#X msg -149 -332 \$1 \$1 \$1 \$1 \$1 \$1 \$1 \$1 \$1;
#X obj 41 -232 routeOSC /0 /1 /2 /3 /4 /5 /6 /7 /8, f 160;
#X floatatom 904 102 5 0 0 0 - - -, f 5;
#X floatatom 794 102 5 0 0 0 - - -, f 5;
#X floatatom 684 102 5 0 0 0 - - -, f 5;
#X floatatom 574 102 5 0 0 0 - - -, f 5;
#X floatatom 464 102 5 0 0 0 - - -, f 5;
#X floatatom 354 102 5 0 0 0 - - -, f 5;
#X floatatom 244 102 5 0 0 0 - - -, f 5;
#X floatatom 134 102 5 0 0 0 - - -, f 5;
#X obj 275 -105 pack 0 0 0 0 0 0 0 0 0 0;
#X obj 348 -191 iir 5;
#X obj 41 -323 routeOSC /enable;
#X connect 0 0 23 0;
#X connect 1 0 34 1;
#X connect 2 0 34 2;
#X connect 3 0 41 1;
#X connect 4 0 41 2;
#X connect 5 0 58 0;
#X connect 5 0 98 0;
#X connect 5 0 34 0;
#X connect 6 0 40 1;
#X connect 7 0 40 2;
#X connect 9 0 44 1;
#X connect 10 0 44 2;
#X connect 11 0 43 1;
#X connect 12 0 43 2;
#X connect 13 0 42 1;
#X connect 14 0 42 2;
#X connect 15 0 61 0;
#X connect 15 0 98 1;
#X connect 15 0 41 0;
#X connect 16 0 64 0;
#X connect 16 0 98 2;
#X connect 16 0 40 0;
#X connect 17 0 70 0;
#X connect 17 0 98 4;
#X connect 17 0 43 0;
#X connect 18 0 19 0;
#X connect 18 0 73 0;
#X connect 18 0 98 6;
#X connect 19 0 42 0;
#X connect 20 0 5 1;
#X connect 20 0 15 1;
#X connect 20 0 16 1;
#X connect 20 0 17 1;
#X connect 20 0 18 1;
#X connect 20 0 99 1;
#X connect 21 0 20 0;
#X connect 21 0 28 0;
#X connect 23 0 100 0;
#X connect 23 1 22 0;
#X connect 24 0 45 1;
#X connect 25 0 45 2;
#X connect 26 0 76 0;
#X connect 26 0 98 7;
#X connect 26 0 45 0;
#X connect 27 0 26 1;
#X connect 29 0 46 1;
#X connect 30 0 46 2;
#X connect 31 0 79 0;
#X connect 31 0 46 0;
#X connect 31 0 98 8;
#X connect 32 0 31 1;
#X connect 35 0 47 1;
#X connect 36 0 47 2;
#X connect 37 0 82 0;
#X connect 37 0 47 0;
#X connect 37 0 98 9;
#X connect 38 0 81 0;
#X connect 39 0 37 1;
#X connect 58 0 97 0;
#X connect 59 0 58 1;
#X connect 61 0 96 0;
#X connect 62 0 61 1;
#X connect 64 0 95 0;
#X connect 65 0 64 1;
#X connect 67 0 94 0;
#X connect 68 0 67 1;
#X connect 70 0 93 0;
#X connect 71 0 70 1;
#X connect 73 0 92 0;
#X connect 74 0 73 1;
#X connect 76 0 91 0;
#X connect 77 0 76 1;
#X connect 79 0 90 0;
#X connect 80 0 79 1;
#X connect 82 0 38 0;
#X connect 83 0 82 1;
#X connect 85 0 87 0;
#X connect 85 0 88 0;
#X connect 86 0 34 3;
#X connect 86 1 41 3;
#X connect 86 2 40 3;
#X connect 86 3 44 3;
#X connect 86 4 43 3;
#X connect 86 5 42 3;
#X connect 86 6 45 3;
#X connect 86 7 46 3;
#X connect 86 8 47 3;
#X connect 88 0 86 0;
#X connect 89 0 8 0;
#X connect 89 0 5 0;
#X connect 89 1 15 0;
#X connect 89 2 16 0;
#X connect 89 3 99 0;
#X connect 89 4 17 0;
#X connect 89 5 19 0;
#X connect 89 6 26 0;
#X connect 89 7 31 0;
#X connect 89 8 37 0;
#X connect 90 0 78 0;
#X connect 91 0 75 0;
#X connect 92 0 72 0;
#X connect 93 0 69 0;
#X connect 94 0 66 0;
#X connect 95 0 63 0;
#X connect 96 0 60 0;
#X connect 97 0 48 0;
#X connect 98 0 33 0;
#X connect 99 0 67 0;
#X connect 99 0 98 3;
#X connect 99 0 44 0;
#X connect 100 0 86 0;
#X connect 100 1 89 0;
#X coords 0 -1 1 1 1000 200 2 100 100;
#X restore 63 139 pd display_cs;
#X floatatom 25 632 5 0 0 1 ms - -, f 5;
#X obj 63 582 routeOSC /s/t;
#X obj 150 10 loadbang;
#X obj 150 32 symbol \$1;
#X msg 150 54 set \$1;
#X obj 138 602 print other_messages_\$1;
#X obj 77 636 outlet;
#X obj 63 32 r OSCdispatch;
#X obj 239 31 cnv 15 140 50 empty \$0-boardName /b00 10 24 0 48 -233017
-66577 0;
#X obj 399 14 loadbang;
#X obj 399 36 symbol \$1;
#X msg 399 58 label \$1;
#X obj 399 80 s \$0-boardName;
#X obj 455 14 bng 15 250 50 0 empty empty empty 17 7 0 10 -262144 -1
-1;
#X obj 602 26 tgl 15 0 \$0-display_cs empty display_cs 17 7 0 10 -262144
-1 -1 0 1;
#X obj 63 105 routeOSC /open;
#X obj 504 590 tgl 15 0 empty empty empty 17 7 0 10 -262144 -1 -1 0
1;
#X obj 63 82 routeOSC /*;
#X obj 471 568 routeOSC /s/t;
#X obj 210 8 bng 15 250 50 0 empty empty empty 17 7 0 10 -262144 -1
-1;
#X obj 471 608 spigot;
#X obj 471 628 print mon-\$1;
#X obj 63 603 iir 5;
#X floatatom 99 601 5 0 0 0 - - -, f 5;
#X connect 0 0 3 0;
#X connect 1 0 0 0;
#X connect 3 0 24 0;
#X connect 3 1 7 0;
#X connect 4 0 5 0;
#X connect 5 0 6 0;
#X connect 6 0 19 0;
#X connect 9 0 19 0;
#X connect 11 0 12 0;
#X connect 12 0 13 0;
#X connect 13 0 14 0;
#X connect 15 0 12 0;
#X connect 17 0 16 0;
#X connect 17 1 1 0;
#X connect 18 0 22 1;
#X connect 19 0 17 0;
#X connect 19 0 20 0;
#X connect 20 1 22 0;
#X connect 21 0 5 0;
#X connect 22 0 23 0;
#X connect 24 0 2 0;
#X connect 24 0 8 0;
#X connect 25 0 24 1;
