#N canvas 1230 141 674 536 10;
#X declare -path ../bin;
#X obj 229 358 s to-all-arduino;
#X obj 229 332 packOSCstream;
#X obj 195 103 tgl 15 0 empty \$0-cs_on-in empty 17 7 0 10 -262144
-1 -1 1 1;
#X msg 234 226 [;
#X msg 195 226 ];
#X obj 195 202 t b a b;
#X obj 123 104 tgl 15 0 empty \$0-fsr_on-in empty 17 7 0 10 -262144
-1 -1 0 1;
#X msg 123 124 /fsr/on \$1;
#X msg 195 124 /cs/on \$1;
#X floatatom 260 87 5 0 0 0 - #0-cs_sensibility-in -, f 5;
#X msg 260 124 /cs/sensibility \$1;
#X msg 501 199 /s/del \$1;
#X floatatom 501 162 5 0 0 0 - #0-del-in -, f 5;
#X obj 501 179 speedlim 200;
#X obj 260 104 speedlim 200;
#X floatatom 378 87 5 0 0 0 - #0-cs_autocal-in -, f 5;
#X obj 378 104 speedlim 200;
#X msg 378 124 /cs/autocal \$1;
#X msg 347 213 /cs/autocal;
#X msg 122 148 /s;
#X floatatom 475 86 5 0 0 0 - #0-cs_timeout-in -, f 5;
#X obj 475 103 speedlim 200;
#X msg 475 123 /cs/timeout \$1;
#X obj 339 40 tgl 15 0 empty \$0-cs_0-in empty 17 7 0 10 -262144 -1
-1 255 255;
#X obj 354 40 tgl 15 0 empty \$0-cs_1-in empty 17 7 0 10 -262144 -1
-1 255 255;
#X obj 369 40 tgl 15 0 empty \$0-cs_2-in empty 17 7 0 10 -262144 -1
-1 255 255;
#X obj 384 40 tgl 15 0 empty \$0-cs_3-in empty 17 7 0 10 -262144 -1
-1 255 255;
#X obj 399 40 tgl 15 0 empty \$0-cs_4-in empty 17 7 0 10 -262144 -1
-1 255 255;
#X obj 414 40 tgl 15 0 empty \$0-cs_5-in empty 17 7 0 10 -262144 -1
-1 255 255;
#X obj 429 40 tgl 15 0 empty \$0-cs_6-in empty 17 7 0 10 -262144 -1
-1 255 255;
#X obj 444 40 tgl 15 0 empty \$0-cs_7-in empty 17 7 0 10 -262144 -1
-1 255 255;
#X obj 459 40 tgl 15 0 empty \$0-cs_8-in empty 17 7 0 10 -262144 -1
-1 1 1;
#N canvas 1 115 537 300 cs_enable 0;
#X obj 97 162 pack 0 0 0 0 0 0 0 0 0, f 54;
#X obj 110 103 t b f;
#X obj 71 65 inlet;
#X obj 110 65 inlet;
#X obj 150 103 t b f;
#X obj 150 65 inlet;
#X obj 190 103 t b f;
#X obj 190 65 inlet;
#X obj 230 103 t b f;
#X obj 230 65 inlet;
#X obj 270 103 t b f;
#X obj 270 65 inlet;
#X obj 310 103 t b f;
#X obj 310 65 inlet;
#X obj 350 103 t b f;
#X obj 350 65 inlet;
#X obj 390 103 t b f;
#X obj 390 65 inlet;
#X obj 97 206 list trim;
#X obj 97 248 outlet, f 21;
#X obj 97 184 list prepend /cs/enable;
#X obj 31 65 inlet;
#X obj 31 87 t b;
#X msg 31 109 /cs/enable;
#X obj 97 228 spigot 1;
#X obj 159 206 r cs_gate;
#X connect 0 0 20 0;
#X connect 1 0 0 0;
#X connect 1 1 0 1;
#X connect 2 0 0 0;
#X connect 3 0 1 0;
#X connect 4 0 0 0;
#X connect 4 1 0 2;
#X connect 5 0 4 0;
#X connect 6 0 0 0;
#X connect 6 1 0 3;
#X connect 7 0 6 0;
#X connect 8 0 0 0;
#X connect 8 1 0 4;
#X connect 9 0 8 0;
#X connect 10 0 0 0;
#X connect 10 1 0 5;
#X connect 11 0 10 0;
#X connect 12 0 0 0;
#X connect 12 1 0 6;
#X connect 13 0 12 0;
#X connect 14 0 0 0;
#X connect 14 1 0 7;
#X connect 15 0 14 0;
#X connect 16 0 0 0;
#X connect 16 1 0 8;
#X connect 17 0 16 0;
#X connect 18 0 24 0;
#X connect 20 0 18 0;
#X connect 21 0 22 0;
#X connect 22 0 23 0;
#X connect 23 0 19 0;
#X connect 24 0 19 0;
#X connect 25 0 24 1;
#X restore 339 59 pd cs_enable;
#X obj 84 24 declare -path ../bin;
#N canvas 1 105 450 481 prepend 0;
#X obj 176 73 inlet;
#X obj 176 197 makefilename;
#X obj 191 130 loadbang;
#X obj 191 152 \$1;
#X obj 176 93 list split 1;
#X obj 176 217 list append;
#X msg 191 177 set /b0\$1%s;
#X floatatom 216 152 5 0 0 0 - - -, f 5;
#X obj 176 257 outlet;
#X obj 176 237 list trim;
#X connect 0 0 4 0;
#X connect 1 0 5 0;
#X connect 2 0 3 0;
#X connect 3 0 6 0;
#X connect 4 0 1 0;
#X connect 4 1 5 1;
#X connect 5 0 9 0;
#X connect 6 0 1 0;
#X connect 7 0 6 0;
#X connect 9 0 8 0;
#X restore 215 268 pd prepend board id;
#X obj 364 306 spigot;
#X obj 364 328 print /b0\$1;
#X obj 397 285 tgl 15 0 empty empty monitor 17 7 0 10 -262144 -1 -1
0 1;
#X obj 193 438 cnv 15 140 50 empty \$0-boardName /b00 10 24 0 48 -233017
-66577 0;
#X obj 384 420 loadbang;
#X obj 384 486 s \$0-boardName;
#X obj 440 420 bng 15 250 50 0 empty empty empty 17 7 0 10 -262144
-1 -1;
#X obj 384 442 \$1;
#X msg 384 464 label /b0\$1;
#X obj 57 52 tgl 15 0 empty \$0-fsr_0-in empty 17 7 0 10 -262144 -1
-1 255 255;
#X obj 72 52 tgl 15 0 empty \$0-fsr_1-in empty 17 7 0 10 -262144 -1
-1 255 255;
#X obj 87 52 tgl 15 0 empty \$0-fsr_2-in empty 17 7 0 10 -262144 -1
-1 255 255;
#X obj 102 52 tgl 15 0 empty \$0-fsr_3-in empty 17 7 0 10 -262144 -1
-1 255 255;
#X obj 117 52 tgl 15 0 empty \$0-fsr_4-in empty 17 7 0 10 -262144 -1
-1 255 255;
#X obj 132 52 tgl 15 0 empty \$0-fsr_5-in empty 17 7 0 10 -262144 -1
-1 255 255;
#X obj 147 52 tgl 15 0 empty \$0-fsr_6-in empty 17 7 0 10 -262144 -1
-1 255 255;
#X obj 162 52 tgl 15 0 empty \$0-fsr_7-in empty 17 7 0 10 -262144 -1
-1 255 255;
#X obj 177 52 tgl 15 0 empty \$0-fsr_8-in empty 17 7 0 10 -262144 -1
-1 255 255;
#N canvas 1 160 537 300 fsr_enable 0;
#X obj 110 103 t b f;
#X obj 71 65 inlet;
#X obj 110 65 inlet;
#X obj 150 103 t b f;
#X obj 150 65 inlet;
#X obj 190 103 t b f;
#X obj 190 65 inlet;
#X obj 230 103 t b f;
#X obj 230 65 inlet;
#X obj 270 103 t b f;
#X obj 270 65 inlet;
#X obj 310 103 t b f;
#X obj 310 65 inlet;
#X obj 350 103 t b f;
#X obj 350 65 inlet;
#X obj 390 103 t b f;
#X obj 390 65 inlet;
#X obj 97 206 list trim;
#X obj 97 162 pack 0 0 0 0 0 0 0 0 0, f 54;
#X obj 97 184 list prepend /fsr/enable;
#X obj 97 268 outlet, f 21;
#X obj 97 248 spigot 1;
#X obj 142 226 r fsr_gate;
#X obj 22 65 inlet;
#X obj 22 87 t b;
#X msg 22 109 /fsr/enable;
#X connect 0 0 18 0;
#X connect 0 1 18 1;
#X connect 1 0 18 0;
#X connect 2 0 0 0;
#X connect 3 0 18 0;
#X connect 3 1 18 2;
#X connect 4 0 3 0;
#X connect 5 0 18 0;
#X connect 5 1 18 3;
#X connect 6 0 5 0;
#X connect 7 0 18 0;
#X connect 7 1 18 4;
#X connect 8 0 7 0;
#X connect 9 0 18 0;
#X connect 9 1 18 5;
#X connect 10 0 9 0;
#X connect 11 0 18 0;
#X connect 11 1 18 6;
#X connect 12 0 11 0;
#X connect 13 0 18 0;
#X connect 13 1 18 7;
#X connect 14 0 13 0;
#X connect 15 0 18 0;
#X connect 15 1 18 8;
#X connect 16 0 15 0;
#X connect 17 0 21 0;
#X connect 18 0 19 0;
#X connect 19 0 17 0;
#X connect 21 0 20 0;
#X connect 22 0 21 1;
#X connect 23 0 24 0;
#X connect 24 0 25 0;
#X connect 25 0 20 0;
#X restore 57 71 pd fsr_enable;
#X msg 343 180 /s/save;
#X msg 340 151 /s/load;
#N canvas 232 482 1445 500 receiveOSC 0;
#X obj 130 33 loadbang;
#X obj 130 55 \$1;
#X msg 130 77 set /b0\$1;
#X obj 120 11 r OSCdispatch;
#X msg 355 141 set \$1;
#N canvas 1 90 450 300 list-iter 0;
#X obj 150 65 inlet;
#X obj 150 93 list split 1;
#X obj 150 115 t b a;
#X obj 199 143 list;
#X obj 177 192 outlet;
#X connect 0 0 1 0;
#X connect 1 0 2 0;
#X connect 1 1 3 1;
#X connect 2 0 3 0;
#X connect 2 1 4 0;
#X connect 3 0 1 0;
#X restore 169 310 pd list-iter;
#X obj 169 290 t a b;
#X obj 169 461 send;
#X obj 251 363 f;
#X obj 276 363 + 1;
#X msg 266 343 0;
#X obj 169 332 t a b b;
#X obj 216 364 \$0;
#X obj 216 385 pack 0 0;
#X msg 216 407 \$1-fsr_\$2-in;
#X obj 120 99 routeOSC /*;
#X obj 155 55 bng 15 250 50 0 empty empty empty 17 7 0 10 -262144 -1
-1;
#X obj 216 429 symbol;
#X msg 422 144 set \$1;
#N canvas 1 90 450 300 list-iter 0;
#X obj 150 65 inlet;
#X obj 150 93 list split 1;
#X obj 150 115 t b a;
#X obj 199 143 list;
#X obj 177 192 outlet;
#X connect 0 0 1 0;
#X connect 1 0 2 0;
#X connect 1 1 3 1;
#X connect 2 0 3 0;
#X connect 2 1 4 0;
#X connect 3 0 1 0;
#X restore 369 310 pd list-iter;
#X obj 369 290 t a b;
#X obj 369 461 send;
#X obj 451 363 f;
#X obj 476 363 + 1;
#X msg 466 343 0;
#X obj 369 332 t a b b;
#X obj 416 364 \$0;
#X obj 416 385 pack 0 0;
#X obj 416 429 symbol;
#X msg 416 407 \$1-cs_\$2-in;
#X obj 422 165 s \$0-cs_on-in;
#X obj 355 192 s \$0-fsr_on-in;
#X obj 120 121 routeOSC /fsr/enable /cs/enable;
#X obj 355 118 routeOSC /fsr/on /cs/on /open;
#X obj 517 147 sel 1;
#X obj 540 173 s \$0-load_in;
#X obj 568 107 loadbang;
#X obj 568 129 del 1000;
#X obj 696 116 routeOSC /cs/sensibility /cs/timeout /cs/autocal;
#X obj 696 138 s \$0-cs_sensibility-in;
#X obj 791 160 s \$0-cs_timeout-in;
#X obj 886 180 s \$0-cs_autocal-in;
#X obj 120 186 t b a b;
#X obj 41 308 s fsr_gate;
#X msg 41 272 1;
#X msg 75 273 0;
#X obj 371 250 t b a b;
#X msg 502 289 1;
#X msg 536 290 0;
#X obj 502 325 s cs_gate;
#X obj 1064 118 routeOSC /s/del;
#X obj 1064 144 s \$0-del-in;
#X connect 0 0 1 0;
#X connect 1 0 2 0;
#X connect 2 0 15 0;
#X connect 3 0 15 0;
#X connect 4 0 31 0;
#X connect 5 0 11 0;
#X connect 6 0 5 0;
#X connect 6 1 10 0;
#X connect 8 0 9 0;
#X connect 8 0 13 1;
#X connect 9 0 8 1;
#X connect 10 0 8 1;
#X connect 11 0 7 0;
#X connect 11 1 12 0;
#X connect 11 2 8 0;
#X connect 12 0 13 0;
#X connect 13 0 14 0;
#X connect 14 0 17 0;
#X connect 15 0 32 0;
#X connect 16 0 1 0;
#X connect 17 0 7 1;
#X connect 18 0 30 0;
#X connect 19 0 25 0;
#X connect 20 0 19 0;
#X connect 20 1 24 0;
#X connect 22 0 23 0;
#X connect 22 0 27 1;
#X connect 23 0 22 1;
#X connect 24 0 22 1;
#X connect 25 0 21 0;
#X connect 25 1 26 0;
#X connect 25 2 22 0;
#X connect 26 0 27 0;
#X connect 27 0 29 0;
#X connect 28 0 21 1;
#X connect 29 0 28 0;
#X connect 32 0 42 0;
#X connect 32 1 46 0;
#X connect 32 2 33 0;
#X connect 33 0 4 0;
#X connect 33 1 18 0;
#X connect 33 2 34 0;
#X connect 33 3 38 0;
#X connect 34 0 35 0;
#X connect 36 0 37 0;
#X connect 37 0 35 0;
#X connect 38 0 39 0;
#X connect 38 1 40 0;
#X connect 38 2 41 0;
#X connect 38 3 50 0;
#X connect 42 0 44 0;
#X connect 42 1 6 0;
#X connect 42 2 45 0;
#X connect 44 0 43 0;
#X connect 45 0 43 0;
#X connect 46 0 47 0;
#X connect 46 1 20 0;
#X connect 46 2 48 0;
#X connect 47 0 49 0;
#X connect 48 0 49 0;
#X connect 50 0 51 0;
#X restore 535 282 pd receiveOSC;
#X obj 322 59 bng 15 250 50 0 empty empty empty 17 7 0 10 -262144 -1
-1;
#X obj 34 72 bng 15 250 50 0 empty empty empty 17 7 0 10 -262144 -1
-1;
#X obj 397 155 bng 15 250 50 0 empty \$0-load_in empty 17 7 0 10 -262144
-1 -1;
#X msg 411 179 /cs/reset;
#X msg 379 239 /s/getParams;
#X obj 518 357 s \$0-cs_timeout-in;
#X msg 515 329 set \$1;
#X floatatom 514 311 5 0 0 0 - - -, f 5;
#X connect 1 0 0 0;
#X connect 2 0 8 0;
#X connect 3 0 1 0;
#X connect 4 0 1 0;
#X connect 5 0 4 0;
#X connect 5 1 34 0;
#X connect 5 2 3 0;
#X connect 6 0 7 0;
#X connect 7 0 5 0;
#X connect 8 0 5 0;
#X connect 9 0 14 0;
#X connect 10 0 5 0;
#X connect 11 0 5 0;
#X connect 12 0 13 0;
#X connect 13 0 11 0;
#X connect 14 0 10 0;
#X connect 15 0 16 0;
#X connect 16 0 17 0;
#X connect 17 0 5 0;
#X connect 18 0 5 0;
#X connect 19 0 5 0;
#X connect 20 0 21 0;
#X connect 21 0 22 0;
#X connect 22 0 5 0;
#X connect 23 0 32 1;
#X connect 24 0 32 2;
#X connect 25 0 32 3;
#X connect 26 0 32 4;
#X connect 27 0 32 5;
#X connect 28 0 32 6;
#X connect 29 0 32 7;
#X connect 30 0 32 8;
#X connect 31 0 32 9;
#X connect 32 0 5 0;
#X connect 34 0 1 0;
#X connect 34 0 35 0;
#X connect 35 0 36 0;
#X connect 37 0 35 1;
#X connect 39 0 42 0;
#X connect 41 0 42 0;
#X connect 42 0 43 0;
#X connect 43 0 40 0;
#X connect 44 0 53 1;
#X connect 45 0 53 2;
#X connect 46 0 53 3;
#X connect 47 0 53 4;
#X connect 48 0 53 5;
#X connect 49 0 53 6;
#X connect 50 0 53 7;
#X connect 51 0 53 8;
#X connect 52 0 53 9;
#X connect 53 0 5 0;
#X connect 54 0 5 0;
#X connect 55 0 5 0;
#X connect 57 0 32 0;
#X connect 58 0 53 0;
#X connect 59 0 55 0;
#X connect 60 0 5 0;
#X connect 61 0 5 0;
#X connect 63 0 62 0;
#X connect 64 0 63 0;
