#N canvas 674 169 1095 656 10;
#X declare -path ../av;
#X declare -path ../av;
#X declare -path ../av;
#X declare -path ../av;
#X declare -path ../av;
#X declare -path ../av;
#X declare -path ../av;
#X declare -path ../av;
#X declare -path ../av;
#X declare -path ../av;
#X declare -path ../av;
#X declare -path ../av;
#X declare -path ../av;
#X declare -path ../av;
#X declare -path ../av;
#X declare -path ../av;
#X declare -path ../av;
#X declare -path ../av;
#X declare -path ../puremapping;
#X declare -path ../puremapping;
#X declare -path ../puremapping;
#X declare -path ../puremapping;
#X declare -path ../puremapping;
#X declare -path ../puremapping;
#X declare -path ../puremapping;
#X declare -path ../puremapping;
#X declare -path ../puremapping;
#X declare -path ../puremapping;
#X declare -path ../puremapping;
#X declare -path ../puremapping;
#X declare -path ../av;
#X declare -path ../av;
#X declare -path ../av;
#X declare -path ../av;
#X declare -path ../av;
#X declare -path ../av;
#X declare -path ../av;
#X declare -path ../av;
#X declare -path ../av;
#X declare -path ../av;
#X declare -path ../av;
#X declare -path ../av;
#X declare -path ../av;
#X declare -path ../av;
#X declare -path ../av;
#X declare -path ../av;
#X declare -path ../av;
#X declare -path ../av;
#X declare -path ../puremapping -path ../av;
#X declare -path ../puremapping -path ../av;
#X declare -path ../puremapping -path ../av;
#X declare -path ../puremapping -path ../av;
#X declare -path ../puremapping -path ../av;
#X declare -path ../puremapping -path ../av;
#X declare -path ../puremapping -path ../av;
#X declare -path ../puremapping -path ../av;
#X declare -path ../puremapping -path ../av;
#N canvas 264 348 1469 655 display_fsr 0;
#X obj 110 -308 inlet;
#X obj 110 -280 routeOSC /fsr;
#X floatatom 141 -86 5 0 0 0 scale - -, f 5;
#X floatatom 173 -60 5 0 0 0 offset - -, f 5;
#X floatatom 243 -83 5 0 0 0 scale - -, f 5;
#X floatatom 275 -57 5 0 0 0 offset - -, f 5;
#X floatatom 345 -83 5 0 0 0 scale - -, f 5;
#X floatatom 377 -57 5 0 0 0 offset - -, f 5;
#N canvas 1 115 450 300 beat-detect 0;
#X obj 143 87 t f f;
#X obj 145 117 -;
#X obj 145 137 max 0;
#X obj 145 176 max;
#X obj 184 177 f;
#X floatatom 145 198 5 0 0 0 - - -, f 5;
#X msg 188 135 0;
#X obj 188 114 bng 15 250 50 0 empty empty empty 17 7 0 10 -262144
-1 -1;
#X obj 143 64 inlet;
#X text 244 108 simple derivating;
#X text 132 220 threshold result to get beat attack;
#X connect 0 0 1 1;
#X connect 0 1 1 0;
#X connect 1 0 2 0;
#X connect 2 0 3 0;
#X connect 3 0 4 0;
#X connect 3 0 5 0;
#X connect 4 0 3 1;
#X connect 6 0 3 1;
#X connect 7 0 6 0;
#X connect 8 0 0 0;
#X restore 7 -89 pd beat-detect;
#X floatatom 448 -83 5 0 0 0 scale - -, f 5;
#X floatatom 480 -57 5 0 0 0 offset - -, f 5;
#X floatatom 550 -80 5 0 0 0 scale - -, f 5;
#X floatatom 582 -54 5 0 0 0 offset - -, f 5;
#X floatatom 652 -80 5 0 0 0 scale - -, f 5;
#X floatatom 684 -54 5 0 0 0 offset - -, f 5;
#X obj 193 -255 outlet;
#X floatatom 138 103 5 0 0 0 - - -, f 5;
#X floatatom 248 103 5 0 0 0 - - -, f 5;
#X floatatom 358 103 5 0 0 0 - - -, f 5;
#X floatatom 468 103 5 0 0 0 - - -, f 5;
#X floatatom 578 103 5 0 0 0 - - -, f 5;
#X floatatom 688 103 5 0 0 0 - - -, f 5;
#X obj 138 122 vsl 50 128 0 1 0 0 empty empty empty 0 -9 0 10 -262144
-1 -1 31 1;
#X floatatom 755 -83 5 0 0 0 scale - -, f 5;
#X floatatom 787 -57 5 0 0 0 offset - -, f 5;
#X floatatom 857 -80 5 0 0 0 scale - -, f 5;
#X floatatom 889 -54 5 0 0 0 offset - -, f 5;
#X floatatom 959 -80 5 0 0 0 scale - -, f 5;
#X floatatom 991 -54 5 0 0 0 offset - -, f 5;
#X floatatom 798 103 5 0 0 0 - - -, f 5;
#X floatatom 908 103 5 0 0 0 - - -, f 5;
#X floatatom 1018 103 5 0 0 0 - - -, f 5;
#X obj 417 -33 gem_display;
#X obj 110 -36 gem_display;
#X obj 314 -33 gem_display;
#X obj 212 -33 gem_display;
#X obj 621 -30 gem_display;
#X obj 519 -30 gem_display;
#X obj 724 -33 gem_display;
#X obj 928 -30 gem_display;
#X obj 826 -30 gem_display;
#X obj 114 258 cnv 15 100 40 empty empty FSR0 22 20 0 24 -233017 -66577
0;
#X obj 224 258 cnv 15 100 40 empty empty FSR1 22 20 0 24 -233017 -66577
0;
#X obj 334 258 cnv 15 100 40 empty empty FSR2 22 20 0 24 -233017 -66577
0;
#X obj 444 258 cnv 15 100 40 empty empty FSR3 22 20 0 24 -233017 -66577
0;
#X obj 554 258 cnv 15 100 40 empty empty FSR4 22 20 0 24 -233017 -66577
0;
#X obj 664 258 cnv 15 100 40 empty empty FSR5 22 20 0 24 -233017 -66577
0;
#X obj 774 258 cnv 15 100 40 empty empty FSR6 22 20 0 24 -233017 -66577
0;
#X obj 884 258 cnv 15 100 40 empty empty FSR7 22 20 0 24 -233017 -66577
0;
#X obj 994 258 cnv 15 100 40 empty empty FSR8 22 20 0 24 -233017 -66577
0;
#X obj 138 64 spigot;
#X obj 171 28 r \$0-gui;
#X obj 1129 -117 tgl 15 0 empty empty empty 17 7 0 10 -262144 -1 -1
1 1;
#X obj 1129 -97 s \$0-gui;
#X obj 248 122 vsl 50 128 0 1 0 0 empty empty empty 0 -9 0 10 -262144
-1 -1 14 1;
#X obj 248 64 spigot;
#X obj 281 28 r \$0-gui;
#X obj 358 122 vsl 50 128 0 1 0 0 empty empty empty 0 -9 0 10 -262144
-1 -1 0 1;
#X obj 358 64 spigot;
#X obj 391 28 r \$0-gui;
#X obj 468 122 vsl 50 128 0 1 0 0 empty empty empty 0 -9 0 10 -262144
-1 -1 0 1;
#X obj 468 64 spigot;
#X obj 501 28 r \$0-gui;
#X obj 578 122 vsl 50 128 0 1 0 0 empty empty empty 0 -9 0 10 -262144
-1 -1 7 1;
#X obj 578 64 spigot;
#X obj 611 28 r \$0-gui;
#X obj 688 122 vsl 50 128 0 1 0 0 empty empty empty 0 -9 0 10 -262144
-1 -1 0 1;
#X obj 688 64 spigot;
#X obj 721 28 r \$0-gui;
#X obj 798 122 vsl 50 128 0 1 0 0 empty empty empty 0 -9 0 10 -262144
-1 -1 43 1;
#X obj 798 64 spigot;
#X obj 831 28 r \$0-gui;
#X obj 908 122 vsl 50 128 0 1 0 0 empty empty empty 0 -9 0 10 -262144
-1 -1 17 1;
#X obj 908 64 spigot;
#X obj 941 28 r \$0-gui;
#X obj 1018 122 vsl 50 128 0 1 0 0 empty empty empty 0 -9 0 10 -262144
-1 -1 0 1;
#X obj 1018 64 spigot;
#X obj 1051 28 r \$0-gui;
#X obj 1129 -160 loadbang;
#X msg 1129 -138 1;
#X obj 252 -255 routeOSC /0 /1 /2 /3 /4 /5 /6 /7 /8, f 154;
#X obj 111 -227 unpack 0 0 0 0 0 0 0 0 0, f 154;
#X obj 111 -170 t a a;
#X obj 214 -167 t a a;
#X obj 334 -167 t a a;
#X obj 454 -167 t a a;
#X obj 574 -167 t a a;
#X obj 683 -167 t a a;
#X obj 794 -167 t a a;
#X obj 914 -167 t a a;
#X obj 1024 -167 t a a;
#X obj 110 -254 routeOSC /*;
#X obj -39 76 list prepend;
#X obj -39 96 list trim;
#X obj 30 10 loadbang;
#X obj 30 32 symbol \$1;
#X obj 90 8 bng 15 250 50 0 empty empty empty 17 7 0 10 -262144 -1
-1;
#X obj -39 116 s sendOSC;
#X obj 85 -134 pack 0 0 0 0 0 0 0 0 0, f 154;
#X msg 30 54 \$1/fsr;
#X obj 593 -315 nbx 5 14 -1e+37 1e+37 0 1 empty empty empty 0 -8 0
10 -262144 -1 -1 1000 256;
#X obj 593 -295 s \$1-fsr_hp_filter_freq;
#X obj 448 -298 s \$1-cs_filter_reset;
#X obj 448 -348 bng 15 250 50 0 empty empty reset_filter 17 7 0 10
-262144 -1 -1;
#X obj 15 -170 fsr_filter \$1;
#X obj 111 -192 fsr_filter \$1;
#X obj 214 -189 fsr_filter \$1;
#X obj 334 -189 fsr_filter \$1;
#X obj 454 -189 fsr_filter \$1;
#X obj 574 -189 fsr_filter \$1;
#X obj 683 -189 fsr_filter \$1;
#X obj 794 -189 fsr_filter \$1;
#X obj 15 -170 fsr_filter \$1;
#X obj 15 -170 fsr_filter \$1;
#X obj 914 -189 fsr_filter \$1;
#X obj 1024 -189 fsr_filter \$1;
#X obj 448 -328 t b b;
#X connect 0 0 1 0;
#X connect 1 0 91 0;
#X connect 1 1 15 0;
#X connect 16 0 22 0;
#X connect 17 0 54 0;
#X connect 18 0 57 0;
#X connect 19 0 60 0;
#X connect 20 0 63 0;
#X connect 21 0 66 0;
#X connect 29 0 69 0;
#X connect 30 0 72 0;
#X connect 31 0 75 0;
#X connect 50 0 16 0;
#X connect 51 0 50 1;
#X connect 52 0 53 0;
#X connect 55 0 17 0;
#X connect 56 0 55 1;
#X connect 58 0 18 0;
#X connect 59 0 58 1;
#X connect 61 0 19 0;
#X connect 62 0 61 1;
#X connect 64 0 20 0;
#X connect 65 0 64 1;
#X connect 67 0 21 0;
#X connect 68 0 67 1;
#X connect 70 0 29 0;
#X connect 71 0 70 1;
#X connect 73 0 30 0;
#X connect 74 0 73 1;
#X connect 76 0 31 0;
#X connect 77 0 76 1;
#X connect 78 0 79 0;
#X connect 79 0 52 0;
#X connect 81 0 105 0;
#X connect 81 1 106 0;
#X connect 81 2 107 0;
#X connect 81 3 108 0;
#X connect 81 4 109 0;
#X connect 81 5 110 0;
#X connect 81 6 111 0;
#X connect 81 7 114 0;
#X connect 81 8 115 0;
#X connect 82 0 98 0;
#X connect 82 1 50 0;
#X connect 83 0 98 1;
#X connect 83 1 55 0;
#X connect 84 0 98 2;
#X connect 84 1 58 0;
#X connect 85 0 98 3;
#X connect 85 1 61 0;
#X connect 86 0 98 4;
#X connect 86 1 64 0;
#X connect 87 0 98 5;
#X connect 87 1 67 0;
#X connect 88 0 98 6;
#X connect 88 1 70 0;
#X connect 89 0 98 7;
#X connect 89 1 73 0;
#X connect 90 0 98 8;
#X connect 90 1 76 0;
#X connect 91 1 81 0;
#X connect 92 0 93 0;
#X connect 93 0 97 0;
#X connect 94 0 95 0;
#X connect 95 0 99 0;
#X connect 96 0 95 0;
#X connect 98 0 92 0;
#X connect 99 0 92 1;
#X connect 100 0 101 0;
#X connect 103 0 116 0;
#X connect 105 0 82 0;
#X connect 106 0 83 0;
#X connect 107 0 84 0;
#X connect 108 0 85 0;
#X connect 109 0 86 0;
#X connect 110 0 87 0;
#X connect 111 0 88 0;
#X connect 114 0 89 0;
#X connect 115 0 90 0;
#X connect 116 0 102 0;
#X connect 116 1 100 0;
#X coords 0 -1 1 1 1000 205 2 100 100;
#X restore 63 351 pd display_fsr;
#N canvas 423 172 1498 873 display_cs 0;
#X obj 71 -363 inlet;
#X floatatom 160 -84 5 0 0 0 scale - -, f 5;
#X floatatom 192 -58 5 0 0 0 offset - -, f 5;
#X floatatom 262 -81 5 0 0 0 scale - -, f 5;
#X floatatom 294 -55 5 0 0 0 offset - -, f 5;
#X floatatom 365 -81 5 0 0 0 scale - -, f 5;
#X floatatom 397 -55 5 0 0 0 offset - -, f 5;
#N canvas 1 116 450 300 beat-detect 0;
#X obj 143 87 t f f;
#X obj 145 117 -;
#X obj 145 137 max 0;
#X obj 145 176 max;
#X obj 184 177 f;
#X floatatom 145 198 5 0 0 0 - - -, f 5;
#X msg 188 135 0;
#X obj 188 114 bng 15 250 50 0 empty empty empty 17 7 0 10 -262144
-1 -1;
#X obj 143 64 inlet;
#X text 244 108 simple derivating;
#X text 132 220 threshold result to get beat attack;
#X connect 0 0 1 1;
#X connect 0 1 1 0;
#X connect 1 0 2 0;
#X connect 2 0 3 0;
#X connect 3 0 4 0;
#X connect 3 0 5 0;
#X connect 4 0 3 1;
#X connect 6 0 3 1;
#X connect 7 0 6 0;
#X connect 8 0 0 0;
#X restore -115 -125 pd beat-detect;
#X floatatom 467 -81 5 0 0 0 scale - -, f 5;
#X floatatom 499 -55 5 0 0 0 offset - -, f 5;
#X floatatom 570 -78 5 0 0 0 scale - -, f 5;
#X floatatom 602 -52 5 0 0 0 offset - -, f 5;
#X floatatom 672 -78 5 0 0 0 scale - -, f 5;
#X floatatom 704 -52 5 0 0 0 offset - -, f 5;
#X obj 609 -325 nbx 5 14 -1e+37 1e+37 0 1 empty empty empty 0 -8 0
10 -262144 -1 -1 1000 256;
#X obj 153 -335 outlet;
#X obj 71 -335 routeOSC /cs;
#X floatatom 772 -78 5 0 0 0 scale - -, f 5;
#X floatatom 804 -52 5 0 0 0 offset - -, f 5;
#X floatatom 902 -78 5 0 0 0 scale - -, f 5;
#X floatatom 934 -52 5 0 0 0 offset - -, f 5;
#X obj 129 -34 gem_display;
#X floatatom 1032 -78 5 0 0 0 scale - -, f 5;
#X floatatom 1064 -52 5 0 0 0 offset - -, f 5;
#X floatatom 1014 102 5 0 0 0 - - -, f 5;
#X obj 334 -31 gem_display;
#X obj 231 -31 gem_display;
#X obj 641 -28 gem_display;
#X obj 539 -28 gem_display;
#X obj 436 -31 gem_display;
#X obj 741 -28 gem_display;
#X obj 871 -28 gem_display;
#X obj 1001 -28 gem_display;
#X obj 110 262 cnv 15 100 40 empty empty CS0 28 20 0 24 -233017 -66577
0;
#X obj 220 262 cnv 15 100 40 empty empty CS1 28 20 0 24 -233017 -66577
0;
#X obj 330 262 cnv 15 100 40 empty empty CS2 28 20 0 24 -233017 -66577
0;
#X obj 440 262 cnv 15 100 40 empty empty CS3 28 20 0 24 -233017 -66577
0;
#X obj 550 262 cnv 15 100 40 empty empty CS4 28 20 0 24 -233017 -66577
0;
#X obj 660 262 cnv 15 100 40 empty empty CS5 28 20 0 24 -233017 -66577
0;
#X obj 770 262 cnv 15 100 40 empty empty CS6 28 20 0 24 -233017 -66577
0;
#X obj 880 262 cnv 15 100 40 empty empty CS7 28 20 0 24 -233017 -66577
0;
#X obj 990 262 cnv 15 100 40 empty empty CS8 28 20 0 24 -233017 -66577
0;
#X obj 1014 126 vsl 50 128 0 1 0 0 empty empty empty 0 -9 0 10 -262144
-1 -1 514 1;
#X obj 1014 78 spigot;
#X obj 1047 42 r \$0-gui;
#X obj 324 -308 tgl 15 0 \$0-gui empty gui 17 7 0 10 -262144 -1 -1
0 1;
#X obj -119 -344 r \$0-display_cs;
#X obj -96 -188 unpack 0 0 0 0 0 0 0 0 0;
#X obj -45 -244 tgl 15 0 empty empty empty 17 7 0 10 -262144 -1 -1
0 1;
#X msg -119 -322 \$1 \$1 \$1 \$1 \$1 \$1 \$1 \$1 \$1;
#X obj 71 -313 routeOSC /enable;
#X obj 751 -325 nbx 5 14 -1e+37 1e+37 0 1 empty empty empty 0 -8 0
10 -262144 -1 -1 7 256;
#X floatatom 904 102 5 0 0 0 - - -, f 5;
#X obj 904 126 vsl 50 128 0 1 0 0 empty empty empty 0 -9 0 10 -262144
-1 -1 0 1;
#X obj 904 78 spigot;
#X obj 937 42 r \$0-gui;
#X floatatom 794 102 5 0 0 0 - - -, f 5;
#X obj 794 126 vsl 50 128 0 1 0 0 empty empty empty 0 -9 0 10 -262144
-1 -1 0 1;
#X obj 794 78 spigot;
#X obj 827 42 r \$0-gui;
#X floatatom 684 102 5 0 0 0 - - -, f 5;
#X obj 684 126 vsl 50 128 0 1 0 0 empty empty empty 0 -9 0 10 -262144
-1 -1 0 1;
#X obj 684 78 spigot;
#X obj 717 42 r \$0-gui;
#X floatatom 574 102 5 0 0 0 - - -, f 5;
#X obj 574 126 vsl 50 128 0 1 0 0 empty empty empty 0 -9 0 10 -262144
-1 -1 0 1;
#X obj 574 78 spigot;
#X obj 607 42 r \$0-gui;
#X floatatom 464 102 5 0 0 0 - - -, f 5;
#X obj 464 126 vsl 50 128 0 1 0 0 empty empty empty 0 -9 0 10 -262144
-1 -1 0 1;
#X obj 464 78 spigot;
#X obj 497 42 r \$0-gui;
#X floatatom 354 102 5 0 0 0 - - -, f 5;
#X obj 354 126 vsl 50 128 0 1 0 0 empty empty empty 0 -9 0 10 -262144
-1 -1 2 1;
#X obj 354 78 spigot;
#X obj 387 42 r \$0-gui;
#X floatatom 244 102 5 0 0 0 - - -, f 5;
#X obj 244 126 vsl 50 128 0 1 0 0 empty empty empty 0 -9 0 10 -262144
-1 -1 0 1;
#X obj 244 78 spigot;
#X obj 277 42 r \$0-gui;
#X floatatom 134 102 5 0 0 0 - - -, f 5;
#X obj 134 126 vsl 50 128 0 1 0 0 empty empty empty 0 -9 0 10 -262144
-1 -1 2 1;
#X obj 134 78 spigot;
#X obj 167 42 r \$0-gui;
#X obj 892 -325 nbx 5 14 -1e+37 1e+37 0 1 empty empty empty 0 -8 0
10 -262144 -1 -1 20 256;
#X obj 971 -320 nbx 5 14 -1e+37 1e+37 0 1 empty empty empty 0 -8 0
10 -262144 -1 -1 127 256;
#X obj 1071 -320 nbx 5 14 -1e+37 1e+37 0 1 empty empty empty 0 -8 0
10 -262144 -1 -1 0 256;
#X obj 1071 -301 s \$0-notch_width;
#X obj 971 -301 s notch_freq;
#X obj 892 -306 / 1000;
#X obj 1107 -164 loadbang;
#X msg 1107 -142 1.5;
#X obj 124 -252 routeOSC /0 /1 /2 /3 /4 /5 /6 /7 /8, f 160;
#X obj 71 -226 unpack 0 0 0 0 0 0 0 0 0, f 160;
#X obj 58 -143 pack 0 0 0 0 0 0 0 0 0, f 160;
#X obj 609 -305 s \$1-cs_hp_filter_freq;
#X obj 1028 -191 cs_filter \$1;
#X obj 751 -306 s \$1-cs_lp_filter_freq;
#X msg 1075 -216 reset;
#X obj 892 -271 s \$1-gain;
#X obj 804 -360 bng 15 250 50 0 empty empty empty 17 7 0 10 -262144
-1 -1;
#X obj 1182 -2 tabread2 cs_lut;
#X obj 945 -101 tgl 15 0 empty empty empty 17 7 0 10 -262144 -1 -1
0 1;
#X obj -63 301 list prepend;
#X obj -63 321 list trim;
#X obj 6 235 loadbang;
#X obj 6 257 symbol \$1;
#X obj 66 233 bng 15 250 50 0 empty empty empty 17 7 0 10 -262144 -1
-1;
#X obj -63 341 s sendOSC;
#X msg 6 278 \$1/cs;
#X obj 1177 -302 s \$1-cs_filter_reset;
#X obj 1177 -322 bng 15 250 50 0 empty empty reset_filter 17 7 0 10
-262144 -1 -1;
#X obj 908 -191 cs_filter \$1;
#X obj 788 -191 cs_filter \$1;
#X obj 669 -191 cs_filter \$1;
#X obj 549 -191 cs_filter \$1;
#X obj 429 -191 cs_filter \$1;
#X obj 310 -191 cs_filter \$1;
#X obj 190 -191 cs_filter \$1;
#X obj 71 -191 cs_filter \$1;
#X connect 0 0 16 0;
#X connect 14 0 95 0;
#X connect 16 0 50 0;
#X connect 16 1 15 0;
#X connect 24 0 42 0;
#X connect 43 0 24 0;
#X connect 44 0 43 1;
#X connect 46 0 48 0;
#X connect 46 0 49 0;
#X connect 49 0 47 0;
#X connect 50 0 47 0;
#X connect 50 1 93 0;
#X connect 51 0 97 0;
#X connect 52 0 53 0;
#X connect 54 0 52 0;
#X connect 55 0 54 1;
#X connect 56 0 57 0;
#X connect 58 0 56 0;
#X connect 59 0 58 1;
#X connect 60 0 61 0;
#X connect 62 0 60 0;
#X connect 63 0 62 1;
#X connect 64 0 65 0;
#X connect 66 0 64 0;
#X connect 67 0 66 1;
#X connect 68 0 69 0;
#X connect 70 0 68 0;
#X connect 71 0 70 1;
#X connect 72 0 73 0;
#X connect 74 0 72 0;
#X connect 75 0 74 1;
#X connect 76 0 77 0;
#X connect 78 0 76 0;
#X connect 79 0 78 1;
#X connect 80 0 81 0;
#X connect 82 0 80 0;
#X connect 83 0 82 1;
#X connect 84 0 89 0;
#X connect 85 0 88 0;
#X connect 86 0 87 0;
#X connect 89 0 99 0;
#X connect 90 0 91 0;
#X connect 91 0 23 0;
#X connect 93 0 7 0;
#X connect 93 0 119 0;
#X connect 93 1 118 0;
#X connect 93 2 117 0;
#X connect 93 3 116 0;
#X connect 93 4 115 0;
#X connect 93 5 114 0;
#X connect 93 6 113 0;
#X connect 93 7 112 0;
#X connect 93 8 96 0;
#X connect 94 0 103 0;
#X connect 96 0 43 0;
#X connect 96 0 94 8;
#X connect 98 0 96 0;
#X connect 100 0 51 0;
#X connect 100 0 14 0;
#X connect 100 0 84 0;
#X connect 100 0 85 0;
#X connect 100 0 86 0;
#X connect 103 0 104 0;
#X connect 104 0 108 0;
#X connect 105 0 106 0;
#X connect 106 0 109 0;
#X connect 107 0 106 0;
#X connect 109 0 103 1;
#X connect 111 0 110 0;
#X connect 112 0 94 7;
#X connect 112 0 54 0;
#X connect 113 0 58 0;
#X connect 113 0 94 6;
#X connect 114 0 62 0;
#X connect 114 0 94 5;
#X connect 115 0 66 0;
#X connect 115 0 94 4;
#X connect 116 0 70 0;
#X connect 116 0 94 3;
#X connect 117 0 74 0;
#X connect 117 0 94 2;
#X connect 118 0 78 0;
#X connect 118 0 94 1;
#X connect 119 0 82 0;
#X connect 119 0 94 0;
#X coords 0 -1 1 1 1000 205 2 100 100;
#X restore 63 139 pd display_cs;
#X floatatom 16 633 5 0 0 1 ms - -, f 5;
#X obj 63 582 routeOSC /s/t;
#X obj 138 602 print other_messages_\$1;
#X obj 63 633 outlet;
#X obj 239 31 cnv 15 140 50 empty \$0-boardName /b00 10 24 0 48 -233017
-66577 0;
#X obj 63 603 iir 5;
#X floatatom 99 601 5 0 0 0 - - -, f 5;
#N canvas 1 85 450 300 gui 0;
#X obj 160 23 loadbang;
#X obj 160 45 symbol \$1;
#X msg 160 67 label \$1;
#X obj 160 89 s \$0-boardName;
#X obj 216 23 bng 15 250 50 0 empty empty empty 17 7 0 10 -262144 -1
-1;
#X connect 0 0 1 0;
#X connect 1 0 2 0;
#X connect 2 0 3 0;
#X connect 4 0 1 0;
#X restore 399 26 pd gui;
#N canvas 1 90 954 300 receiveOSC 0;
#X obj 228 45 loadbang;
#X obj 228 67 symbol \$1;
#X msg 228 89 set \$1;
#X obj 141 67 r OSCdispatch;
#X obj 141 161 tgl 15 0 \$0-display_cs empty display_cs 17 7 0 10 -262144
-1 -1 0 1;
#X obj 141 140 routeOSC /open;
#X obj 74 120 tgl 15 0 empty empty empty 17 7 0 10 -262144 -1 -1 0
1;
#X obj 141 117 routeOSC /*;
#X obj 41 176 routeOSC /s/t;
#X obj 288 43 bng 15 250 50 0 empty empty empty 17 7 0 10 -262144 -1
-1;
#X obj 41 153 spigot;
#X obj 116 276 print mon-\$1;
#X obj 222 237 outlet;
#X obj 74 90 inlet;
#X connect 0 0 1 0;
#X connect 1 0 2 0;
#X connect 2 0 7 0;
#X connect 3 0 7 0;
#X connect 5 0 4 0;
#X connect 5 1 12 0;
#X connect 6 0 10 1;
#X connect 7 0 5 0;
#X connect 7 0 10 0;
#X connect 8 1 11 0;
#X connect 9 0 1 0;
#X connect 10 0 8 0;
#X connect 13 0 6 0;
#X restore 63 116 pd receiveOSC;
#X obj 63 96 tgl 15 0 empty empty monitor 17 7 0 10 -262144 -1 -1 0
1;
#X connect 0 0 3 0;
#X connect 1 0 0 0;
#X connect 3 0 7 0;
#X connect 3 1 4 0;
#X connect 7 0 2 0;
#X connect 7 0 5 0;
#X connect 8 0 7 1;
#X connect 10 0 1 0;
#X connect 11 0 10 0;
