#N canvas 13 385 1105 682 10;
#X declare -path ../puremapping;
#X declare -path ../puremapping;
#X declare -path ../puremapping;
#X declare -path ../puremapping;
#X declare -path ../puremapping;
#X declare -path ../puremapping;
#X declare -path ../puremapping;
#X declare -path ../puremapping;
#X declare -path ../puremapping;
#X declare -path ../nusmuk-audio;
#X declare -path ../puremapping -path ../av;
#X declare -path ../nusmuk-audio;
#X declare -path ../puremapping -path ../av;
#X declare -path ../nusmuk-audio;
#X declare -path ../puremapping -path ../av;
#X declare -path ../nusmuk-audio;
#X declare -path ../puremapping -path ../av;
#X declare -path ../nusmuk-audio;
#X declare -path ../puremapping -path ../av;
#X declare -path ../nusmuk-audio;
#X declare -path ../puremapping -path ../av;
#X declare -path ../nusmuk-audio;
#X declare -path ../puremapping -path ../av;
#X declare -path ../nusmuk-audio;
#X declare -path ../puremapping -path ../av;
#X declare -path ../nusmuk-audio;
#X declare -path ../puremapping -path ../av;
#X declare -path ../bin;
#N canvas 268 238 1479 739 display_fsr 0;
#X obj 170 -14 inlet;
#X obj 170 14 routeOSC /fsr;
#N canvas 1 115 450 300 beat-detect 0;
#X obj 143 87 t f f;
#X obj 145 117 -;
#X obj 145 137 max 0;
#X obj 145 176 max;
#X obj 184 177 f;
#X floatatom 145 198 5 0 0 0 - - -, f 5;
#X msg 188 135 0;
#X obj 188 114 bng 15 250 50 0 empty empty empty 17 7 0 10 -262144
-1 -1;
#X obj 143 64 inlet;
#X text 244 108 simple derivating;
#X text 132 220 threshold result to get beat attack;
#X connect 0 0 1 1;
#X connect 0 1 1 0;
#X connect 1 0 2 0;
#X connect 2 0 3 0;
#X connect 3 0 4 0;
#X connect 3 0 5 0;
#X connect 4 0 3 1;
#X connect 6 0 3 1;
#X connect 7 0 6 0;
#X connect 8 0 0 0;
#X restore 67 261 pd beat-detect;
#X obj 253 39 outlet;
#X floatatom 198 453 5 0 0 0 - - -, f 5;
#X floatatom 308 453 5 0 0 0 - - -, f 5;
#X floatatom 418 453 5 0 0 0 - - -, f 5;
#X floatatom 528 453 5 0 0 0 - - -, f 5;
#X floatatom 638 453 5 0 0 0 - - -, f 5;
#X floatatom 748 453 5 0 0 0 - - -, f 5;
#X obj 198 472 vsl 50 128 0 1 0 0 empty empty empty 0 -9 0 10 -262144
-1 -1 0 1;
#X floatatom 858 453 5 0 0 0 - - -, f 5;
#X floatatom 968 453 5 0 0 0 - - -, f 5;
#X floatatom 1078 453 5 0 0 0 - - -, f 5;
#X obj 174 608 cnv 15 100 40 empty \$0-labelFSR-0 FSR0 22 20 0 24 -24198
-1 0;
#X obj 284 608 cnv 15 100 40 empty \$0-labelFSR-1 FSR1 22 20 0 24 -24198
-1 0;
#X obj 394 608 cnv 15 100 40 empty \$0-labelFSR-2 FSR2 22 20 0 24 -24198
-1 0;
#X obj 504 608 cnv 15 100 40 empty \$0-labelFSR-3 FSR3 22 20 0 24 -24198
-1 0;
#X obj 614 608 cnv 15 100 40 empty \$0-labelFSR-4 FSR4 22 20 0 24 -24198
-1 0;
#X obj 724 608 cnv 15 100 40 empty \$0-labelFSR-5 FSR5 22 20 0 24 -24198
-1 0;
#X obj 834 608 cnv 15 100 40 empty \$0-labelFSR-6 FSR6 22 20 0 24 -24198
-1 0;
#X obj 944 608 cnv 15 100 40 empty \$0-labelFSR-7 FSR7 22 20 0 24 -24198
-1 0;
#X obj 1054 608 cnv 15 100 40 empty \$0-labelFSR-8 FSR8 22 20 0 24
-24198 -1 0;
#X obj 198 394 spigot;
#X obj 231 358 r \$0-gui;
#X obj 308 472 vsl 50 128 0 1 0 0 empty empty empty 0 -9 0 10 -262144
-1 -1 24 1;
#X obj 308 394 spigot;
#X obj 341 358 r \$0-gui;
#X obj 418 472 vsl 50 128 0 1 0 0 empty empty empty 0 -9 0 10 -262144
-1 -1 7 1;
#X obj 418 394 spigot;
#X obj 451 358 r \$0-gui;
#X obj 528 472 vsl 50 128 0 1 0 0 empty empty empty 0 -9 0 10 -262144
-1 -1 31 1;
#X obj 528 394 spigot;
#X obj 561 358 r \$0-gui;
#X obj 638 472 vsl 50 128 0 1 0 0 empty empty empty 0 -9 0 10 -262144
-1 -1 0 1;
#X obj 638 394 spigot;
#X obj 671 358 r \$0-gui;
#X obj 748 472 vsl 50 128 0 1 0 0 empty empty empty 0 -9 0 10 -262144
-1 -1 0 1;
#X obj 748 394 spigot;
#X obj 781 358 r \$0-gui;
#X obj 858 472 vsl 50 128 0 1 0 0 empty empty empty 0 -9 0 10 -262144
-1 -1 18 1;
#X obj 858 394 spigot;
#X obj 891 358 r \$0-gui;
#X obj 968 472 vsl 50 128 0 1 0 0 empty empty empty 0 -9 0 10 -262144
-1 -1 78 1;
#X obj 968 394 spigot;
#X obj 1001 358 r \$0-gui;
#X obj 1078 472 vsl 50 128 0 1 0 0 empty empty empty 0 -9 0 10 -262144
-1 -1 8 1;
#X obj 1078 394 spigot;
#X obj 1111 358 r \$0-gui;
#X obj 171 123 unpack 0 0 0 0 0 0 0 0 0, f 154;
#X obj 171 180 t a a;
#X obj 274 183 t a a;
#X obj 394 183 t a a;
#X obj 514 183 t a a;
#X obj 634 183 t a a;
#X obj 743 183 t a a;
#X obj 854 183 t a a;
#X obj 974 183 t a a;
#X obj 1084 183 t a a;
#X obj 170 36 routeOSC /*;
#X obj 21 426 list prepend;
#X obj 21 446 list trim;
#X obj 90 360 loadbang;
#X obj 90 382 symbol \$1;
#X obj 150 358 bng 15 250 50 0 empty empty empty 17 7 0 10 -262144
-1 -1;
#X obj 21 466 s sendOSC;
#X obj 145 216 pack 0 0 0 0 0 0 0 0 0, f 154;
#X msg 90 404 \$1/fsr;
#X obj 653 35 nbx 5 14 -1e+37 1e+37 0 1 empty empty empty 0 -8 0 10
-262144 -1 -1 1000 256;
#X obj 653 55 s \$1-fsr_hp_filter_freq;
#X obj 508 52 s \$1-cs_filter_reset;
#X obj 508 2 bng 15 250 50 0 empty empty reset_filter 17 7 0 10 -262144
-1 -1;
#X obj 171 158 fsr_filter \$1;
#X obj 274 161 fsr_filter \$1;
#X obj 394 161 fsr_filter \$1;
#X obj 514 161 fsr_filter \$1;
#X obj 634 161 fsr_filter \$1;
#X obj 743 161 fsr_filter \$1;
#X obj 854 161 fsr_filter \$1;
#X obj 974 161 fsr_filter \$1;
#X obj 1084 161 fsr_filter \$1;
#X obj 508 22 t b b;
#X obj 198 419 speedlimit 40;
#X obj 308 419 speedlimit 40;
#X obj 418 419 speedlimit 40;
#X obj 528 419 speedlimit 40;
#X obj 638 419 speedlimit 40;
#X obj 748 419 speedlimit 40;
#X obj 858 419 speedlimit 40;
#X obj 968 419 speedlimit 40;
#X obj 1078 419 speedlimit 40;
#X obj 21 339 spigot 1;
#N canvas 1 212 361 352 update-gui 0;
#X obj 51 41 inlet;
#X obj 51 73 unpack 0 0 0 0 0 0 0 0 0, f 38;
#N canvas 1 100 450 300 setcolor 0;
#X obj 125 59 sel -2 -1;
#X obj 176 146 once 1;
#X obj 176 87 t b;
#X obj 150 112 t b;
#X obj 125 31 change;
#X msg 51 213 color 13 22;
#X msg 130 213 color 1 22;
#X msg 204 213 color 16 22;
#X obj 125 6 inlet;
#X obj 130 258 s \$0-labelFSR-0;
#X connect 0 0 3 0;
#X connect 0 0 5 0;
#X connect 0 1 3 0;
#X connect 0 1 6 0;
#X connect 0 2 2 0;
#X connect 1 0 7 0;
#X connect 2 0 1 0;
#X connect 3 0 1 1;
#X connect 4 0 0 0;
#X connect 5 0 9 0;
#X connect 6 0 9 0;
#X connect 7 0 9 0;
#X connect 8 0 4 0;
#X restore 51 267 pd setcolor;
#N canvas 1 95 450 300 setcolor 0;
#X obj 125 59 sel -2 -1;
#X obj 176 146 once 1;
#X obj 176 87 t b;
#X obj 150 112 t b;
#X obj 125 31 change;
#X msg 51 213 color 13 22;
#X msg 130 213 color 1 22;
#X msg 204 213 color 16 22;
#X obj 125 6 inlet;
#X obj 130 258 s \$0-labelFSR-1;
#X connect 0 0 3 0;
#X connect 0 0 5 0;
#X connect 0 1 3 0;
#X connect 0 1 6 0;
#X connect 0 2 2 0;
#X connect 1 0 7 0;
#X connect 2 0 1 0;
#X connect 3 0 1 1;
#X connect 4 0 0 0;
#X connect 5 0 9 0;
#X connect 6 0 9 0;
#X connect 7 0 9 0;
#X connect 8 0 4 0;
#X restore 81 247 pd setcolor;
#N canvas 1 95 450 300 setcolor 0;
#X obj 125 59 sel -2 -1;
#X obj 176 146 once 1;
#X obj 176 87 t b;
#X obj 150 112 t b;
#X obj 125 31 change;
#X msg 51 213 color 13 22;
#X msg 130 213 color 1 22;
#X msg 204 213 color 16 22;
#X obj 125 6 inlet;
#X obj 130 258 s \$0-labelFSR-2;
#X connect 0 0 3 0;
#X connect 0 0 5 0;
#X connect 0 1 3 0;
#X connect 0 1 6 0;
#X connect 0 2 2 0;
#X connect 1 0 7 0;
#X connect 2 0 1 0;
#X connect 3 0 1 1;
#X connect 4 0 0 0;
#X connect 5 0 9 0;
#X connect 6 0 9 0;
#X connect 7 0 9 0;
#X connect 8 0 4 0;
#X restore 111 227 pd setcolor;
#N canvas 1 100 450 300 setcolor 0;
#X obj 125 59 sel -2 -1;
#X obj 176 146 once 1;
#X obj 176 87 t b;
#X obj 150 112 t b;
#X obj 125 31 change;
#X msg 51 213 color 13 22;
#X msg 130 213 color 1 22;
#X msg 204 213 color 16 22;
#X obj 125 6 inlet;
#X obj 130 258 s \$0-labelFSR-3;
#X connect 0 0 3 0;
#X connect 0 0 5 0;
#X connect 0 1 3 0;
#X connect 0 1 6 0;
#X connect 0 2 2 0;
#X connect 1 0 7 0;
#X connect 2 0 1 0;
#X connect 3 0 1 1;
#X connect 4 0 0 0;
#X connect 5 0 9 0;
#X connect 6 0 9 0;
#X connect 7 0 9 0;
#X connect 8 0 4 0;
#X restore 131 207 pd setcolor;
#N canvas 1 105 450 300 setcolor 0;
#X obj 125 59 sel -2 -1;
#X obj 176 146 once 1;
#X obj 176 87 t b;
#X obj 150 112 t b;
#X obj 125 31 change;
#X msg 51 213 color 13 22;
#X msg 130 213 color 1 22;
#X msg 204 213 color 16 22;
#X obj 125 6 inlet;
#X obj 130 258 s \$0-labelFSR-4;
#X connect 0 0 3 0;
#X connect 0 0 5 0;
#X connect 0 1 3 0;
#X connect 0 1 6 0;
#X connect 0 2 2 0;
#X connect 1 0 7 0;
#X connect 2 0 1 0;
#X connect 3 0 1 1;
#X connect 4 0 0 0;
#X connect 5 0 9 0;
#X connect 6 0 9 0;
#X connect 7 0 9 0;
#X connect 8 0 4 0;
#X restore 161 187 pd setcolor;
#N canvas 1 100 450 300 setcolor 0;
#X obj 125 59 sel -2 -1;
#X obj 176 146 once 1;
#X obj 176 87 t b;
#X obj 150 112 t b;
#X obj 125 31 change;
#X msg 51 213 color 13 22;
#X msg 130 213 color 1 22;
#X msg 204 213 color 16 22;
#X obj 125 6 inlet;
#X obj 130 258 s \$0-labelFSR-5;
#X connect 0 0 3 0;
#X connect 0 0 5 0;
#X connect 0 1 3 0;
#X connect 0 1 6 0;
#X connect 0 2 2 0;
#X connect 1 0 7 0;
#X connect 2 0 1 0;
#X connect 3 0 1 1;
#X connect 4 0 0 0;
#X connect 5 0 9 0;
#X connect 6 0 9 0;
#X connect 7 0 9 0;
#X connect 8 0 4 0;
#X restore 191 167 pd setcolor;
#N canvas 1 100 450 300 setcolor 0;
#X obj 125 59 sel -2 -1;
#X obj 176 146 once 1;
#X obj 176 87 t b;
#X obj 150 112 t b;
#X obj 125 31 change;
#X msg 51 213 color 13 22;
#X msg 130 213 color 1 22;
#X msg 204 213 color 16 22;
#X obj 125 6 inlet;
#X obj 130 258 s \$0-labelFSR-6;
#X connect 0 0 3 0;
#X connect 0 0 5 0;
#X connect 0 1 3 0;
#X connect 0 1 6 0;
#X connect 0 2 2 0;
#X connect 1 0 7 0;
#X connect 2 0 1 0;
#X connect 3 0 1 1;
#X connect 4 0 0 0;
#X connect 5 0 9 0;
#X connect 6 0 9 0;
#X connect 7 0 9 0;
#X connect 8 0 4 0;
#X restore 211 147 pd setcolor;
#N canvas 1 100 450 300 setcolor 0;
#X obj 125 59 sel -2 -1;
#X obj 176 146 once 1;
#X obj 176 87 t b;
#X obj 150 112 t b;
#X obj 125 31 change;
#X msg 51 213 color 13 22;
#X msg 130 213 color 1 22;
#X msg 204 213 color 16 22;
#X obj 125 6 inlet;
#X obj 130 258 s \$0-labelFSR-7;
#X connect 0 0 3 0;
#X connect 0 0 5 0;
#X connect 0 1 3 0;
#X connect 0 1 6 0;
#X connect 0 2 2 0;
#X connect 1 0 7 0;
#X connect 2 0 1 0;
#X connect 3 0 1 1;
#X connect 4 0 0 0;
#X connect 5 0 9 0;
#X connect 6 0 9 0;
#X connect 7 0 9 0;
#X connect 8 0 4 0;
#X restore 241 127 pd setcolor;
#N canvas 1 95 450 300 setcolor 0;
#X obj 125 59 sel -2 -1;
#X obj 176 146 once 1;
#X obj 176 87 t b;
#X obj 150 112 t b;
#X obj 125 31 change;
#X msg 51 213 color 13 22;
#X msg 130 213 color 1 22;
#X msg 204 213 color 16 22;
#X obj 125 6 inlet;
#X obj 130 258 s \$0-labelFSR-8;
#X connect 0 0 3 0;
#X connect 0 0 5 0;
#X connect 0 1 3 0;
#X connect 0 1 6 0;
#X connect 0 2 2 0;
#X connect 1 0 7 0;
#X connect 2 0 1 0;
#X connect 3 0 1 1;
#X connect 4 0 0 0;
#X connect 5 0 9 0;
#X connect 6 0 9 0;
#X connect 7 0 9 0;
#X connect 8 0 4 0;
#X restore 271 107 pd setcolor;
#X connect 0 0 1 0;
#X connect 1 0 2 0;
#X connect 1 1 3 0;
#X connect 1 2 4 0;
#X connect 1 3 5 0;
#X connect 1 4 6 0;
#X connect 1 5 7 0;
#X connect 1 6 8 0;
#X connect 1 7 9 0;
#X connect 1 8 10 0;
#X restore 233 101 pd update-gui;
#X obj 233 80 spigot;
#X obj 266 59 r \$0-gui;
#X connect 0 0 1 0;
#X connect 1 0 59 0;
#X connect 1 1 3 0;
#X connect 4 0 10 0;
#X connect 5 0 25 0;
#X connect 6 0 28 0;
#X connect 7 0 31 0;
#X connect 8 0 34 0;
#X connect 9 0 37 0;
#X connect 11 0 40 0;
#X connect 12 0 43 0;
#X connect 13 0 46 0;
#X connect 23 0 82 0;
#X connect 24 0 23 1;
#X connect 26 0 83 0;
#X connect 27 0 26 1;
#X connect 29 0 84 0;
#X connect 30 0 29 1;
#X connect 32 0 85 0;
#X connect 33 0 32 1;
#X connect 35 0 86 0;
#X connect 36 0 35 1;
#X connect 38 0 87 0;
#X connect 39 0 38 1;
#X connect 41 0 88 0;
#X connect 42 0 41 1;
#X connect 44 0 89 0;
#X connect 45 0 44 1;
#X connect 47 0 90 0;
#X connect 48 0 47 1;
#X connect 49 0 72 0;
#X connect 49 1 73 0;
#X connect 49 2 74 0;
#X connect 49 3 75 0;
#X connect 49 4 76 0;
#X connect 49 5 77 0;
#X connect 49 6 78 0;
#X connect 49 7 79 0;
#X connect 49 8 80 0;
#X connect 50 0 66 0;
#X connect 50 1 23 0;
#X connect 51 0 66 1;
#X connect 51 1 26 0;
#X connect 52 0 66 2;
#X connect 52 1 29 0;
#X connect 53 0 66 3;
#X connect 53 1 32 0;
#X connect 54 0 66 4;
#X connect 54 1 35 0;
#X connect 55 0 66 5;
#X connect 55 1 38 0;
#X connect 56 0 66 6;
#X connect 56 1 41 0;
#X connect 57 0 66 7;
#X connect 57 1 44 0;
#X connect 58 0 66 8;
#X connect 58 1 47 0;
#X connect 59 1 49 0;
#X connect 59 1 93 0;
#X connect 60 0 61 0;
#X connect 61 0 65 0;
#X connect 62 0 63 0;
#X connect 63 0 67 0;
#X connect 64 0 63 0;
#X connect 66 0 91 0;
#X connect 67 0 60 1;
#X connect 68 0 69 0;
#X connect 71 0 81 0;
#X connect 72 0 50 0;
#X connect 73 0 51 0;
#X connect 74 0 52 0;
#X connect 75 0 53 0;
#X connect 76 0 54 0;
#X connect 77 0 55 0;
#X connect 78 0 56 0;
#X connect 79 0 57 0;
#X connect 80 0 58 0;
#X connect 81 0 70 0;
#X connect 81 1 68 0;
#X connect 82 0 4 0;
#X connect 83 0 5 0;
#X connect 84 0 6 0;
#X connect 85 0 7 0;
#X connect 86 0 8 0;
#X connect 87 0 9 0;
#X connect 88 0 11 0;
#X connect 89 0 12 0;
#X connect 90 0 13 0;
#X connect 91 0 60 0;
#X connect 93 0 92 0;
#X connect 94 0 93 1;
#X coords 0 -1 1 1 1000 205 2 170 450;
#X restore 63 351 pd display_fsr;
#N canvas 413 158 1498 873 display_cs 0;
#X obj 221 47 inlet;
#X floatatom 310 326 5 0 0 0 scale - -, f 5;
#X floatatom 342 352 5 0 0 0 offset - -, f 5;
#X floatatom 412 329 5 0 0 0 scale - -, f 5;
#X floatatom 444 355 5 0 0 0 offset - -, f 5;
#X floatatom 515 329 5 0 0 0 scale - -, f 5;
#X floatatom 547 355 5 0 0 0 offset - -, f 5;
#N canvas 1 116 450 300 beat-detect 0;
#X obj 143 87 t f f;
#X obj 145 117 -;
#X obj 145 137 max 0;
#X obj 145 176 max;
#X obj 184 177 f;
#X floatatom 145 198 5 0 0 0 - - -, f 5;
#X msg 188 135 0;
#X obj 188 114 bng 15 250 50 0 empty empty empty 17 7 0 10 -262144
-1 -1;
#X obj 143 64 inlet;
#X text 244 108 simple derivating;
#X text 132 220 threshold result to get beat attack;
#X connect 0 0 1 1;
#X connect 0 1 1 0;
#X connect 1 0 2 0;
#X connect 2 0 3 0;
#X connect 3 0 4 0;
#X connect 3 0 5 0;
#X connect 4 0 3 1;
#X connect 6 0 3 1;
#X connect 7 0 6 0;
#X connect 8 0 0 0;
#X restore 35 285 pd beat-detect;
#X floatatom 617 329 5 0 0 0 scale - -, f 5;
#X floatatom 649 355 5 0 0 0 offset - -, f 5;
#X floatatom 720 332 5 0 0 0 scale - -, f 5;
#X floatatom 752 358 5 0 0 0 offset - -, f 5;
#X floatatom 822 332 5 0 0 0 scale - -, f 5;
#X floatatom 854 358 5 0 0 0 offset - -, f 5;
#X obj 759 85 nbx 5 14 -1e+37 1e+37 0 1 empty empty empty 0 -8 0 10
-262144 -1 -1 1000 256;
#X obj 303 75 outlet;
#X obj 221 75 routeOSC /cs;
#X floatatom 922 332 5 0 0 0 scale - -, f 5;
#X floatatom 954 358 5 0 0 0 offset - -, f 5;
#X floatatom 1052 332 5 0 0 0 scale - -, f 5;
#X floatatom 1084 358 5 0 0 0 offset - -, f 5;
#X floatatom 1182 332 5 0 0 0 scale - -, f 5;
#X floatatom 1214 358 5 0 0 0 offset - -, f 5;
#X obj 260 672 cnv 15 100 40 empty \$0-label_0 CS0 28 20 0 24 -24198
-1 0;
#X obj 370 672 cnv 15 100 40 empty \$0-label_1 CS1 28 20 0 24 -24198
-1 0;
#X obj 480 672 cnv 15 100 40 empty \$0-label_2 CS2 28 20 0 24 -24198
-1 0;
#X obj 590 672 cnv 15 100 40 empty \$0-label_3 CS3 28 20 0 24 -24198
-1 0;
#X obj 700 672 cnv 15 100 40 empty \$0-label_4 CS4 28 20 0 24 -24198
-1 0;
#X obj 810 672 cnv 15 100 40 empty \$0-label_5 CS5 28 20 0 24 -24198
-1 0;
#X obj 920 672 cnv 15 100 40 empty \$0-label_6 CS6 28 20 0 24 -24198
-1 0;
#X obj 1030 672 cnv 15 100 40 empty \$0-label_7 CS7 28 20 0 24 -24198
-1 0;
#X obj 1140 672 cnv 15 100 40 empty \$0-label_8 CS8 28 20 0 24 -24198
-1 0;
#X obj 1164 448 spigot;
#X obj 1197 412 r \$0-gui;
#X obj 474 102 tgl 15 0 \$0-gui empty gui 17 7 0 10 -262144 -1 -1 0
1;
#X obj 31 66 r \$0-display_cs;
#X obj 54 222 unpack 0 0 0 0 0 0 0 0 0;
#X obj 105 166 tgl 15 0 empty empty empty 17 7 0 10 -262144 -1 -1 0
1;
#X msg 31 88 \$1 \$1 \$1 \$1 \$1 \$1 \$1 \$1 \$1;
#X obj 221 97 routeOSC /enable;
#X obj 901 85 nbx 5 14 -1e+37 1e+37 0 1 empty empty empty 0 -8 0 10
-262144 -1 -1 5 256;
#X obj 1054 448 spigot;
#X obj 1087 412 r \$0-gui;
#X obj 944 448 spigot;
#X obj 977 412 r \$0-gui;
#X obj 834 448 spigot;
#X obj 867 412 r \$0-gui;
#X obj 724 448 spigot;
#X obj 757 412 r \$0-gui;
#X obj 614 448 spigot;
#X obj 647 412 r \$0-gui;
#X obj 504 448 spigot;
#X obj 537 412 r \$0-gui;
#X obj 394 448 spigot;
#X obj 427 412 r \$0-gui;
#X floatatom 284 512 5 0 0 0 - - -, f 5;
#X obj 284 536 vsl 50 128 0 1 0 0 empty empty empty 0 -9 0 10 -262144
-1 -1 0 1;
#X obj 284 448 spigot;
#X obj 317 412 r \$0-gui;
#X obj 1042 85 nbx 5 14 -1e+37 1e+37 0 1 empty empty empty 0 -8 0 10
-262144 -1 -1 10 256;
#X obj 396 35 nbx 5 14 -1e+37 1e+37 0 1 empty empty empty 0 -8 0 10
-262144 -1 -1 96 256;
#X obj 1221 90 nbx 5 14 -1e+37 1e+37 0 1 empty empty empty 0 -8 0 10
-262144 -1 -1 0.67 256;
#X obj 1042 104 / 1000;
#X obj 1257 246 loadbang;
#X msg 1257 268 1.5;
#X obj 221 184 unpack 0 0 0 0 0 0 0 0 0, f 160;
#X obj 208 267 pack 0 0 0 0 0 0 0 0 0, f 160;
#X obj 759 105 s \$1-cs_hp_filter_freq;
#X obj 901 104 s \$1-cs_lp_filter_freq;
#X msg 1225 194 reset;
#X obj 1042 139 s \$1-gain;
#X obj 954 50 bng 15 250 50 0 empty empty empty 17 7 0 10 -262144 -1
-1;
#X obj 1332 408 tabread2 cs_lut;
#X obj 1095 309 tgl 15 0 empty empty empty 17 7 0 10 -262144 -1 -1
0 1;
#X obj 87 711 list prepend;
#X obj 87 731 list trim;
#X obj 156 645 loadbang;
#X obj 156 667 symbol \$1;
#X obj 216 643 bng 15 250 50 0 empty empty empty 17 7 0 10 -262144
-1 -1;
#X obj 87 781 s sendOSC;
#X msg 156 688 \$1/cs;
#X obj 1354 109 s \$1-cs_filter_reset;
#X obj 1354 89 bng 15 250 50 0 empty empty reset_filter 17 7 0 10 -262144
-1 -1;
#X obj 284 470 speedlimit 40;
#X floatatom 394 512 5 0 0 0 - - -, f 5;
#X obj 394 536 vsl 50 128 0 1 0 0 empty empty empty 0 -9 0 10 -262144
-1 -1 0 1;
#X obj 394 470 speedlimit 40;
#X floatatom 504 512 5 0 0 0 - - -, f 5;
#X obj 504 536 vsl 50 128 0 1 0 0 empty empty empty 0 -9 0 10 -262144
-1 -1 0 1;
#X obj 504 470 speedlimit 40;
#X floatatom 614 512 5 0 0 0 - - -, f 5;
#X obj 614 536 vsl 50 128 0 1 0 0 empty empty empty 0 -9 0 10 -262144
-1 -1 0 1;
#X obj 614 470 speedlimit 40;
#X floatatom 724 512 5 0 0 0 - - -, f 5;
#X obj 724 536 vsl 50 128 0 1 0 0 empty empty empty 0 -9 0 10 -262144
-1 -1 46 1;
#X obj 724 470 speedlimit 40;
#X floatatom 834 512 5 0 0 0 - - -, f 5;
#X obj 834 536 vsl 50 128 0 1 0 0 empty empty empty 0 -9 0 10 -262144
-1 -1 0 1;
#X obj 834 470 speedlimit 40;
#X floatatom 944 512 5 0 0 0 - - -, f 5;
#X obj 944 536 vsl 50 128 0 1 0 0 empty empty empty 0 -9 0 10 -262144
-1 -1 0 1;
#X obj 944 470 speedlimit 40;
#X floatatom 1054 512 5 0 0 0 - - -, f 5;
#X obj 1054 536 vsl 50 128 0 1 0 0 empty empty empty 0 -9 0 10 -262144
-1 -1 77 1;
#X obj 1054 470 speedlimit 40;
#X floatatom 1164 512 5 0 0 0 - - -, f 5;
#X obj 1164 536 vsl 50 128 0 1 0 0 empty empty empty 0 -9 0 10 -262144
-1 -1 0 1;
#X obj 1164 470 speedlimit 40;
#X obj 1354 41 loadbang;
#X obj 1354 63 del 10000;
#X obj 314 120 routeOSC /*;
#X obj 87 550 spigot 1;
#X obj 87 753 route list;
#X obj 190 416 timer;
#X obj 203 360 t b b;
#X floatatom 190 438 5 0 0 0 - - -, f 5;
#X obj 203 807 print;
#X obj 212 779 spigot;
#X obj 251 752 tgl 15 0 empty empty empty 17 7 0 10 -262144 -1 -1 0
1;
#X obj 221 219 cs_filter \$1;
#X obj 396 54 s \$1-cs_notch_freq;
#X obj 1221 109 s \$1-cs_notch_width;
#X obj 1178 219 cs_filter \$1;
#X obj 1058 219 cs_filter \$1;
#X obj 938 219 cs_filter \$1;
#X obj 819 219 cs_filter \$1;
#X obj 699 219 cs_filter \$1;
#X obj 579 219 cs_filter \$1;
#X obj 460 219 cs_filter \$1;
#X obj 340 219 cs_filter \$1;
#X floatatom 285 247 5 0 0 0 - - -, f 5;
#X floatatom 403 244 5 0 0 0 - - -, f 5;
#X floatatom 530 245 5 0 0 0 - - -, f 5;
#X floatatom 635 246 5 0 0 0 - - -, f 5;
#X floatatom 764 247 5 0 0 0 - - -, f 5;
#X floatatom 881 245 5 0 0 0 - - -, f 5;
#X floatatom 998 244 5 0 0 0 - - -, f 5;
#X floatatom 1112 244 5 0 0 0 - - -, f 5;
#N canvas 1 113 361 352 update-gui 0;
#X obj 51 41 inlet;
#X obj 51 73 unpack 0 0 0 0 0 0 0 0 0, f 38;
#N canvas 1 85 450 300 setcolor 0;
#X obj 125 59 sel -2 -1;
#X obj 176 146 once 1;
#X obj 176 87 t b;
#X obj 150 112 t b;
#X obj 125 31 change;
#X obj 130 258 s \$0-label_0;
#X msg 51 213 color 13 22;
#X msg 130 213 color 1 22;
#X msg 204 213 color 16 22;
#X obj 125 6 inlet;
#X connect 0 0 3 0;
#X connect 0 0 6 0;
#X connect 0 1 3 0;
#X connect 0 1 7 0;
#X connect 0 2 2 0;
#X connect 1 0 8 0;
#X connect 2 0 1 0;
#X connect 3 0 1 1;
#X connect 4 0 0 0;
#X connect 6 0 5 0;
#X connect 7 0 5 0;
#X connect 8 0 5 0;
#X connect 9 0 4 0;
#X restore 51 267 pd setcolor;
#N canvas 1 90 450 300 setcolor 0;
#X obj 125 59 sel -2 -1;
#X obj 176 146 once 1;
#X obj 176 87 t b;
#X obj 150 112 t b;
#X obj 125 31 change;
#X msg 51 213 color 13 22;
#X msg 130 213 color 1 22;
#X msg 204 213 color 16 22;
#X obj 125 6 inlet;
#X obj 130 258 s \$0-label_1;
#X connect 0 0 3 0;
#X connect 0 0 5 0;
#X connect 0 1 3 0;
#X connect 0 1 6 0;
#X connect 0 2 2 0;
#X connect 1 0 7 0;
#X connect 2 0 1 0;
#X connect 3 0 1 1;
#X connect 4 0 0 0;
#X connect 5 0 9 0;
#X connect 6 0 9 0;
#X connect 7 0 9 0;
#X connect 8 0 4 0;
#X restore 81 247 pd setcolor;
#N canvas 1 90 450 300 setcolor 0;
#X obj 125 59 sel -2 -1;
#X obj 176 146 once 1;
#X obj 176 87 t b;
#X obj 150 112 t b;
#X obj 125 31 change;
#X msg 51 213 color 13 22;
#X msg 130 213 color 1 22;
#X msg 204 213 color 16 22;
#X obj 125 6 inlet;
#X obj 130 258 s \$0-label_2;
#X connect 0 0 3 0;
#X connect 0 0 5 0;
#X connect 0 1 3 0;
#X connect 0 1 6 0;
#X connect 0 2 2 0;
#X connect 1 0 7 0;
#X connect 2 0 1 0;
#X connect 3 0 1 1;
#X connect 4 0 0 0;
#X connect 5 0 9 0;
#X connect 6 0 9 0;
#X connect 7 0 9 0;
#X connect 8 0 4 0;
#X restore 111 227 pd setcolor;
#N canvas 1 90 450 300 setcolor 0;
#X obj 125 59 sel -2 -1;
#X obj 176 146 once 1;
#X obj 176 87 t b;
#X obj 150 112 t b;
#X obj 125 31 change;
#X msg 51 213 color 13 22;
#X msg 130 213 color 1 22;
#X msg 204 213 color 16 22;
#X obj 125 6 inlet;
#X obj 130 258 s \$0-label_3;
#X connect 0 0 3 0;
#X connect 0 0 5 0;
#X connect 0 1 3 0;
#X connect 0 1 6 0;
#X connect 0 2 2 0;
#X connect 1 0 7 0;
#X connect 2 0 1 0;
#X connect 3 0 1 1;
#X connect 4 0 0 0;
#X connect 5 0 9 0;
#X connect 6 0 9 0;
#X connect 7 0 9 0;
#X connect 8 0 4 0;
#X restore 131 207 pd setcolor;
#N canvas 1 95 450 300 setcolor 0;
#X obj 125 59 sel -2 -1;
#X obj 176 146 once 1;
#X obj 176 87 t b;
#X obj 150 112 t b;
#X obj 125 31 change;
#X msg 51 213 color 13 22;
#X msg 130 213 color 1 22;
#X msg 204 213 color 16 22;
#X obj 125 6 inlet;
#X obj 130 258 s \$0-label_4;
#X connect 0 0 3 0;
#X connect 0 0 5 0;
#X connect 0 1 3 0;
#X connect 0 1 6 0;
#X connect 0 2 2 0;
#X connect 1 0 7 0;
#X connect 2 0 1 0;
#X connect 3 0 1 1;
#X connect 4 0 0 0;
#X connect 5 0 9 0;
#X connect 6 0 9 0;
#X connect 7 0 9 0;
#X connect 8 0 4 0;
#X restore 161 187 pd setcolor;
#N canvas 1 95 450 300 setcolor 0;
#X obj 125 59 sel -2 -1;
#X obj 176 146 once 1;
#X obj 176 87 t b;
#X obj 150 112 t b;
#X obj 125 31 change;
#X msg 51 213 color 13 22;
#X msg 130 213 color 1 22;
#X msg 204 213 color 16 22;
#X obj 125 6 inlet;
#X obj 130 258 s \$0-label_5;
#X connect 0 0 3 0;
#X connect 0 0 5 0;
#X connect 0 1 3 0;
#X connect 0 1 6 0;
#X connect 0 2 2 0;
#X connect 1 0 7 0;
#X connect 2 0 1 0;
#X connect 3 0 1 1;
#X connect 4 0 0 0;
#X connect 5 0 9 0;
#X connect 6 0 9 0;
#X connect 7 0 9 0;
#X connect 8 0 4 0;
#X restore 191 167 pd setcolor;
#N canvas 1 95 450 300 setcolor 0;
#X obj 125 59 sel -2 -1;
#X obj 176 146 once 1;
#X obj 176 87 t b;
#X obj 150 112 t b;
#X obj 125 31 change;
#X msg 51 213 color 13 22;
#X msg 130 213 color 1 22;
#X msg 204 213 color 16 22;
#X obj 125 6 inlet;
#X obj 130 258 s \$0-label_6;
#X connect 0 0 3 0;
#X connect 0 0 5 0;
#X connect 0 1 3 0;
#X connect 0 1 6 0;
#X connect 0 2 2 0;
#X connect 1 0 7 0;
#X connect 2 0 1 0;
#X connect 3 0 1 1;
#X connect 4 0 0 0;
#X connect 5 0 9 0;
#X connect 6 0 9 0;
#X connect 7 0 9 0;
#X connect 8 0 4 0;
#X restore 211 147 pd setcolor;
#N canvas 1 95 450 300 setcolor 0;
#X obj 125 59 sel -2 -1;
#X obj 176 146 once 1;
#X obj 176 87 t b;
#X obj 150 112 t b;
#X obj 125 31 change;
#X msg 51 213 color 13 22;
#X msg 130 213 color 1 22;
#X msg 204 213 color 16 22;
#X obj 125 6 inlet;
#X obj 130 258 s \$0-label_7;
#X connect 0 0 3 0;
#X connect 0 0 5 0;
#X connect 0 1 3 0;
#X connect 0 1 6 0;
#X connect 0 2 2 0;
#X connect 1 0 7 0;
#X connect 2 0 1 0;
#X connect 3 0 1 1;
#X connect 4 0 0 0;
#X connect 5 0 9 0;
#X connect 6 0 9 0;
#X connect 7 0 9 0;
#X connect 8 0 4 0;
#X restore 241 127 pd setcolor;
#N canvas 1 90 450 300 setcolor 0;
#X obj 125 59 sel -2 -1;
#X obj 176 146 once 1;
#X obj 176 87 t b;
#X obj 150 112 t b;
#X obj 125 31 change;
#X msg 51 213 color 13 22;
#X msg 130 213 color 1 22;
#X msg 204 213 color 16 22;
#X obj 125 6 inlet;
#X obj 130 258 s \$0-label_8;
#X connect 0 0 3 0;
#X connect 0 0 5 0;
#X connect 0 1 3 0;
#X connect 0 1 6 0;
#X connect 0 2 2 0;
#X connect 1 0 7 0;
#X connect 2 0 1 0;
#X connect 3 0 1 1;
#X connect 4 0 0 0;
#X connect 5 0 9 0;
#X connect 6 0 9 0;
#X connect 7 0 9 0;
#X connect 8 0 4 0;
#X restore 271 107 pd setcolor;
#X connect 0 0 1 0;
#X connect 1 0 2 0;
#X connect 1 1 3 0;
#X connect 1 2 4 0;
#X connect 1 3 5 0;
#X connect 1 4 6 0;
#X connect 1 5 7 0;
#X connect 1 6 8 0;
#X connect 1 7 9 0;
#X connect 1 8 10 0;
#X restore 377 164 pd update-gui;
#X obj 377 142 spigot;
#X obj 410 120 r \$0-gui;
#X connect 0 0 16 0;
#X connect 14 0 67 0;
#X connect 16 0 39 0;
#X connect 16 1 15 0;
#X connect 32 0 107 0;
#X connect 33 0 32 1;
#X connect 35 0 37 0;
#X connect 35 0 38 0;
#X connect 38 0 36 0;
#X connect 39 0 36 0;
#X connect 39 1 110 0;
#X connect 40 0 68 0;
#X connect 41 0 104 0;
#X connect 42 0 41 1;
#X connect 43 0 101 0;
#X connect 44 0 43 1;
#X connect 45 0 98 0;
#X connect 46 0 45 1;
#X connect 47 0 95 0;
#X connect 48 0 47 1;
#X connect 49 0 92 0;
#X connect 50 0 49 1;
#X connect 51 0 89 0;
#X connect 52 0 51 1;
#X connect 53 0 86 0;
#X connect 54 0 53 1;
#X connect 55 0 56 0;
#X connect 57 0 83 0;
#X connect 58 0 57 1;
#X connect 59 0 62 0;
#X connect 60 0 120 0;
#X connect 61 0 121 0;
#X connect 62 0 70 0;
#X connect 63 0 64 0;
#X connect 64 0 22 0;
#X connect 65 0 7 0;
#X connect 65 0 119 0;
#X connect 65 1 129 0;
#X connect 65 2 128 0;
#X connect 65 3 127 0;
#X connect 65 4 126 0;
#X connect 65 5 125 0;
#X connect 65 6 124 0;
#X connect 65 7 123 0;
#X connect 65 8 122 0;
#X connect 66 0 111 0;
#X connect 66 0 114 0;
#X connect 69 0 122 0;
#X connect 71 0 40 0;
#X connect 71 0 14 0;
#X connect 71 0 59 0;
#X connect 71 0 60 0;
#X connect 71 0 61 0;
#X connect 71 0 109 0;
#X connect 74 0 75 0;
#X connect 75 0 112 0;
#X connect 76 0 77 0;
#X connect 77 0 80 0;
#X connect 78 0 77 0;
#X connect 80 0 74 1;
#X connect 82 0 81 0;
#X connect 83 0 55 0;
#X connect 84 0 85 0;
#X connect 86 0 84 0;
#X connect 87 0 88 0;
#X connect 89 0 87 0;
#X connect 90 0 91 0;
#X connect 92 0 90 0;
#X connect 93 0 94 0;
#X connect 95 0 93 0;
#X connect 96 0 97 0;
#X connect 98 0 96 0;
#X connect 99 0 100 0;
#X connect 101 0 99 0;
#X connect 102 0 103 0;
#X connect 104 0 102 0;
#X connect 105 0 106 0;
#X connect 107 0 105 0;
#X connect 108 0 109 0;
#X connect 109 0 82 0;
#X connect 110 1 65 0;
#X connect 110 1 139 0;
#X connect 111 0 74 0;
#X connect 112 1 79 0;
#X connect 112 1 117 0;
#X connect 113 0 115 0;
#X connect 114 0 113 0;
#X connect 114 1 113 1;
#X connect 117 0 116 0;
#X connect 118 0 117 1;
#X connect 119 0 57 0;
#X connect 119 0 66 0;
#X connect 119 1 130 0;
#X connect 122 0 32 0;
#X connect 122 0 66 8;
#X connect 123 0 66 7;
#X connect 123 0 41 0;
#X connect 123 1 137 0;
#X connect 124 0 43 0;
#X connect 124 0 66 6;
#X connect 124 1 136 0;
#X connect 125 0 45 0;
#X connect 125 0 66 5;
#X connect 125 1 135 0;
#X connect 126 0 47 0;
#X connect 126 0 66 4;
#X connect 126 1 134 0;
#X connect 127 0 49 0;
#X connect 127 0 66 3;
#X connect 127 1 133 0;
#X connect 128 0 51 0;
#X connect 128 0 66 2;
#X connect 128 1 132 0;
#X connect 129 0 53 0;
#X connect 129 0 66 1;
#X connect 129 1 131 0;
#X connect 139 0 138 0;
#X connect 140 0 139 1;
#X coords 0 -1 1 1 1000 205 2 250 510;
#X restore 63 139 pd display_cs;
#X obj 63 582 routeOSC /s/t;
#X obj 138 602 print other_messages_\$1;
#X obj 63 653 outlet;
#X obj 63 603 iir 5;
#X floatatom 99 601 5 0 0 0 - - -, f 5;
#N canvas 305 352 954 443 receiveOSC 0;
#X obj 228 45 loadbang;
#X obj 228 67 symbol \$1;
#X msg 228 89 set \$1;
#X obj 141 67 r OSCdispatch;
#X obj 141 161 tgl 15 0 \$0-display_cs empty display_cs 17 7 0 10 -262144
-1 -1 0 1;
#X obj 141 140 routeOSC /open;
#X obj 74 120 tgl 15 0 empty empty empty 17 7 0 10 -262144 -1 -1 0
1;
#X obj 141 117 routeOSC /*;
#X obj 41 176 routeOSC /s/t;
#X obj 41 153 spigot;
#X obj 116 276 print mon-\$1;
#X obj 222 237 outlet;
#X obj 74 90 inlet;
#X connect 0 0 1 0;
#X connect 1 0 2 0;
#X connect 2 0 7 0;
#X connect 3 0 7 0;
#X connect 5 0 4 0;
#X connect 5 1 11 0;
#X connect 6 0 9 1;
#X connect 7 0 5 0;
#X connect 7 0 9 0;
#X connect 8 1 10 0;
#X connect 9 0 8 0;
#X connect 12 0 6 0;
#X restore 63 116 pd receiveOSC;
#X obj 63 96 tgl 15 0 empty empty monitor 17 7 0 10 -262144 -1 -1 0
1;
#X obj 326 609 tgl 15 0 empty empty empty 17 7 0 10 -262144 -1 -1 1
1;
#X obj 326 629 s \$0-gui;
#X obj 359 591 loadbang;
#X msg 326 588 1;
#X obj 239 31 cnv 15 140 50 \$0-boardName_out \$0-boardName /b03 10
24 0 48 -233017 -66577 0;
#N canvas 1 85 450 300 gui 0;
#X obj 160 23 loadbang;
#X obj 160 45 symbol \$1;
#X msg 160 67 label \$1;
#X obj 160 89 s \$0-boardName;
#X obj 216 23 bng 15 250 50 0 empty empty empty 17 7 0 10 -262144 -1
-1;
#X connect 0 0 1 0;
#X connect 1 0 2 0;
#X connect 2 0 3 0;
#X connect 4 0 1 0;
#X restore 399 26 pd gui;
#X obj 561 624 declare -path ../bin;
#X obj 63 627 speedlimit 40;
#X connect 0 0 2 0;
#X connect 1 0 0 0;
#X connect 2 0 5 0;
#X connect 2 1 3 0;
#X connect 5 0 16 0;
#X connect 6 0 5 1;
#X connect 7 0 1 0;
#X connect 8 0 7 0;
#X connect 9 0 10 0;
#X connect 12 0 9 0;
#X connect 16 0 4 0;
