#N canvas 858 291 937 536 10;
#X declare -path ../bin;
#X obj 229 358 s to-all-arduino;
#X obj 229 332 packOSCstream;
#X obj 195 103 tgl 15 0 empty empty empty 17 7 0 10 -262144 -1 -1 1
1;
#X msg 234 226 [;
#X msg 195 226 ];
#X obj 195 202 t b a b;
#X obj 123 104 tgl 15 0 empty empty empty 17 7 0 10 -262144 -1 -1 0
1;
#X msg 123 124 /fsr/on \$1;
#X msg 195 124 /cs/on \$1;
#X floatatom 260 87 5 0 0 0 - - -, f 5;
#X msg 260 124 /cs/sensibility \$1;
#X msg 501 199 /s/del \$1;
#X floatatom 501 162 5 0 0 0 - - -, f 5;
#X obj 501 179 speedlim 200;
#X obj 260 104 speedlim 200;
#X floatatom 378 87 5 0 0 0 - - -, f 5;
#X obj 378 104 speedlim 200;
#X msg 378 124 /cs/autocal \$1;
#X msg 347 213 /cs/autocal;
#X msg 122 148 /s;
#X floatatom 475 86 5 0 0 0 - - -, f 5;
#X obj 475 103 speedlim 200;
#X msg 475 123 /cs/timeout \$1;
#X obj 339 40 tgl 15 0 empty empty empty 17 7 0 10 -262144 -1 -1 0
1;
#X obj 354 40 tgl 15 0 empty empty empty 17 7 0 10 -262144 -1 -1 0
1;
#X obj 369 40 tgl 15 0 empty empty empty 17 7 0 10 -262144 -1 -1 0
1;
#X obj 384 40 tgl 15 0 empty empty empty 17 7 0 10 -262144 -1 -1 0
1;
#X obj 399 40 tgl 15 0 empty empty empty 17 7 0 10 -262144 -1 -1 0
1;
#X obj 414 40 tgl 15 0 empty empty empty 17 7 0 10 -262144 -1 -1 0
1;
#X obj 429 40 tgl 15 0 empty empty empty 17 7 0 10 -262144 -1 -1 0
1;
#X obj 444 40 tgl 15 0 empty empty empty 17 7 0 10 -262144 -1 -1 0
1;
#X obj 459 40 tgl 15 0 empty empty empty 17 7 0 10 -262144 -1 -1 0
1;
#N canvas 1 95 537 300 cs_enable 0;
#X obj 97 162 pack 0 0 0 0 0 0 0 0 0, f 54;
#X obj 110 103 t b f;
#X obj 71 65 inlet;
#X obj 110 65 inlet;
#X obj 150 103 t b f;
#X obj 150 65 inlet;
#X obj 190 103 t b f;
#X obj 190 65 inlet;
#X obj 230 103 t b f;
#X obj 230 65 inlet;
#X obj 270 103 t b f;
#X obj 270 65 inlet;
#X obj 310 103 t b f;
#X obj 310 65 inlet;
#X obj 350 103 t b f;
#X obj 350 65 inlet;
#X obj 390 103 t b f;
#X obj 390 65 inlet;
#X obj 97 184 list prepend /cs/on;
#X obj 97 206 list trim;
#X obj 97 228 outlet, f 21;
#X connect 0 0 18 0;
#X connect 1 0 0 0;
#X connect 1 1 0 1;
#X connect 2 0 0 0;
#X connect 3 0 1 0;
#X connect 4 0 0 0;
#X connect 4 1 0 2;
#X connect 5 0 4 0;
#X connect 6 0 0 0;
#X connect 6 1 0 3;
#X connect 7 0 6 0;
#X connect 8 0 0 0;
#X connect 8 1 0 4;
#X connect 9 0 8 0;
#X connect 10 0 0 0;
#X connect 10 1 0 5;
#X connect 11 0 10 0;
#X connect 12 0 0 0;
#X connect 12 1 0 6;
#X connect 13 0 12 0;
#X connect 14 0 0 0;
#X connect 14 1 0 7;
#X connect 15 0 14 0;
#X connect 16 0 0 0;
#X connect 16 1 0 8;
#X connect 17 0 16 0;
#X connect 18 0 19 0;
#X connect 19 0 20 0;
#X restore 339 59 pd cs_enable;
#X obj 84 24 declare -path ../bin;
#N canvas 1 100 450 481 prepend 0;
#X obj 176 73 inlet;
#X obj 176 197 makefilename;
#X obj 191 130 loadbang;
#X obj 191 152 \$1;
#X obj 176 93 list split 1;
#X obj 176 217 list append;
#X msg 191 177 set /b0\$1%s;
#X floatatom 216 152 5 0 0 0 - - -, f 5;
#X obj 176 257 outlet;
#X obj 176 237 list trim;
#X connect 0 0 4 0;
#X connect 1 0 5 0;
#X connect 2 0 3 0;
#X connect 3 0 6 0;
#X connect 4 0 1 0;
#X connect 4 1 5 1;
#X connect 5 0 9 0;
#X connect 6 0 1 0;
#X connect 7 0 6 0;
#X connect 9 0 8 0;
#X restore 215 268 pd prepend board id;
#X obj 364 306 spigot;
#X obj 364 328 print /b0\$1;
#X obj 397 285 tgl 15 0 empty empty monitor 17 7 0 10 -262144 -1 -1
0 1;
#X obj 518 444 cnv 15 140 50 empty \$0-boardName /b04 10 24 0 48 -233017
-66577 0;
#X obj 768 427 loadbang;
#X obj 768 493 s \$0-boardName;
#X obj 824 427 bng 15 250 50 0 empty empty empty 17 7 0 10 -262144
-1 -1;
#X obj 768 449 \$1;
#X msg 768 471 label /b0\$1;
#X obj 57 52 tgl 15 0 empty empty empty 17 7 0 10 -262144 -1 -1 0 1
;
#X obj 72 52 tgl 15 0 empty empty empty 17 7 0 10 -262144 -1 -1 0 1
;
#X obj 87 52 tgl 15 0 empty empty empty 17 7 0 10 -262144 -1 -1 0 1
;
#X obj 102 52 tgl 15 0 empty empty empty 17 7 0 10 -262144 -1 -1 0
1;
#X obj 117 52 tgl 15 0 empty empty empty 17 7 0 10 -262144 -1 -1 0
1;
#X obj 132 52 tgl 15 0 empty empty empty 17 7 0 10 -262144 -1 -1 0
1;
#X obj 147 52 tgl 15 0 empty empty empty 17 7 0 10 -262144 -1 -1 0
1;
#X obj 162 52 tgl 15 0 empty empty empty 17 7 0 10 -262144 -1 -1 0
1;
#X obj 177 52 tgl 15 0 empty empty empty 17 7 0 10 -262144 -1 -1 0
1;
#N canvas 1 115 537 300 fsr_enable 0;
#X obj 110 103 t b f;
#X obj 71 65 inlet;
#X obj 110 65 inlet;
#X obj 150 103 t b f;
#X obj 150 65 inlet;
#X obj 190 103 t b f;
#X obj 190 65 inlet;
#X obj 230 103 t b f;
#X obj 230 65 inlet;
#X obj 270 103 t b f;
#X obj 270 65 inlet;
#X obj 310 103 t b f;
#X obj 310 65 inlet;
#X obj 350 103 t b f;
#X obj 350 65 inlet;
#X obj 390 103 t b f;
#X obj 390 65 inlet;
#X obj 97 206 list trim;
#X obj 97 228 outlet, f 21;
#X obj 97 184 list prepend /fsr/on;
#X obj 97 162 pack 0 0 0 0 0 0 0 0 0, f 54;
#X connect 0 0 20 0;
#X connect 0 1 20 1;
#X connect 1 0 20 0;
#X connect 2 0 0 0;
#X connect 3 0 20 0;
#X connect 3 1 20 2;
#X connect 4 0 3 0;
#X connect 5 0 20 0;
#X connect 5 1 20 3;
#X connect 6 0 5 0;
#X connect 7 0 20 0;
#X connect 7 1 20 4;
#X connect 8 0 7 0;
#X connect 9 0 20 0;
#X connect 9 1 20 5;
#X connect 10 0 9 0;
#X connect 11 0 20 0;
#X connect 11 1 20 6;
#X connect 12 0 11 0;
#X connect 13 0 20 0;
#X connect 13 1 20 7;
#X connect 14 0 13 0;
#X connect 15 0 20 0;
#X connect 15 1 20 8;
#X connect 16 0 15 0;
#X connect 17 0 18 0;
#X connect 19 0 17 0;
#X connect 20 0 19 0;
#X restore 57 71 pd fsr_enable;
#X connect 1 0 0 0;
#X connect 2 0 8 0;
#X connect 3 0 1 0;
#X connect 4 0 1 0;
#X connect 5 0 4 0;
#X connect 5 1 34 0;
#X connect 5 2 3 0;
#X connect 6 0 7 0;
#X connect 7 0 5 0;
#X connect 8 0 5 0;
#X connect 9 0 14 0;
#X connect 10 0 5 0;
#X connect 11 0 5 0;
#X connect 12 0 13 0;
#X connect 13 0 11 0;
#X connect 14 0 10 0;
#X connect 15 0 16 0;
#X connect 16 0 17 0;
#X connect 17 0 5 0;
#X connect 18 0 5 0;
#X connect 19 0 5 0;
#X connect 20 0 21 0;
#X connect 21 0 22 0;
#X connect 22 0 5 0;
#X connect 23 0 32 0;
#X connect 24 0 32 1;
#X connect 25 0 32 2;
#X connect 26 0 32 3;
#X connect 27 0 32 4;
#X connect 28 0 32 5;
#X connect 29 0 32 6;
#X connect 30 0 32 7;
#X connect 31 0 32 8;
#X connect 32 0 5 0;
#X connect 34 0 1 0;
#X connect 34 0 35 0;
#X connect 35 0 36 0;
#X connect 37 0 35 1;
#X connect 39 0 42 0;
#X connect 41 0 42 0;
#X connect 42 0 43 0;
#X connect 43 0 40 0;
#X connect 44 0 53 0;
#X connect 45 0 53 1;
#X connect 46 0 53 2;
#X connect 47 0 53 3;
#X connect 48 0 53 4;
#X connect 49 0 53 5;
#X connect 50 0 53 6;
#X connect 51 0 53 7;
#X connect 52 0 53 8;
#X connect 53 0 5 0;
