#N canvas 56 182 1123 760 10;
#N canvas 9 424 1469 655 display_fsr 0;
#X obj 107 -263 inlet;
#X obj 107 -235 routeOSC /fsr;
#X floatatom 138 -101 5 0 0 0 scale - -, f 5;
#X floatatom 170 -75 5 0 0 0 offset - -, f 5;
#X floatatom 240 -98 5 0 0 0 scale - -, f 5;
#X floatatom 272 -72 5 0 0 0 offset - -, f 5;
#X floatatom 342 -98 5 0 0 0 scale - -, f 5;
#X floatatom 374 -72 5 0 0 0 offset - -, f 5;
#N canvas 1 115 450 300 beat-detect 0;
#X obj 143 87 t f f;
#X obj 145 117 -;
#X obj 145 137 max 0;
#X obj 145 176 max;
#X obj 184 177 f;
#X floatatom 145 198 5 0 0 0 - - -, f 5;
#X msg 188 135 0;
#X obj 188 114 bng 15 250 50 0 empty empty empty 17 7 0 10 -262144
-1 -1;
#X obj 143 64 inlet;
#X text 244 108 simple derivating;
#X text 132 220 threshold result to get beat attack;
#X connect 0 0 1 1;
#X connect 0 1 1 0;
#X connect 1 0 2 0;
#X connect 2 0 3 0;
#X connect 3 0 4 0;
#X connect 3 0 5 0;
#X connect 4 0 3 1;
#X connect 6 0 3 1;
#X connect 7 0 6 0;
#X connect 8 0 0 0;
#X restore 4 -104 pd beat-detect;
#X floatatom 445 -98 5 0 0 0 scale - -, f 5;
#X floatatom 477 -72 5 0 0 0 offset - -, f 5;
#X floatatom 547 -95 5 0 0 0 scale - -, f 5;
#X floatatom 579 -69 5 0 0 0 offset - -, f 5;
#X floatatom 649 -95 5 0 0 0 scale - -, f 5;
#X floatatom 681 -69 5 0 0 0 offset - -, f 5;
#X obj 182 -209 outlet;
#X msg 43 -211 /* on \$1;
#X obj 43 -229 tgl 15 0 empty empty empty 17 7 0 10 -262144 -1 -1 0
1;
#X floatatom 120 -137 5 0 0 0 - - -, f 5;
#X floatatom 218 -134 5 0 0 0 - - -, f 5;
#X floatatom 325 -133 5 0 0 0 - - -, f 5;
#X floatatom 430 -131 5 0 0 0 - - -, f 5;
#X floatatom 528 -131 5 0 0 0 - - -, f 5;
#X floatatom 628 -131 5 0 0 0 - - -, f 5;
#X obj 135 107 vsl 50 128 0 1 0 0 empty empty empty 0 -9 0 10 -262144
-1 -1 1179 1;
#X obj 107 -162 routeOSC /0 /1 /2 /3 /4 /5 /6 /7 /8, f 154;
#X floatatom 752 -98 5 0 0 0 scale - -, f 5;
#X floatatom 784 -72 5 0 0 0 offset - -, f 5;
#X floatatom 854 -95 5 0 0 0 scale - -, f 5;
#X floatatom 886 -69 5 0 0 0 offset - -, f 5;
#X floatatom 956 -95 5 0 0 0 scale - -, f 5;
#X floatatom 988 -69 5 0 0 0 offset - -, f 5;
#X floatatom 737 -131 5 0 0 0 - - -, f 5;
#X floatatom 835 -131 5 0 0 0 - - -, f 5;
#X floatatom 935 -131 5 0 0 0 - - -, f 5;
#X obj 414 -48 gem_display;
#X obj 107 -51 gem_display;
#X obj 311 -48 gem_display;
#X obj 209 -48 gem_display;
#X obj 618 -45 gem_display;
#X obj 516 -45 gem_display;
#X obj 721 -48 gem_display;
#X obj 925 -45 gem_display;
#X obj 823 -45 gem_display;
#X obj 111 243 cnv 15 100 40 empty empty FSR0 22 20 0 24 -233017 -66577
0;
#X obj 221 243 cnv 15 100 40 empty empty FSR1 22 20 0 24 -233017 -66577
0;
#X obj 331 243 cnv 15 100 40 empty empty FSR2 22 20 0 24 -233017 -66577
0;
#X obj 441 243 cnv 15 100 40 empty empty FSR3 22 20 0 24 -233017 -66577
0;
#X obj 551 243 cnv 15 100 40 empty empty FSR4 22 20 0 24 -233017 -66577
0;
#X obj 661 243 cnv 15 100 40 empty empty FSR5 22 20 0 24 -233017 -66577
0;
#X obj 771 243 cnv 15 100 40 empty empty FSR6 22 20 0 24 -233017 -66577
0;
#X obj 881 243 cnv 15 100 40 empty empty FSR7 22 20 0 24 -233017 -66577
0;
#X obj 991 243 cnv 15 100 40 empty empty FSR8 22 20 0 24 -233017 -66577
0;
#X obj 135 79 spigot;
#X obj 168 43 r \$0-gui;
#X obj 1126 -132 tgl 15 0 empty empty empty 17 7 0 10 -262144 -1 -1
1 1;
#X obj 1126 -112 s \$0-gui;
#X obj 245 107 vsl 50 128 0 1 0 0 empty empty empty 0 -9 0 10 -262144
-1 -1 683 1;
#X obj 245 79 spigot;
#X obj 278 43 r \$0-gui;
#X obj 355 107 vsl 50 128 0 1 0 0 empty empty empty 0 -9 0 10 -262144
-1 -1 1825 1;
#X obj 355 79 spigot;
#X obj 388 43 r \$0-gui;
#X obj 465 107 vsl 50 128 0 1 0 0 empty empty empty 0 -9 0 10 -262144
-1 -1 323 1;
#X obj 465 79 spigot;
#X obj 498 43 r \$0-gui;
#X obj 575 107 vsl 50 128 0 1 0 0 empty empty empty 0 -9 0 10 -262144
-1 -1 931 1;
#X obj 575 79 spigot;
#X obj 608 43 r \$0-gui;
#X obj 685 107 vsl 50 128 0 1 0 0 empty empty empty 0 -9 0 10 -262144
-1 -1 25 1;
#X obj 685 79 spigot;
#X obj 718 43 r \$0-gui;
#X obj 795 107 vsl 50 128 0 1 0 0 empty empty empty 0 -9 0 10 -262144
-1 -1 956 1;
#X obj 795 79 spigot;
#X obj 828 43 r \$0-gui;
#X obj 905 107 vsl 50 128 0 1 0 0 empty empty empty 0 -9 0 10 -262144
-1 -1 497 1;
#X obj 905 79 spigot;
#X obj 938 43 r \$0-gui;
#X obj 1015 107 vsl 50 128 0 1 0 0 empty empty empty 0 -9 0 10 -262144
-1 -1 646 1;
#X obj 1015 79 spigot;
#X obj 1048 43 r \$0-gui;
#X obj 1126 -175 loadbang;
#X msg 1126 -153 1;
#X connect 0 0 1 0;
#X connect 1 0 25 0;
#X connect 1 1 15 0;
#X connect 2 0 36 1;
#X connect 3 0 36 2;
#X connect 4 0 38 1;
#X connect 5 0 38 2;
#X connect 6 0 37 1;
#X connect 7 0 37 2;
#X connect 9 0 35 1;
#X connect 10 0 35 2;
#X connect 11 0 40 1;
#X connect 12 0 40 2;
#X connect 13 0 39 1;
#X connect 14 0 39 2;
#X connect 16 0 25 0;
#X connect 17 0 16 0;
#X connect 25 0 8 0;
#X connect 25 0 18 0;
#X connect 25 0 36 0;
#X connect 25 0 53 0;
#X connect 25 1 19 0;
#X connect 25 1 38 0;
#X connect 25 1 58 0;
#X connect 25 2 20 0;
#X connect 25 2 37 0;
#X connect 25 2 61 0;
#X connect 25 3 21 0;
#X connect 25 3 35 0;
#X connect 25 3 64 0;
#X connect 25 4 22 0;
#X connect 25 4 40 0;
#X connect 25 4 67 0;
#X connect 25 5 23 0;
#X connect 25 5 39 0;
#X connect 25 5 70 0;
#X connect 25 6 32 0;
#X connect 25 6 41 0;
#X connect 25 6 73 0;
#X connect 25 7 33 0;
#X connect 25 7 43 0;
#X connect 25 7 76 0;
#X connect 25 8 34 0;
#X connect 25 8 42 0;
#X connect 25 8 79 0;
#X connect 26 0 41 1;
#X connect 27 0 41 2;
#X connect 28 0 43 1;
#X connect 29 0 43 2;
#X connect 30 0 42 1;
#X connect 31 0 42 2;
#X connect 53 0 24 0;
#X connect 54 0 53 1;
#X connect 55 0 56 0;
#X connect 58 0 57 0;
#X connect 59 0 58 1;
#X connect 61 0 60 0;
#X connect 62 0 61 1;
#X connect 64 0 63 0;
#X connect 65 0 64 1;
#X connect 67 0 66 0;
#X connect 68 0 67 1;
#X connect 70 0 69 0;
#X connect 71 0 70 1;
#X connect 73 0 72 0;
#X connect 74 0 73 1;
#X connect 76 0 75 0;
#X connect 77 0 76 1;
#X connect 79 0 78 0;
#X connect 80 0 79 1;
#X connect 81 0 82 0;
#X connect 82 0 55 0;
#X coords 0 -1 1 1 1000 200 2 100 100;
#X restore 63 321 pd display_fsr;
#N canvas 83 324 1498 660 display_cs 0;
#X obj 41 -333 inlet;
#X floatatom 72 -48 5 0 0 0 scale - -, f 5;
#X floatatom 104 -22 5 0 0 0 offset - -, f 5;
#X floatatom 41 -169 5 0 0 0 - - -, f 5;
#X floatatom 174 -45 5 0 0 0 scale - -, f 5;
#X floatatom 206 -19 5 0 0 0 offset - -, f 5;
#X obj 41 -192 iir 5, f 6;
#X floatatom 277 -45 5 0 0 0 scale - -, f 5;
#X floatatom 309 -19 5 0 0 0 offset - -, f 5;
#N canvas 1 116 450 300 beat-detect 0;
#X obj 143 87 t f f;
#X obj 145 117 -;
#X obj 145 137 max 0;
#X obj 145 176 max;
#X obj 184 177 f;
#X floatatom 145 198 5 0 0 0 - - -, f 5;
#X msg 188 135 0;
#X obj 188 114 bng 15 250 50 0 empty empty empty 17 7 0 10 -262144
-1 -1;
#X obj 143 64 inlet;
#X text 244 108 simple derivating;
#X text 132 220 threshold result to get beat attack;
#X connect 0 0 1 1;
#X connect 0 1 1 0;
#X connect 1 0 2 0;
#X connect 2 0 3 0;
#X connect 3 0 4 0;
#X connect 3 0 5 0;
#X connect 4 0 3 1;
#X connect 6 0 3 1;
#X connect 7 0 6 0;
#X connect 8 0 0 0;
#X restore -62 -174 pd beat-detect;
#X floatatom 379 -45 5 0 0 0 scale - -, f 5;
#X floatatom 411 -19 5 0 0 0 offset - -, f 5;
#X floatatom 348 -169 5 0 0 0 - - -, f 5;
#X floatatom 482 -42 5 0 0 0 scale - -, f 5;
#X floatatom 514 -16 5 0 0 0 offset - -, f 5;
#X floatatom 584 -42 5 0 0 0 scale - -, f 5;
#X floatatom 616 -16 5 0 0 0 offset - -, f 5;
#X obj 143 -191 iir 5;
#X floatatom 143 -169 5 0 0 0 - - -, f 5;
#X obj 246 -191 iir 5;
#X floatatom 246 -169 5 0 0 0 - - -, f 5;
#X obj 348 -191 iir 5;
#X obj 451 -191 iir 5;
#X floatatom 451 -169 5 0 0 0 - - -, f 5;
#X obj 553 -191 iir 5;
#X floatatom 553 -169 5 0 0 0 - - -, f 5;
#X floatatom 375 -308 5 0 0 0 - - -, f 5;
#X obj 375 -334 nbx 5 14 -1e+37 1e+37 0 1 empty empty empty 0 -8 0
10 -262144 -1 -1 1 256;
#X obj 110 -281 outlet;
#X obj 41 -305 routeOSC /cs;
#X floatatom 684 -42 5 0 0 0 scale - -, f 5;
#X floatatom 716 -16 5 0 0 0 offset - -, f 5;
#X obj 653 -191 iir 5;
#X floatatom 653 -169 5 0 0 0 - - -, f 5;
#X obj 680 -211 r filter_coeff;
#X obj 455 -310 s filter_coeff;
#X floatatom 814 -42 5 0 0 0 scale - -, f 5;
#X floatatom 846 -16 5 0 0 0 offset - -, f 5;
#X obj 783 -191 iir 5;
#X floatatom 783 -169 5 0 0 0 - - -, f 5;
#X obj 810 -211 r filter_coeff;
#X obj 275 -105 pack 0 0 0 0 0 0 0 0 0;
#X obj 275 -83 s cs_proc;
#X obj 41 2 gem_display;
#X obj 41 -232 routeOSC /8 /7 /6 /5 /4 /3 /2 /1 /0, f 160;
#X floatatom 944 -42 5 0 0 0 scale - -, f 5;
#X floatatom 976 -16 5 0 0 0 offset - -, f 5;
#X obj 913 -191 iir 5;
#X floatatom 913 -169 5 0 0 0 - - -, f 5;
#X obj 940 -211 r filter_coeff;
#X obj 246 5 gem_display;
#X obj 143 5 gem_display;
#X obj 553 8 gem_display;
#X obj 451 8 gem_display;
#X obj 348 5 gem_display;
#X obj 653 8 gem_display;
#X obj 783 8 gem_display;
#X obj 913 8 gem_display;
#X obj 134 106 vsl 50 128 0 1 0 0 empty empty empty 0 -9 0 10 -262144
-1 -1 12700 1;
#X obj 110 242 cnv 15 100 40 empty empty CS0 28 20 0 24 -233017 -66577
0;
#X obj 220 242 cnv 15 100 40 empty empty CS1 28 20 0 24 -233017 -66577
0;
#X obj 330 242 cnv 15 100 40 empty empty CS2 28 20 0 24 -233017 -66577
0;
#X obj 440 242 cnv 15 100 40 empty empty CS3 28 20 0 24 -233017 -66577
0;
#X obj 550 242 cnv 15 100 40 empty empty CS4 28 20 0 24 -233017 -66577
0;
#X obj 660 242 cnv 15 100 40 empty empty CS5 28 20 0 24 -233017 -66577
0;
#X obj 770 242 cnv 15 100 40 empty empty CS6 28 20 0 24 -233017 -66577
0;
#X obj 880 242 cnv 15 100 40 empty empty CS7 28 20 0 24 -233017 -66577
0;
#X obj 990 242 cnv 15 100 40 empty empty CS8 28 20 0 24 -233017 -66577
0;
#X obj 134 78 spigot;
#X obj 167 42 r \$0-gui;
#X obj 244 106 vsl 50 128 0 1 0 0 empty empty empty 0 -9 0 10 -262144
-1 -1 0 1;
#X obj 244 78 spigot;
#X obj 277 42 r \$0-gui;
#X obj 354 106 vsl 50 128 0 1 0 0 empty empty empty 0 -9 0 10 -262144
-1 -1 0 1;
#X obj 354 78 spigot;
#X obj 387 42 r \$0-gui;
#X obj 464 106 vsl 50 128 0 1 0 0 empty empty empty 0 -9 0 10 -262144
-1 -1 0 1;
#X obj 464 78 spigot;
#X obj 497 42 r \$0-gui;
#X obj 574 106 vsl 50 128 0 1 0 0 empty empty empty 0 -9 0 10 -262144
-1 -1 0 1;
#X obj 574 78 spigot;
#X obj 607 42 r \$0-gui;
#X obj 684 106 vsl 50 128 0 1 0 0 empty empty empty 0 -9 0 10 -262144
-1 -1 0 1;
#X obj 684 78 spigot;
#X obj 717 42 r \$0-gui;
#X obj 794 106 vsl 50 128 0 1 0 0 empty empty empty 0 -9 0 10 -262144
-1 -1 0 1;
#X obj 794 78 spigot;
#X obj 827 42 r \$0-gui;
#X obj 904 106 vsl 50 128 0 1 0 0 empty empty empty 0 -9 0 10 -262144
-1 -1 0 1;
#X obj 904 78 spigot;
#X obj 937 42 r \$0-gui;
#X obj 1014 106 vsl 50 128 0 1 0 0 empty empty empty 0 -9 0 10 -262144
-1 -1 0 1;
#X obj 1014 78 spigot;
#X obj 1047 42 r \$0-gui;
#X connect 0 0 29 0;
#X connect 1 0 43 1;
#X connect 2 0 43 2;
#X connect 3 0 43 0;
#X connect 4 0 51 1;
#X connect 5 0 51 2;
#X connect 6 0 3 0;
#X connect 6 0 41 0;
#X connect 6 0 68 0;
#X connect 7 0 50 1;
#X connect 8 0 50 2;
#X connect 10 0 54 1;
#X connect 11 0 54 2;
#X connect 12 0 54 0;
#X connect 13 0 53 1;
#X connect 14 0 53 2;
#X connect 15 0 52 1;
#X connect 16 0 52 2;
#X connect 17 0 18 0;
#X connect 17 0 41 1;
#X connect 17 0 71 0;
#X connect 18 0 51 0;
#X connect 19 0 20 0;
#X connect 19 0 41 2;
#X connect 19 0 74 0;
#X connect 20 0 50 0;
#X connect 21 0 12 0;
#X connect 21 0 41 3;
#X connect 21 0 77 0;
#X connect 22 0 23 0;
#X connect 22 0 41 4;
#X connect 22 0 80 0;
#X connect 23 0 53 0;
#X connect 24 0 25 0;
#X connect 24 0 41 6;
#X connect 24 0 83 0;
#X connect 25 0 52 0;
#X connect 26 0 6 1;
#X connect 26 0 17 1;
#X connect 26 0 19 1;
#X connect 26 0 21 1;
#X connect 26 0 22 1;
#X connect 26 0 24 1;
#X connect 27 0 26 0;
#X connect 27 0 35 0;
#X connect 29 0 44 0;
#X connect 29 1 28 0;
#X connect 30 0 55 1;
#X connect 31 0 55 2;
#X connect 32 0 33 0;
#X connect 32 0 41 7;
#X connect 32 0 86 0;
#X connect 33 0 55 0;
#X connect 34 0 32 1;
#X connect 36 0 56 1;
#X connect 37 0 56 2;
#X connect 38 0 39 0;
#X connect 38 0 41 8;
#X connect 38 0 89 0;
#X connect 39 0 56 0;
#X connect 40 0 38 1;
#X connect 41 0 42 0;
#X connect 44 0 9 0;
#X connect 44 0 6 0;
#X connect 44 1 17 0;
#X connect 44 2 19 0;
#X connect 44 3 21 0;
#X connect 44 4 22 0;
#X connect 44 5 25 0;
#X connect 44 6 32 0;
#X connect 44 7 38 0;
#X connect 44 8 47 0;
#X connect 45 0 57 1;
#X connect 46 0 57 2;
#X connect 47 0 48 0;
#X connect 47 0 92 0;
#X connect 48 0 57 0;
#X connect 49 0 47 1;
#X connect 68 0 58 0;
#X connect 69 0 68 1;
#X connect 71 0 70 0;
#X connect 72 0 71 1;
#X connect 74 0 73 0;
#X connect 75 0 74 1;
#X connect 77 0 76 0;
#X connect 78 0 77 1;
#X connect 80 0 79 0;
#X connect 81 0 80 1;
#X connect 83 0 82 0;
#X connect 84 0 83 1;
#X connect 86 0 85 0;
#X connect 87 0 86 1;
#X connect 89 0 88 0;
#X connect 90 0 89 1;
#X connect 92 0 91 0;
#X connect 93 0 92 1;
#X coords 0 -1 1 1 1000 200 2 100 100;
#X restore 63 109 pd display_cs;
#X floatatom 63 595 5 0 0 1 ms - -, f 5;
#X obj 63 552 routeOSC /s/t;
#X obj 63 82 routeOSC /*;
#X obj 150 10 loadbang;
#X obj 150 32 symbol \$1;
#X msg 150 54 set \$1;
#X obj 138 572 print other_messages_\$1;
#X obj 63 574 outlet;
#X obj 63 32 r OSCdispatch;
#X obj 239 31 cnv 15 140 50 empty \$0-boardName /b00 10 24 0 48 -233017
-66577 0;
#X obj 399 14 loadbang;
#X obj 399 36 symbol \$1;
#X msg 399 58 label \$1;
#X obj 399 80 s \$0-boardName;
#X obj 455 14 bng 15 250 50 0 empty empty empty 17 7 0 10 -262144 -1
-1;
#X connect 0 0 3 0;
#X connect 1 0 0 0;
#X connect 3 0 2 0;
#X connect 3 0 9 0;
#X connect 3 1 8 0;
#X connect 4 0 1 0;
#X connect 5 0 6 0;
#X connect 6 0 7 0;
#X connect 7 0 4 0;
#X connect 10 0 4 0;
#X connect 12 0 13 0;
#X connect 13 0 14 0;
#X connect 14 0 15 0;
#X connect 16 0 13 0;
