#N canvas 748 505 737 457 10;
#X declare -path ../bin;
#X obj 10 19 declare -path ../bin;
#X obj 174 171 comport \$1 115200;
#X obj 273 283 print status\$1;
#X obj 174 332 outlet;
#X msg 452 109 info;
#X obj 174 107 spigot;
#X obj 283 171 route open;
#X obj 273 263 spigot;
#X obj 306 243 tgl 15 0 empty empty monitor_status 17 7 0 10 -262144
-1 -1 0 1;
#N canvas 1 232 292 270 prepend 0;
#X obj 101 32 inlet;
#X obj 101 156 makefilename;
#X obj 116 89 loadbang;
#X obj 116 111 \$1;
#X obj 101 52 list split 1;
#X obj 101 176 list append;
#X msg 116 136 set /b0\$1%s;
#X floatatom 141 111 5 0 0 0 - - -, f 5;
#X obj 101 216 outlet;
#X obj 101 196 list trim;
#X connect 0 0 4 0;
#X connect 1 0 5 0;
#X connect 2 0 3 0;
#X connect 3 0 6 0;
#X connect 4 0 1 0;
#X connect 4 1 5 1;
#X connect 5 0 9 0;
#X connect 6 0 1 0;
#X connect 7 0 6 0;
#X connect 9 0 8 0;
#X restore 257 348 pd prepend board id;
#X msg 257 328 /open \$1;
#X obj 283 193 tgl 15 0 empty empty connection_status 17 7 0 10 -262144
-1 -1 0 1;
#X obj 295 13 r to-arduino-\$1;
#X obj 174 13 r to-arduino-ctl-\$1;
#X obj 410 12 loadbang;
#X obj 410 32 del 1000;
#X msg 452 69 1;
#X obj 538 33 r autoConnect;
#X obj 509 214 \$1;
#X obj 306 217 inlet;
#X obj 54 303 spigot 1;
#X obj 54 325 t a b;
#X obj 54 369 list prepend set;
#X obj 54 391 list trim;
#X msg 100 329 0;
#X msg 99 238 1;
#X obj 54 347 list split 1;
#X obj 54 413 print receive_from:\$1;
#X obj 451 89 metro 5000;
#X msg 74 88 0 \$1;
#X floatatom 74 64 5 0 0 0 - - -, f 5;
#X obj 174 137 spigot 1;
#X obj 174 191 unpackOSCstream;
#X obj 201 236 routeOSC /dmx;
#X obj 268 59 t b;
#X msg 255 87 0;
#X msg 347 81 1;
#X obj 306 128 spigot 0;
#X obj 305 43 r to-arduino-dmx;
#X obj 484 192 t b b;
#X obj 487 265 t a;
#X obj 444 214 del 1000;
#X msg 444 236 0 0;
#X msg 507 234 open \$1;
#X obj 484 170 sel 0 1;
#X obj 221 116 tgl 15 0 empty empty empty 17 7 0 10 -262144 -1 -1 0
1;
#X obj 346 104 tgl 15 0 empty empty empty 17 7 0 10 -262144 -1 -1 0
1;
#X obj 174 213 t a a;
#X obj 184 310 spigot;
#X msg 201 258 0;
#X msg 229 258 1;
#X obj 184 352 s OSCdmx;
#X obj 174 290 spigot 1;
#X connect 1 0 32 0;
#X connect 1 1 6 0;
#X connect 1 1 7 0;
#X connect 4 0 1 0;
#X connect 5 0 31 0;
#X connect 6 0 10 0;
#X connect 6 0 11 0;
#X connect 6 0 5 1;
#X connect 6 0 44 0;
#X connect 7 0 2 0;
#X connect 8 0 7 1;
#X connect 10 0 9 0;
#X connect 12 0 31 0;
#X connect 13 0 5 0;
#X connect 14 0 15 0;
#X connect 15 0 4 0;
#X connect 16 0 28 0;
#X connect 17 0 28 0;
#X connect 18 0 43 0;
#X connect 19 0 8 0;
#X connect 20 0 21 0;
#X connect 21 0 26 0;
#X connect 21 1 24 0;
#X connect 22 0 23 0;
#X connect 23 0 27 0;
#X connect 24 0 20 1;
#X connect 25 0 20 1;
#X connect 26 0 22 0;
#X connect 28 0 4 0;
#X connect 29 0 1 0;
#X connect 30 0 29 0;
#X connect 31 0 1 0;
#X connect 32 0 20 0;
#X connect 32 0 47 0;
#X connect 33 0 34 0;
#X connect 33 0 49 0;
#X connect 33 0 50 0;
#X connect 34 0 35 0;
#X connect 34 0 36 0;
#X connect 35 0 45 0;
#X connect 36 0 46 0;
#X connect 37 0 1 0;
#X connect 38 0 37 0;
#X connect 39 0 41 0;
#X connect 39 1 18 0;
#X connect 40 0 1 0;
#X connect 41 0 42 0;
#X connect 43 0 40 0;
#X connect 44 0 39 0;
#X connect 44 1 42 0;
#X connect 45 0 31 1;
#X connect 46 0 37 1;
#X connect 47 0 48 0;
#X connect 47 0 52 0;
#X connect 47 1 33 0;
#X connect 48 0 51 0;
#X connect 49 0 52 1;
#X connect 50 0 48 1;
#X connect 52 0 3 0;
