#N canvas 141 366 737 425 10;
#X declare -path ../bin;
#X obj 174 194 unpackOSCstream;
#X obj 10 19 declare -path ../bin;
#X obj 174 171 comport \$1 115200;
#X obj 273 253 print status\$1;
#X obj 174 346 outlet;
#X msg 452 109 info;
#X obj 174 107 spigot;
#X obj 283 171 route open;
#X obj 273 233 spigot;
#X obj 306 213 tgl 15 0 empty empty monitor_status 17 7 0 10 -262144
-1 -1 0 1;
#N canvas 1 199 292 270 prepend 0;
#X obj 101 32 inlet;
#X obj 101 156 makefilename;
#X obj 116 89 loadbang;
#X obj 116 111 \$1;
#X obj 101 52 list split 1;
#X obj 101 176 list append;
#X msg 116 136 set /b0\$1%s;
#X floatatom 141 111 5 0 0 0 - - -, f 5;
#X obj 101 216 outlet;
#X obj 101 196 list trim;
#X connect 0 0 4 0;
#X connect 1 0 5 0;
#X connect 2 0 3 0;
#X connect 3 0 6 0;
#X connect 4 0 1 0;
#X connect 4 1 5 1;
#X connect 5 0 9 0;
#X connect 6 0 1 0;
#X connect 7 0 6 0;
#X connect 9 0 8 0;
#X restore 213 300 pd prepend board id;
#X msg 213 280 /open \$1;
#X obj 283 193 tgl 15 0 empty empty connection_status 17 7 0 10 -262144
-1 -1 1 1;
#X obj 295 13 r to-arduino-\$1;
#X obj 174 13 r to-arduino-ctl-\$1;
#X obj 410 12 loadbang;
#X obj 410 32 del 1000;
#X msg 452 69 1;
#X obj 452 89 metro 1000;
#X obj 538 33 r autoConnect;
#X obj 484 170 sel 0;
#X obj 484 190 \$1;
#X msg 484 210 open \$1;
#X connect 0 0 4 0;
#X connect 2 0 0 0;
#X connect 2 1 7 0;
#X connect 2 1 8 0;
#X connect 5 0 2 0;
#X connect 6 0 2 0;
#X connect 7 0 11 0;
#X connect 7 0 12 0;
#X connect 7 0 20 0;
#X connect 7 0 6 1;
#X connect 8 0 3 0;
#X connect 9 0 8 1;
#X connect 11 0 10 0;
#X connect 13 0 2 0;
#X connect 14 0 6 0;
#X connect 15 0 16 0;
#X connect 16 0 5 0;
#X connect 17 0 18 0;
#X connect 18 0 5 0;
#X connect 19 0 18 0;
#X connect 20 0 21 0;
#X connect 21 0 22 0;
#X connect 22 0 2 0;
