#N canvas 1 174 996 881 10;
#X declare -path ../nusmuk-audio;
#X declare -path ../puremapping -path ../av;
#X obj 143 732 * 1;
#X obj 56 4 inlet;
#X obj 143 859 outlet;
#X obj 83 200 route reset;
#N canvas 1 109 450 300 reset 0;
#X obj 180 147 t f f;
#X msg 207 187 reset \$1;
#X obj 180 127 inlet;
#X obj 128 97 inlet;
#X obj 180 228 outlet;
#X obj 207 167 once 1;
#X connect 0 0 4 0;
#X connect 0 1 5 0;
#X connect 1 0 4 0;
#X connect 2 0 0 0;
#X connect 3 0 5 1;
#X connect 5 0 1 0;
#X restore 143 448 pd reset;
#X obj 170 468 r \$1-cs_lp_filter_freq;
#X floatatom 182 490 5 0 0 0 - - -, f 5;
#X obj 158 711 r \$1-gain;
#X obj 175 107 r \$1-cs_filter_reset;
#X msg 175 130 reset;
#X text 202 33 high and low pass filter for CS;
#X obj 56 146 moses;
#X obj 56 167 t b;
#X obj 224 410 -;
#X obj 224 240 t f f;
#X obj 182 780 sqrt;
#N canvas 1 115 450 300 reset 0;
#X obj 159 -145 t f f;
#X obj 159 -165 inlet;
#X obj 107 -195 inlet;
#X obj 159 -64 outlet;
#X msg 186 -105 set \$1;
#X obj 186 -125 once 1;
#X connect 0 0 3 0;
#X connect 0 1 5 0;
#X connect 1 0 0 0;
#X connect 2 0 5 1;
#X connect 4 0 3 0;
#X connect 5 0 4 0;
#X restore 206 320 pd reset;
#X floatatom 356 333 5 0 0 0 - - -, f 5;
#X obj 251 280 iir 5;
#X obj 143 754 moses 1;
#X obj 143 837 t f;
#X text 801 346 baseline;
#X obj 759 374 timeroll 100 baseline;
#X obj 550 375 timeroll 100 raw_baseline;
#X obj 554 149 timeroll 100 raw_data_from_sensor;
#X obj 761 588 timeroll 100 after_waveshaping;
#X obj 552 590 timeroll 100 after_2pass_lp;
#X obj 554 91 / 200;
#X obj 550 347 / 200;
#X obj 759 346 / 200;
#X obj 554 71 spigot;
#X obj 587 51 r \$0-display_data;
#X obj 550 327 spigot;
#X obj 583 307 r \$0-display_data;
#X obj 759 327 spigot;
#X obj 792 307 r \$0-display_data;
#X obj 552 548 spigot;
#X obj 585 528 r \$0-display_data;
#X obj 761 568 spigot;
#X obj 794 548 r \$0-display_data;
#X obj 320 167 tgl 15 0 \$0-display_data empty display_data 17 7 0
10 -262144 -1 -1 0 1;
#X floatatom 803 328 5 0 0 0 - - -, f 5;
#X obj 56 53 resample 10;
#X obj 723 17 declare -path ../nusmuk-audio;
#X obj 476 17 declare -path ../puremapping -path ../av;
#X floatatom 342 59 5 0 0 0 - - -, f 5;
#X obj 351 95 t f;
#X obj 552 568 / 50;
#X floatatom 710 553 5 0 0 0 - - -, f 5;
#X text 637 785 parasite période : 27 samples;
#X obj 143 489 iir 5;
#X obj 338 687 timeroll 100 after_2pass_lp;
#X obj 338 645 spigot;
#X obj 371 625 r \$0-display_data;
#X obj 338 665 / 50;
#X obj 143 529 iir 5;
#X obj 251 355 speedlimiter 0.005;
#X text 286 373 baseline computation and soustraction;
#X text 207 516 2nd order low pass filter;
#X connect 0 0 19 0;
#X connect 1 0 42 0;
#X connect 3 0 4 0;
#X connect 3 0 16 0;
#X connect 3 1 14 0;
#X connect 4 0 50 0;
#X connect 5 0 6 0;
#X connect 5 0 50 1;
#X connect 5 0 55 1;
#X connect 7 0 0 1;
#X connect 8 0 9 0;
#X connect 9 0 3 0;
#X connect 11 0 12 0;
#X connect 11 1 3 0;
#X connect 13 0 4 1;
#X connect 14 0 13 0;
#X connect 14 1 18 0;
#X connect 15 0 20 0;
#X connect 16 0 56 0;
#X connect 17 0 56 1;
#X connect 18 0 16 1;
#X connect 18 0 32 0;
#X connect 19 0 20 0;
#X connect 19 1 15 0;
#X connect 20 0 2 0;
#X connect 20 0 38 0;
#X connect 27 0 24 0;
#X connect 28 0 23 0;
#X connect 29 0 22 0;
#X connect 30 0 27 0;
#X connect 31 0 30 1;
#X connect 32 0 28 0;
#X connect 33 0 32 1;
#X connect 34 0 29 0;
#X connect 34 0 41 0;
#X connect 35 0 34 1;
#X connect 36 0 47 0;
#X connect 37 0 36 1;
#X connect 38 0 25 0;
#X connect 39 0 38 1;
#X connect 42 0 11 0;
#X connect 42 0 46 0;
#X connect 45 0 46 0;
#X connect 46 0 30 0;
#X connect 47 0 26 0;
#X connect 48 0 26 1;
#X connect 50 0 52 0;
#X connect 50 0 55 0;
#X connect 52 0 54 0;
#X connect 53 0 52 1;
#X connect 54 0 51 0;
#X connect 55 0 36 0;
#X connect 55 0 0 0;
#X connect 56 0 13 1;
#X connect 56 0 34 0;
