#N canvas 330 341 575 660 10;
#X declare -path ../puremapping -path ../av;
#X obj -107 8 iir 5;
#X obj -95 -132 iir 50;
#X obj -72 204 * 1;
#X obj -204 -329 inlet;
#X obj -72 225 outlet;
#X floatatom -46 -130 5 0 0 0 - - -, f 5;
#X obj -66 125 declare -path ../puremapping -path ../av;
#X obj -177 -240 route reset;
#N canvas 1 95 450 300 reset 0;
#X obj 159 -145 t f f;
#X msg 186 -105 reset \$1;
#X obj 159 -165 inlet;
#X obj 107 -195 inlet;
#X obj 159 -64 outlet;
#X obj 186 -125 once 1;
#X connect 0 0 4 0;
#X connect 0 1 5 0;
#X connect 1 0 4 0;
#X connect 2 0 0 0;
#X connect 3 0 5 1;
#X connect 5 0 1 0;
#X restore -95 -172 pd reset;
#N canvas 1 90 450 300 reset 0;
#X obj 186 -125 once;
#X obj 159 -145 t f f;
#X msg 186 -105 reset \$1;
#X obj 159 -165 inlet;
#X obj 107 -195 inlet;
#X obj 159 -64 outlet;
#X connect 0 0 2 0;
#X connect 1 0 5 0;
#X connect 1 1 0 0;
#X connect 2 0 5 0;
#X connect 3 0 1 0;
#X connect 4 0 0 1;
#X restore -107 -32 pd reset;
#X obj -62 -152 r \$1-cs_hp_filter_freq;
#X obj -80 -12 r \$1-cs_lp_filter_freq;
#X floatatom -68 10 5 0 0 0 - - -, f 5;
#X obj -57 183 r \$1-gain;
#X obj -147 78 iir 5;
#N canvas 1 95 450 300 reset 0;
#X obj 159 -145 t f f;
#X msg 186 -105 reset \$1;
#X obj 159 -165 inlet;
#X obj 107 -195 inlet;
#X obj 159 -64 outlet;
#X obj 186 -125 once 1;
#X connect 0 0 4 0;
#X connect 0 1 5 0;
#X connect 1 0 4 0;
#X connect 2 0 0 0;
#X connect 3 0 5 1;
#X connect 5 0 1 0;
#X restore -147 38 pd reset;
#X obj -120 58 r \$1-cs_lp_filter_freq;
#X floatatom -108 80 5 0 0 0 - - -, f 5;
#X obj -85 -333 r \$1-cs_filter_reset;
#X msg -85 -310 reset;
#X text 80 -93 high and low pass filter for CS;
#X obj 33 -224 t f f;
#X obj -204 -294 moses;
#X obj -204 -273 t b;
#X floatatom -250 -241 5 0 0 0 - - -, f 5;
#X obj 69 23 print \$1-cs_timeout;
#X obj -73 -226 bng 15 250 50 0 empty empty empty 17 7 0 10 -262144
-1 -1;
#X obj -5 -87 t b;
#X obj 22 -53 once;
#X obj 46 -88 t a b;
#X obj 69 -4 spigot;
#X obj 96 -26 tgl 15 0 empty empty empty 17 7 0 10 -262144 -1 -1 0
1;
#X floatatom -105 -92 5 0 0 0 - - -, f 5;
#X obj -5 -108 moses -20;
#X obj -145 -276 sqrt;
#X obj 140 -263 speedlimiter;
#X obj 61 -401 nbx 5 40 -1e+37 1e+37 0 0 empty empty empty 0 -8 0 40
-262144 -1 -1 133.5 256;
#X connect 0 0 15 1;
#X connect 1 1 32 0;
#X connect 1 1 33 0;
#X connect 2 0 4 0;
#X connect 3 0 22 0;
#X connect 3 0 36 0;
#X connect 7 0 8 0;
#X connect 7 0 9 0;
#X connect 7 0 15 0;
#X connect 7 1 8 1;
#X connect 8 0 1 0;
#X connect 9 0 0 0;
#X connect 10 0 1 1;
#X connect 10 0 5 0;
#X connect 11 0 0 1;
#X connect 11 0 12 0;
#X connect 13 0 2 1;
#X connect 14 0 2 0;
#X connect 15 0 14 0;
#X connect 16 0 14 1;
#X connect 16 0 17 0;
#X connect 18 0 19 0;
#X connect 19 0 7 0;
#X connect 22 0 23 0;
#X connect 22 0 24 0;
#X connect 22 1 7 0;
#X connect 26 0 8 0;
#X connect 27 0 28 0;
#X connect 28 0 8 0;
#X connect 28 0 30 0;
#X connect 29 0 9 1;
#X connect 29 1 28 1;
#X connect 30 0 25 0;
#X connect 31 0 30 1;
#X connect 33 0 27 0;
#X connect 33 1 29 0;
#X connect 34 0 7 0;
