#N canvas 39 154 996 881 10;
#X declare -path ../puremapping -path ../av;
#X obj -107 48 iir 5;
#X obj -152 174 * 1;
#X obj -204 -409 inlet;
#X obj -152 301 outlet;
#X obj 197 -409 declare -path ../puremapping -path ../av;
#X obj -177 -240 route reset;
#N canvas 1 100 450 300 reset 0;
#X obj 159 -145 t f f;
#X msg 186 -105 reset \$1;
#X obj 159 -165 inlet;
#X obj 107 -195 inlet;
#X obj 159 -64 outlet;
#X obj 186 -125 once 1;
#X connect 0 0 4 0;
#X connect 0 1 5 0;
#X connect 1 0 4 0;
#X connect 2 0 0 0;
#X connect 3 0 5 1;
#X connect 5 0 1 0;
#X restore -107 8 pd reset;
#X obj -80 28 r \$1-cs_lp_filter_freq;
#X floatatom -68 50 5 0 0 0 - - -, f 5;
#X obj -137 153 r \$1-gain;
#X obj -152 117 iir 5;
#N canvas 1 100 450 300 reset 0;
#X obj 159 -145 t f f;
#X msg 186 -105 reset \$1;
#X obj 159 -165 inlet;
#X obj 107 -195 inlet;
#X obj 159 -64 outlet;
#X obj 186 -125 once 1;
#X connect 0 0 4 0;
#X connect 0 1 5 0;
#X connect 1 0 4 0;
#X connect 2 0 0 0;
#X connect 3 0 5 1;
#X connect 5 0 1 0;
#X restore -152 77 pd reset;
#X obj -125 97 r \$1-cs_lp_filter_freq;
#X floatatom -113 119 5 0 0 0 - - -, f 5;
#X obj -85 -333 r \$1-cs_filter_reset;
#X msg -85 -310 reset;
#X text -3 -415 high and low pass filter for CS;
#X obj -204 -294 moses;
#X obj -204 -273 t b;
#X floatatom -250 -241 5 0 0 0 - - -, f 5;
#X obj -145 -276 sqrt;
#X obj -185 -383 nbx 5 40 -1e+37 1e+37 0 0 empty empty empty 0 -8 0
40 -262144 -1 -1 147 256;
#X obj -36 -30 -;
#X obj -36 -200 t f f;
#X obj 142 -299 speedlimiter;
#X floatatom -9 -60 8 0 0 0 - - -, f 8;
#X obj -113 222 sqrt;
#N canvas 1 115 450 300 reset 0;
#X obj 159 -145 t f f;
#X obj 159 -165 inlet;
#X obj 107 -195 inlet;
#X obj 159 -64 outlet;
#X msg 186 -105 set \$1;
#X obj 186 -125 once 1;
#X connect 0 0 3 0;
#X connect 0 1 5 0;
#X connect 1 0 0 0;
#X connect 2 0 5 1;
#X connect 4 0 3 0;
#X connect 5 0 4 0;
#X restore -54 -120 pd reset;
#X floatatom 99 -160 5 0 0 0 - - -, f 5;
#X obj -9 -85 speedlimiter 0.001;
#X obj -9 -160 iir 5;
#X obj 22 -240 nbx 5 40 -1e+37 1e+37 0 0 empty empty empty 0 -8 0 40
-262144 -1 -1 154.878 256;
#X obj -152 196 moses 1;
#X obj -152 279 t f;
#X text 541 -134 baseline;
#X obj 499 -106 timeroll 100 baseline;
#X obj 290 -105 timeroll 100 raw_baseline;
#X obj 294 -291 timeroll 100 raw_data_from_sensor;
#X obj 296 256 timeroll 100 after_waveshaping;
#X obj 292 80 timeroll 100 after_2pass_lp;
#X obj 294 -349 / 200;
#X obj 290 -133 / 200;
#X obj 499 -134 / 200;
#X obj 292 58 / 200;
#X connect 0 0 11 1;
#X connect 1 0 32 0;
#X connect 2 0 17 0;
#X connect 2 0 21 0;
#X connect 2 0 40 0;
#X connect 5 0 6 0;
#X connect 5 0 11 0;
#X connect 5 0 27 0;
#X connect 5 1 23 0;
#X connect 6 0 0 0;
#X connect 7 0 0 1;
#X connect 7 0 8 0;
#X connect 9 0 1 1;
#X connect 10 0 1 0;
#X connect 10 0 43 0;
#X connect 11 0 10 0;
#X connect 12 0 10 1;
#X connect 12 0 13 0;
#X connect 14 0 15 0;
#X connect 15 0 5 0;
#X connect 17 0 18 0;
#X connect 17 0 19 0;
#X connect 17 1 5 0;
#X connect 20 0 5 0;
#X connect 22 0 6 1;
#X connect 23 0 22 0;
#X connect 23 1 30 0;
#X connect 26 0 33 0;
#X connect 27 0 29 0;
#X connect 28 0 29 1;
#X connect 29 0 22 1;
#X connect 29 0 25 0;
#X connect 29 0 42 0;
#X connect 30 0 27 1;
#X connect 30 0 31 0;
#X connect 30 0 41 0;
#X connect 32 0 33 0;
#X connect 32 1 26 0;
#X connect 33 0 3 0;
#X connect 33 0 38 0;
#X connect 40 0 37 0;
#X connect 41 0 36 0;
#X connect 42 0 35 0;
#X connect 43 0 39 0;
