#N canvas 58 310 624 500 10;
#X declare -path ../puremapping;
#X obj 167 -43 inlet, f 6;
#X obj 212 311 outlet;
#X obj 212 69 / 1023;
#X obj 167 203 iir 1000;
#X obj 281 168 declare -path ../puremapping;
#X obj 212 132 r \$1-fsr_hp_filter_freq;
#X floatatom 354 259 5 0 0 0 - - -, f 5;
#X obj 167 48 route reset;
#N canvas 110 193 450 300 reset 1;
#X obj 159 -145 t f f;
#X msg 186 -105 reset \$1;
#X obj 159 -165 inlet;
#X obj 107 -195 inlet;
#X obj 159 -64 outlet;
#X obj 186 -125 once 1;
#X connect 0 0 4 0;
#X connect 0 1 5 0;
#X connect 1 0 4 0;
#X connect 2 0 0 0;
#X connect 3 0 5 1;
#X connect 5 0 1 0;
#X restore 167 90 pd reset;
#X obj 270 -30 r \$1-cs_filter_reset;
#X msg 270 -8 reset;
#X connect 0 0 7 0;
#X connect 2 0 8 1;
#X connect 3 1 1 0;
#X connect 5 0 6 0;
#X connect 5 0 3 1;
#X connect 7 0 8 0;
#X connect 7 1 2 0;
#X connect 8 0 3 0;
#X connect 9 0 10 0;
#X connect 10 0 7 0;
