#N canvas 996 123 696 956 10;
#X obj 64 64 list;
#X obj 64 176 list split 1;
#X obj 64 198 t b a;
#X obj 102 226 list;
#X obj 91 271 t f b;
#X obj 148 294 + 1;
#X obj 118 294 f;
#X obj 64 121 t a b;
#X msg 166 240 0;
#X obj 85 42 list split 200;
#X text 127 67 shift register;
#X text 143 178 iterator;
#X text 172 294 table populator;
#X obj 64 -98 inlet;
#X obj 300 21 color 1 0 0;
#X obj 389 434 loadbang;
#X obj 363 -1 hsv2rgb;
#X obj 405 -192 loadbang;
#X msg 363 -23 \$1 1 1;
#X obj 377 146 r scale;
#X floatatom 377 190 5 0 0 0 - - -, f 5;
#X obj 378 75 r offset;
#X obj 327 298 \$0;
#X obj 378 95 - 4;
#X obj 300 -314 t f b;
#X obj 327 -293 \$1;
#X obj 300 -155 &;
#X obj 327 -273 / 4;
#X obj 327 -253 int;
#X obj 327 -192 <<;
#X obj 327 -232 t b f;
#X msg 327 -212 1;
#X floatatom 340 -164 5 0 0 0 - - -, f 5;
#X obj 300 -133 >>;
#X obj 59 -329 loadbang;
#X msg 59 -307 200;
#X obj 59 -265 until;
#X obj 59 -243 f;
#X obj 84 -243 + 1;
#X obj 59 -202 / 199;
#X obj 59 -142 tabwrite tabX-\$0;
#X obj 91 326 tabwrite tabY-\$0;
#X obj 66 373 table tabY-\$0 200;
#X obj 66 393 table tabX-\$0 200;
#X obj 59 -223 t f f;
#X obj 59 -285 t f b;
#X msg 98 -265 0;
#X obj 473 -65 inlet;
#X msg 59 -182 1 \$1;
#X obj 59 -162 -;
#X obj 513 -65 inlet;
#X obj 327 514 _gemvertexbuffer 200;
#X msg 328 319 posX tabX-\$1 \, posY tabY-\$1;
#X obj 300 396 route gem_state;
#X obj 300 420 route 0 1;
#X obj 300 273 t a b;
#X obj 300 372 t a a;
#X obj 462 -192 bng 15 250 50 0 empty empty empty 17 7 0 10 -262144
-1 -1;
#X obj 405 -170 \$0;
#X floatatom 377 -123 5 0 0 0 - - -, f 5;
#X obj 405 -149 % 1000;
#X msg 384 24 set \$1 \$2 \$3;
#X msg 384 46 1 0 0;
#X floatatom 416 -122 5 0 0 0 - - -, f 5;
#X obj 405 -97 * 0.2;
#X floatatom 405 -53 5 0 0 0 - - -, f 5;
#X obj 405 -75 wrap 1;
#X obj 110 14 s tabX-\$0;
#X obj 173 14 s tabY-\$0;
#X obj 217 406 r tabX-\$0;
#X obj 217 428 route size;
#X msg 217 472 resize \$1;
#X obj 217 450 f 200;
#X msg 389 456 draw linestrip;
#X msg 110 -8 resize \$1;
#X msg 173 -8 resize \$1;
#X obj 64 -77 route float color size on;
#X obj 300 221 scaleXYZ 32 8 1;
#X obj 300 -111 gemhead -50;
#X obj 64 -5 / 1;
#X obj 590 -366 inlet;
#X obj 326 -133 tgl 15 0 empty empty empty 17 7 0 10 -262144 -1 -1
0 1;
#X obj 300 121 translateXYZ -16 -4 0;
#X connect 0 0 7 0;
#X connect 0 0 9 0;
#X connect 1 0 2 0;
#X connect 1 1 3 1;
#X connect 2 0 3 0;
#X connect 2 1 4 0;
#X connect 3 0 1 0;
#X connect 4 0 41 0;
#X connect 4 1 6 0;
#X connect 5 0 6 1;
#X connect 6 0 5 0;
#X connect 6 0 41 1;
#X connect 7 0 1 0;
#X connect 7 1 8 0;
#X connect 8 0 6 1;
#X connect 9 0 0 1;
#X connect 9 2 0 1;
#X connect 13 0 76 0;
#X connect 14 0 82 0;
#X connect 15 0 73 0;
#X connect 16 0 14 1;
#X connect 16 0 61 0;
#X connect 17 0 58 0;
#X connect 18 0 16 0;
#X connect 19 0 20 0;
#X connect 20 0 77 2;
#X connect 21 0 23 0;
#X connect 22 0 52 0;
#X connect 23 0 82 2;
#X connect 24 0 26 0;
#X connect 24 1 25 0;
#X connect 25 0 27 0;
#X connect 26 0 33 0;
#X connect 27 0 28 0;
#X connect 28 0 30 0;
#X connect 29 0 32 0;
#X connect 29 0 26 1;
#X connect 30 0 31 0;
#X connect 30 1 29 1;
#X connect 31 0 29 0;
#X connect 33 0 78 0;
#X connect 33 0 81 0;
#X connect 34 0 35 0;
#X connect 35 0 45 0;
#X connect 36 0 37 0;
#X connect 37 0 38 0;
#X connect 37 0 44 0;
#X connect 38 0 37 1;
#X connect 39 0 48 0;
#X connect 44 0 39 0;
#X connect 44 1 40 1;
#X connect 45 0 36 0;
#X connect 45 1 46 0;
#X connect 46 0 37 1;
#X connect 47 0 20 0;
#X connect 48 0 49 0;
#X connect 49 0 40 0;
#X connect 50 0 23 0;
#X connect 52 0 51 0;
#X connect 53 0 54 0;
#X connect 54 1 73 0;
#X connect 54 1 72 0;
#X connect 55 0 56 0;
#X connect 55 1 22 0;
#X connect 56 0 53 0;
#X connect 56 1 51 0;
#X connect 57 0 58 0;
#X connect 58 0 59 0;
#X connect 58 0 60 0;
#X connect 60 0 63 0;
#X connect 60 0 64 0;
#X connect 61 0 62 0;
#X connect 64 0 66 0;
#X connect 65 0 18 0;
#X connect 66 0 65 0;
#X connect 69 0 70 0;
#X connect 70 0 72 0;
#X connect 71 0 51 0;
#X connect 72 0 71 0;
#X connect 73 0 51 0;
#X connect 74 0 67 0;
#X connect 75 0 68 0;
#X connect 76 0 79 0;
#X connect 76 1 14 1;
#X connect 76 2 74 0;
#X connect 76 2 75 0;
#X connect 76 3 78 0;
#X connect 77 0 55 0;
#X connect 78 0 14 0;
#X connect 79 0 0 0;
#X connect 80 0 24 0;
#X connect 82 0 77 0;
