#N canvas 713 730 578 293 10;
#X declare -path ../av;
#X declare -path ../av;
#X obj 119 -283 declare -path ../av;
#N canvas 707 179 450 300 tables 0;
#X obj 59 -309 loadbang;
#X msg 59 -287 200;
#X obj 59 -245 until;
#X obj 59 -223 f;
#X obj 84 -223 + 1;
#X obj 59 -182 / 199;
#X obj 59 -203 t f f;
#X obj 59 -265 t f b;
#X msg 98 -245 0;
#X msg 59 -162 1 \$1;
#X obj 59 -142 -;
#X obj 59 -122 tabwrite tabX-\$0;
#X obj 230 -257 table tabX-\$0 200;
#X obj 230 -297 table tabFSR-\$0 200;
#X floatatom 246 -174 5 0 0 0 size - -, f 5;
#X msg 246 -155 size \$1;
#X obj 246 -133 s tabX-\$0;
#X obj 256 -113 s tabFSR-\$0;
#X obj 230 -277 table tabCS-\$0 200;
#X obj 266 -93 s tabCS-\$0;
#X obj 45 -329 r gem_display_loadbang;
#X connect 0 0 1 0;
#X connect 1 0 7 0;
#X connect 2 0 3 0;
#X connect 3 0 4 0;
#X connect 3 0 6 0;
#X connect 4 0 3 1;
#X connect 5 0 9 0;
#X connect 6 0 5 0;
#X connect 6 1 11 1;
#X connect 7 0 2 0;
#X connect 7 1 8 0;
#X connect 8 0 3 1;
#X connect 9 0 10 0;
#X connect 10 0 11 0;
#X connect 14 0 15 0;
#X connect 15 0 16 0;
#X connect 15 0 17 0;
#X connect 15 0 19 0;
#X connect 20 0 1 0;
#X restore 119 -263 pd tables;
#N canvas 1 120 450 454 FSR 0;
#X obj -42 94 list;
#X obj -42 206 list split 1;
#X obj -42 228 t b a;
#X obj -4 256 list;
#X obj 145 301 t f b;
#X obj 202 324 + 1;
#X obj 172 324 f;
#X obj -42 151 t a b;
#X msg 220 270 0;
#X obj -21 72 list split 200;
#X text 21 97 shift register;
#X text 37 208 iterator;
#X text 226 324 table populator;
#X obj -42 25 / 1;
#X obj 118 -6 r fsr-\$1;
#X obj 145 406 tabwrite tabFSR-\$0;
#X obj 202 345 % 200;
#X obj 316 407 outlet;
#X connect 0 0 7 0;
#X connect 0 0 9 0;
#X connect 1 0 2 0;
#X connect 1 1 3 1;
#X connect 2 0 3 0;
#X connect 3 0 1 0;
#X connect 4 0 15 0;
#X connect 4 1 6 0;
#X connect 5 0 16 0;
#X connect 6 0 5 0;
#X connect 6 0 15 1;
#X connect 6 0 17 0;
#X connect 7 0 1 0;
#X connect 7 1 8 0;
#X connect 8 0 6 1;
#X connect 9 0 0 1;
#X connect 9 2 0 1;
#X connect 13 0 0 0;
#X connect 14 0 4 0;
#X connect 16 0 6 1;
#X restore 199 -223 pd FSR;
#N canvas 1 150 450 454 CS 0;
#X obj 18 94 list;
#X obj 18 206 list split 1;
#X obj 18 228 t b a;
#X obj 56 256 list;
#X obj 145 301 t f b;
#X obj 202 324 + 1;
#X obj 172 324 f;
#X obj 18 151 t a b;
#X msg 102 175 0;
#X obj 39 72 list split 200;
#X text 81 97 shift register;
#X text 97 208 iterator;
#X text 226 324 table populator;
#X obj 18 25 / 1;
#X obj 208 94 r cs-\$1;
#X obj 152 430 tabwrite tabCS-\$0;
#X obj 202 344 % 200;
#X obj 302 402 outlet;
#X text 321 134 table populator;
#X connect 0 0 7 0;
#X connect 0 0 9 0;
#X connect 1 0 2 0;
#X connect 1 1 3 1;
#X connect 2 0 3 0;
#X connect 2 1 4 0;
#X connect 3 0 1 0;
#X connect 4 0 15 0;
#X connect 4 1 6 0;
#X connect 5 0 16 0;
#X connect 6 0 5 0;
#X connect 6 0 17 0;
#X connect 6 0 15 1;
#X connect 7 0 1 0;
#X connect 7 1 8 0;
#X connect 8 0 6 1;
#X connect 9 0 0 1;
#X connect 9 2 0 1;
#X connect 13 0 0 0;
#X connect 14 0 4 0;
#X connect 16 0 6 1;
#X restore 119 -223 pd CS;
#N canvas 1134 212 627 806 displayFSR 0;
#X obj 265 -165 color 1 0 0;
#X obj 354 279 loadbang;
#X obj 339 -409 hsv2rgb;
#X obj 341 -587 loadbang;
#X msg 339 -431 \$1 1 1;
#X obj 292 143 \$0;
#X obj 265 241 route gem_state;
#X obj 265 265 route 0 1;
#X obj 265 118 t a b;
#X obj 265 217 t a a;
#X obj 398 -587 bng 15 250 50 0 empty empty empty 17 7 0 10 -262144
-1 -1;
#X obj 341 -565 \$0;
#X floatatom 313 -518 5 0 0 0 - - -, f 5;
#X obj 341 -544 % 1000;
#X msg 362 -164 set \$1 \$2 \$3;
#X msg 362 -142 0.799995 0 1;
#X floatatom 352 -517 5 0 0 0 - - -, f 5;
#X obj 341 -492 * 0.2;
#X floatatom 341 -448 5 0 0 0 - - -, f 5;
#X obj 341 -470 wrap 1;
#X obj 182 251 r tabX-\$0;
#X obj 182 273 route size;
#X msg 182 317 resize \$1;
#X obj 182 295 f 200;
#X msg 354 301 draw linestrip;
#X obj 265 -277 gemhead -50;
#X obj 265 -298 tgl 15 0 empty empty empty 17 7 0 10 -262144 -1 -1
0 1;
#X obj 340 361 _gemvertexbuffer 200;
#X msg 292 164 posX tabX-\$1 \, posY tabFSR-\$1;
#X obj 482 -107 r gemwin_dimen;
#X obj 482 -85 unpack;
#X obj 482 -56 /;
#X floatatom 482 -34 5 0 0 0 - - -, f 5;
#X obj 265 -320 inlet;
#X msg 12 112 font ../data/vera.ttf;
#X obj -9 133 text2d FSR-\$1;
#X obj -9 40 translateXYZ;
#X obj 79 -27 tabread tabFSR-\$0;
#X obj -6 -153 gemhead;
#X obj -9 -114 color;
#X obj 67 66 loadbang;
#X msg 67 86 12;
#X obj 79 -7 * 8;
#X obj 79 13 - 3.5;
#X obj 14 -44 t a;
#X obj -9 -93 t a b;
#X obj 25 -20 * 0.8;
#X obj 14 6 * 3.8;
#X obj 158 -359 declare -path ../av;
#X obj 412 275 r gem_display_loadbang;
#X obj 453 -155 r gem_display_loadbang;
#X msg 453 -133 1024 256;
#X obj 285 -606 r gem_display_loadbang;
#X obj 127 67 r gem_display_loadbang;
#X obj 79 -51 f;
#X obj 94 -186 inlet;
#X obj 73 -511 r colorMode;
#X obj 73 -489 sel 0 1 2;
#X obj 329 -212 t a;
#X obj 31 -561 vradio 15 1 0 3 empty empty empty 0 -8 0 10 -262144
-1 -1 0;
#X text 48 -560 light blue;
#X text 48 -546 geeky green;
#X text 48 -531 full color;
#X msg 83 -454 0 1 0;
#X msg 136 -455 0.67 0.67 1;
#X obj 3 -211 loadbang;
#X msg 3 -189 0;
#X obj 144 -98 * -32;
#X obj 144 -76 + 48;
#X obj 291 292 t a a;
#X floatatom 307 -25 5 0 0 0 - - -, f 5;
#X obj 407 6 * 4;
#X floatatom 433 60 5 0 0 0 - - -, f 5;
#X floatatom 345 -22 5 0 0 0 - - -, f 5;
#X obj 440 6 * -8;
#X obj 266 35 translateXYZ 16 -4 0;
#X obj 144 -120 / 199;
#X obj 292 331 translateXYZ 0.99 0 0;
#X obj 266 96 scaleXYZ -32 8 1;
#X connect 0 0 75 0;
#X connect 1 0 24 0;
#X connect 2 0 58 0;
#X connect 3 0 11 0;
#X connect 4 0 2 0;
#X connect 5 0 28 0;
#X connect 6 0 7 0;
#X connect 7 1 23 0;
#X connect 7 1 24 0;
#X connect 8 0 9 0;
#X connect 8 1 5 0;
#X connect 9 0 6 0;
#X connect 9 1 69 0;
#X connect 10 0 11 0;
#X connect 11 0 12 0;
#X connect 11 0 13 0;
#X connect 13 0 16 0;
#X connect 13 0 17 0;
#X connect 14 0 15 0;
#X connect 17 0 19 0;
#X connect 18 0 4 0;
#X connect 19 0 18 0;
#X connect 20 0 21 0;
#X connect 21 0 23 0;
#X connect 22 0 27 0;
#X connect 23 0 22 0;
#X connect 24 0 27 0;
#X connect 25 0 0 0;
#X connect 26 0 25 0;
#X connect 26 0 38 0;
#X connect 28 0 27 0;
#X connect 29 0 30 0;
#X connect 30 0 31 0;
#X connect 30 1 31 1;
#X connect 31 0 32 0;
#X connect 31 0 44 0;
#X connect 31 0 71 0;
#X connect 31 0 74 0;
#X connect 33 0 26 0;
#X connect 34 0 35 0;
#X connect 36 0 35 0;
#X connect 37 0 42 0;
#X connect 38 0 39 0;
#X connect 39 0 45 0;
#X connect 40 0 41 0;
#X connect 40 0 34 0;
#X connect 41 0 35 1;
#X connect 42 0 43 0;
#X connect 43 0 36 2;
#X connect 44 0 46 0;
#X connect 44 0 47 0;
#X connect 45 0 36 0;
#X connect 45 1 54 0;
#X connect 46 0 43 1;
#X connect 47 0 36 1;
#X connect 49 0 24 0;
#X connect 50 0 51 0;
#X connect 51 0 30 0;
#X connect 52 0 11 0;
#X connect 53 0 41 0;
#X connect 53 0 34 0;
#X connect 54 0 37 0;
#X connect 55 0 54 1;
#X connect 55 0 76 0;
#X connect 56 0 57 0;
#X connect 57 0 63 0;
#X connect 57 1 64 0;
#X connect 58 0 0 1;
#X connect 58 0 39 1;
#X connect 58 0 14 0;
#X connect 59 0 57 0;
#X connect 63 0 58 0;
#X connect 64 0 58 0;
#X connect 65 0 66 0;
#X connect 66 0 38 0;
#X connect 67 0 68 0;
#X connect 68 0 75 1;
#X connect 69 0 77 0;
#X connect 69 1 27 0;
#X connect 70 0 75 1;
#X connect 71 0 75 1;
#X connect 72 0 78 2;
#X connect 73 0 75 2;
#X connect 74 0 78 1;
#X connect 75 0 78 0;
#X connect 76 0 67 0;
#X connect 77 0 27 0;
#X connect 78 0 8 0;
#X restore 199 -163 pd displayFSR;
#N canvas 347 106 627 917 displayCS 0;
#X obj 265 -115 color 1 0 0;
#X obj 354 219 loadbang;
#X obj 346 -182 hsv2rgb;
#X obj 388 -373 loadbang;
#X obj 508 -70 r offset;
#X obj 292 83 \$0;
#X obj 265 181 route gem_state;
#X obj 265 205 route 0 1;
#X obj 265 58 t a b;
#X obj 265 157 t a a;
#X obj 445 -373 bng 15 250 50 0 empty empty empty 17 7 0 10 -262144
-1 -1;
#X obj 388 -351 \$0;
#X floatatom 360 -304 5 0 0 0 - - -, f 5;
#X obj 388 -330 % 1000;
#X msg 349 -112 set \$1 \$2 \$3;
#X msg 349 -90 0.899998 0.5 1;
#X floatatom 399 -303 5 0 0 0 - - -, f 5;
#X obj 388 -278 * 0.2;
#X floatatom 388 -234 5 0 0 0 - - -, f 5;
#X obj 388 -256 wrap 1;
#X obj 182 191 r tabX-\$0;
#X obj 182 213 route size;
#X msg 182 257 resize \$1;
#X obj 182 235 f 200;
#X msg 354 241 draw linestrip;
#X obj 265 -227 gemhead -50;
#X obj 265 -248 tgl 15 0 empty empty empty 17 7 0 10 -262144 -1 -1
1 1;
#X obj 366 352 _gemvertexbuffer 200;
#X floatatom 300 12 5 0 0 0 - - -, f 5;
#X obj 482 -167 r gemwin_dimen;
#X obj 482 -145 unpack;
#X obj 482 -116 /;
#X floatatom 482 -94 5 0 0 0 - - -, f 5;
#X obj 247 -288 inlet;
#X msg 292 104 posX tabX-\$1 \, posY tabCS-\$1;
#X obj 5 131 translateXYZ;
#X obj 5 -62 gemhead;
#X obj 5 -23 color;
#X obj 81 157 loadbang;
#X msg 81 177 12;
#X obj 93 84 * 8;
#X obj 93 104 - 3.5;
#X obj 28 47 t a;
#X obj 5 -2 t a b;
#X obj 39 71 * 0.8;
#X obj 441 -166 bng 15 250 50 0 empty empty empty 17 7 0 10 -262144
-1 -1;
#X obj 5 224 text2d CS-\$1;
#X msg 346 -204 \$1 0.5 1;
#X obj 93 64 tabread tabCS-\$0;
#X obj 28 98 * 3.8;
#X obj 461 -213 r gem_display_loadbang;
#X msg 461 -191 1024 256;
#X obj 363 -399 r gem_display_loadbang;
#X obj 412 215 r gem_display_loadbang;
#X obj 86 135 r gem_display_loadbang;
#X obj 108 -184 inlet;
#X obj 93 24 f;
#X obj 509 -50 - 4.5;
#X floatatom 430 -24 5 0 0 0 - - -, f 5;
#X obj 432 -4 * -8;
#X obj 156 24 * 8;
#X obj 265 31 scaleXYZ 32 8 1;
#X floatatom 521 61 5 0 0 0 - - -, f 5;
#X floatatom 386 48 5 0 0 0 - - -, f 5;
#X floatatom 326 -56 5 0 0 0 - - -, f 5;
#X floatatom 289 -58 5 0 0 0 - - -, f 5;
#X obj 154 -432 r colorMode;
#X obj 154 -410 sel 0 1 2;
#X obj 327 -148 t a;
#X obj 5 -137 loadbang;
#X msg 5 -115 0;
#X obj 112 -482 vradio 15 1 0 3 empty empty empty 0 -8 0 10 -262144
-1 -1 0;
#X text 129 -481 light blue;
#X text 129 -467 geeky green;
#X text 129 -452 full color;
#X msg 116 -245 0 1 0;
#X obj 240 -338 pack 0 0 0;
#X floatatom 262 -387 5 0 0 0 - - -, f 5;
#X obj 262 -368 t b f;
#X floatatom 301 -388 5 0 0 0 - - -, f 5;
#X obj 301 -369 t b f;
#X floatatom 224 -387 5 0 0 0 - - -, f 5;
#X floatatom 257 -415 5 0 0 0 - - -, f 5;
#X msg 169 -246 0.67 0.67 1;
#X obj 440 -54 * -8;
#X obj 407 -54 * 4;
#X obj 144 -120 / 199;
#X obj 144 -98 * -32;
#X obj 144 -76 + 48;
#X obj 291 260 t a a;
#X obj 265 -15 translateXYZ 16 -4 0;
#X obj 291 319 translateXYZ 0.99 0 0;
#X connect 0 0 90 0;
#X connect 1 0 24 0;
#X connect 2 0 68 0;
#X connect 3 0 11 0;
#X connect 4 0 57 0;
#X connect 5 0 34 0;
#X connect 6 0 7 0;
#X connect 7 1 24 0;
#X connect 7 1 23 0;
#X connect 8 0 9 0;
#X connect 8 1 5 0;
#X connect 9 0 6 0;
#X connect 9 1 89 0;
#X connect 10 0 11 0;
#X connect 11 0 12 0;
#X connect 11 0 13 0;
#X connect 13 0 16 0;
#X connect 13 0 17 0;
#X connect 14 0 15 0;
#X connect 17 0 19 0;
#X connect 18 0 47 0;
#X connect 19 0 18 0;
#X connect 20 0 21 0;
#X connect 21 0 23 0;
#X connect 22 0 27 0;
#X connect 23 0 22 0;
#X connect 24 0 27 0;
#X connect 25 0 0 0;
#X connect 26 0 25 0;
#X connect 26 0 36 0;
#X connect 28 0 61 1;
#X connect 29 0 30 0;
#X connect 30 0 31 0;
#X connect 30 1 31 1;
#X connect 31 0 32 0;
#X connect 31 0 42 0;
#X connect 31 0 84 0;
#X connect 31 0 85 0;
#X connect 33 0 26 0;
#X connect 34 0 27 0;
#X connect 35 0 46 0;
#X connect 36 0 37 0;
#X connect 37 0 43 0;
#X connect 38 0 39 0;
#X connect 39 0 46 1;
#X connect 40 0 41 0;
#X connect 41 0 35 2;
#X connect 42 0 44 0;
#X connect 42 0 49 0;
#X connect 43 0 35 0;
#X connect 43 1 56 0;
#X connect 44 0 41 1;
#X connect 45 0 31 0;
#X connect 47 0 2 0;
#X connect 48 0 40 0;
#X connect 49 0 35 1;
#X connect 50 0 51 0;
#X connect 51 0 30 0;
#X connect 52 0 11 0;
#X connect 53 0 24 0;
#X connect 54 0 39 0;
#X connect 55 0 56 1;
#X connect 55 0 86 0;
#X connect 56 0 48 0;
#X connect 57 0 90 2;
#X connect 58 0 59 0;
#X connect 58 0 60 0;
#X connect 59 0 61 2;
#X connect 60 0 40 1;
#X connect 61 0 8 0;
#X connect 62 0 90 2;
#X connect 63 0 61 2;
#X connect 64 0 90 2;
#X connect 65 0 90 1;
#X connect 66 0 67 0;
#X connect 67 0 75 0;
#X connect 67 1 83 0;
#X connect 67 2 11 0;
#X connect 68 0 0 1;
#X connect 68 0 14 0;
#X connect 68 0 37 1;
#X connect 69 0 70 0;
#X connect 70 0 36 0;
#X connect 71 0 67 0;
#X connect 75 0 68 0;
#X connect 76 0 68 0;
#X connect 77 0 78 0;
#X connect 78 0 76 0;
#X connect 78 1 76 1;
#X connect 79 0 80 0;
#X connect 80 0 76 0;
#X connect 80 1 76 2;
#X connect 81 0 76 0;
#X connect 82 0 77 0;
#X connect 82 0 81 0;
#X connect 83 0 68 0;
#X connect 84 0 61 1;
#X connect 85 0 90 1;
#X connect 86 0 87 0;
#X connect 87 0 88 0;
#X connect 88 0 90 1;
#X connect 89 0 91 0;
#X connect 89 1 27 0;
#X connect 90 0 61 0;
#X connect 91 0 27 0;
#X restore 119 -163 pd displayCS;
#X obj 285 -213 tgl 15 0 empty empty empty 17 7 0 10 -262144 -1 -1
0 1;
#X obj 174 -199 tgl 15 0 empty empty empty 17 7 0 10 -262144 -1 -1
1 1;
#X obj 276 -261 r raw_display;
#X connect 2 0 4 0;
#X connect 3 0 5 0;
#X connect 6 0 4 1;
#X connect 7 0 5 1;
#X connect 8 0 6 0;
#X connect 8 0 7 0;
