#N canvas 987 570 464 159 10;
#X declare -path bin;
#N canvas 541 414 1221 665 script 0;
#X obj 200 208 f;
#X obj 225 208 + 1;
#X msg 241 181 0;
#X obj 182 120 t b b b;
#X obj 182 93 bng 15 250 50 0 empty empty empty 17 7 0 10 -262144 -1
-1;
#X obj 157 300 i;
#X obj 200 230 t a a a a;
#X obj 200 186 until;
#X obj 157 345 + 10;
#X obj 197 345 + 40;
#X obj 243 293 t f f f;
#X obj 236 346 + 1;
#X obj 197 323 * 20;
#X obj 157 323 * 170;
#X msg 201 141 100;
#X obj 201 163 t f f;
#X obj 157 278 / 20;
#X obj 197 278 % 20;
#X obj 24 489 pack 0 0 0 0;
#X obj 70 439 t f f;
#X obj 70 461 + 1;
#X obj 100 461 + 2;
#X obj 24 397 f;
#X obj 47 417 + 40;
#X obj 309 306 \$1;
#X obj 758 229 f;
#X obj 783 229 + 1;
#X msg 799 202 0;
#X obj 740 141 t b b b;
#X obj 740 114 bng 15 250 50 0 empty empty empty 17 7 0 10 -262144
-1 -1;
#X obj 715 321 i;
#X obj 758 251 t a a a a;
#X obj 758 207 until;
#X obj 715 366 + 10;
#X obj 755 366 + 40;
#X obj 805 316 t f f f;
#X obj 790 369 + 1;
#X obj 755 344 * 20;
#X obj 715 344 * 170;
#X msg 759 162 100;
#X obj 759 184 t f f;
#X obj 715 299 / 20;
#X obj 755 299 % 20;
#X msg 582 533 obj \$1 \$2 GEMglEnd \, connect \$3 0 \$4 0;
#X obj 582 510 pack 0 0 0 0;
#X obj 628 460 t f f;
#X obj 628 482 + 1;
#X obj 658 482 + 2;
#X obj 582 418 f;
#X obj 605 438 + 40;
#X obj 867 327 \$1;
#X obj 314 260 bng 15 250 50 0 empty empty empty 17 7 0 10 -262144
-1 -1;
#X obj 281 376 bng 15 250 50 0 empty empty empty 17 7 0 10 -262144
-1 -1;
#X floatatom 309 328 5 0 0 0 - - -, f 5;
#X obj 338 91 t b b;
#X msg 24 512 obj \$1 \$2 GEMglEnd \, connect \$3 0 \$4 0;
#X msg 935 327 clear \, obj 10 10 oscillo_gemhead;
#X msg 375 306 clear \, obj 10 10 oscillo_gemhead;
#X obj 338 4 r gem_oscillo_loadbang;
#X obj 491 1 loadbang;
#X obj 410 77 print gem_oscillo-\$1;
#X msg 1009 414 clear;
#X obj 904 606 s pd-\$0-draw-fsr-line;
#X obj 346 584 s pd-\$0-draw-cs-line;
#X obj 338 65 del 1;
#X obj 715 427 pack 0 0 0 0 f;
#X msg 716 448 obj \$1 \$2 _GEMglVertex2d \$4 fsr-\$5 \, connect \$4
0 \$3 0;
#X obj 157 406 pack 0 0 0 0 0;
#X msg 157 427 obj \$1 \$2 _GEMglVertex2d \$4 cs-\$5 \, connect \$4
0 \$3 0;
#X connect 0 0 1 0;
#X connect 0 0 6 0;
#X connect 1 0 0 1;
#X connect 2 0 0 1;
#X connect 3 0 22 0;
#X connect 3 1 14 0;
#X connect 3 2 2 0;
#X connect 3 2 24 0;
#X connect 3 2 57 0;
#X connect 4 0 3 0;
#X connect 5 0 13 0;
#X connect 6 0 16 0;
#X connect 6 1 17 0;
#X connect 6 2 10 0;
#X connect 7 0 0 0;
#X connect 8 0 22 1;
#X connect 8 0 67 0;
#X connect 9 0 23 0;
#X connect 9 0 67 1;
#X connect 10 1 11 0;
#X connect 10 2 19 0;
#X connect 10 2 67 3;
#X connect 11 0 67 2;
#X connect 12 0 9 0;
#X connect 13 0 8 0;
#X connect 14 0 15 0;
#X connect 15 0 7 0;
#X connect 16 0 5 0;
#X connect 17 0 12 0;
#X connect 18 0 55 0;
#X connect 19 0 20 0;
#X connect 19 1 21 0;
#X connect 20 0 18 2;
#X connect 21 0 18 3;
#X connect 22 0 18 0;
#X connect 23 0 18 1;
#X connect 24 0 53 0;
#X connect 24 0 67 4;
#X connect 25 0 26 0;
#X connect 25 0 31 0;
#X connect 26 0 25 1;
#X connect 27 0 25 1;
#X connect 28 0 48 0;
#X connect 28 1 39 0;
#X connect 28 2 27 0;
#X connect 28 2 50 0;
#X connect 28 2 56 0;
#X connect 29 0 28 0;
#X connect 30 0 38 0;
#X connect 31 0 41 0;
#X connect 31 1 42 0;
#X connect 31 2 35 0;
#X connect 32 0 25 0;
#X connect 33 0 48 1;
#X connect 33 0 65 0;
#X connect 34 0 49 0;
#X connect 34 0 65 1;
#X connect 35 0 36 0;
#X connect 35 1 65 3;
#X connect 35 2 45 0;
#X connect 36 0 65 2;
#X connect 37 0 34 0;
#X connect 38 0 33 0;
#X connect 39 0 40 0;
#X connect 40 0 32 0;
#X connect 41 0 30 0;
#X connect 42 0 37 0;
#X connect 43 0 62 0;
#X connect 44 0 43 0;
#X connect 45 0 46 0;
#X connect 45 1 47 0;
#X connect 46 0 44 2;
#X connect 47 0 44 3;
#X connect 48 0 44 0;
#X connect 49 0 44 1;
#X connect 50 0 65 4;
#X connect 51 0 24 0;
#X connect 52 0 67 0;
#X connect 54 0 3 0;
#X connect 54 1 28 0;
#X connect 55 0 63 0;
#X connect 56 0 62 0;
#X connect 57 0 63 0;
#X connect 58 0 60 0;
#X connect 58 0 64 0;
#X connect 59 0 60 0;
#X connect 59 0 64 0;
#X connect 61 0 62 0;
#X connect 64 0 54 0;
#X connect 65 0 66 0;
#X connect 66 0 62 0;
#X connect 67 0 68 0;
#X connect 68 0 63 0;
#X restore 30 103 pd script;
#N canvas 1 128 450 470 color 0;
#X obj 303 332 hsv2rgb;
#X obj 303 171 \$0;
#X obj 303 192 % 1000;
#X obj 303 244 * 0.2;
#X floatatom 303 288 5 0 0 0 - - -, f 5;
#X obj 303 266 wrap 1;
#X obj 136 91 r colorMode;
#X obj 136 113 sel 0 1 2;
#X obj 94 41 vradio 15 1 0 3 empty empty empty 0 -8 0 10 -262144 -1
-1 0;
#X text 111 42 light blue;
#X text 111 56 geeky green;
#X text 111 71 full color;
#X msg 94 250 0 1 0 0.5;
#X msg 161 247 0.67 0.67 1 0.5;
#X msg 303 310 \$1 0.5 1 0.5;
#X obj 182 404 t a;
#X obj 247 436 s color-cs-\$1;
#X obj 146 435 s color-fsr-\$0;
#X connect 0 0 15 0;
#X connect 1 0 2 0;
#X connect 2 0 3 0;
#X connect 3 0 5 0;
#X connect 4 0 14 0;
#X connect 5 0 4 0;
#X connect 6 0 7 0;
#X connect 7 0 12 0;
#X connect 7 1 13 0;
#X connect 7 2 1 0;
#X connect 8 0 7 0;
#X connect 12 0 15 0;
#X connect 13 0 15 0;
#X connect 14 0 0 0;
#X connect 15 0 16 0;
#X connect 15 0 17 0;
#X restore 30 123 pd color;
#X obj 30 22 declare -path bin;
#N canvas 956 583 911 496 \$0-draw-cs-line 1;
#X obj 10 10 oscillo_gemhead;
#X obj 10 40 _GEMglVertex2d 0 cs-0;
#X obj 10 60 _GEMglVertex2d 1 cs-0;
#X obj 10 80 _GEMglVertex2d 2 cs-0;
#X obj 10 100 _GEMglVertex2d 3 cs-0;
#X obj 10 120 _GEMglVertex2d 4 cs-0;
#X obj 10 140 _GEMglVertex2d 5 cs-0;
#X obj 10 160 _GEMglVertex2d 6 cs-0;
#X obj 10 180 _GEMglVertex2d 7 cs-0;
#X obj 10 200 _GEMglVertex2d 8 cs-0;
#X obj 10 220 _GEMglVertex2d 9 cs-0;
#X obj 10 240 _GEMglVertex2d 10 cs-0;
#X obj 10 260 _GEMglVertex2d 11 cs-0;
#X obj 10 280 _GEMglVertex2d 12 cs-0;
#X obj 10 300 _GEMglVertex2d 13 cs-0;
#X obj 10 320 _GEMglVertex2d 14 cs-0;
#X obj 10 340 _GEMglVertex2d 15 cs-0;
#X obj 10 360 _GEMglVertex2d 16 cs-0;
#X obj 10 380 _GEMglVertex2d 17 cs-0;
#X obj 10 400 _GEMglVertex2d 18 cs-0;
#X obj 10 420 _GEMglVertex2d 19 cs-0;
#X obj 180 40 _GEMglVertex2d 20 cs-0;
#X obj 180 60 _GEMglVertex2d 21 cs-0;
#X obj 180 80 _GEMglVertex2d 22 cs-0;
#X obj 180 100 _GEMglVertex2d 23 cs-0;
#X obj 180 120 _GEMglVertex2d 24 cs-0;
#X obj 180 140 _GEMglVertex2d 25 cs-0;
#X obj 180 160 _GEMglVertex2d 26 cs-0;
#X obj 180 180 _GEMglVertex2d 27 cs-0;
#X obj 180 200 _GEMglVertex2d 28 cs-0;
#X obj 180 220 _GEMglVertex2d 29 cs-0;
#X obj 180 240 _GEMglVertex2d 30 cs-0;
#X obj 180 260 _GEMglVertex2d 31 cs-0;
#X obj 180 280 _GEMglVertex2d 32 cs-0;
#X obj 180 300 _GEMglVertex2d 33 cs-0;
#X obj 180 320 _GEMglVertex2d 34 cs-0;
#X obj 180 340 _GEMglVertex2d 35 cs-0;
#X obj 180 360 _GEMglVertex2d 36 cs-0;
#X obj 180 380 _GEMglVertex2d 37 cs-0;
#X obj 180 400 _GEMglVertex2d 38 cs-0;
#X obj 180 420 _GEMglVertex2d 39 cs-0;
#X obj 350 40 _GEMglVertex2d 40 cs-0;
#X obj 350 60 _GEMglVertex2d 41 cs-0;
#X obj 350 80 _GEMglVertex2d 42 cs-0;
#X obj 350 100 _GEMglVertex2d 43 cs-0;
#X obj 350 120 _GEMglVertex2d 44 cs-0;
#X obj 350 140 _GEMglVertex2d 45 cs-0;
#X obj 350 160 _GEMglVertex2d 46 cs-0;
#X obj 350 180 _GEMglVertex2d 47 cs-0;
#X obj 350 200 _GEMglVertex2d 48 cs-0;
#X obj 350 220 _GEMglVertex2d 49 cs-0;
#X obj 350 240 _GEMglVertex2d 50 cs-0;
#X obj 350 260 _GEMglVertex2d 51 cs-0;
#X obj 350 280 _GEMglVertex2d 52 cs-0;
#X obj 350 300 _GEMglVertex2d 53 cs-0;
#X obj 350 320 _GEMglVertex2d 54 cs-0;
#X obj 350 340 _GEMglVertex2d 55 cs-0;
#X obj 350 360 _GEMglVertex2d 56 cs-0;
#X obj 350 380 _GEMglVertex2d 57 cs-0;
#X obj 350 400 _GEMglVertex2d 58 cs-0;
#X obj 350 420 _GEMglVertex2d 59 cs-0;
#X obj 520 40 _GEMglVertex2d 60 cs-0;
#X obj 520 60 _GEMglVertex2d 61 cs-0;
#X obj 520 80 _GEMglVertex2d 62 cs-0;
#X obj 520 100 _GEMglVertex2d 63 cs-0;
#X obj 520 120 _GEMglVertex2d 64 cs-0;
#X obj 520 140 _GEMglVertex2d 65 cs-0;
#X obj 520 160 _GEMglVertex2d 66 cs-0;
#X obj 520 180 _GEMglVertex2d 67 cs-0;
#X obj 520 200 _GEMglVertex2d 68 cs-0;
#X obj 520 220 _GEMglVertex2d 69 cs-0;
#X obj 520 240 _GEMglVertex2d 70 cs-0;
#X obj 520 260 _GEMglVertex2d 71 cs-0;
#X obj 520 280 _GEMglVertex2d 72 cs-0;
#X obj 520 300 _GEMglVertex2d 73 cs-0;
#X obj 520 320 _GEMglVertex2d 74 cs-0;
#X obj 520 340 _GEMglVertex2d 75 cs-0;
#X obj 520 360 _GEMglVertex2d 76 cs-0;
#X obj 520 380 _GEMglVertex2d 77 cs-0;
#X obj 520 400 _GEMglVertex2d 78 cs-0;
#X obj 520 420 _GEMglVertex2d 79 cs-0;
#X obj 690 40 _GEMglVertex2d 80 cs-0;
#X obj 690 60 _GEMglVertex2d 81 cs-0;
#X obj 690 80 _GEMglVertex2d 82 cs-0;
#X obj 690 100 _GEMglVertex2d 83 cs-0;
#X obj 690 120 _GEMglVertex2d 84 cs-0;
#X obj 690 140 _GEMglVertex2d 85 cs-0;
#X obj 690 160 _GEMglVertex2d 86 cs-0;
#X obj 690 180 _GEMglVertex2d 87 cs-0;
#X obj 690 200 _GEMglVertex2d 88 cs-0;
#X obj 690 220 _GEMglVertex2d 89 cs-0;
#X obj 690 240 _GEMglVertex2d 90 cs-0;
#X obj 690 260 _GEMglVertex2d 91 cs-0;
#X obj 690 280 _GEMglVertex2d 92 cs-0;
#X obj 690 300 _GEMglVertex2d 93 cs-0;
#X obj 690 320 _GEMglVertex2d 94 cs-0;
#X obj 690 340 _GEMglVertex2d 95 cs-0;
#X obj 690 360 _GEMglVertex2d 96 cs-0;
#X obj 690 380 _GEMglVertex2d 97 cs-0;
#X obj 690 400 _GEMglVertex2d 98 cs-0;
#X obj 690 420 _GEMglVertex2d 99 cs-0;
#X obj 690 460 GEMglEnd;
#X connect 0 0 1 0;
#X connect 1 0 2 0;
#X connect 2 0 3 0;
#X connect 3 0 4 0;
#X connect 4 0 5 0;
#X connect 5 0 6 0;
#X connect 6 0 7 0;
#X connect 7 0 8 0;
#X connect 8 0 9 0;
#X connect 9 0 10 0;
#X connect 10 0 11 0;
#X connect 11 0 12 0;
#X connect 12 0 13 0;
#X connect 13 0 14 0;
#X connect 14 0 15 0;
#X connect 15 0 16 0;
#X connect 16 0 17 0;
#X connect 17 0 18 0;
#X connect 18 0 19 0;
#X connect 19 0 20 0;
#X connect 20 0 21 0;
#X connect 21 0 22 0;
#X connect 22 0 23 0;
#X connect 23 0 24 0;
#X connect 24 0 25 0;
#X connect 25 0 26 0;
#X connect 26 0 27 0;
#X connect 27 0 28 0;
#X connect 28 0 29 0;
#X connect 29 0 30 0;
#X connect 30 0 31 0;
#X connect 31 0 32 0;
#X connect 32 0 33 0;
#X connect 33 0 34 0;
#X connect 34 0 35 0;
#X connect 35 0 36 0;
#X connect 36 0 37 0;
#X connect 37 0 38 0;
#X connect 38 0 39 0;
#X connect 39 0 40 0;
#X connect 40 0 41 0;
#X connect 41 0 42 0;
#X connect 42 0 43 0;
#X connect 43 0 44 0;
#X connect 44 0 45 0;
#X connect 45 0 46 0;
#X connect 46 0 47 0;
#X connect 47 0 48 0;
#X connect 48 0 49 0;
#X connect 49 0 50 0;
#X connect 50 0 51 0;
#X connect 51 0 52 0;
#X connect 52 0 53 0;
#X connect 53 0 54 0;
#X connect 54 0 55 0;
#X connect 55 0 56 0;
#X connect 56 0 57 0;
#X connect 57 0 58 0;
#X connect 58 0 59 0;
#X connect 59 0 60 0;
#X connect 60 0 61 0;
#X connect 61 0 62 0;
#X connect 62 0 63 0;
#X connect 63 0 64 0;
#X connect 64 0 65 0;
#X connect 65 0 66 0;
#X connect 66 0 67 0;
#X connect 67 0 68 0;
#X connect 68 0 69 0;
#X connect 69 0 70 0;
#X connect 70 0 71 0;
#X connect 71 0 72 0;
#X connect 72 0 73 0;
#X connect 73 0 74 0;
#X connect 74 0 75 0;
#X connect 75 0 76 0;
#X connect 76 0 77 0;
#X connect 77 0 78 0;
#X connect 78 0 79 0;
#X connect 79 0 80 0;
#X connect 80 0 81 0;
#X connect 81 0 82 0;
#X connect 82 0 83 0;
#X connect 83 0 84 0;
#X connect 84 0 85 0;
#X connect 85 0 86 0;
#X connect 86 0 87 0;
#X connect 87 0 88 0;
#X connect 88 0 89 0;
#X connect 89 0 90 0;
#X connect 90 0 91 0;
#X connect 91 0 92 0;
#X connect 92 0 93 0;
#X connect 93 0 94 0;
#X connect 94 0 95 0;
#X connect 95 0 96 0;
#X connect 96 0 97 0;
#X connect 97 0 98 0;
#X connect 98 0 99 0;
#X connect 99 0 100 0;
#X connect 100 0 101 0;
#X restore 30 43 pd \$0-draw-cs-line;
#N canvas 372 583 911 496 \$0-draw-fsr-line 0;
#X obj 10 10 oscillo_gemhead;
#X obj 10 40 _GEMglVertex2d 1 fsr-0;
#X obj 10 60 _GEMglVertex2d 2 fsr-0;
#X obj 10 80 _GEMglVertex2d 3 fsr-0;
#X obj 10 100 _GEMglVertex2d 4 fsr-0;
#X obj 10 120 _GEMglVertex2d 5 fsr-0;
#X obj 10 140 _GEMglVertex2d 6 fsr-0;
#X obj 10 160 _GEMglVertex2d 7 fsr-0;
#X obj 10 180 _GEMglVertex2d 8 fsr-0;
#X obj 10 200 _GEMglVertex2d 9 fsr-0;
#X obj 10 220 _GEMglVertex2d 10 fsr-0;
#X obj 10 240 _GEMglVertex2d 11 fsr-0;
#X obj 10 260 _GEMglVertex2d 12 fsr-0;
#X obj 10 280 _GEMglVertex2d 13 fsr-0;
#X obj 10 300 _GEMglVertex2d 14 fsr-0;
#X obj 10 320 _GEMglVertex2d 15 fsr-0;
#X obj 10 340 _GEMglVertex2d 16 fsr-0;
#X obj 10 360 _GEMglVertex2d 17 fsr-0;
#X obj 10 380 _GEMglVertex2d 18 fsr-0;
#X obj 10 400 _GEMglVertex2d 19 fsr-0;
#X obj 10 420 _GEMglVertex2d 20 fsr-0;
#X obj 180 40 _GEMglVertex2d 21 fsr-0;
#X obj 180 60 _GEMglVertex2d 22 fsr-0;
#X obj 180 80 _GEMglVertex2d 23 fsr-0;
#X obj 180 100 _GEMglVertex2d 24 fsr-0;
#X obj 180 120 _GEMglVertex2d 25 fsr-0;
#X obj 180 140 _GEMglVertex2d 26 fsr-0;
#X obj 180 160 _GEMglVertex2d 27 fsr-0;
#X obj 180 180 _GEMglVertex2d 28 fsr-0;
#X obj 180 200 _GEMglVertex2d 29 fsr-0;
#X obj 180 220 _GEMglVertex2d 30 fsr-0;
#X obj 180 240 _GEMglVertex2d 31 fsr-0;
#X obj 180 260 _GEMglVertex2d 32 fsr-0;
#X obj 180 280 _GEMglVertex2d 33 fsr-0;
#X obj 180 300 _GEMglVertex2d 34 fsr-0;
#X obj 180 320 _GEMglVertex2d 35 fsr-0;
#X obj 180 340 _GEMglVertex2d 36 fsr-0;
#X obj 180 360 _GEMglVertex2d 37 fsr-0;
#X obj 180 380 _GEMglVertex2d 38 fsr-0;
#X obj 180 400 _GEMglVertex2d 39 fsr-0;
#X obj 180 420 _GEMglVertex2d 40 fsr-0;
#X obj 350 40 _GEMglVertex2d 41 fsr-0;
#X obj 350 60 _GEMglVertex2d 42 fsr-0;
#X obj 350 80 _GEMglVertex2d 43 fsr-0;
#X obj 350 100 _GEMglVertex2d 44 fsr-0;
#X obj 350 120 _GEMglVertex2d 45 fsr-0;
#X obj 350 140 _GEMglVertex2d 46 fsr-0;
#X obj 350 160 _GEMglVertex2d 47 fsr-0;
#X obj 350 180 _GEMglVertex2d 48 fsr-0;
#X obj 350 200 _GEMglVertex2d 49 fsr-0;
#X obj 350 220 _GEMglVertex2d 50 fsr-0;
#X obj 350 240 _GEMglVertex2d 51 fsr-0;
#X obj 350 260 _GEMglVertex2d 52 fsr-0;
#X obj 350 280 _GEMglVertex2d 53 fsr-0;
#X obj 350 300 _GEMglVertex2d 54 fsr-0;
#X obj 350 320 _GEMglVertex2d 55 fsr-0;
#X obj 350 340 _GEMglVertex2d 56 fsr-0;
#X obj 350 360 _GEMglVertex2d 57 fsr-0;
#X obj 350 380 _GEMglVertex2d 58 fsr-0;
#X obj 350 400 _GEMglVertex2d 59 fsr-0;
#X obj 350 420 _GEMglVertex2d 60 fsr-0;
#X obj 520 40 _GEMglVertex2d 61 fsr-0;
#X obj 520 60 _GEMglVertex2d 62 fsr-0;
#X obj 520 80 _GEMglVertex2d 63 fsr-0;
#X obj 520 100 _GEMglVertex2d 64 fsr-0;
#X obj 520 120 _GEMglVertex2d 65 fsr-0;
#X obj 520 140 _GEMglVertex2d 66 fsr-0;
#X obj 520 160 _GEMglVertex2d 67 fsr-0;
#X obj 520 180 _GEMglVertex2d 68 fsr-0;
#X obj 520 200 _GEMglVertex2d 69 fsr-0;
#X obj 520 220 _GEMglVertex2d 70 fsr-0;
#X obj 520 240 _GEMglVertex2d 71 fsr-0;
#X obj 520 260 _GEMglVertex2d 72 fsr-0;
#X obj 520 280 _GEMglVertex2d 73 fsr-0;
#X obj 520 300 _GEMglVertex2d 74 fsr-0;
#X obj 520 320 _GEMglVertex2d 75 fsr-0;
#X obj 520 340 _GEMglVertex2d 76 fsr-0;
#X obj 520 360 _GEMglVertex2d 77 fsr-0;
#X obj 520 380 _GEMglVertex2d 78 fsr-0;
#X obj 520 400 _GEMglVertex2d 79 fsr-0;
#X obj 520 420 _GEMglVertex2d 80 fsr-0;
#X obj 690 40 _GEMglVertex2d 81 fsr-0;
#X obj 690 60 _GEMglVertex2d 82 fsr-0;
#X obj 690 80 _GEMglVertex2d 83 fsr-0;
#X obj 690 100 _GEMglVertex2d 84 fsr-0;
#X obj 690 120 _GEMglVertex2d 85 fsr-0;
#X obj 690 140 _GEMglVertex2d 86 fsr-0;
#X obj 690 160 _GEMglVertex2d 87 fsr-0;
#X obj 690 180 _GEMglVertex2d 88 fsr-0;
#X obj 690 200 _GEMglVertex2d 89 fsr-0;
#X obj 690 220 _GEMglVertex2d 90 fsr-0;
#X obj 690 240 _GEMglVertex2d 91 fsr-0;
#X obj 690 260 _GEMglVertex2d 92 fsr-0;
#X obj 690 280 _GEMglVertex2d 93 fsr-0;
#X obj 690 300 _GEMglVertex2d 94 fsr-0;
#X obj 690 320 _GEMglVertex2d 95 fsr-0;
#X obj 690 340 _GEMglVertex2d 96 fsr-0;
#X obj 690 360 _GEMglVertex2d 97 fsr-0;
#X obj 690 380 _GEMglVertex2d 98 fsr-0;
#X obj 690 400 _GEMglVertex2d 99 fsr-0;
#X obj 690 420 _GEMglVertex2d 100 fsr-0;
#X obj 690 460 GEMglEnd;
#X connect 0 0 1 0;
#X connect 1 0 2 0;
#X connect 2 0 3 0;
#X connect 3 0 4 0;
#X connect 4 0 5 0;
#X connect 5 0 6 0;
#X connect 6 0 7 0;
#X connect 7 0 8 0;
#X connect 8 0 9 0;
#X connect 9 0 10 0;
#X connect 10 0 11 0;
#X connect 11 0 12 0;
#X connect 12 0 13 0;
#X connect 13 0 14 0;
#X connect 14 0 15 0;
#X connect 15 0 16 0;
#X connect 16 0 17 0;
#X connect 17 0 18 0;
#X connect 18 0 19 0;
#X connect 19 0 20 0;
#X connect 20 0 21 0;
#X connect 21 0 22 0;
#X connect 22 0 23 0;
#X connect 23 0 24 0;
#X connect 24 0 25 0;
#X connect 25 0 26 0;
#X connect 26 0 27 0;
#X connect 27 0 28 0;
#X connect 28 0 29 0;
#X connect 29 0 30 0;
#X connect 30 0 31 0;
#X connect 31 0 32 0;
#X connect 32 0 33 0;
#X connect 33 0 34 0;
#X connect 34 0 35 0;
#X connect 35 0 36 0;
#X connect 36 0 37 0;
#X connect 37 0 38 0;
#X connect 38 0 39 0;
#X connect 39 0 40 0;
#X connect 40 0 41 0;
#X connect 41 0 42 0;
#X connect 42 0 43 0;
#X connect 43 0 44 0;
#X connect 44 0 45 0;
#X connect 45 0 46 0;
#X connect 46 0 47 0;
#X connect 47 0 48 0;
#X connect 48 0 49 0;
#X connect 49 0 50 0;
#X connect 50 0 51 0;
#X connect 51 0 52 0;
#X connect 52 0 53 0;
#X connect 53 0 54 0;
#X connect 54 0 55 0;
#X connect 55 0 56 0;
#X connect 56 0 57 0;
#X connect 57 0 58 0;
#X connect 58 0 59 0;
#X connect 59 0 60 0;
#X connect 60 0 61 0;
#X connect 61 0 62 0;
#X connect 62 0 63 0;
#X connect 63 0 64 0;
#X connect 64 0 65 0;
#X connect 65 0 66 0;
#X connect 66 0 67 0;
#X connect 67 0 68 0;
#X connect 68 0 69 0;
#X connect 69 0 70 0;
#X connect 70 0 71 0;
#X connect 71 0 72 0;
#X connect 72 0 73 0;
#X connect 73 0 74 0;
#X connect 74 0 75 0;
#X connect 75 0 76 0;
#X connect 76 0 77 0;
#X connect 77 0 78 0;
#X connect 78 0 79 0;
#X connect 79 0 80 0;
#X connect 80 0 81 0;
#X connect 81 0 82 0;
#X connect 82 0 83 0;
#X connect 83 0 84 0;
#X connect 84 0 85 0;
#X connect 85 0 86 0;
#X connect 86 0 87 0;
#X connect 87 0 88 0;
#X connect 88 0 89 0;
#X connect 89 0 90 0;
#X connect 90 0 91 0;
#X connect 91 0 92 0;
#X connect 92 0 93 0;
#X connect 93 0 94 0;
#X connect 94 0 95 0;
#X connect 95 0 96 0;
#X connect 96 0 97 0;
#X connect 97 0 98 0;
#X connect 98 0 99 0;
#X connect 99 0 100 0;
#X connect 100 0 101 0;
#X restore 30 63 pd \$0-draw-fsr-line;
