#N canvas 581 751 578 293 10;
#X declare -path ../av;
#X declare -path ../av;
#X obj 119 37 declare -path ../av;
#N canvas 693 242 450 300 tables 0;
#X obj 33 56 loadbang;
#X obj 29 120 until;
#X obj 29 142 f;
#X obj 54 142 + 1;
#X obj 29 183 / 199;
#X obj 29 162 t f f;
#X msg 68 120 0;
#X msg 29 203 1 \$1;
#X obj 29 223 -;
#X obj 29 243 tabwrite tabX-\$0;
#X floatatom 246 176 5 0 0 0 size - -, f 5;
#X msg 246 195 size \$1;
#X obj 246 217 s tabX-\$0;
#X obj 256 237 s tabFSR-\$0;
#X obj 266 257 s tabCS-\$0;
#X obj 13 36 r gem_display_loadbang;
#X obj 230 53 table tabFSR-\$0 1000;
#X obj 230 73 table tabCS-\$0 1000;
#X obj 230 93 table tabX-\$0 1000;
#X obj 29 78 array size tabX-\$0;
#X obj 29 100 t f b f, f 18;
#X obj 128 134 - 1;
#X connect 0 0 19 0;
#X connect 1 0 2 0;
#X connect 2 0 3 0;
#X connect 2 0 5 0;
#X connect 3 0 2 1;
#X connect 4 0 7 0;
#X connect 5 0 4 0;
#X connect 5 1 9 1;
#X connect 6 0 2 1;
#X connect 7 0 8 0;
#X connect 8 0 9 0;
#X connect 10 0 11 0;
#X connect 11 0 12 0;
#X connect 11 0 13 0;
#X connect 11 0 14 0;
#X connect 15 0 19 0;
#X connect 19 0 20 0;
#X connect 20 0 1 0;
#X connect 20 1 6 0;
#X connect 20 2 21 0;
#X connect 21 0 4 1;
#X restore 119 57 pd tables;
#N canvas 105 238 453 636 FSR 0;
#X obj 157 474 t f b;
#X obj 214 497 + 1;
#X obj 184 497 f;
#X msg 232 443 0;
#X text 238 497 table populator;
#X obj 157 579 tabwrite tabFSR-\$0;
#X obj 214 518 % 200;
#X obj 328 580 outlet;
#X obj 184 381 array size tabX-\$0;
#X obj 157 359 t f b;
#X obj 157 338 f;
#X obj 130 134 gemhead 1;
#X obj 172 267 +;
#X obj 172 289 f;
#X obj 200 266 f;
#X obj 200 288 + 1;
#X obj 172 309 /;
#X obj 130 156 t b b;
#X msg 240 222 0;
#X obj 173 246 t f b;
#X obj 173 224 r fsr-\$1;
#X obj 130 110 inlet;
#X connect 0 0 5 0;
#X connect 0 1 2 0;
#X connect 1 0 6 0;
#X connect 2 0 1 0;
#X connect 2 0 5 1;
#X connect 2 0 7 0;
#X connect 3 0 2 1;
#X connect 6 0 2 1;
#X connect 8 0 6 1;
#X connect 9 0 0 0;
#X connect 9 1 8 0;
#X connect 10 0 9 0;
#X connect 11 0 17 0;
#X connect 12 0 13 0;
#X connect 13 0 12 1;
#X connect 13 0 16 0;
#X connect 14 0 15 0;
#X connect 15 0 14 1;
#X connect 15 0 16 1;
#X connect 16 0 10 1;
#X connect 17 0 18 0;
#X connect 17 1 10 0;
#X connect 18 0 14 1;
#X connect 18 0 12 1;
#X connect 19 0 12 0;
#X connect 19 1 14 0;
#X connect 20 0 19 0;
#X connect 21 0 11 0;
#X restore 186 174 pd FSR;
#N canvas 475 265 450 530 CS 0;
#X obj 128 357 t f b;
#X obj 185 380 + 1;
#X obj 155 380 f;
#X text 209 380 table populator;
#X obj 207 134 r cs-\$1;
#X obj 128 488 tabwrite tabCS-\$0;
#X obj 155 460 outlet;
#X text 334 292 table populator;
#X obj 185 400 % 1000;
#X obj 218 294 array size tabX-\$0;
#X obj 191 272 t f b;
#X obj 191 248 f;
#X obj 164 44 gemhead 1;
#X obj 206 177 +;
#X obj 206 199 f;
#X obj 234 176 f;
#X obj 234 198 + 1;
#X obj 206 219 /;
#X obj 164 66 t b b;
#X msg 266 129 0;
#X obj 207 156 t f b;
#X obj 164 23 inlet;
#X connect 0 0 5 0;
#X connect 0 1 2 0;
#X connect 1 0 8 0;
#X connect 2 0 1 0;
#X connect 2 0 6 0;
#X connect 2 0 5 1;
#X connect 4 0 20 0;
#X connect 8 0 2 1;
#X connect 9 0 8 1;
#X connect 10 0 0 0;
#X connect 10 1 9 0;
#X connect 11 0 10 0;
#X connect 12 0 18 0;
#X connect 13 0 14 0;
#X connect 14 0 13 1;
#X connect 14 0 17 0;
#X connect 15 0 16 0;
#X connect 16 0 15 1;
#X connect 16 0 17 1;
#X connect 17 0 11 1;
#X connect 18 0 19 0;
#X connect 18 1 11 0;
#X connect 19 0 15 1;
#X connect 19 0 13 1;
#X connect 20 0 13 0;
#X connect 20 1 15 0;
#X connect 21 0 12 0;
#X restore 106 174 pd CS;
#N canvas 1120 273 627 806 displayFSR 1;
#X obj 265 -165 color 1 0 0;
#X obj 354 279 loadbang;
#X obj 339 -409 hsv2rgb;
#X obj 341 -587 loadbang;
#X msg 339 -431 \$1 1 1;
#X obj 292 143 \$0;
#X obj 265 241 route gem_state;
#X obj 265 265 route 0 1;
#X obj 265 118 t a b;
#X obj 265 217 t a a;
#X obj 398 -587 bng 15 250 50 0 empty empty empty 17 7 0 10 -262144
-1 -1;
#X obj 341 -565 \$0;
#X floatatom 313 -518 5 0 0 0 - - -, f 5;
#X obj 341 -544 % 1000;
#X msg 362 -164 set \$1 \$2 \$3;
#X msg 362 -142 0.799995 1 -0;
#X floatatom 352 -517 5 0 0 0 - - -, f 5;
#X obj 341 -492 * 0.2;
#X floatatom 341 -448 5 0 0 0 - - -, f 5;
#X obj 341 -470 wrap 1;
#X msg 461 327 resize \$1;
#X msg 354 301 draw linestrip;
#X obj 265 -277 gemhead -50;
#X obj 265 -298 tgl 15 0 empty empty empty 17 7 0 10 -262144 -1 -1
0 1;
#X msg 292 164 posX tabX-\$1 \, posY tabFSR-\$1;
#X obj 482 -107 r gemwin_dimen;
#X obj 482 -85 unpack;
#X obj 482 -56 /;
#X floatatom 482 -34 5 0 0 0 - - -, f 5;
#X obj 276 -326 inlet;
#X msg 12 112 font ../data/vera.ttf;
#X obj -9 133 text2d FSR-\$1;
#X obj -9 40 translateXYZ;
#X obj 79 -27 tabread tabFSR-\$0;
#X obj -6 -153 gemhead;
#X obj -9 -114 color;
#X obj 67 66 loadbang;
#X msg 67 86 12;
#X obj 79 -7 * 8;
#X obj 79 13 - 3.5;
#X obj 14 -44 t a;
#X obj -9 -93 t a b;
#X obj 25 -20 * 0.8;
#X obj 14 6 * 3.8;
#X obj 158 -359 declare -path ../av;
#X obj 412 275 r gem_display_loadbang;
#X obj 453 -155 r gem_display_loadbang;
#X msg 453 -133 1024 256;
#X obj 285 -606 r gem_display_loadbang;
#X obj 127 67 r gem_display_loadbang;
#X obj 79 -51 f;
#X obj 94 -186 inlet;
#X obj 73 -511 r colorMode;
#X obj 73 -489 sel 0 1 2;
#X obj 329 -212 t a;
#X obj 31 -561 vradio 15 1 0 3 empty empty empty 0 -8 0 10 -262144
-1 -1 0;
#X text 48 -560 light blue;
#X text 48 -546 geeky green;
#X text 48 -531 full color;
#X msg 83 -454 0 1 0;
#X msg 136 -455 0.67 0.67 1;
#X obj 3 -211 loadbang;
#X msg 3 -189 0;
#X obj 144 -98 * -32;
#X obj 144 -76 + 48;
#X obj 291 292 t a a;
#X floatatom 307 -25 5 0 0 0 - - -, f 5;
#X obj 407 6 * 4;
#X floatatom 433 60 5 0 0 0 - - -, f 5;
#X floatatom 345 -22 5 0 0 0 - - -, f 5;
#X obj 440 6 * -8;
#X obj 266 35 translateXYZ 16 -4 0;
#X obj 144 -120 / 199;
#X obj 292 331 translateXYZ 0.99 0 0;
#X obj 266 96 scaleXYZ -32 8 1;
#X obj 209 354 array size tabX-\$0;
#X obj 182 332 t f b;
#X obj 198 393 - 1;
#X obj 340 361 gemvertexbuffer 200;
#X connect 0 0 71 0;
#X connect 1 0 21 0;
#X connect 2 0 54 0;
#X connect 3 0 11 0;
#X connect 4 0 2 0;
#X connect 5 0 24 0;
#X connect 6 0 7 0;
#X connect 7 1 21 0;
#X connect 7 1 76 0;
#X connect 8 0 9 0;
#X connect 8 1 5 0;
#X connect 9 0 6 0;
#X connect 9 1 65 0;
#X connect 10 0 11 0;
#X connect 11 0 12 0;
#X connect 11 0 13 0;
#X connect 13 0 16 0;
#X connect 13 0 17 0;
#X connect 14 0 15 0;
#X connect 17 0 19 0;
#X connect 18 0 4 0;
#X connect 19 0 18 0;
#X connect 20 0 78 0;
#X connect 21 0 78 0;
#X connect 22 0 0 0;
#X connect 23 0 22 0;
#X connect 23 0 34 0;
#X connect 24 0 78 0;
#X connect 25 0 26 0;
#X connect 26 0 27 0;
#X connect 26 1 27 1;
#X connect 27 0 28 0;
#X connect 27 0 40 0;
#X connect 27 0 67 0;
#X connect 27 0 70 0;
#X connect 29 0 23 0;
#X connect 30 0 31 0;
#X connect 32 0 31 0;
#X connect 33 0 38 0;
#X connect 34 0 35 0;
#X connect 35 0 41 0;
#X connect 36 0 37 0;
#X connect 36 0 30 0;
#X connect 37 0 31 1;
#X connect 38 0 39 0;
#X connect 39 0 32 2;
#X connect 40 0 42 0;
#X connect 40 0 43 0;
#X connect 41 0 32 0;
#X connect 41 1 50 0;
#X connect 42 0 39 1;
#X connect 43 0 32 1;
#X connect 45 0 21 0;
#X connect 46 0 47 0;
#X connect 47 0 26 0;
#X connect 48 0 11 0;
#X connect 49 0 37 0;
#X connect 49 0 30 0;
#X connect 50 0 33 0;
#X connect 51 0 50 1;
#X connect 51 0 72 0;
#X connect 52 0 53 0;
#X connect 53 0 59 0;
#X connect 53 1 60 0;
#X connect 54 0 0 1;
#X connect 54 0 35 1;
#X connect 54 0 14 0;
#X connect 55 0 53 0;
#X connect 59 0 54 0;
#X connect 60 0 54 0;
#X connect 61 0 62 0;
#X connect 62 0 34 0;
#X connect 63 0 64 0;
#X connect 64 0 71 1;
#X connect 65 0 73 0;
#X connect 65 1 78 0;
#X connect 66 0 71 1;
#X connect 67 0 71 1;
#X connect 68 0 74 2;
#X connect 69 0 71 2;
#X connect 70 0 74 1;
#X connect 71 0 74 0;
#X connect 72 0 63 0;
#X connect 73 0 78 0;
#X connect 74 0 8 0;
#X connect 75 0 77 0;
#X connect 75 0 20 0;
#X connect 76 1 75 0;
#X connect 77 0 72 1;
#X restore 186 254 pd displayFSR;
#N canvas 1286 162 627 917 displayCS 0;
#X obj 265 405 color 1 0 0;
#X obj 354 739 loadbang;
#X obj 346 338 hsv2rgb;
#X obj 388 147 loadbang;
#X obj 508 450 r offset;
#X obj 292 603 \$0;
#X obj 265 701 route gem_state;
#X obj 265 725 route 0 1;
#X obj 265 578 t a b;
#X obj 265 677 t a a;
#X obj 445 147 bng 15 250 50 0 empty empty empty 17 7 0 10 -262144
-1 -1;
#X obj 388 169 \$0;
#X floatatom 360 216 5 0 0 0 - - -, f 5;
#X obj 388 190 % 1000;
#X msg 349 408 set \$1 \$2 \$3;
#X msg 349 430 0.899998 1 0.5;
#X floatatom 399 217 5 0 0 0 - - -, f 5;
#X obj 388 242 * 0.2;
#X floatatom 388 286 5 0 0 0 - - -, f 5;
#X obj 388 264 wrap 1;
#X obj 182 711 r tabX-\$0;
#X obj 182 733 route size;
#X msg 182 807 resize \$1;
#X msg 354 761 draw linestrip;
#X obj 265 293 gemhead -50;
#X obj 265 272 tgl 15 0 empty empty empty 17 7 0 10 -262144 -1 -1 0
1;
#X obj 482 353 r gemwin_dimen;
#X obj 482 375 unpack;
#X obj 482 404 /;
#X floatatom 482 426 5 0 0 0 - - -, f 5;
#X obj 395 9 inlet;
#X msg 292 624 posX tabX-\$1 \, posY tabCS-\$1;
#X obj 5 651 translateXYZ;
#X obj 5 458 gemhead;
#X obj 5 497 color;
#X obj 81 677 loadbang;
#X msg 81 697 12;
#X obj 93 604 * 8;
#X obj 93 624 - 3.5;
#X obj 28 567 t a;
#X obj 5 518 t a b;
#X obj 39 591 * 0.8;
#X obj 441 354 bng 15 250 50 0 empty empty empty 17 7 0 10 -262144
-1 -1;
#X obj 5 744 text2d CS-\$1;
#X obj 93 584 tabread tabCS-\$0;
#X obj 28 618 * 3.8;
#X obj 461 307 r gem_display_loadbang;
#X msg 461 329 1024 256;
#X obj 364 121 r gem_display_loadbang;
#X obj 412 735 r gem_display_loadbang;
#X obj 86 655 r gem_display_loadbang;
#X obj 44 10 inlet;
#X obj 93 564 f;
#X obj 509 470 - 4.5;
#X obj 265 551 scaleXYZ 32 8 1;
#X obj 154 88 r colorMode;
#X obj 154 110 sel 0 1 2;
#X obj 327 372 t a;
#X obj 5 383 loadbang;
#X msg 5 405 0;
#X obj 112 38 vradio 15 1 0 3 empty empty empty 0 -8 0 10 -262144 -1
-1 0;
#X text 129 39 light blue;
#X text 129 53 geeky green;
#X text 129 68 full color;
#X obj 240 182 pack 0 0 0;
#X floatatom 262 133 5 0 0 0 - - -, f 5;
#X obj 262 152 t b f;
#X floatatom 301 132 5 0 0 0 - - -, f 5;
#X obj 301 151 t b f;
#X floatatom 224 133 5 0 0 0 - - -, f 5;
#X floatatom 257 105 5 0 0 0 - - -, f 5;
#X obj 440 466 * -8;
#X obj 407 466 * 4;
#X obj 291 780 t a a;
#X obj 265 505 translateXYZ 16 -4 0;
#X obj 291 839 translateXYZ 0.99 0 0;
#X obj 182 755 f 1000;
#X obj 109 791 - 1;
#X obj 144 400 / 999;
#X floatatom 462 545 5 0 0 0 - - -, f 5;
#X obj 366 872 gemvertexbuffer 1000;
#X obj 265 315 alpha;
#X msg 112 244 0 1 0 0.5;
#X msg 179 244 0.67 0.67 1 0.5;
#X msg 346 316 \$1 0.5 1 0.5;
#X obj 182 777 change;
#X floatatom 193 386 5 0 0 0 - - -, f 5;
#X floatatom 190 407 5 0 0 0 - - -, f 5;
#X obj 144 422 * -32;
#X obj 144 444 + 48;
#X connect 0 0 74 0;
#X connect 1 0 23 0;
#X connect 2 0 57 0;
#X connect 3 0 11 0;
#X connect 4 0 53 0;
#X connect 5 0 31 0;
#X connect 6 0 7 0;
#X connect 7 1 23 0;
#X connect 7 1 76 0;
#X connect 8 0 9 0;
#X connect 8 1 5 0;
#X connect 9 0 6 0;
#X connect 9 1 73 0;
#X connect 10 0 11 0;
#X connect 11 0 12 0;
#X connect 11 0 13 0;
#X connect 13 0 16 0;
#X connect 13 0 17 0;
#X connect 14 0 15 0;
#X connect 17 0 19 0;
#X connect 18 0 84 0;
#X connect 19 0 18 0;
#X connect 20 0 21 0;
#X connect 21 0 76 0;
#X connect 22 0 80 0;
#X connect 23 0 80 0;
#X connect 24 0 81 0;
#X connect 25 0 24 0;
#X connect 25 0 33 0;
#X connect 26 0 27 0;
#X connect 27 0 28 0;
#X connect 27 1 28 1;
#X connect 28 0 29 0;
#X connect 28 0 71 0;
#X connect 28 0 72 0;
#X connect 28 0 39 0;
#X connect 30 0 25 0;
#X connect 31 0 80 0;
#X connect 32 0 43 0;
#X connect 33 0 34 0;
#X connect 34 0 40 0;
#X connect 35 0 36 0;
#X connect 36 0 43 1;
#X connect 37 0 38 0;
#X connect 38 0 32 2;
#X connect 39 0 41 0;
#X connect 39 0 45 0;
#X connect 40 0 32 0;
#X connect 40 1 52 0;
#X connect 41 0 38 1;
#X connect 42 0 28 0;
#X connect 44 0 37 0;
#X connect 45 0 32 1;
#X connect 46 0 47 0;
#X connect 47 0 27 0;
#X connect 48 0 11 0;
#X connect 49 0 23 0;
#X connect 50 0 36 0;
#X connect 51 0 52 1;
#X connect 51 0 78 0;
#X connect 52 0 44 0;
#X connect 53 0 74 2;
#X connect 54 0 8 0;
#X connect 55 0 56 0;
#X connect 56 0 82 0;
#X connect 56 1 83 0;
#X connect 56 2 11 0;
#X connect 57 0 0 1;
#X connect 57 0 14 0;
#X connect 57 0 34 1;
#X connect 58 0 59 0;
#X connect 59 0 33 0;
#X connect 60 0 56 0;
#X connect 64 0 57 0;
#X connect 65 0 66 0;
#X connect 66 0 64 0;
#X connect 66 1 64 1;
#X connect 67 0 68 0;
#X connect 68 0 64 0;
#X connect 68 1 64 2;
#X connect 69 0 64 0;
#X connect 70 0 65 0;
#X connect 70 0 69 0;
#X connect 71 0 54 1;
#X connect 72 0 74 1;
#X connect 73 0 75 0;
#X connect 73 1 80 0;
#X connect 74 0 54 0;
#X connect 75 0 80 0;
#X connect 76 0 77 0;
#X connect 76 0 85 0;
#X connect 77 0 78 1;
#X connect 78 0 88 0;
#X connect 79 0 74 2;
#X connect 81 0 0 0;
#X connect 82 0 57 0;
#X connect 83 0 57 0;
#X connect 84 0 2 0;
#X connect 85 0 22 0;
#X connect 86 0 89 1;
#X connect 87 0 88 1;
#X connect 88 0 89 0;
#X connect 89 0 74 1;
#X restore 106 254 pd displayCS;
#X obj 273 172 r raw_display;
#X connect 2 0 4 0;
#X connect 3 0 5 0;
#X connect 6 0 4 1;
#X connect 6 0 5 1;
