#N canvas 753 506 450 506 10;
#X obj 150 175 translateXYZ 0 0 0;
#X floatatom 195 138 5 0 0 0 - - -, f 5;
#X floatatom 230 138 5 0 0 0 - - -, f 5;
#X obj 150 74 alpha;
#X obj 195 96 r oscillo-translate;
#X obj 195 117 unpack;
#X floatatom 185 252 5 0 0 0 - - -, f 5;
#X floatatom 220 253 5 0 0 0 - - -, f 5;
#X obj 185 230 unpack;
#X obj 150 289 scaleXYZ 1 1 0;
#X obj 150 343 outlet;
#X obj 185 209 r oscillo-scale;
#X obj 150 48 gemhead 100;
#X obj 150 20 r raw_display;
#X obj 150 321 GEMglBegin GL_LINE_LOOP;
#X connect 0 0 9 0;
#X connect 1 0 0 1;
#X connect 2 0 0 2;
#X connect 3 0 0 0;
#X connect 4 0 5 0;
#X connect 5 0 1 0;
#X connect 5 1 2 0;
#X connect 6 0 9 1;
#X connect 7 0 9 2;
#X connect 8 0 6 0;
#X connect 8 1 7 0;
#X connect 9 0 14 0;
#X connect 11 0 8 0;
#X connect 12 0 3 0;
#X connect 13 0 12 0;
#X connect 14 0 10 0;
