#N canvas 318 146 1001 642 10;
#X declare -path ../data;
#X obj 663 508 model;
#X obj 663 427 rotateXYZ 45 -45 0, f 19;
#X obj 663 336 pix_texture;
#X obj 684 453 loadbang;
#X obj 383 54 gemhead 49;
#X obj 383 118 gemframebuffer;
#X obj 391 74 loadbang;
#X obj 383 371 pix_texture;
#X obj 383 279 separator;
#N canvas 1064 614 450 435 coord&val 0;
#X obj 229 286 f;
#X obj 254 286 + 1;
#X msg 244 266 0;
#X obj 43 27 inlet GEMLIST;
#X obj 77 367 outlet GEMLIST;
#X obj 43 387 outlet BANG;
#X obj 183 113 list;
#X obj 183 135 list split 1;
#X obj 223 190 list;
#X obj 183 157 t b a;
#X obj 174 60 bng 15 250 50 0 empty empty empty 17 7 0 10 -262144 -1
-1;
#X obj 43 68 t b a b;
#X obj 210 222 t b b a;
#X obj 229 328 tabread posX;
#X obj 248 348 tabread posY;
#X obj 229 409 outlet;
#X obj 204 26 loadbang;
#X msg 204 46 1 1 1 1;
#X obj 229 387 pack 0 0 0 0;
#X obj 229 308 t a a a;
#X obj 227 84 r fsr_processed;
#X connect 0 0 1 0;
#X connect 0 0 19 0;
#X connect 1 0 0 1;
#X connect 2 0 0 1;
#X connect 3 0 11 0;
#X connect 6 0 7 0;
#X connect 7 0 9 0;
#X connect 7 1 8 1;
#X connect 8 0 7 0;
#X connect 9 0 8 0;
#X connect 9 1 12 0;
#X connect 10 0 6 0;
#X connect 11 0 6 0;
#X connect 11 1 4 0;
#X connect 11 2 2 0;
#X connect 12 0 5 0;
#X connect 12 1 0 0;
#X connect 12 2 18 2;
#X connect 13 0 18 0;
#X connect 14 0 18 1;
#X connect 16 0 17 0;
#X connect 17 0 6 1;
#X connect 18 0 15 0;
#X connect 19 0 13 0;
#X connect 19 1 14 0;
#X connect 19 2 18 3;
#X connect 20 0 6 1;
#X restore 383 236 pd coord&val;
#X floatatom 491 304 5 0 0 0 - - -, f 5;
#X floatatom 428 308 5 0 0 0 - - -, f 5;
#X obj 383 258 gemlist;
#X msg 457 435 0 1 0 \$1;
#X obj 452 279 unpack 0 0 0 0;
#X msg 533 460 text \$1;
#X obj 383 585 text2d;
#X obj 383 435 circle 0.3;
#X obj 663 231 gemhead 1;
#X obj 663 356 scaleXYZ 1 1 1;
#X obj 663 213 tgl 15 0 empty empty empty 17 7 0 10 -262144 -1 -1 0
1;
#X obj 663 283 gemframebuffer;
#X obj 814 264 pix_texture;
#X obj 814 244 translateXYZ;
#N canvas 335 543 531 396 repeat 0;
#X obj 108 47 inlet;
#X obj 108 69 t b a b;
#X msg 108 91 4;
#X obj 108 113 until;
#X obj 108 275 outlet;
#X obj 108 225 gemlist;
#X obj 108 135 t b b;
#X obj 252 166 f;
#X obj 280 166 + 1;
#X msg 267 111 0;
#X obj 272 333 outlet rotate;
#X obj 416 311 outlet translate;
#X obj 108 247 separator;
#X obj 416 266 * 2;
#X obj 416 288 - 3;
#X obj 236 195 sel 0 1 2 3;
#N canvas 596 218 450 430 rotate 0;
#X obj 204 213 f;
#X obj 229 213 + 1;
#X obj 177 192 t b b;
#X obj 177 151 inlet;
#X obj 134 233 f;
#X obj 134 326 abs;
#X obj 134 374 outlet;
#X obj 134 350 pack 0 0;
#X obj 229 235 % 360;
#X obj 134 304 - 90;
#X obj 159 233 + 0.2;
#X floatatom 214 344 5 0 0 0 - - -, f 5;
#X obj 159 255 moses 180;
#X obj 210 275 t b;
#X msg 210 297 0;
#X connect 0 0 1 0;
#X connect 0 0 7 1;
#X connect 1 0 8 0;
#X connect 2 0 4 0;
#X connect 2 1 0 0;
#X connect 3 0 2 0;
#X connect 4 0 9 0;
#X connect 4 0 10 0;
#X connect 5 0 7 0;
#X connect 5 0 11 0;
#X connect 7 0 6 0;
#X connect 8 0 0 1;
#X connect 9 0 5 0;
#X connect 10 0 12 0;
#X connect 12 0 4 1;
#X connect 12 1 13 0;
#X connect 13 0 14 0;
#X connect 14 0 4 1;
#X restore 212 235 pd rotate;
#X msg 204 289 \$1 \$2;
#X msg 258 286 90 0;
#X msg 296 286 0 90;
#X msg 346 286 45 45;
#X connect 0 0 1 0;
#X connect 1 0 2 0;
#X connect 1 1 5 1;
#X connect 1 2 9 0;
#X connect 2 0 3 0;
#X connect 3 0 6 0;
#X connect 5 0 12 0;
#X connect 6 0 5 0;
#X connect 6 1 7 0;
#X connect 7 0 8 0;
#X connect 7 0 13 0;
#X connect 7 0 15 0;
#X connect 8 0 7 1;
#X connect 9 0 7 1;
#X connect 12 0 4 0;
#X connect 13 0 14 0;
#X connect 14 0 11 0;
#X connect 15 0 16 0;
#X connect 15 1 18 0;
#X connect 15 2 19 0;
#X connect 15 3 20 0;
#X connect 16 0 17 0;
#X connect 17 0 10 0;
#X connect 18 0 10 0;
#X connect 19 0 10 0;
#X connect 20 0 10 0;
#X restore 787 136 pd repeat;
#X obj 700 403 unpack;
#X obj 837 190 unpack 0 0;
#X obj 663 310 translateXYZ 0 0 -1.4;
#N canvas 137 516 450 300 fb_param 0;
#X obj -362 80 loadbang;
#X obj -362 136 outlet;
#X msg -362 102 color 0 0 0 0 \, dimen 256 256 \, format RGBA \, perspec
-0.2 0.2 -0.2 0.2 0.2 5;
#X connect 0 0 2 0;
#X connect 2 0 1 0;
#X restore 613 176 pd fb_param;
#X obj 814 286 rectangle 4 4;
#X obj 837 212 * 4;
#X obj 787 63 tgl 15 0 empty empty empty 17 7 0 10 -262144 -1 -1 1
1;
#X obj 787 108 alpha;
#X obj 787 83 gemhead -1;
#X obj 699 160 loadbang;
#X msg 699 182 0;
#X obj 787 158 t a b;
#X floatatom 724 259 5 0 0 0 - - -, f 5;
#X obj 680 257 alpha;
#X obj 383 415 color 1 1 1 1;
#X msg 458 395 1 0 0 \$1;
#X obj 383 208 alpha, f 6;
#X obj 383 332 translateXYZ 0 0 -4;
#X msg 391 94 color 1 1 1 1 \, dimen 512 512 \, format RGB;
#X text 461 262 posX posY val id;
#X obj 467 510 loadbang;
#X text 514 594 display a funny rotating model;
#X obj 601 -3 inlet;
#X obj 705 12 declare -path ../data;
#X msg 684 473 rescale 1 \, material 0 \, open ../data/model.obj;
#X obj 383 351 pix_image ../data/point.png;
#X msg 467 532 font ../data/vera.ttf;
#X floatatom 555 372 5 0 0 0 - - -, f 5;
#X obj 506 372 / 1;
#X obj 383 565 color 0 1 0 1;
#X floatatom 432 580 5 0 0 0 - - -, f 5;
#X obj 342 164 t a a;
#X obj 153 371 pix_texture;
#X obj 153 279 separator;
#N canvas 1062 619 450 435 coord&val 0;
#X obj 229 286 f;
#X obj 254 286 + 1;
#X msg 244 266 0;
#X obj 43 27 inlet GEMLIST;
#X obj 77 367 outlet GEMLIST;
#X obj 43 387 outlet BANG;
#X obj 183 113 list;
#X obj 183 135 list split 1;
#X obj 223 190 list;
#X obj 183 157 t b a;
#X obj 174 60 bng 15 250 50 0 empty empty empty 17 7 0 10 -262144 -1
-1;
#X obj 43 68 t b a b;
#X obj 210 222 t b b a;
#X obj 229 328 tabread posX;
#X obj 248 348 tabread posY;
#X obj 229 409 outlet;
#X obj 204 26 loadbang;
#X msg 204 46 1 1 1 1;
#X obj 229 387 pack 0 0 0 0;
#X obj 229 308 t a a a;
#X obj 227 84 r cs_processed;
#X connect 0 0 1 0;
#X connect 0 0 19 0;
#X connect 1 0 0 1;
#X connect 2 0 0 1;
#X connect 3 0 11 0;
#X connect 6 0 7 0;
#X connect 7 0 9 0;
#X connect 7 1 8 1;
#X connect 8 0 7 0;
#X connect 9 0 8 0;
#X connect 9 1 12 0;
#X connect 10 0 6 0;
#X connect 11 0 6 0;
#X connect 11 1 4 0;
#X connect 11 2 2 0;
#X connect 12 0 5 0;
#X connect 12 1 0 0;
#X connect 12 2 18 2;
#X connect 13 0 18 0;
#X connect 14 0 18 1;
#X connect 16 0 17 0;
#X connect 17 0 6 1;
#X connect 18 0 15 0;
#X connect 19 0 13 0;
#X connect 19 1 14 0;
#X connect 19 2 18 3;
#X connect 20 0 6 1;
#X restore 153 236 pd coord&val;
#X floatatom 261 304 5 0 0 0 - - -, f 5;
#X floatatom 198 308 5 0 0 0 - - -, f 5;
#X obj 153 258 gemlist;
#X msg 227 435 0 1 0 \$1;
#X obj 222 279 unpack 0 0 0 0;
#X msg 303 460 text \$1;
#X obj 153 585 text2d;
#X obj 153 435 circle 0.3;
#X obj 153 415 color 1 1 1 1;
#X obj 153 208 alpha, f 6;
#X obj 153 332 translateXYZ 0 0 -4;
#X text 231 262 posX posY val id;
#X obj 237 510 loadbang;
#X obj 153 351 pix_image ../data/point.png;
#X msg 237 532 font ../data/vera.ttf;
#X floatatom 325 372 5 0 0 0 - - -, f 5;
#X obj 276 372 / 1;
#X obj 153 565 color 0 1 0 1;
#X floatatom 202 580 5 0 0 0 - - -, f 5;
#X msg 228 395 0 0 1 \$1;
#X connect 1 0 0 0;
#X connect 2 0 19 0;
#X connect 3 0 49 0;
#X connect 4 0 5 0;
#X connect 5 0 56 0;
#X connect 5 1 2 1;
#X connect 6 0 43 0;
#X connect 7 0 39 0;
#X connect 8 0 42 0;
#X connect 9 0 12 0;
#X connect 9 1 12 1;
#X connect 9 2 14 0;
#X connect 10 0 42 2;
#X connect 11 0 42 1;
#X connect 12 0 8 0;
#X connect 13 0 54 1;
#X connect 14 0 42 1;
#X connect 14 1 42 2;
#X connect 14 2 53 0;
#X connect 14 3 15 0;
#X connect 15 0 16 0;
#X connect 18 0 21 0;
#X connect 19 0 1 0;
#X connect 20 0 18 0;
#X connect 21 0 27 0;
#X connect 21 1 22 1;
#X connect 22 0 29 0;
#X connect 23 0 22 0;
#X connect 24 0 36 0;
#X connect 24 1 25 0;
#X connect 24 2 26 0;
#X connect 25 0 1 1;
#X connect 25 1 1 2;
#X connect 26 0 30 0;
#X connect 26 1 23 2;
#X connect 27 0 2 0;
#X connect 28 0 21 0;
#X connect 30 0 23 1;
#X connect 31 0 33 0;
#X connect 32 0 24 0;
#X connect 33 0 32 0;
#X connect 34 0 35 0;
#X connect 35 0 18 0;
#X connect 36 0 23 0;
#X connect 36 1 18 0;
#X connect 37 0 38 1;
#X connect 38 0 21 0;
#X connect 39 0 17 0;
#X connect 40 0 39 1;
#X connect 41 0 9 0;
#X connect 42 0 50 0;
#X connect 43 0 5 0;
#X connect 45 0 51 0;
#X connect 47 0 31 0;
#X connect 47 0 4 0;
#X connect 49 0 0 0;
#X connect 50 0 7 0;
#X connect 51 0 16 0;
#X connect 52 0 53 1;
#X connect 53 0 40 0;
#X connect 53 0 13 0;
#X connect 54 0 16 0;
#X connect 55 0 16 1;
#X connect 56 0 41 0;
#X connect 56 1 69 0;
#X connect 57 0 68 0;
#X connect 58 0 70 0;
#X connect 59 0 62 0;
#X connect 59 1 62 1;
#X connect 59 2 64 0;
#X connect 60 0 70 2;
#X connect 61 0 70 1;
#X connect 62 0 58 0;
#X connect 63 0 77 1;
#X connect 64 0 70 1;
#X connect 64 1 70 2;
#X connect 64 2 76 0;
#X connect 64 3 65 0;
#X connect 65 0 66 0;
#X connect 68 0 67 0;
#X connect 69 0 59 0;
#X connect 70 0 73 0;
#X connect 72 0 74 0;
#X connect 73 0 57 0;
#X connect 74 0 66 0;
#X connect 75 0 76 1;
#X connect 76 0 79 0;
#X connect 76 0 63 0;
#X connect 77 0 66 0;
#X connect 78 0 66 1;
#X connect 79 0 68 1;
