#N canvas 259 367 1658 712 10;
#X declare -path ../data;
#X obj 1003 508 model;
#X obj 1003 427 rotateXYZ 45 -45 0, f 19;
#X obj 1003 336 pix_texture;
#X obj 1024 453 loadbang;
#X obj 590 -1 gemhead 49;
#X obj 590 63 gemframebuffer;
#X obj 598 19 loadbang;
#X obj 1003 231 gemhead 1;
#X obj 1003 356 scaleXYZ 1 1 1;
#X obj 1003 213 tgl 15 0 empty empty empty 17 7 0 10 -262144 -1 -1
0 1;
#X obj 1003 283 gemframebuffer;
#X obj 1154 264 pix_texture;
#X obj 1154 244 translateXYZ;
#N canvas 1 652 531 396 repeat 0;
#X obj 108 47 inlet;
#X obj 108 69 t b a b;
#X msg 108 91 4;
#X obj 108 113 until;
#X obj 108 275 outlet;
#X obj 108 225 gemlist;
#X obj 108 135 t b b;
#X obj 252 166 f;
#X obj 280 166 + 1;
#X msg 267 111 0;
#X obj 272 333 outlet rotate;
#X obj 416 311 outlet translate;
#X obj 108 247 separator;
#X obj 416 266 * 2;
#X obj 416 288 - 3;
#X obj 236 195 sel 0 1 2 3;
#N canvas 596 218 450 430 rotate 0;
#X obj 204 213 f;
#X obj 229 213 + 1;
#X obj 177 192 t b b;
#X obj 177 151 inlet;
#X obj 134 233 f;
#X obj 134 326 abs;
#X obj 134 374 outlet;
#X obj 134 350 pack 0 0;
#X obj 229 235 % 360;
#X obj 134 304 - 90;
#X obj 159 233 + 0.2;
#X floatatom 214 344 5 0 0 0 - - -, f 5;
#X obj 159 255 moses 180;
#X obj 210 275 t b;
#X msg 210 297 0;
#X connect 0 0 1 0;
#X connect 0 0 7 1;
#X connect 1 0 8 0;
#X connect 2 0 4 0;
#X connect 2 1 0 0;
#X connect 3 0 2 0;
#X connect 4 0 9 0;
#X connect 4 0 10 0;
#X connect 5 0 7 0;
#X connect 5 0 11 0;
#X connect 7 0 6 0;
#X connect 8 0 0 1;
#X connect 9 0 5 0;
#X connect 10 0 12 0;
#X connect 12 0 4 1;
#X connect 12 1 13 0;
#X connect 13 0 14 0;
#X connect 14 0 4 1;
#X restore 212 235 pd rotate;
#X msg 204 289 \$1 \$2;
#X msg 305 287 90 0;
#X msg 346 286 15 90;
#X msg 258 287 15 -90;
#X connect 0 0 1 0;
#X connect 1 0 2 0;
#X connect 1 1 5 1;
#X connect 1 2 9 0;
#X connect 2 0 3 0;
#X connect 3 0 6 0;
#X connect 5 0 12 0;
#X connect 6 0 5 0;
#X connect 6 1 7 0;
#X connect 7 0 8 0;
#X connect 7 0 13 0;
#X connect 7 0 15 0;
#X connect 8 0 7 1;
#X connect 9 0 7 1;
#X connect 12 0 4 0;
#X connect 13 0 14 0;
#X connect 14 0 11 0;
#X connect 15 0 16 0;
#X connect 15 1 20 0;
#X connect 15 2 18 0;
#X connect 15 3 19 0;
#X connect 16 0 17 0;
#X connect 17 0 10 0;
#X connect 18 0 10 0;
#X connect 19 0 10 0;
#X connect 20 0 10 0;
#X restore 1127 136 pd repeat;
#X obj 1040 403 unpack;
#X obj 1177 190 unpack 0 0;
#X obj 1003 310 translateXYZ 0 0 -1.4;
#N canvas 853 644 450 300 fb_param 0;
#X obj 48 80 loadbang;
#X obj 48 136 outlet;
#X msg 69 24 color 0 0 0 0 \, dimen 256 256 \, format RGBA \, perspec
-0.2 0.2 -0.2 0.2 0.2 5;
#X msg 37 101 color 0 0 0 0 \, dimen 1024 1024 \, format RGBA \, perspec
-0.2 0.2 -0.2 0.2 0.2 5;
#X connect 0 0 3 0;
#X connect 2 0 1 0;
#X connect 3 0 1 0;
#X restore 953 176 pd fb_param;
#X obj 1154 286 rectangle 4 4;
#X obj 1177 212 * 4;
#X obj 1127 63 tgl 15 0 empty empty empty 17 7 0 10 -262144 -1 -1 1
1;
#X obj 1127 108 alpha;
#X obj 1127 83 gemhead -1;
#X obj 1039 160 loadbang;
#X msg 1039 182 0;
#X obj 1127 158 t a b;
#X floatatom 1064 259 5 0 0 0 - - -, f 5;
#X obj 1020 257 alpha;
#X msg 598 39 color 1 1 1 1 \, dimen 512 512 \, format RGB;
#X text 597 712 display a funny rotating model;
#X obj 941 -3 inlet;
#X obj 1045 12 declare -path ../data;
#X msg 1024 473 rescale 1 \, material 0 \, open ../data/model.obj;
#X obj 282 399 pix_texture;
#X obj 282 257 separator;
#N canvas 359 415 737 537 coord&val 0;
#X obj 229 286 f;
#X obj 254 286 + 1;
#X msg 244 266 0;
#X obj 37 -16 inlet GEMLIST;
#X obj 55 434 outlet GEMLIST;
#X obj 14 457 outlet BANG;
#X obj 183 113 list;
#X obj 183 135 list split 1;
#X obj 223 190 list;
#X obj 174 60 bng 15 250 50 0 empty empty empty 17 7 0 10 -262144 -1
-1;
#X obj 37 25 t b a b;
#X obj 210 222 t b b a;
#X obj 229 465 outlet;
#X obj 570 199 list;
#X obj 570 221 list split 1;
#X obj 583 260 list;
#X obj 561 146 bng 15 250 50 0 empty empty empty 17 7 0 10 -262144
-1 -1;
#X obj 123 68 t b b;
#X obj 183 157 t b a;
#X obj 248 384 tabread CSposX;
#X obj 268 404 tabread CSposY;
#N canvas 1 98 450 762 pack 0;
#X obj 398 654 list length;
#X floatatom 398 676 5 0 0 0 - - -, f 5;
#X obj 296 109 t b a;
#X obj 302 179 list;
#X obj 296 142 list;
#X obj 296 209 t b a;
#X obj 302 279 list;
#X obj 296 242 list;
#X obj 164 45 route 0 1 2 3 4 5;
#X obj 256 109 t b a;
#X obj 256 209 t b a;
#X obj 296 309 t b a;
#X obj 302 379 list;
#X obj 296 342 list;
#X obj 256 309 t b a;
#X obj 296 409 t b a;
#X obj 302 479 list;
#X obj 296 442 list;
#X obj 256 409 t b a;
#X obj 296 509 t b a;
#X obj 302 579 list;
#X obj 296 542 list;
#X obj 256 509 t b a;
#X obj 302 622 outlet;
#X obj 164 23 inlet;
#X connect 0 0 1 0;
#X connect 2 0 4 0;
#X connect 2 1 3 1;
#X connect 3 0 5 0;
#X connect 4 0 3 0;
#X connect 5 0 7 0;
#X connect 5 1 6 1;
#X connect 6 0 11 0;
#X connect 7 0 6 0;
#X connect 8 0 22 0;
#X connect 8 1 18 0;
#X connect 8 2 14 0;
#X connect 8 3 10 0;
#X connect 8 4 9 0;
#X connect 8 5 2 0;
#X connect 9 0 4 0;
#X connect 9 1 4 1;
#X connect 10 0 7 0;
#X connect 10 1 7 1;
#X connect 11 0 13 0;
#X connect 11 1 12 1;
#X connect 12 0 15 0;
#X connect 13 0 12 0;
#X connect 14 0 13 0;
#X connect 14 1 13 1;
#X connect 15 0 17 0;
#X connect 15 1 16 1;
#X connect 16 0 19 0;
#X connect 17 0 16 0;
#X connect 18 0 17 0;
#X connect 18 1 17 1;
#X connect 19 0 21 0;
#X connect 19 1 20 1;
#X connect 20 0 0 0;
#X connect 20 0 23 0;
#X connect 21 0 20 0;
#X connect 22 0 21 0;
#X connect 22 1 21 1;
#X connect 24 0 8 0;
#X restore 204 39 pd pack;
#N canvas 1 98 450 762 pack 0;
#X obj 398 654 list length;
#X floatatom 398 676 5 0 0 0 - - -, f 5;
#X obj 296 109 t b a;
#X obj 302 179 list;
#X obj 296 142 list;
#X obj 296 209 t b a;
#X obj 302 279 list;
#X obj 296 242 list;
#X obj 164 45 route 0 1 2 3 4 5;
#X obj 256 109 t b a;
#X obj 256 209 t b a;
#X obj 296 309 t b a;
#X obj 302 379 list;
#X obj 296 342 list;
#X obj 256 309 t b a;
#X obj 296 409 t b a;
#X obj 302 479 list;
#X obj 296 442 list;
#X obj 256 409 t b a;
#X obj 296 509 t b a;
#X obj 302 579 list;
#X obj 296 542 list;
#X obj 256 509 t b a;
#X obj 302 622 outlet;
#X obj 164 23 inlet;
#X connect 0 0 1 0;
#X connect 2 0 4 0;
#X connect 2 1 3 1;
#X connect 3 0 5 0;
#X connect 4 0 3 0;
#X connect 5 0 7 0;
#X connect 5 1 6 1;
#X connect 6 0 11 0;
#X connect 7 0 6 0;
#X connect 8 0 22 0;
#X connect 8 1 18 0;
#X connect 8 2 14 0;
#X connect 8 3 10 0;
#X connect 8 4 9 0;
#X connect 8 5 2 0;
#X connect 9 0 4 0;
#X connect 9 1 4 1;
#X connect 10 0 7 0;
#X connect 10 1 7 1;
#X connect 11 0 13 0;
#X connect 11 1 12 1;
#X connect 12 0 15 0;
#X connect 13 0 12 0;
#X connect 14 0 13 0;
#X connect 14 1 13 1;
#X connect 15 0 17 0;
#X connect 15 1 16 1;
#X connect 16 0 19 0;
#X connect 17 0 16 0;
#X connect 18 0 17 0;
#X connect 18 1 17 1;
#X connect 19 0 21 0;
#X connect 19 1 20 1;
#X connect 20 0 0 0;
#X connect 20 0 23 0;
#X connect 21 0 20 0;
#X connect 22 0 21 0;
#X connect 22 1 21 1;
#X connect 24 0 8 0;
#X restore 591 172 pd pack;
#X obj 204 19 r cs_processed;
#X obj 591 151 r fsr_processed;
#X obj 298 297 / 4;
#X obj 509 465 outlet;
#X obj 509 342 t a a a;
#X text 322 446 id x y cs;
#X text 602 446 id x y fsr;
#X obj 509 443 pack 0 0 0 0;
#X obj 229 443 pack 0 0 0 0;
#X obj 229 342 t a a a a;
#X obj 528 384 tabread FSRposX;
#X obj 548 404 tabread FSRposY;
#X connect 0 0 1 0;
#X connect 0 0 32 0;
#X connect 1 0 0 1;
#X connect 2 0 0 1;
#X connect 3 0 10 0;
#X connect 6 0 7 0;
#X connect 7 0 18 0;
#X connect 7 1 8 1;
#X connect 8 0 7 0;
#X connect 9 0 6 0;
#X connect 10 0 17 0;
#X connect 10 1 4 0;
#X connect 10 2 2 0;
#X connect 11 0 5 0;
#X connect 11 1 0 0;
#X connect 11 1 15 0;
#X connect 11 2 25 0;
#X connect 13 0 14 0;
#X connect 14 0 30 3;
#X connect 14 1 15 1;
#X connect 15 0 14 0;
#X connect 16 0 13 0;
#X connect 17 0 6 0;
#X connect 17 1 13 0;
#X connect 18 0 8 0;
#X connect 18 1 11 0;
#X connect 19 0 31 1;
#X connect 20 0 31 2;
#X connect 21 0 6 1;
#X connect 22 0 13 1;
#X connect 23 0 21 0;
#X connect 24 0 22 0;
#X connect 25 0 31 3;
#X connect 27 0 30 0;
#X connect 27 1 33 0;
#X connect 27 2 34 0;
#X connect 30 0 26 0;
#X connect 31 0 12 0;
#X connect 32 0 31 0;
#X connect 32 1 19 0;
#X connect 32 2 20 0;
#X connect 32 3 27 0;
#X connect 33 0 30 1;
#X connect 34 0 30 2;
#X restore 282 184 pd coord&val;
#X floatatom 390 332 5 0 0 0 - - -, f 5;
#X floatatom 327 336 5 0 0 0 - - -, f 5;
#X obj 282 236 gemlist;
#X obj 282 513 circle 0.3;
#X obj 282 493 color 1 1 1 1;
#X obj 282 360 translateXYZ 0 0 -4;
#X obj 366 588 loadbang;
#X msg 366 610 font ../data/vera.ttf;
#X obj 282 633 color 0 1 0 1;
#X floatatom 331 658 5 0 0 0 - - -, f 5;
#X obj 8 370 pix_snap 0 0 512 512;
#X obj 8 483 pix_share_write sensor_map 512 512 4;
#X floatatom 18 466 4 0 0 1 width - -, f 4;
#X floatatom 28 448 4 0 0 1 height - -, f 4;
#X floatatom 38 430 4 0 0 1 bytes/pixel - -, f 4;
#X floatatom 48 413 5 0 0 1 coulorspace - -, f 5;
#X obj 8 392 pix_info . . . .;
#X obj 8 343 t a b;
#X obj 282 156 alpha, f 6;
#X msg 357 563 0 1 0 \$4;
#X obj 342 301 unpack 0 0;
#X obj 255 127 t a a;
#X obj 356 243 t a a a;
#X msg 356 276 \$2 \$3;
#X msg 218 559 text CS-\$1;
#X obj 562 399 pix_texture;
#X obj 562 257 separator;
#X floatatom 670 332 5 0 0 0 - - -, f 5;
#X floatatom 607 336 5 0 0 0 - - -, f 5;
#X obj 562 236 gemlist;
#X obj 562 663 text2d;
#X obj 562 513 circle 0.3;
#X obj 562 493 color 1 1 1 1;
#X obj 562 360 translateXYZ 0 0 -4;
#X obj 646 588 loadbang;
#X msg 646 610 font ../data/vera.ttf;
#X obj 562 633 color 0 1 0 1;
#X floatatom 611 658 5 0 0 0 - - -, f 5;
#X obj 622 301 unpack 0 0;
#X obj 636 225 t a a a;
#X msg 636 276 \$2 \$3;
#X msg 507 559 text FSR-\$1;
#X msg 375 441 1 0 0 \$4;
#X obj 661 431 t a;
#X msg 637 560 0 1 0 1;
#X msg 661 456 0 1 0 \$4;
#X obj 562 379 pix_image ../data/point.png;
#X obj 282 663 text3d;
#X obj 282 535 scaleXYZ -1 1 0;
#X msg 401 664 3, f 2;
#X obj 401 641 loadbang;
#X obj 562 533 scaleXYZ -1 1 0;
#X connect 1 0 0 0;
#X connect 2 0 8 0;
#X connect 3 0 32 0;
#X connect 4 0 5 0;
#X connect 5 0 57 0;
#X connect 5 1 2 1;
#X connect 6 0 28 0;
#X connect 7 0 10 0;
#X connect 8 0 1 0;
#X connect 9 0 7 0;
#X connect 10 0 16 0;
#X connect 10 1 11 1;
#X connect 11 0 18 0;
#X connect 12 0 11 0;
#X connect 13 0 25 0;
#X connect 13 1 14 0;
#X connect 13 2 15 0;
#X connect 14 0 1 1;
#X connect 14 1 1 2;
#X connect 15 0 19 0;
#X connect 15 1 12 2;
#X connect 16 0 2 0;
#X connect 17 0 10 0;
#X connect 19 0 12 1;
#X connect 20 0 22 0;
#X connect 21 0 13 0;
#X connect 22 0 21 0;
#X connect 23 0 24 0;
#X connect 24 0 7 0;
#X connect 25 0 12 0;
#X connect 25 1 7 0;
#X connect 26 0 27 1;
#X connect 27 0 10 0;
#X connect 28 0 5 0;
#X connect 30 0 20 0;
#X connect 30 0 4 0;
#X connect 32 0 0 0;
#X connect 33 0 40 0;
#X connect 34 0 41 0;
#X connect 35 0 65 0;
#X connect 35 0 38 0;
#X connect 35 1 65 1;
#X connect 35 1 38 1;
#X connect 35 2 58 0;
#X connect 35 3 75 0;
#X connect 36 0 41 2;
#X connect 37 0 41 1;
#X connect 38 0 34 0;
#X connect 39 0 84 0;
#X connect 40 0 39 0;
#X connect 41 0 33 0;
#X connect 42 0 43 0;
#X connect 43 0 83 0;
#X connect 44 0 83 0;
#X connect 45 0 83 1;
#X connect 46 0 52 0;
#X connect 52 0 47 0;
#X connect 52 1 48 0;
#X connect 52 2 49 0;
#X connect 52 3 50 0;
#X connect 52 4 51 0;
#X connect 53 0 46 0;
#X connect 53 1 46 0;
#X connect 54 0 35 0;
#X connect 55 0 44 1;
#X connect 56 0 41 1;
#X connect 56 1 41 2;
#X connect 57 1 54 0;
#X connect 58 0 60 0;
#X connect 58 0 59 0;
#X connect 58 1 78 0;
#X connect 59 0 56 0;
#X connect 60 0 83 0;
#X connect 61 0 68 0;
#X connect 61 1 33 1;
#X connect 62 0 69 0;
#X connect 63 0 69 2;
#X connect 64 0 69 1;
#X connect 65 0 62 0;
#X connect 67 0 87 0;
#X connect 68 0 67 0;
#X connect 69 0 82 0;
#X connect 70 0 71 0;
#X connect 71 0 66 0;
#X connect 72 0 66 0;
#X connect 73 0 66 1;
#X connect 74 0 69 1;
#X connect 74 1 69 2;
#X connect 75 0 77 0;
#X connect 75 0 76 0;
#X connect 75 1 79 0;
#X connect 76 0 74 0;
#X connect 77 0 66 0;
#X connect 78 0 40 1;
#X connect 78 0 55 0;
#X connect 79 0 81 0;
#X connect 80 0 72 1;
#X connect 81 0 68 1;
#X connect 82 0 61 0;
#X connect 85 0 45 0;
#X connect 85 0 66 1;
#X connect 86 0 85 0;
