#N canvas 194 251 1658 712 10;
#X declare -path ../data;
#X obj 1003 508 model;
#X obj 1003 427 rotateXYZ 45 -45 0, f 19;
#X obj 1003 336 pix_texture;
#X obj 1024 453 loadbang;
#X obj 723 54 gemhead 49;
#X obj 723 118 gemframebuffer;
#X obj 731 74 loadbang;
#X obj 1003 231 gemhead 1;
#X obj 1003 356 scaleXYZ 1 1 1;
#X obj 1003 213 tgl 15 0 empty empty empty 17 7 0 10 -262144 -1 -1
0 1;
#X obj 1003 283 gemframebuffer;
#X obj 1154 264 pix_texture;
#X obj 1154 244 translateXYZ;
#N canvas 335 543 531 396 repeat 0;
#X obj 108 47 inlet;
#X obj 108 69 t b a b;
#X msg 108 91 4;
#X obj 108 113 until;
#X obj 108 275 outlet;
#X obj 108 225 gemlist;
#X obj 108 135 t b b;
#X obj 252 166 f;
#X obj 280 166 + 1;
#X msg 267 111 0;
#X obj 272 333 outlet rotate;
#X obj 416 311 outlet translate;
#X obj 108 247 separator;
#X obj 416 266 * 2;
#X obj 416 288 - 3;
#X obj 236 195 sel 0 1 2 3;
#N canvas 596 218 450 430 rotate 0;
#X obj 204 213 f;
#X obj 229 213 + 1;
#X obj 177 192 t b b;
#X obj 177 151 inlet;
#X obj 134 233 f;
#X obj 134 326 abs;
#X obj 134 374 outlet;
#X obj 134 350 pack 0 0;
#X obj 229 235 % 360;
#X obj 134 304 - 90;
#X obj 159 233 + 0.2;
#X floatatom 214 344 5 0 0 0 - - -, f 5;
#X obj 159 255 moses 180;
#X obj 210 275 t b;
#X msg 210 297 0;
#X connect 0 0 1 0;
#X connect 0 0 7 1;
#X connect 1 0 8 0;
#X connect 2 0 4 0;
#X connect 2 1 0 0;
#X connect 3 0 2 0;
#X connect 4 0 9 0;
#X connect 4 0 10 0;
#X connect 5 0 7 0;
#X connect 5 0 11 0;
#X connect 7 0 6 0;
#X connect 8 0 0 1;
#X connect 9 0 5 0;
#X connect 10 0 12 0;
#X connect 12 0 4 1;
#X connect 12 1 13 0;
#X connect 13 0 14 0;
#X connect 14 0 4 1;
#X restore 212 235 pd rotate;
#X msg 204 289 \$1 \$2;
#X msg 258 286 90 0;
#X msg 296 286 0 90;
#X msg 346 286 45 45;
#X connect 0 0 1 0;
#X connect 1 0 2 0;
#X connect 1 1 5 1;
#X connect 1 2 9 0;
#X connect 2 0 3 0;
#X connect 3 0 6 0;
#X connect 5 0 12 0;
#X connect 6 0 5 0;
#X connect 6 1 7 0;
#X connect 7 0 8 0;
#X connect 7 0 13 0;
#X connect 7 0 15 0;
#X connect 8 0 7 1;
#X connect 9 0 7 1;
#X connect 12 0 4 0;
#X connect 13 0 14 0;
#X connect 14 0 11 0;
#X connect 15 0 16 0;
#X connect 15 1 18 0;
#X connect 15 2 19 0;
#X connect 15 3 20 0;
#X connect 16 0 17 0;
#X connect 17 0 10 0;
#X connect 18 0 10 0;
#X connect 19 0 10 0;
#X connect 20 0 10 0;
#X restore 1127 136 pd repeat;
#X obj 1040 403 unpack;
#X obj 1177 190 unpack 0 0;
#X obj 1003 310 translateXYZ 0 0 -1.4;
#N canvas 137 516 450 300 fb_param 0;
#X obj -362 80 loadbang;
#X obj -362 136 outlet;
#X msg -362 102 color 0 0 0 0 \, dimen 256 256 \, format RGBA \, perspec
-0.2 0.2 -0.2 0.2 0.2 5;
#X connect 0 0 2 0;
#X connect 2 0 1 0;
#X restore 953 176 pd fb_param;
#X obj 1154 286 rectangle 4 4;
#X obj 1177 212 * 4;
#X obj 1127 63 tgl 15 0 empty empty empty 17 7 0 10 -262144 -1 -1 0
1;
#X obj 1127 108 alpha;
#X obj 1127 83 gemhead -1;
#X obj 1039 160 loadbang;
#X msg 1039 182 0;
#X obj 1127 158 t a b;
#X floatatom 1064 259 5 0 0 0 - - -, f 5;
#X obj 1020 257 alpha;
#X msg 731 94 color 1 1 1 1 \, dimen 512 512 \, format RGB;
#X text 597 712 display a funny rotating model;
#X obj 941 -3 inlet;
#X obj 1045 12 declare -path ../data;
#X msg 1024 473 rescale 1 \, material 0 \, open ../data/model.obj;
#X obj 562 399 pix_texture;
#X obj 562 257 separator;
#N canvas 736 529 737 537 coord&val 0;
#X obj 229 286 f;
#X obj 254 286 + 1;
#X msg 244 266 0;
#X obj 37 -16 inlet GEMLIST;
#X obj 55 434 outlet GEMLIST;
#X obj 14 457 outlet BANG;
#X obj 183 113 list;
#X obj 183 135 list split 1;
#X obj 223 190 list;
#X obj 174 60 bng 15 250 50 0 empty empty empty 17 7 0 10 -262144 -1
-1;
#X obj 37 25 t b a b;
#X obj 210 222 t b b a;
#X obj 229 328 tabread posX;
#X obj 248 348 tabread posY;
#X obj 229 409 outlet;
#X obj 204 26 loadbang;
#X msg 204 46 1 1 1 1;
#X obj 229 308 t a a a;
#X obj 227 84 r cs_processed;
#X obj 229 387 pack 0 0 0 0 0;
#X obj 386 233 list;
#X obj 386 255 list split 1;
#X obj 399 294 list;
#X obj 377 180 bng 15 250 50 0 empty empty empty 17 7 0 10 -262144
-1 -1;
#X obj 407 146 loadbang;
#X msg 407 166 1 1 1 1;
#X obj 123 68 t b b;
#X obj 430 204 r fsr_processed;
#X obj 183 157 t b a;
#X connect 0 0 1 0;
#X connect 0 0 17 0;
#X connect 1 0 0 1;
#X connect 2 0 0 1;
#X connect 3 0 10 0;
#X connect 6 0 7 0;
#X connect 7 0 28 0;
#X connect 7 1 8 1;
#X connect 8 0 7 0;
#X connect 9 0 6 0;
#X connect 10 0 26 0;
#X connect 10 1 4 0;
#X connect 10 2 2 0;
#X connect 11 0 5 0;
#X connect 11 1 0 0;
#X connect 11 1 22 0;
#X connect 11 2 19 2;
#X connect 12 0 19 0;
#X connect 13 0 19 1;
#X connect 15 0 16 0;
#X connect 16 0 6 1;
#X connect 17 0 12 0;
#X connect 17 1 13 0;
#X connect 17 2 19 3;
#X connect 18 0 6 1;
#X connect 19 0 14 0;
#X connect 20 0 21 0;
#X connect 21 0 19 4;
#X connect 21 1 22 1;
#X connect 22 0 21 0;
#X connect 23 0 20 0;
#X connect 24 0 25 0;
#X connect 25 0 20 1;
#X connect 26 0 6 0;
#X connect 26 1 20 0;
#X connect 27 0 20 1;
#X connect 28 0 8 0;
#X connect 28 1 11 0;
#X restore 562 214 pd coord&val;
#X floatatom 670 332 5 0 0 0 - - -, f 5;
#X floatatom 607 336 5 0 0 0 - - -, f 5;
#X obj 562 236 gemlist;
#X obj 562 663 text2d;
#X obj 562 513 circle 0.3;
#X obj 562 493 color 1 1 1 1;
#X obj 562 360 translateXYZ 0 0 -4;
#X text 640 290 posX posY val id;
#X obj 646 588 loadbang;
#X obj 562 379 pix_image ../data/point.png;
#X msg 646 610 font ../data/vera.ttf;
#X obj 562 643 color 0 1 0 1;
#X floatatom 611 658 5 0 0 0 - - -, f 5;
#X obj 288 370 pix_snap 0 0 512 512;
#X obj 288 483 pix_share_write sensor_map 512 512 4;
#X floatatom 298 466 4 0 0 1 width - -, f 4;
#X floatatom 308 448 4 0 0 1 height - -, f 4;
#X floatatom 318 430 4 0 0 1 bytes/pixel - -, f 4;
#X floatatom 328 413 5 0 0 1 coulorspace - -, f 5;
#X obj 288 392 pix_info . . . .;
#X obj 288 343 t a b;
#X obj 987 538 timeroll 100 cs;
#X obj 1195 538 timeroll 100 fsr;
#X obj 1403 537 timeroll 100 max;
#X obj 562 186 alpha, f 6;
#N canvas 1 105 450 364 color 1;
#X obj 145 66 pack;
#X obj 145 88 t a a;
#X obj 172 117 max;
#X obj 145 141 list;
#X obj 95 0 unpack 0 0 0 0 0;
#X obj 145 242 outlet;
#X obj 95 -28 inlet;
#X msg 145 214 1 \$2 0 \$1;
#X connect 0 0 1 0;
#X connect 1 0 3 0;
#X connect 1 1 2 0;
#X connect 2 0 3 1;
#X connect 3 0 7 0;
#X connect 4 2 0 0;
#X connect 4 4 0 1;
#X connect 6 0 4 0;
#X connect 7 0 5 0;
#X restore 664 416 pd color;
#X msg 637 560 0 1 0 \$4;
#X msg 562 576 text \$4;
#X obj 622 301 unpack 0 0;
#X obj 523 161 t a a;
#X obj 796 491 unpack 0 0 0 0;
#X obj 795 439 spigot;
#X obj 641 254 t a a a;
#X obj 830 313 == 8;
#X msg 815 282 \$4;
#X connect 1 0 0 0;
#X connect 2 0 8 0;
#X connect 3 0 32 0;
#X connect 4 0 5 0;
#X connect 5 0 65 0;
#X connect 5 1 2 1;
#X connect 6 0 28 0;
#X connect 7 0 10 0;
#X connect 8 0 1 0;
#X connect 9 0 7 0;
#X connect 10 0 16 0;
#X connect 10 1 11 1;
#X connect 11 0 18 0;
#X connect 12 0 11 0;
#X connect 13 0 25 0;
#X connect 13 1 14 0;
#X connect 13 2 15 0;
#X connect 14 0 1 1;
#X connect 14 1 1 2;
#X connect 15 0 19 0;
#X connect 15 1 12 2;
#X connect 16 0 2 0;
#X connect 17 0 10 0;
#X connect 19 0 12 1;
#X connect 20 0 22 0;
#X connect 21 0 13 0;
#X connect 22 0 21 0;
#X connect 23 0 24 0;
#X connect 24 0 7 0;
#X connect 25 0 12 0;
#X connect 25 1 7 0;
#X connect 26 0 27 1;
#X connect 27 0 10 0;
#X connect 28 0 5 0;
#X connect 30 0 20 0;
#X connect 30 0 4 0;
#X connect 32 0 0 0;
#X connect 33 0 41 0;
#X connect 34 0 42 0;
#X connect 35 0 38 0;
#X connect 35 1 38 1;
#X connect 35 2 68 0;
#X connect 36 0 42 2;
#X connect 37 0 42 1;
#X connect 38 0 34 0;
#X connect 41 0 40 0;
#X connect 42 0 45 0;
#X connect 44 0 46 0;
#X connect 45 0 33 0;
#X connect 46 0 39 0;
#X connect 47 0 39 0;
#X connect 48 0 39 1;
#X connect 49 0 55 0;
#X connect 55 0 50 0;
#X connect 55 1 51 0;
#X connect 55 2 52 0;
#X connect 55 3 53 0;
#X connect 55 4 54 0;
#X connect 56 0 49 0;
#X connect 56 1 49 0;
#X connect 60 0 35 0;
#X connect 61 0 41 1;
#X connect 61 0 62 0;
#X connect 61 0 67 0;
#X connect 62 0 47 1;
#X connect 63 0 39 0;
#X connect 64 0 42 1;
#X connect 64 1 42 2;
#X connect 65 0 56 0;
#X connect 65 1 60 0;
#X connect 66 0 57 0;
#X connect 66 1 58 0;
#X connect 66 3 59 0;
#X connect 67 0 66 0;
#X connect 68 0 64 0;
#X connect 68 0 63 0;
#X connect 68 1 61 0;
#X connect 68 2 70 0;
#X connect 69 0 67 1;
#X connect 70 0 69 0;
