#N canvas 1 82 450 300 10;
#X obj 135 180 *~;
#X obj 283 118 line~ 1;
#X obj 283 75 == 0;
#X msg 283 97 \$1 10;
#X obj 135 250 *~;
#X obj 284 191 line~ 1;
#X msg 284 169 \$1 10;
#X obj 284 211 dbtorms~;
#X obj 134 129 inlet~;
#X obj 135 272 outlet~;
#X obj 283 55 r \$1-mute;
#X obj 284 148 r master-vol;
#X connect 0 0 4 0;
#X connect 1 0 0 1;
#X connect 2 0 3 0;
#X connect 3 0 1 0;
#X connect 4 0 9 0;
#X connect 5 0 7 0;
#X connect 6 0 5 0;
#X connect 7 0 4 1;
#X connect 8 0 0 0;
#X connect 10 0 2 0;
#X connect 11 0 6 0;
