#N canvas 699 160 1064 612 10;
#X declare -path ../pd-externals/nusmuk-audio;
#X declare -path ../pd-externals/nusmuk-audio;
#X declare -path ../pd-externals/nusmuk-audio;
#X declare -path ../pd-externals/nusmuk-audio;
#X declare -path ../pd-externals/nusmuk-audio;
#X obj 489 368 vsl 15 128 0 127 0 1 wave-LFO_freq empty empty 0 -9
0 10 -262144 -1 -1 300 1;
#X obj 546 367 vsl 15 128 0 127 0 1 wave-LFO_shape wave-set_LFO_shape
empty 0 -9 0 10 -262144 -1 -1 6350 1;
#X obj 843 375 vsl 15 128 0 127 0 1 disto empty empty 0 -9 0 10 -262144
-1 -1 9800 1;
#X obj 210 86 vsl 15 128 0 127 0 1 wave-VCO_freq wave-VCO_freq_in empty
0 -9 0 10 -262144 -1 -1 429 1;
#X obj 329 86 vsl 15 128 0 127 0 1 wave-VCO_mod empty empty 0 -9 0
10 -262144 -1 -1 1200 1;
#X obj 523 84 vsl 15 128 0 127 0 1 wave-VCF_freq wave-VCF_freq_in empty
0 -9 0 10 -262144 -1 -1 12600 1;
#X obj 578 86 vsl 15 128 0 127 0 1 wave-VCF_q wave-VCF_q_in empty 0
-9 0 10 -262144 -1 -1 2413 1;
#X text 486 505 LFO freq;
#X text 532 528 LFO shape;
#X text 328 219 Mod LFO;
#X text 522 222 VCF freq;
#X obj 628 84 vsl 15 128 0 127 0 1 wave-VCF_mod wave-VCF_mod_in empty
0 -9 0 10 -262144 -1 -1 6550 1;
#X text 579 242 Q;
#X obj 603 366 vsl 15 128 0 127 0 1 wave-LFO_symetry wave-set_LFO_symetry
empty 0 -9 0 10 -262144 -1 -1 6350 1;
#X text 837 521 disto;
#X obj 877 441 vradio 15 1 0 4 empty empty empty 0 -8 0 10 -262144
-1 -1 1;
#X text 904 487 disto shape;
#X text 207 220 VCO freq;
#X obj 683 362 vradio 15 1 0 7 empty empty empty 0 -8 0 10 -262144
-1 -1 0;
#X obj 270 86 vsl 15 128 0 127 0 1 wave-VCO_pwm empty empty 0 -9 0
10 -262144 -1 -1 0 1;
#X obj 210 275 s VCO_tri_square;
#X obj 210 255 tgl 15 0 empty empty empty 17 7 0 10 -262144 -1 -1 0
1;
#X text 265 239 VCO pwm /shape;
#X text 601 505 LFO symetry;
#X text 628 224 Mod LFO;
#X text 207 58 VCO;
#X text 521 53 VCF;
#N canvas 860 643 274 272 disto_shape 0;
#X obj 21 139 unpack f f f f;
#X msg 21 55 1 0 0 0;
#X msg 36 74 0 0 1 0;
#X msg 52 93 1 0.3 1 -0.3;
#X msg 68 112 1 -0.5 1 0.5;
#X obj 21 35 sel 0 1 2 3;
#X obj 22 9 inlet;
#X obj 120 37 loadbang;
#X obj 21 163 s wave-disto1_A;
#X obj 48 184 s wave-disto1_B;
#X obj 75 203 s wave-disto2_A;
#X obj 102 224 s wave-disto2_B;
#X connect 0 0 8 0;
#X connect 0 1 9 0;
#X connect 0 2 10 0;
#X connect 0 3 11 0;
#X connect 1 0 0 0;
#X connect 2 0 0 0;
#X connect 3 0 0 0;
#X connect 4 0 0 0;
#X connect 5 0 1 0;
#X connect 5 1 2 0;
#X connect 5 2 3 0;
#X connect 5 3 4 0;
#X connect 6 0 5 0;
#X connect 7 0 2 0;
#X restore 877 508 pd disto_shape;
#X text 705 485 LFO shape preset;
#X text 487 333 LFO;
#N canvas 1 121 450 300 LFO 0;
#X obj 51 222 unpack f f;
#X msg 79 118 0 0;
#X msg 65 100 0 63.5;
#X msg 93 136 0 127;
#X msg 51 82 63.5 63.5;
#X msg 107 154 127 63.5;
#X msg 121 172 127 10;
#X msg 135 190 127 117;
#X obj 51 63 sel 0 1 2 3 4 5 6;
#X obj 51 42 inlet;
#X obj 51 242 s wave-set_LFO_shape;
#X obj 108 262 s wave-set_LFO_symetry;
#X connect 0 0 10 0;
#X connect 0 1 11 0;
#X connect 1 0 0 0;
#X connect 2 0 0 0;
#X connect 3 0 0 0;
#X connect 4 0 0 0;
#X connect 5 0 0 0;
#X connect 6 0 0 0;
#X connect 7 0 0 0;
#X connect 8 0 4 0;
#X connect 8 1 2 0;
#X connect 8 2 1 0;
#X connect 8 3 3 0;
#X connect 8 4 5 0;
#X connect 8 5 6 0;
#X connect 8 6 7 0;
#X connect 9 0 8 0;
#X restore 683 509 pd LFO shape;
#X text 704 360 sin;
#X text 703 377 triangle;
#X text 705 421 square;
#X text 703 437 rectangle 1;
#X text 704 391 saw 1;
#X text 704 407 saw 2;
#X text 703 452 rectangle 2;
#X obj 389 86 vsl 15 128 0 127 0 1 wave-VCO_mod_ADSR empty empty 0
-9 0 10 -262144 -1 -1 0 1;
#X text 388 219 Mod ARSR;
#X obj 688 84 vsl 15 128 0 127 0 1 wave-VCF_mod_ADSR empty empty 0
-9 0 10 -262144 -1 -1 12700 1;
#X text 688 224 Mod ADSR;
#X obj 843 88 vsl 15 128 0 127 0 1 wave-VCA wave-VCA_in empty 0 -9
0 10 -262144 -1 -1 5961 1;
#X text 841 57 VCA;
#X text 845 227 Amplitude;
#X text 202 351 ADSR;
#X obj 43 371 tgl 50 0 wave-on_off empty empty 17 7 0 10 -4034 -1 -1
1 1;
#X text 41 428 note on / off;
#X obj 206 376 vsl 15 128 0 127 0 1 wave-ADSR_A empty empty 0 -9 0
10 -262144 -1 -1 1400 1;
#X obj 269 376 vsl 15 128 0 127 0 1 wave-ADSR_D empty empty 0 -9 0
10 -262144 -1 -1 4300 1;
#X obj 327 377 vsl 15 128 0 127 0 1 wave-ADSR_S empty empty 0 -9 0
10 -262144 -1 -1 12700 1;
#X obj 386 377 vsl 15 128 0 2550 0 1 wave-ADSR_R empty empty 0 -9 0
10 -262144 -1 -1 1700 1;
#X text 204 512 Attack;
#X text 267 532 Decay;
#X text 326 514 Sustain;
#X text 388 533 Release;
#X text 40 350 Gate;
#X msg 43 313 1;
#X obj 43 249 loadbang;
#X obj 32 14 declare -path ../pd-externals/nusmuk-audio;
#N canvas 1 160 450 300 dsp 0;
#X obj 76 122 wave-synth 1;
#X obj 166 122 wave-synth 2;
#X obj 256 122 wave-synth 3;
#X obj 346 122 wave-synth 4;
#X restore 95 111 pd dsp;
#N canvas 22 597 1015 549 mapping 1;
#X obj 434 109 metro 10;
#X obj 434 42 loadbang;
#X obj 434 87 tgl 15 0 empty empty empty 17 7 0 10 -262144 -1 -1 1
1;
#X msg 434 64 1;
#X obj 597 181 tab_sum fsr;
#X obj 683 275 s VCF_q_in;
#X obj 683 243 mapping2float 100 0;
#X obj 552 256 mapping2float 64 0;
#X obj 434 130 t b b b;
#X obj 305 342 >;
#X obj 320 310 f;
#X obj 266 272 t b f f;
#X obj 272 379 spigot;
#X obj 342 379 spigot;
#X obj 375 349 == 0;
#X floatatom 340 418 5 0 0 0 - - -, f 5;
#X floatatom 272 401 5 0 0 0 - - -, f 5;
#X obj 236 229 moses 0.2;
#X obj 211 459 s VCF_freq_in;
#X obj 141 175 tab_min_max cs;
#X obj 72 210 hsl 128 15 0 1 0 0 empty empty empty -2 -8 0 10 -262144
-1 -1 5619 1;
#X obj 602 214 hsl 128 15 0 1 0 0 empty empty empty -2 -8 0 10 -262144
-1 -1 0 1;
#X obj 211 435 mapping2float 2 64;
#X obj 823 327 speedlimiter 3;
#X obj 823 293 mapping2float 20 70;
#X obj 552 282 s wave-VCF_mod_in;
#X obj 420 335 s wave-VCO_freq_in;
#X obj 823 365 s wave-VCA_in;
#X obj 766 166 tab_sum cs;
#X floatatom 854 211 5 0 0 0 - - -, f 5;
#X obj 823 216 / 3;
#X floatatom 847 269 5 0 0 0 - - -, f 5;
#X obj 823 238 iir 15;
#X obj 610 71 array;
#X obj 337 202 array sum cs;
#X obj 337 224 / 54;
#X obj 348 259 hsl 128 15 0 1 0 0 empty empty empty -2 -8 0 10 -262144
-1 -1 429 1;
#X obj 420 303 mapping2float 0 127;
#X connect 0 0 8 0;
#X connect 1 0 3 0;
#X connect 2 0 0 0;
#X connect 3 0 2 0;
#X connect 4 1 6 0;
#X connect 4 1 7 0;
#X connect 4 1 21 0;
#X connect 6 0 5 0;
#X connect 7 0 25 0;
#X connect 8 0 19 0;
#X connect 8 1 34 0;
#X connect 8 2 4 0;
#X connect 8 2 28 0;
#X connect 9 0 12 1;
#X connect 9 0 14 0;
#X connect 10 0 9 1;
#X connect 10 0 13 0;
#X connect 11 0 10 0;
#X connect 11 1 12 0;
#X connect 11 2 9 0;
#X connect 12 0 16 0;
#X connect 12 0 22 0;
#X connect 13 0 15 0;
#X connect 14 0 13 1;
#X connect 17 0 22 0;
#X connect 17 1 11 0;
#X connect 19 2 17 0;
#X connect 19 2 20 0;
#X connect 22 0 18 0;
#X connect 23 0 27 0;
#X connect 24 0 23 0;
#X connect 28 1 30 0;
#X connect 28 1 29 0;
#X connect 30 0 32 0;
#X connect 32 0 24 0;
#X connect 32 0 31 0;
#X connect 34 0 35 0;
#X connect 35 0 36 0;
#X connect 35 0 10 1;
#X connect 35 0 37 0;
#X connect 37 0 26 0;
#X restore 67 148 pd mapping;
#X connect 15 0 27 0;
#X connect 18 0 30 0;
#X connect 21 0 20 0;
#X connect 57 0 46 0;
#X connect 58 0 57 0;
