#N canvas 684 460 1002 556 10;
#X declare -path abs -path bin -path av;
#N canvas 1 157 438 179 gemwin 0;
#X obj 132 156 gemwin;
#X obj 67 99 outlet;
#X obj 67 10 inlet;
#X obj 67 41 route create;
#X msg 67 70 set destroy;
#X msg 145 70 set create;
#X msg 294 118 destroy;
#X msg 132 97 dimen 1024 256 \, create \, 1;
#X connect 2 0 3 0;
#X connect 3 0 4 0;
#X connect 3 0 7 0;
#X connect 3 1 5 0;
#X connect 3 1 6 0;
#X connect 4 0 1 0;
#X connect 5 0 1 0;
#X connect 6 0 0 0;
#X connect 7 0 0 0;
#X restore 167 68 pd gemwin;
#X msg 167 49 create;
#X obj 30 13 declare -path abs -path bin -path av;
#X obj 574 88 pix_write 0 0 1024 256;
#X msg 607 39 file hole_vs_plain 99;
#X obj 615 64 bng 15 250 50 0 empty empty empty 17 7 0 10 -262144 -1
-1;
#X obj 574 9 gemhead -1;
#X obj 523 334 packOSCstream;
#X msg 333 54 close;
#X obj 489 225 tgl 15 0 empty empty empty 17 7 0 10 -262144 -1 -1 0
1;
#X floatatom 23 254 5 0 0 1 ms - -, f 5;
#X msg 528 308 [;
#X msg 489 308 ];
#X obj 489 284 t b a b;
#X obj 417 226 tgl 15 0 empty empty empty 17 7 0 10 -262144 -1 -1 0
1;
#X msg 417 246 /fsr/on \$1;
#X msg 489 246 /cs/on \$1;
#X floatatom 554 209 5 0 0 0 - - -, f 5;
#X msg 554 246 /cs/sensibility \$1;
#X msg 795 321 /s/del \$1;
#X floatatom 795 284 5 0 0 0 - - -, f 5;
#X obj 795 301 speedlim 200;
#X msg 307 30 open 0 \, pollintervall 1;
#X obj 554 226 speedlim 200;
#X floatatom 672 209 5 0 0 0 - - -, f 5;
#X obj 672 226 speedlim 200;
#X msg 672 246 /cs/autocal \$1;
#X msg 641 335 /cs/autocal;
#X msg 314 136 \; to-arduino-\$1 open \$1 \, pollintervall 1;
#N canvas 849 643 884 300 comports 0;
#X obj 143 39 r to-arduino-1;
#X obj 23 39 r to-arduino-0;
#X obj 63 79 print status0;
#X obj 183 79 print status1;
#X obj 301 79 print status2;
#X obj 422 79 print status3;
#X obj 383 39 r to-arduino-3;
#X obj 263 39 r to-arduino-2;
#X obj 503 39 r to-arduino-4;
#X obj 542 79 print status4;
#X obj 623 39 r to-arduino-5;
#X obj 662 79 print status5;
#X obj 23 112 unpackOSCstream;
#X obj 143 234 s OSCdispatch;
#X obj 143 112 unpackOSCstream;
#X obj 263 112 unpackOSCstream;
#X obj 383 112 unpackOSCstream;
#X obj 503 112 unpackOSCstream;
#X obj 623 112 unpackOSCstream;
#X obj 23 59 comport 0 115200;
#X obj 143 59 comport 1 115200;
#X obj 263 59 comport 2 115200;
#X obj 383 59 comport 3 115200;
#X obj 503 59 comport 4 115200;
#X obj 623 59 comport 5 115200;
#X connect 0 0 20 0;
#X connect 1 0 19 0;
#X connect 6 0 22 0;
#X connect 7 0 21 0;
#X connect 8 0 23 0;
#X connect 10 0 24 0;
#X connect 12 0 13 0;
#X connect 14 0 13 0;
#X connect 15 0 13 0;
#X connect 16 0 13 0;
#X connect 17 0 13 0;
#X connect 18 0 13 0;
#X connect 19 0 12 0;
#X connect 19 1 2 0;
#X connect 20 0 14 0;
#X connect 20 1 3 0;
#X connect 21 0 15 0;
#X connect 22 0 16 0;
#X connect 22 1 5 0;
#X connect 23 0 17 0;
#X connect 23 1 9 0;
#X connect 24 0 18 0;
#X connect 24 1 11 0;
#X restore 23 209 pd comports;
#X msg 245 201 \; to-arduino-\$1 close;
#X obj 523 357 s to-arduino-0;
#X msg 416 270 /s;
#X floatatom 769 208 5 0 0 0 - - -, f 5;
#X obj 769 225 speedlim 200;
#X msg 769 245 /cs/timeout \$1;
#X obj 633 162 tgl 15 0 empty empty empty 17 7 0 10 -262144 -1 -1 0
1;
#X obj 648 162 tgl 15 0 empty empty empty 17 7 0 10 -262144 -1 -1 0
1;
#X obj 663 162 tgl 15 0 empty empty empty 17 7 0 10 -262144 -1 -1 0
1;
#X obj 678 162 tgl 15 0 empty empty empty 17 7 0 10 -262144 -1 -1 0
1;
#X obj 693 162 tgl 15 0 empty empty empty 17 7 0 10 -262144 -1 -1 0
1;
#X obj 708 162 tgl 15 0 empty empty empty 17 7 0 10 -262144 -1 -1 0
1;
#X obj 723 162 tgl 15 0 empty empty empty 17 7 0 10 -262144 -1 -1 0
1;
#X obj 738 162 tgl 15 0 empty empty empty 17 7 0 10 -262144 -1 -1 0
1;
#X obj 753 162 tgl 15 0 empty empty empty 17 7 0 10 -262144 -1 -1 0
1;
#N canvas 1 90 537 300 cs_enable 0;
#X obj 97 162 pack 0 0 0 0 0 0 0 0 0, f 54;
#X obj 110 103 t b f;
#X obj 71 65 inlet;
#X obj 110 65 inlet;
#X obj 150 103 t b f;
#X obj 150 65 inlet;
#X obj 190 103 t b f;
#X obj 190 65 inlet;
#X obj 230 103 t b f;
#X obj 230 65 inlet;
#X obj 270 103 t b f;
#X obj 270 65 inlet;
#X obj 310 103 t b f;
#X obj 310 65 inlet;
#X obj 350 103 t b f;
#X obj 350 65 inlet;
#X obj 390 103 t b f;
#X obj 390 65 inlet;
#X obj 97 184 list prepend /cs/on;
#X obj 97 206 list trim;
#X obj 97 228 outlet, f 21;
#X connect 0 0 18 0;
#X connect 1 0 0 0;
#X connect 1 1 0 1;
#X connect 2 0 0 0;
#X connect 3 0 1 0;
#X connect 4 0 0 0;
#X connect 4 1 0 2;
#X connect 5 0 4 0;
#X connect 6 0 0 0;
#X connect 6 1 0 3;
#X connect 7 0 6 0;
#X connect 8 0 0 0;
#X connect 8 1 0 4;
#X connect 9 0 8 0;
#X connect 10 0 0 0;
#X connect 10 1 0 5;
#X connect 11 0 10 0;
#X connect 12 0 0 0;
#X connect 12 1 0 6;
#X connect 13 0 12 0;
#X connect 14 0 0 0;
#X connect 14 1 0 7;
#X connect 15 0 14 0;
#X connect 16 0 0 0;
#X connect 16 1 0 8;
#X connect 17 0 16 0;
#X connect 18 0 19 0;
#X connect 19 0 20 0;
#X restore 633 181 pd cs_enable;
#X obj 307 82 s to-arduino-1;
#X floatatom 23 294 5 0 0 1 ms - -, f 5;
#X floatatom 23 334 5 0 0 1 ms - -, f 5;
#X floatatom 23 374 5 0 0 1 ms - -, f 5;
#X floatatom 23 414 5 0 0 1 ms - -, f 5;
#X floatatom 23 454 5 0 0 1 ms - -, f 5;
#X msg 245 179 0 \, 1 \, 2 \, 3 \, 4 \, 5;
#X msg 314 114 0 \, 1 \, 2 \, 3 \, 4 \, 5;
#X obj 23 271 board_receiver /b01;
#X obj 23 231 board_receiver /b00;
#X obj 23 311 board_receiver /b02;
#X obj 23 351 board_receiver /b03;
#X obj 23 391 board_receiver /b04;
#X obj 23 431 board_receiver /b05;
#X connect 0 0 1 0;
#X connect 1 0 0 0;
#X connect 4 0 3 0;
#X connect 5 0 3 0;
#X connect 6 0 3 0;
#X connect 7 0 31 0;
#X connect 8 0 46 0;
#X connect 9 0 16 0;
#X connect 11 0 7 0;
#X connect 12 0 7 0;
#X connect 13 0 12 0;
#X connect 13 1 7 0;
#X connect 13 2 11 0;
#X connect 14 0 15 0;
#X connect 15 0 13 0;
#X connect 16 0 13 0;
#X connect 17 0 23 0;
#X connect 18 0 13 0;
#X connect 19 0 13 0;
#X connect 20 0 21 0;
#X connect 21 0 19 0;
#X connect 22 0 46 0;
#X connect 23 0 18 0;
#X connect 24 0 25 0;
#X connect 25 0 26 0;
#X connect 26 0 13 0;
#X connect 27 0 13 0;
#X connect 32 0 13 0;
#X connect 33 0 34 0;
#X connect 34 0 35 0;
#X connect 35 0 13 0;
#X connect 36 0 45 0;
#X connect 37 0 45 1;
#X connect 38 0 45 2;
#X connect 39 0 45 3;
#X connect 40 0 45 4;
#X connect 41 0 45 5;
#X connect 42 0 45 6;
#X connect 43 0 45 7;
#X connect 44 0 45 8;
#X connect 45 0 13 0;
#X connect 52 0 30 0;
#X connect 53 0 28 0;
#X connect 54 0 47 0;
#X connect 55 0 10 0;
#X connect 56 0 48 0;
#X connect 57 0 49 0;
#X connect 58 0 50 0;
#X connect 59 0 51 0;
