#N canvas 615 490 789 556 10;
#X declare -path abs -path bin -path av;
#X declare -path ../bin;
#X declare -path ../bin;
#X declare -path ../bin;
#X declare -path ../bin;
#X declare -path ../bin;
#X declare -path ../bin;
#X declare -path ../bin;
#X declare -path ../bin;
#X declare -path ../bin;
#X declare -path ../bin;
#X declare -path ../bin;
#N canvas 1 162 438 179 gemwin 0;
#X obj 132 156 gemwin;
#X obj 67 99 outlet;
#X obj 67 10 inlet;
#X obj 67 41 route create;
#X msg 67 70 set destroy;
#X msg 145 70 set create;
#X msg 294 118 destroy;
#X msg 132 97 dimen 1024 256 \, create \, 1;
#X connect 2 0 3 0;
#X connect 3 0 4 0;
#X connect 3 0 7 0;
#X connect 3 1 5 0;
#X connect 3 1 6 0;
#X connect 4 0 1 0;
#X connect 5 0 1 0;
#X connect 6 0 0 0;
#X connect 7 0 0 0;
#X restore 167 68 pd gemwin;
#X msg 167 49 destroy;
#X obj 30 13 declare -path abs -path bin -path av;
#X obj 574 88 pix_write 0 0 1024 256;
#X msg 607 39 file hole_vs_plain 99;
#X obj 615 64 bng 15 250 50 0 empty empty empty 17 7 0 10 -262144 -1
-1;
#X obj 574 9 gemhead -1;
#X msg 333 54 close;
#X floatatom 23 254 5 0 0 1 ms - -, f 5;
#X msg 307 30 open 0 \, pollintervall 1;
#X msg 314 136 \; to-arduino-\$1 open \$1 \, pollintervall 1;
#N canvas 80 626 561 299 comports 1;
#X obj 285 64 r to-all-arduino;
#X obj 285 86 t a a a a a a;
#X obj 385 111 s to-arduino-ctl-5;
#X obj 365 131 s to-arduino-ctl-4;
#X obj 345 151 s to-arduino-ctl-3;
#X obj 325 171 s to-arduino-ctl-2;
#X obj 305 191 s to-arduino-ctl-1;
#X obj 286 212 s to-arduino-ctl-0;
#X obj 51 61 connect_board 0;
#X obj 51 234 s OSCdispatch;
#X obj 71 81 connect_board 1;
#X obj 91 101 connect_board 2;
#X obj 111 121 connect_board 3;
#X obj 131 141 connect_board 4;
#X obj 151 161 connect_board 5;
#X connect 0 0 1 0;
#X connect 1 0 7 0;
#X connect 1 1 6 0;
#X connect 1 2 5 0;
#X connect 1 3 4 0;
#X connect 1 4 3 0;
#X connect 1 5 2 0;
#X connect 8 0 9 0;
#X connect 10 0 9 0;
#X connect 11 0 9 0;
#X connect 12 0 9 0;
#X connect 13 0 9 0;
#X connect 14 0 9 0;
#X restore 23 209 pd comports;
#X msg 245 201 \; to-arduino-\$1 close;
#X obj 307 82 s to-arduino-1;
#X floatatom 23 294 5 0 0 1 ms - -, f 5;
#X floatatom 23 334 5 0 0 1 ms - -, f 5;
#X floatatom 23 374 5 0 0 1 ms - -, f 5;
#X floatatom 23 414 5 0 0 1 ms - -, f 5;
#X floatatom 23 454 5 0 0 1 ms - -, f 5;
#X msg 314 114 0 \, 1 \, 2 \, 3 \, 4 \, 5;
#X msg 245 179 0 \, 1 \, 2 \, 3 \, 4 \, 5;
#X floatatom 442 111 5 0 0 0 - - -, f 5;
#X obj 251 360 board_controler 4;
#X obj 23 231 board_receiver /b00;
#X obj 360 462 tgl 15 0 empty empty empty 17 7 0 10 -262144 -1 -1 0
1;
#X obj 326 481 spigot;
#X obj 326 501 print mon-\$1;
#X obj 251 416 r OSCdispatch;
#X obj 24 190 tgl 15 0 autoConnect empty auto_connect 17 7 0 10 -262144
-1 -1 0 1;
#X obj 251 438 routeOSC /*;
#X obj 251 460 routeOSC /s/t;
#X obj 251 320 board_controler 2;
#X obj 251 280 board_controler 0;
#X obj 251 300 board_controler 1;
#X obj 251 340 board_controler 3;
#X obj 23 271 board_receiver /b01;
#X obj 23 311 board_receiver /b02;
#X obj 23 351 board_receiver /b03;
#X obj 23 431 board_receiver /b05;
#X obj 23 391 board_receiver /b04;
#X connect 0 0 1 0;
#X connect 1 0 0 0;
#X connect 4 0 3 0;
#X connect 5 0 3 0;
#X connect 6 0 3 0;
#X connect 7 0 13 0;
#X connect 9 0 13 0;
#X connect 19 0 10 0;
#X connect 20 0 12 0;
#X connect 21 0 10 0;
#X connect 23 0 8 0;
#X connect 24 0 25 1;
#X connect 25 0 26 0;
#X connect 27 0 29 0;
#X connect 29 0 30 0;
#X connect 29 1 25 0;
#X connect 30 1 25 0;
#X connect 35 0 14 0;
#X connect 36 0 15 0;
#X connect 37 0 16 0;
#X connect 38 0 18 0;
#X connect 39 0 17 0;
