#N canvas 687 448 450 300 10;
#X declare -lib zexy;
#X declare -path abs -path bin -path av;
#X msg 130 131 close;
#X msg 104 107 open 32;
#X obj 78 17 declare -lib zexy;
#X obj 21 44 declare -path abs -path bin -path av;
#X obj 104 177 unpackOSCstream;
#X obj 104 155 comport 32 115200;
#X obj 226 158 print status;
#X floatatom 104 234 5 0 0 0 - - -;
#X obj 150 247 print;
#X obj 104 200 routeOSC /rpm;
#X connect 0 0 5 0;
#X connect 1 0 5 0;
#X connect 4 0 9 0;
#X connect 5 0 4 0;
#X connect 5 1 6 0;
#X connect 9 0 7 0;
#X connect 9 0 8 0;
