#N canvas 612 894 419 141 10;
#X declare -path ../av;
#X declare -path ../av;
#X declare -path ../av;
#X declare -path ../av;
#X declare -path ../av;
#X declare -path ../av;
#X declare -path ../av;
#X declare -path ../av;
#X declare -path ../av;
#X declare -path ../av;
#X declare -path ../av;
#X declare -path ../av;
#X declare -path ../av;
#X declare -path ../av;
#X declare -path ../av;
#X declare -path ../av;
#X declare -path ../av;
#X declare -path ../av;
#X declare -path ../av;
#X declare -path ../av;
#X declare -path ../av;
#X declare -path ../av;
#X declare -path ../av;
#X declare -path ../av;
#X declare -path ../av;
#X declare -path ../av;
#X declare -path ../av;
#X declare -path ../av;
#X declare -path ../av;
#X declare -path ../av;
#X declare -path ../av;
#X declare -path ../av;
#X declare -path ../av;
#X declare -path ../av;
#X declare -path ../av;
#X declare -path ../av;
#X declare -path ../av;
#X declare -path ../av;
#X declare -path ../av;
#X declare -path ../av;
#X declare -path ../av;
#X declare -path ../av;
#X declare -path ../av;
#X declare -path ../av;
#X declare -path ../av;
#X declare -path ../av;
#X declare -path ../av;
#X declare -path ../av;
#X declare -path ../av;
#X declare -path ../av;
#X declare -path ../av;
#X declare -path ../av;
#X declare -path ../av;
#X declare -path ../av;
#X declare -path ../av;
#X declare -path ../av;
#X declare -path ../av;
#X declare -path ../av;
#X declare -path ../av;
#X declare -path ../av;
#X declare -path ../av;
#X declare -path ../av;
#X declare -path ../av;
#X declare -path ../av;
#X declare -path ../av;
#X declare -path ../av;
#X declare -path ../av;
#X declare -path ../av;
#X declare -path ../av;
#X declare -path ../av;
#X declare -path ../av;
#X declare -path ../av;
#X declare -path ../av;
#X declare -path ../av;
#X declare -path ../av;
#X declare -path ../av;
#X declare -path ../av;
#X declare -path ../av;
#X declare -path ../av;
#X declare -path ../av;
#X declare -path ../av;
#X declare -path ../av;
#X declare -path ../av;
#X declare -path ../av;
#X declare -path ../av;
#X declare -path ../av;
#X declare -path ../av;
#X declare -path ../av;
#X declare -path ../av;
#X declare -path ../av;
#X declare -path ../av;
#X declare -path ../av;
#X declare -path ../av;
#X declare -path ../av;
#X declare -path ../av;
#X declare -path ../av;
#X declare -path ../av;
#X declare -path ../av;
#X declare -path ../av;
#X declare -path ../av;
#X declare -path ../av;
#X declare -path ../av;
#X declare -path ../av;
#X declare -path ../av;
#X declare -path ../av;
#X declare -path ../av;
#X declare -path ../av;
#X declare -path ../av;
#X declare -path ../av;
#X declare -path ../av;
#X declare -path ../av;
#X declare -path ../av;
#X declare -path ../av;
#X declare -path ../av;
#X declare -path ../av;
#X declare -path ../av;
#X declare -path ../av;
#X declare -path ../av;
#X declare -path ../av;
#X declare -path ../av;
#X declare -path ../data;
#X declare -path bin -path abs -path data -path av -path puremapping
;
#N canvas 1465 255 438 247 gemwin 0;
#X obj 132 196 gemwin;
#X obj 67 99 outlet;
#X obj 67 10 inlet;
#X obj 67 41 route create;
#X msg 67 70 set destroy;
#X msg 145 70 set create;
#X msg 294 118 destroy;
#X msg 132 96 reset \, dimen 1024 256 \, lighting 1 \, create \, 1
;
#X obj 181 197 route dimen;
#X obj 181 219 s gemwin_dimen;
#X obj 132 173 t a a;
#X connect 2 0 3 0;
#X connect 3 0 4 0;
#X connect 3 0 7 0;
#X connect 3 1 5 0;
#X connect 3 1 6 0;
#X connect 4 0 1 0;
#X connect 5 0 1 0;
#X connect 6 0 10 0;
#X connect 7 0 10 0;
#X connect 8 0 9 0;
#X connect 10 0 0 0;
#X connect 10 1 8 0;
#X restore 30 45 pd gemwin;
#X msg 30 26 destroy;
#N canvas 111 592 605 436 tables 0;
#X obj 44 202 table posX 100;
#X obj 44 222 table posY 100;
#X obj 99 149 s posX;
#X obj 249 149 s posY;
#X obj 218 54 bng 15 250 50 0 empty empty empty 17 7 0 10 -262144 -1
-1;
#X obj 189 330 s posX;
#X obj 340 327 s posY;
#X obj 308 196 bng 15 250 50 0 empty empty empty 17 7 0 10 -262144
-1 -1;
#X obj 308 176 loadbang;
#X text 327 195 load coord tables;
#X text 239 53 save coord tables;
#N canvas 1 95 450 300 (subpatch) 0;
#X floatatom 105 115 5 0 0 2 id - -, f 5;
#X floatatom 148 114 5 0 0 2 x - -, f 5;
#X obj 106 167 tabwrite posX;
#X obj 100 145 tabwrite posY;
#X floatatom 186 115 5 0 0 2 y - -, f 5;
#X obj 145 60 tabread posX;
#X msg 145 82 set \$1;
#X msg 226 82 set \$1;
#X obj 226 60 tabread posY;
#X obj 261 183 t b;
#X msg 194 240 write posX.txt;
#X obj 194 262 s posX;
#X obj 294 262 s posY;
#X msg 294 240 write posY.txt;
#X obj 261 205 speedlimit 200;
#X connect 0 0 2 1;
#X connect 0 0 3 1;
#X connect 0 0 5 0;
#X connect 0 0 8 0;
#X connect 1 0 2 0;
#X connect 1 0 9 0;
#X connect 4 0 3 0;
#X connect 4 0 9 0;
#X connect 5 0 6 0;
#X connect 6 0 1 0;
#X connect 7 0 4 0;
#X connect 8 0 7 0;
#X connect 9 0 14 0;
#X connect 10 0 11 0;
#X connect 13 0 12 0;
#X connect 14 0 10 0;
#X connect 14 0 13 0;
#X coords 0 -1 1 1 130 30 2 100 100;
#X restore 55 255 pd;
#X obj 218 72 getdir;
#X obj 218 93 t a;
#X msg 249 127 write \$1/data/posY.txt;
#X msg 99 127 write \$1/data/posX.txt;
#X obj 308 213 getdir;
#X obj 332 235 print;
#X obj 308 269 t a;
#X msg 339 303 read \$1/data/posY.txt;
#X msg 189 303 read \$1/data/posX.txt;
#X connect 4 0 12 0;
#X connect 7 0 16 0;
#X connect 8 0 7 0;
#X connect 12 0 13 0;
#X connect 13 0 15 0;
#X connect 13 0 14 0;
#X connect 14 0 3 0;
#X connect 15 0 2 0;
#X connect 16 0 17 0;
#X connect 16 0 18 0;
#X connect 18 0 20 0;
#X connect 18 0 19 0;
#X connect 19 0 6 0;
#X connect 20 0 5 0;
#X restore 170 25 pd tables;
#X obj 90 26 gemhead;
#X obj 90 45 world_light;
#N canvas 1209 235 553 503 receiveOSC 1;
#X obj 39 18 udpreceive 239.200.200 9997;
#X obj 39 60 unpackOSC;
#X obj 39 203 routeOSC /cs /fsr;
#X obj 39 433 s cs_processed;
#X obj 189 331 s fsr_processed;
#X obj 39 82 routeOSC /b00 /b01 /b02 /b03 /b04 /b05;
#X obj 130 388 print;
#X obj 130 363 spigot;
#X obj 164 342 tgl 15 0 empty empty empty 17 7 0 10 -262144 -1 -1 0
1;
#X obj 76 183 routeOSC /cs /fsr;
#N canvas 49 411 719 300 pack5 0;
#N canvas 1 90 1160 300 pack 0;
#X obj 201 136 list;
#X obj 201 158 t a a;
#X obj 201 180 list;
#X obj 129 91 t a a;
#X obj 274 95 t b a;
#X obj 129 69 inlet;
#X obj 201 210 outlet;
#X obj 193 7 loadbang;
#X msg 193 29 0 0 0 0 0 0 0 0 0;
#X obj 274 61 inlet;
#X obj 193 51 t a a;
#X connect 0 0 1 0;
#X connect 1 0 2 0;
#X connect 1 1 0 1;
#X connect 2 0 6 0;
#X connect 3 0 1 0;
#X connect 3 1 0 1;
#X connect 4 0 0 0;
#X connect 4 1 2 1;
#X connect 5 0 3 0;
#X connect 7 0 8 0;
#X connect 8 0 10 0;
#X connect 9 0 4 0;
#X connect 10 0 3 0;
#X connect 10 1 4 0;
#X restore 115 151 pd pack;
#X obj 115 16 inlet;
#X obj 115 173 outlet;
#N canvas 1 90 1160 300 pack 0;
#X obj 201 136 list;
#X obj 201 158 t a a;
#X obj 201 180 list;
#X obj 129 91 t a a;
#X obj 274 95 t b a;
#X obj 129 69 inlet;
#X obj 201 210 outlet;
#X obj 193 7 loadbang;
#X msg 193 29 0 0 0 0 0 0 0 0 0;
#X obj 274 61 inlet;
#X obj 193 51 t a a;
#X connect 0 0 1 0;
#X connect 1 0 2 0;
#X connect 1 1 0 1;
#X connect 2 0 6 0;
#X connect 3 0 1 0;
#X connect 3 1 0 1;
#X connect 4 0 0 0;
#X connect 4 1 2 1;
#X connect 5 0 3 0;
#X connect 7 0 8 0;
#X connect 8 0 10 0;
#X connect 9 0 4 0;
#X connect 10 0 3 0;
#X connect 10 1 4 0;
#X restore 155 131 pd pack;
#N canvas 1 90 1160 300 pack 0;
#X obj 201 136 list;
#X obj 201 158 t a a;
#X obj 201 180 list;
#X obj 129 91 t a a;
#X obj 274 95 t b a;
#X obj 129 69 inlet;
#X obj 201 210 outlet;
#X obj 193 7 loadbang;
#X msg 193 29 0 0 0 0 0 0 0 0 0;
#X obj 274 61 inlet;
#X obj 193 51 t a a;
#X connect 0 0 1 0;
#X connect 1 0 2 0;
#X connect 1 1 0 1;
#X connect 2 0 6 0;
#X connect 3 0 1 0;
#X connect 3 1 0 1;
#X connect 4 0 0 0;
#X connect 4 1 2 1;
#X connect 5 0 3 0;
#X connect 7 0 8 0;
#X connect 8 0 10 0;
#X connect 9 0 4 0;
#X connect 10 0 3 0;
#X connect 10 1 4 0;
#X restore 195 111 pd pack;
#N canvas 1 90 1160 300 pack 0;
#X obj 201 136 list;
#X obj 201 158 t a a;
#X obj 201 180 list;
#X obj 129 91 t a a;
#X obj 274 95 t b a;
#X obj 129 69 inlet;
#X obj 201 210 outlet;
#X obj 193 7 loadbang;
#X msg 193 29 0 0 0 0 0 0 0 0 0;
#X obj 274 61 inlet;
#X obj 193 51 t a a;
#X connect 0 0 1 0;
#X connect 1 0 2 0;
#X connect 1 1 0 1;
#X connect 2 0 6 0;
#X connect 3 0 1 0;
#X connect 3 1 0 1;
#X connect 4 0 0 0;
#X connect 4 1 2 1;
#X connect 5 0 3 0;
#X connect 7 0 8 0;
#X connect 8 0 10 0;
#X connect 9 0 4 0;
#X connect 10 0 3 0;
#X connect 10 1 4 0;
#X restore 235 91 pd pack;
#N canvas 1 105 428 264 pack 0;
#X obj 160 144 list;
#X obj 160 166 t a a;
#X obj 160 188 list;
#X obj 88 99 t a a;
#X obj 233 103 t b a;
#X obj 88 77 inlet;
#X obj 160 218 outlet;
#X obj 152 15 loadbang;
#X msg 152 37 0 0 0 0 0 0 0 0 0;
#X obj 233 69 inlet;
#X obj 152 59 t a a;
#X connect 0 0 1 0;
#X connect 1 0 2 0;
#X connect 1 1 0 1;
#X connect 2 0 6 0;
#X connect 3 0 1 0;
#X connect 3 1 0 1;
#X connect 4 0 0 0;
#X connect 4 1 2 1;
#X connect 5 0 3 0;
#X connect 7 0 8 0;
#X connect 8 0 10 0;
#X connect 9 0 4 0;
#X connect 10 0 3 0;
#X connect 10 1 4 0;
#X restore 275 71 pd pack;
#X obj 155 16 inlet;
#X obj 195 16 inlet;
#X obj 235 16 inlet;
#X obj 275 16 inlet;
#X obj 314 16 inlet, f 16;
#X connect 0 0 2 0;
#X connect 1 0 0 0;
#X connect 3 0 0 1;
#X connect 4 0 3 1;
#X connect 5 0 4 1;
#X connect 6 0 5 1;
#X connect 7 0 3 0;
#X connect 8 0 4 0;
#X connect 9 0 5 0;
#X connect 10 0 6 0;
#X connect 11 0 6 1;
#X restore 39 299 pd pack5;
#X obj 114 163 routeOSC /cs /fsr;
#X obj 151 143 routeOSC /cs /fsr;
#X obj 189 123 routeOSC /cs /fsr;
#X obj 226 103 routeOSC /cs /fsr;
#N canvas 49 411 719 300 pack5 0;
#N canvas 1 90 1160 300 pack 0;
#X obj 201 136 list;
#X obj 201 158 t a a;
#X obj 201 180 list;
#X obj 129 91 t a a;
#X obj 274 95 t b a;
#X obj 129 69 inlet;
#X obj 201 210 outlet;
#X obj 193 7 loadbang;
#X msg 193 29 0 0 0 0 0 0 0 0 0;
#X obj 274 61 inlet;
#X obj 193 51 t a a;
#X connect 0 0 1 0;
#X connect 1 0 2 0;
#X connect 1 1 0 1;
#X connect 2 0 6 0;
#X connect 3 0 1 0;
#X connect 3 1 0 1;
#X connect 4 0 0 0;
#X connect 4 1 2 1;
#X connect 5 0 3 0;
#X connect 7 0 8 0;
#X connect 8 0 10 0;
#X connect 9 0 4 0;
#X connect 10 0 3 0;
#X connect 10 1 4 0;
#X restore 115 151 pd pack;
#X obj 115 16 inlet;
#X obj 115 173 outlet;
#N canvas 1 90 1160 300 pack 0;
#X obj 201 136 list;
#X obj 201 158 t a a;
#X obj 201 180 list;
#X obj 129 91 t a a;
#X obj 274 95 t b a;
#X obj 129 69 inlet;
#X obj 201 210 outlet;
#X obj 193 7 loadbang;
#X msg 193 29 0 0 0 0 0 0 0 0 0;
#X obj 274 61 inlet;
#X obj 193 51 t a a;
#X connect 0 0 1 0;
#X connect 1 0 2 0;
#X connect 1 1 0 1;
#X connect 2 0 6 0;
#X connect 3 0 1 0;
#X connect 3 1 0 1;
#X connect 4 0 0 0;
#X connect 4 1 2 1;
#X connect 5 0 3 0;
#X connect 7 0 8 0;
#X connect 8 0 10 0;
#X connect 9 0 4 0;
#X connect 10 0 3 0;
#X connect 10 1 4 0;
#X restore 155 131 pd pack;
#N canvas 1 90 1160 300 pack 0;
#X obj 201 136 list;
#X obj 201 158 t a a;
#X obj 201 180 list;
#X obj 129 91 t a a;
#X obj 274 95 t b a;
#X obj 129 69 inlet;
#X obj 201 210 outlet;
#X obj 193 7 loadbang;
#X msg 193 29 0 0 0 0 0 0 0 0 0;
#X obj 274 61 inlet;
#X obj 193 51 t a a;
#X connect 0 0 1 0;
#X connect 1 0 2 0;
#X connect 1 1 0 1;
#X connect 2 0 6 0;
#X connect 3 0 1 0;
#X connect 3 1 0 1;
#X connect 4 0 0 0;
#X connect 4 1 2 1;
#X connect 5 0 3 0;
#X connect 7 0 8 0;
#X connect 8 0 10 0;
#X connect 9 0 4 0;
#X connect 10 0 3 0;
#X connect 10 1 4 0;
#X restore 195 111 pd pack;
#N canvas 1 90 1160 300 pack 0;
#X obj 201 136 list;
#X obj 201 158 t a a;
#X obj 201 180 list;
#X obj 129 91 t a a;
#X obj 274 95 t b a;
#X obj 129 69 inlet;
#X obj 201 210 outlet;
#X obj 193 7 loadbang;
#X msg 193 29 0 0 0 0 0 0 0 0 0;
#X obj 274 61 inlet;
#X obj 193 51 t a a;
#X connect 0 0 1 0;
#X connect 1 0 2 0;
#X connect 1 1 0 1;
#X connect 2 0 6 0;
#X connect 3 0 1 0;
#X connect 3 1 0 1;
#X connect 4 0 0 0;
#X connect 4 1 2 1;
#X connect 5 0 3 0;
#X connect 7 0 8 0;
#X connect 8 0 10 0;
#X connect 9 0 4 0;
#X connect 10 0 3 0;
#X connect 10 1 4 0;
#X restore 235 91 pd pack;
#N canvas 1 105 428 264 pack 0;
#X obj 160 144 list;
#X obj 160 166 t a a;
#X obj 160 188 list;
#X obj 88 99 t a a;
#X obj 233 103 t b a;
#X obj 88 77 inlet;
#X obj 160 218 outlet;
#X obj 152 15 loadbang;
#X msg 152 37 0 0 0 0 0 0 0 0 0;
#X obj 233 69 inlet;
#X obj 152 59 t a a;
#X connect 0 0 1 0;
#X connect 1 0 2 0;
#X connect 1 1 0 1;
#X connect 2 0 6 0;
#X connect 3 0 1 0;
#X connect 3 1 0 1;
#X connect 4 0 0 0;
#X connect 4 1 2 1;
#X connect 5 0 3 0;
#X connect 7 0 8 0;
#X connect 8 0 10 0;
#X connect 9 0 4 0;
#X connect 10 0 3 0;
#X connect 10 1 4 0;
#X restore 275 71 pd pack;
#X obj 155 16 inlet;
#X obj 195 16 inlet;
#X obj 235 16 inlet;
#X obj 275 16 inlet;
#X obj 314 16 inlet, f 28;
#X connect 0 0 2 0;
#X connect 1 0 0 0;
#X connect 3 0 0 1;
#X connect 4 0 3 1;
#X connect 5 0 4 1;
#X connect 6 0 5 1;
#X connect 7 0 3 0;
#X connect 8 0 4 0;
#X connect 9 0 5 0;
#X connect 10 0 6 0;
#X connect 11 0 6 1;
#X restore 189 299 pd pack5;
#X obj 39 40 spigot 1;
#X obj 226 3 inlet;
#X obj 226 25 == 0;
#X msg 117 56 /*/* 1 1 1 1 1 1 1 1 1;
#X floatatom 292 4 5 0 0 0 - - -, f 5;
#X floatatom 296 51 5 0 0 0 - - -, f 5;
#X msg 294 76 /*/cs \$1 \$1 \$1 \$1 \$1 \$1 \$1 \$1 \$1;
#X msg 290 29 /*/fsr \$1 \$1 \$1 \$1 \$1 \$1 \$1 \$1 \$1;
#X connect 0 0 16 0;
#X connect 1 0 5 0;
#X connect 2 0 10 0;
#X connect 2 1 15 0;
#X connect 5 0 2 0;
#X connect 5 1 9 0;
#X connect 5 2 11 0;
#X connect 5 3 12 0;
#X connect 5 4 13 0;
#X connect 5 5 14 0;
#X connect 7 0 6 0;
#X connect 8 0 7 1;
#X connect 9 0 10 1;
#X connect 9 1 15 1;
#X connect 10 0 3 0;
#X connect 10 0 7 0;
#X connect 11 0 10 2;
#X connect 11 1 15 2;
#X connect 12 0 10 3;
#X connect 12 1 15 3;
#X connect 13 0 10 4;
#X connect 13 1 15 4;
#X connect 14 0 10 5;
#X connect 14 1 15 5;
#X connect 15 0 4 0;
#X connect 15 0 7 0;
#X connect 16 0 1 0;
#X connect 17 0 18 0;
#X connect 18 0 16 1;
#X connect 19 0 5 0;
#X connect 20 0 23 0;
#X connect 21 0 22 0;
#X connect 22 0 5 0;
#X connect 23 0 5 0;
#X restore 30 65 pd receiveOSC;
#N canvas 149 779 432 293 show_raw_data 0;
#X obj 59 -17 r fsr_processed;
#X obj 107 144 f;
#X obj 132 144 + 1;
#X obj 59 23 list split 1;
#X obj 99 78 list;
#X obj 59 45 t b a;
#X obj 59 3 t a b;
#X msg 122 110 0;
#X obj 86 212 send;
#X msg 107 166 fsr-\$1;
#X obj 107 188 symbol;
#X obj 86 110 t a b;
#X obj 217 144 f;
#X obj 242 144 + 1;
#X obj 169 23 list split 1;
#X obj 209 78 list;
#X obj 169 45 t b a;
#X obj 169 3 t a b;
#X msg 232 110 0;
#X obj 196 212 send;
#X obj 217 188 symbol;
#X obj 196 110 t a b;
#X obj 169 -17 r cs_processed;
#X msg 217 166 cs-\$1;
#N canvas 750 599 450 429 script 0;
#X obj 169 333 s pd-60displays;
#X msg 346 189 clear;
#X obj 169 110 f;
#X obj 194 110 + 1;
#X msg 199 63 0;
#X obj 151 22 t b b b;
#X obj 150 -5 bng 15 250 50 0 empty empty empty 17 7 0 10 -262144 -1
-1;
#X obj 126 247 + 10;
#X obj 126 269 pack 0 0 0;
#X obj 126 180 / 10;
#X obj 126 202 i;
#X obj 166 247 + 10;
#X obj 166 180 % 10;
#X obj 166 225 * 20;
#X obj 126 225 * 100;
#X msg 126 289 obj \$1 \$2 gem_display \$3;
#X obj 188 -32 loadbang;
#X obj 169 132 t a a a a;
#X msg 283 44 0;
#X obj 231 169 sel 59;
#X obj 169 88 until;
#X obj 16 142 s gem_display_loadbang;
#X connect 1 0 0 0;
#X connect 2 0 3 0;
#X connect 2 0 17 0;
#X connect 3 0 2 1;
#X connect 4 0 2 1;
#X connect 5 0 21 0;
#X connect 5 1 20 0;
#X connect 5 2 4 0;
#X connect 5 2 1 0;
#X connect 6 0 5 0;
#X connect 7 0 8 0;
#X connect 8 0 15 0;
#X connect 9 0 10 0;
#X connect 10 0 14 0;
#X connect 11 0 8 1;
#X connect 12 0 13 0;
#X connect 13 0 11 0;
#X connect 14 0 7 0;
#X connect 15 0 0 0;
#X connect 16 0 5 0;
#X connect 17 0 9 0;
#X connect 17 1 12 0;
#X connect 17 2 8 2;
#X connect 17 3 19 0;
#X connect 19 0 20 1;
#X connect 20 0 2 0;
#X restore 285 19 pd script;
#N canvas 79 457 652 232 60displays 0;
#X obj 10 10 gem_display 0;
#X obj 10 30 gem_display 1;
#X obj 10 50 gem_display 2;
#X obj 10 70 gem_display 3;
#X obj 10 90 gem_display 4;
#X obj 10 110 gem_display 5;
#X obj 10 130 gem_display 6;
#X obj 10 150 gem_display 7;
#X obj 10 170 gem_display 8;
#X obj 10 190 gem_display 9;
#X obj 110 10 gem_display 10;
#X obj 110 30 gem_display 11;
#X obj 110 50 gem_display 12;
#X obj 110 70 gem_display 13;
#X obj 110 90 gem_display 14;
#X obj 110 110 gem_display 15;
#X obj 110 130 gem_display 16;
#X obj 110 150 gem_display 17;
#X obj 110 170 gem_display 18;
#X obj 110 190 gem_display 19;
#X obj 210 10 gem_display 20;
#X obj 210 30 gem_display 21;
#X obj 210 50 gem_display 22;
#X obj 210 70 gem_display 23;
#X obj 210 90 gem_display 24;
#X obj 210 110 gem_display 25;
#X obj 210 130 gem_display 26;
#X obj 210 150 gem_display 27;
#X obj 210 170 gem_display 28;
#X obj 210 190 gem_display 29;
#X obj 310 10 gem_display 30;
#X obj 310 30 gem_display 31;
#X obj 310 50 gem_display 32;
#X obj 310 70 gem_display 33;
#X obj 310 90 gem_display 34;
#X obj 310 110 gem_display 35;
#X obj 310 130 gem_display 36;
#X obj 310 150 gem_display 37;
#X obj 310 170 gem_display 38;
#X obj 310 190 gem_display 39;
#X obj 410 10 gem_display 40;
#X obj 410 30 gem_display 41;
#X obj 410 50 gem_display 42;
#X obj 410 70 gem_display 43;
#X obj 410 90 gem_display 44;
#X obj 410 110 gem_display 45;
#X obj 410 130 gem_display 46;
#X obj 410 150 gem_display 47;
#X obj 410 170 gem_display 48;
#X obj 410 190 gem_display 49;
#X obj 510 10 gem_display 50;
#X obj 510 30 gem_display 51;
#X obj 510 50 gem_display 52;
#X obj 510 70 gem_display 53;
#X obj 510 90 gem_display 54;
#X obj 510 110 gem_display 55;
#X obj 510 130 gem_display 56;
#X obj 510 150 gem_display 57;
#X obj 510 170 gem_display 58;
#X obj 510 190 gem_display 59;
#X restore 285 -1 pd 60displays;
#X connect 0 0 6 0;
#X connect 1 0 2 0;
#X connect 1 0 9 0;
#X connect 2 0 1 1;
#X connect 3 0 5 0;
#X connect 3 1 4 1;
#X connect 4 0 3 0;
#X connect 5 0 4 0;
#X connect 5 1 11 0;
#X connect 6 0 3 0;
#X connect 6 1 7 0;
#X connect 7 0 1 1;
#X connect 9 0 10 0;
#X connect 10 0 8 1;
#X connect 11 0 8 0;
#X connect 11 1 1 0;
#X connect 12 0 13 0;
#X connect 12 0 23 0;
#X connect 13 0 12 1;
#X connect 14 0 16 0;
#X connect 14 1 15 1;
#X connect 15 0 14 0;
#X connect 16 0 15 0;
#X connect 16 1 21 0;
#X connect 17 0 14 0;
#X connect 17 1 18 0;
#X connect 18 0 12 1;
#X connect 20 0 19 1;
#X connect 21 0 19 0;
#X connect 21 1 12 0;
#X connect 22 0 17 0;
#X connect 23 0 20 0;
#X restore 30 105 pd show_raw_data;
#X obj 13 85 tgl 15 0 empty empty empty 17 7 0 10 -262144 -1 -1 1 1
;
#X obj 200 63 vradio 15 1 0 3 colorMode empty empty 0 -8 0 10 -262144
-1 -1 0;
#X text 217 76 light blue;
#X text 219 61 geeky green;
#X text 217 93 full color;
#X obj 30 85 show_model;
#X obj 29 -7 declare -path bin -path abs -path data -path av -path
puremapping;
#X obj 13 65 tgl 15 0 empty empty mute -26 7 0 10 -262144 -1 -1 0 1
;
#X connect 0 0 1 0;
#X connect 1 0 0 0;
#X connect 3 0 4 0;
#X connect 7 0 12 0;
#X connect 14 0 5 0;
