#N canvas 19 680 315 269 10;
#X declare -path pd-externals/puremapping;
#X declare -path bin -path abs -path data -path av;
#X declare -path pd-externals/nusmuk-audio;
#X declare -path pd-externals/hcs;
#X declare -path pd-externals/iem_tab -lib iem_tab;
#X declare -path ../pd-externals/nusmuk-audio;
#X declare -path ../pd-externals/nusmuk-audio;
#X declare -path ../pd-externals/nusmuk-audio;
#X declare -path ../pd-externals/nusmuk-audio;
#X declare -path ../pd-externals/nusmuk-audio;
#X declare -path ../pd-externals/nusmuk-audio;
#X declare -path ../pd-externals/nusmuk-audio;
#X declare -path ../pd-externals/nusmuk-audio;
#X declare -path ../pd-externals/nusmuk-audio;
#X declare -path ../pd-externals/nusmuk-audio;
#N canvas 1111 263 596 550 receiveOSC 0;
#X obj 39 110 unpackOSC;
#X obj 39 253 routeOSC /cs /fsr;
#X obj 39 483 s cs_processed;
#X obj 189 481 s fsr_processed;
#X obj 39 132 routeOSC /b00 /b01 /b02 /b03 /b04 /b05;
#X obj 130 438 print;
#X obj 130 413 spigot;
#X obj 164 392 tgl 15 0 empty empty empty 17 7 0 10 -262144 -1 -1 0
1;
#X obj 76 233 routeOSC /cs /fsr;
#X obj 114 213 routeOSC /cs /fsr;
#X obj 151 193 routeOSC /cs /fsr;
#X obj 189 173 routeOSC /cs /fsr;
#X obj 226 153 routeOSC /cs /fsr;
#X obj 39 90 spigot 1;
#X obj 236 46 inlet;
#X obj 236 68 == 0;
#X msg 117 106 /*/* 1 1 1 1 1 1 1 1 1;
#X floatatom 292 54 5 0 0 0 - - -, f 5;
#X floatatom 296 101 5 0 0 0 - - -, f 5;
#X msg 294 126 /*/cs \$1 \$1 \$1 \$1 \$1 \$1 \$1 \$1 \$1;
#X msg 290 79 /*/fsr \$1 \$1 \$1 \$1 \$1 \$1 \$1 \$1 \$1;
#X obj 189 431 spigot 1;
#X obj 234 406 tgl 15 0 empty empty empty 17 7 0 10 -262144 -1 -1 0
1;
#X obj 39 431 spigot 1;
#X obj 84 406 tgl 15 0 empty empty empty 17 7 0 10 -262144 -1 -1 0
1;
#N canvas 37 472 719 300 prepend 0;
#X obj 115 16 inlet;
#X obj 115 223 outlet;
#X obj 155 16 inlet;
#X obj 195 16 inlet;
#X obj 235 16 inlet;
#X obj 275 16 inlet;
#X obj 314 16 inlet, f 16;
#X obj 115 59 list prepend 0;
#X obj 155 79 list prepend 1;
#X obj 195 99 list prepend 2;
#X obj 235 119 list prepend 3;
#X obj 275 139 list prepend 4;
#X obj 314 159 list prepend 5;
#X connect 0 0 7 0;
#X connect 2 0 8 0;
#X connect 3 0 9 0;
#X connect 4 0 10 0;
#X connect 5 0 11 0;
#X connect 6 0 12 0;
#X connect 7 0 1 0;
#X connect 8 0 1 0;
#X connect 9 0 1 0;
#X connect 10 0 1 0;
#X connect 11 0 1 0;
#X connect 12 0 1 0;
#X restore 39 349 pd prepend;
#N canvas 39 463 719 300 prepend 0;
#X obj 115 16 inlet;
#X obj 115 223 outlet;
#X obj 155 16 inlet;
#X obj 195 16 inlet;
#X obj 235 16 inlet;
#X obj 275 16 inlet;
#X obj 314 16 inlet, f 16;
#X obj 115 59 list prepend 0;
#X obj 155 79 list prepend 1;
#X obj 195 99 list prepend 2;
#X obj 235 119 list prepend 3;
#X obj 275 139 list prepend 4;
#X obj 314 159 list prepend 5;
#X connect 0 0 7 0;
#X connect 2 0 8 0;
#X connect 3 0 9 0;
#X connect 4 0 10 0;
#X connect 5 0 11 0;
#X connect 6 0 12 0;
#X connect 7 0 1 0;
#X connect 8 0 1 0;
#X connect 9 0 1 0;
#X connect 10 0 1 0;
#X connect 11 0 1 0;
#X connect 12 0 1 0;
#X restore 189 352 pd prepend;
#X obj 327 445 pack f f f f f f f f f;
#X obj 329 219 metro 100;
#X obj 326 195 tgl 15 0 empty empty empty 17 7 0 10 -262144 -1 -1 0
1;
#X floatatom 377 269 5 0 0 0 - - -, f 5;
#X floatatom 387 289 5 0 0 0 - - -, f 5;
#X floatatom 397 309 5 0 0 0 - - -, f 5;
#X floatatom 407 329 5 0 0 0 - - -, f 5;
#X floatatom 417 349 5 0 0 0 - - -, f 5;
#X floatatom 427 369 5 0 0 0 - - -, f 5;
#X floatatom 437 389 5 0 0 0 - - -, f 5;
#X floatatom 447 409 5 0 0 0 - - -, f 5;
#X floatatom 367 249 5 0 0 0 - - -, f 5;
#X text 402 250 CSx-0;
#X text 421 290 CSx-2;
#X text 441 330 CSx-4;
#X text 461 370 CSx-6;
#X text 481 410 CSx-8;
#X msg 355 45 0;
#X obj 355 25 loadbang;
#X obj 492 213 tgl 15 0 empty empty empty 17 7 0 10 -262144 -1 -1 0
1;
#X msg 327 468 /b00/cs \$1 \$2 \$3 \$4 \$5 \$6 \$7 \$8 \$9;
#X obj 39 46 udpreceive 239.200.200.200 9997;
#X connect 0 0 4 0;
#X connect 1 0 25 0;
#X connect 1 1 26 0;
#X connect 4 0 1 0;
#X connect 4 1 8 0;
#X connect 4 2 9 0;
#X connect 4 3 10 0;
#X connect 4 4 11 0;
#X connect 4 5 12 0;
#X connect 6 0 5 0;
#X connect 7 0 6 1;
#X connect 8 0 25 1;
#X connect 8 1 26 1;
#X connect 9 0 25 2;
#X connect 9 1 26 2;
#X connect 10 0 25 3;
#X connect 10 1 26 3;
#X connect 11 0 25 4;
#X connect 11 1 26 4;
#X connect 12 0 25 5;
#X connect 12 1 26 5;
#X connect 13 0 0 0;
#X connect 14 0 15 0;
#X connect 15 0 13 1;
#X connect 16 0 4 0;
#X connect 17 0 20 0;
#X connect 18 0 19 0;
#X connect 19 0 4 0;
#X connect 20 0 4 0;
#X connect 21 0 3 0;
#X connect 22 0 21 1;
#X connect 23 0 2 0;
#X connect 24 0 23 1;
#X connect 25 0 6 0;
#X connect 25 0 23 0;
#X connect 26 0 21 0;
#X connect 26 0 6 0;
#X connect 27 0 47 0;
#X connect 28 0 27 0;
#X connect 29 0 28 0;
#X connect 30 0 27 1;
#X connect 31 0 27 2;
#X connect 32 0 27 3;
#X connect 33 0 27 4;
#X connect 34 0 27 5;
#X connect 35 0 27 6;
#X connect 36 0 27 7;
#X connect 37 0 27 8;
#X connect 38 0 27 0;
#X connect 44 0 17 0;
#X connect 44 0 18 0;
#X connect 45 0 44 0;
#X connect 46 0 38 0;
#X connect 46 0 30 0;
#X connect 46 0 31 0;
#X connect 46 0 32 0;
#X connect 46 0 33 0;
#X connect 46 0 34 0;
#X connect 46 0 35 0;
#X connect 46 0 36 0;
#X connect 46 0 37 0;
#X connect 47 0 4 0;
#X connect 48 0 13 0;
#X restore 50 45 pd receiveOSC;
#X obj 33 45 tgl 15 0 empty empty mute -26 7 0 10 -262144 -1 -1 0 1
;
#N canvas 11 669 450 300 init 0;
#X obj 33 32 declare -path pd-externals/puremapping;
#X obj 33 12 declare -path bin -path abs -path data -path av;
#X obj 33 52 declare -path pd-externals/nusmuk-audio;
#X obj 33 72 declare -path pd-externals/hcs;
#X obj 33 92 declare -path pd-externals/iem_tab -lib iem_tab;
#X obj 33 112 selectAudioDevice GIGAPort_HD+_(hardware);
#X restore 51 25 pd init;
#X obj 28 208 _fps;
#N canvas 1069 142 515 644 fill-table 1;
#X obj 83 235 f;
#X obj 108 235 + 1;
#X obj 29 114 list split 1;
#X obj 69 169 list;
#X obj 29 136 t b a;
#X obj 29 94 t a b;
#X obj 56 201 t a b;
#X obj 203 244 f;
#X obj 228 244 + 1;
#X obj 149 123 list split 1;
#X obj 189 178 list;
#X obj 149 145 t b a;
#X obj 149 103 t a b;
#X obj 176 210 t a b;
#X obj 149 33 r cs_processed;
#X obj 149 75 list split 1;
#X obj 149 55 t a a;
#X msg 231 73 \$1;
#X obj 231 157 * 9;
#X obj 29 74 list split 1;
#X obj 29 54 t a a;
#X msg 111 72 \$1;
#X obj 111 156 * 9;
#X obj 302 236 table cs 54;
#X obj 302 256 table fsr 54;
#X obj 176 374 tabwrite cs;
#X obj 56 344 tabwrite fsr;
#X obj 29 33 r fsr_processed;
#X obj 176 300 max 0;
#X obj 176 331 curve_log;
#X connect 0 0 1 0;
#X connect 0 0 26 1;
#X connect 1 0 0 1;
#X connect 2 0 4 0;
#X connect 2 1 3 1;
#X connect 3 0 2 0;
#X connect 4 0 3 0;
#X connect 4 1 6 0;
#X connect 5 0 2 0;
#X connect 6 0 26 0;
#X connect 6 1 0 0;
#X connect 7 0 8 0;
#X connect 7 0 25 1;
#X connect 8 0 7 1;
#X connect 9 0 11 0;
#X connect 9 1 10 1;
#X connect 10 0 9 0;
#X connect 11 0 10 0;
#X connect 11 1 13 0;
#X connect 12 0 9 0;
#X connect 13 0 28 0;
#X connect 13 1 7 0;
#X connect 14 0 16 0;
#X connect 15 1 12 0;
#X connect 16 0 15 0;
#X connect 16 1 17 0;
#X connect 17 0 18 0;
#X connect 18 0 7 1;
#X connect 19 1 5 0;
#X connect 20 0 19 0;
#X connect 20 1 21 0;
#X connect 21 0 22 0;
#X connect 22 0 0 1;
#X connect 27 0 20 0;
#X connect 28 0 29 0;
#X connect 29 0 25 0;
#X restore 50 65 pd fill-table;
#N canvas 455 592 754 302 output~ 0;
#X obj 52 145 dac~ 1 2 3 4, f 20;
#X obj 51 17 catch~ analog-1;
#X obj 91 37 catch~ analog-2;
#X obj 131 57 catch~ analog-3;
#X obj 170 77 catch~ analog-4;
#X obj 306 137 dac~ 1 2 3 4, f 20;
#X obj 305 19 catch~ wave-1;
#X obj 344 39 catch~ wave-2;
#X obj 384 59 catch~ wave-3;
#X obj 424 79 catch~ wave-4;
#X obj 77 194 oscillo~;
#X obj 395 193 oscillo~;
#X connect 1 0 0 0;
#X connect 1 0 10 0;
#X connect 2 0 0 1;
#X connect 3 0 0 2;
#X connect 4 0 0 3;
#X connect 6 0 5 0;
#X connect 7 0 5 1;
#X connect 7 0 11 0;
#X connect 8 0 5 2;
#X connect 9 0 5 3;
#X restore 50 125 pd output~;
#X obj 187 3 tgl 15 1 analog-mute empty mute 17 7 0 10 -262144 -1 -1
0 1;
#X obj 187 35 vsl 15 128 0 100 0 1 analog-vol empty volume 0 -9 0 10
-262144 -1 -1 12700 1;
#X obj 237 3 tgl 15 1 wave-mute empty mute 17 7 0 10 -262144 -1 -1
0 1;
#X obj 237 35 vsl 15 128 0 100 0 1 wave-vol empty volume 0 -9 0 10
-262144 -1 -1 8900 1;
#X obj 50 85 analog_synth_main;
#X obj 50 105 wave_synth_main;
#X connect 1 0 0 0;
