#N canvas 1407 612 423 467 10;
#X declare -path ../bin;
#X declare -path ../bin;
#X declare -path ../bin;
#X declare -path ../bin;
#X declare -path ../bin;
#X declare -path ../bin;
#X declare -path ../bin;
#X declare -path ../puremapping;
#X declare -path ../puremapping;
#X declare -path ../puremapping;
#X declare -path ../puremapping;
#X declare -path ../puremapping;
#X declare -path ../puremapping;
#X declare -path ../puremapping;
#X declare -path ../puremapping;
#X declare -path ../puremapping;
#X declare -path ../pd-externals/puremapping -path ../av;
#X declare -path ../pd-externals/nusmuk-audio;
#X declare -path ../pd-externals/puremapping -path ../av;
#X declare -path ../pd-externals/nusmuk-audio;
#X declare -path ../pd-externals/puremapping -path ../av;
#X declare -path ../pd-externals/nusmuk-audio;
#X declare -path ../pd-externals/puremapping -path ../av;
#X declare -path ../pd-externals/nusmuk-audio;
#X declare -path ../pd-externals/puremapping -path ../av;
#X declare -path ../pd-externals/nusmuk-audio;
#X declare -path ../pd-externals/puremapping -path ../av;
#X declare -path ../pd-externals/nusmuk-audio;
#X declare -path ../pd-externals/puremapping -path ../av;
#X declare -path ../pd-externals/nusmuk-audio;
#X declare -path ../pd-externals/puremapping -path ../av;
#X declare -path ../pd-externals/nusmuk-audio;
#X declare -path ../pd-externals/puremapping -path ../av;
#X declare -path ../pd-externals/nusmuk-audio;
#X declare -path ../bin;
#X declare -path ../bin -path ../puremapping -path ../av;
#X declare -path ../bin -path ../puremapping -path ../av;
#X declare -path ../bin -path ../puremapping -path ../av;
#X declare -path ../bin -path ../puremapping -path ../av;
#X declare -path ../bin -path ../puremapping -path ../av;
#X declare -path ../bin -path ../puremapping -path ../av;
#X declare -path ../bin -path ../puremapping -path ../av;
#X declare -path ../puremapping;
#X declare -path ../puremapping;
#X declare -path ../puremapping;
#X declare -path ../puremapping;
#X declare -path ../puremapping;
#X declare -path ../puremapping;
#X declare -path ../puremapping;
#X declare -path ../puremapping;
#X declare -path ../puremapping;
#X declare -path ../pd-externals/puremapping -path ../av;
#X declare -path ../pd-externals/nusmuk-audio;
#X declare -path ../pd-externals/puremapping -path ../av;
#X declare -path ../pd-externals/nusmuk-audio;
#X declare -path ../pd-externals/puremapping -path ../av;
#X declare -path ../pd-externals/nusmuk-audio;
#X declare -path ../pd-externals/puremapping -path ../av;
#X declare -path ../pd-externals/nusmuk-audio;
#X declare -path ../pd-externals/puremapping -path ../av;
#X declare -path ../pd-externals/nusmuk-audio;
#X declare -path ../pd-externals/puremapping -path ../av;
#X declare -path ../pd-externals/nusmuk-audio;
#X declare -path ../pd-externals/puremapping -path ../av;
#X declare -path ../pd-externals/nusmuk-audio;
#X declare -path ../pd-externals/puremapping -path ../av;
#X declare -path ../pd-externals/nusmuk-audio;
#X declare -path ../pd-externals/puremapping -path ../av;
#X declare -path ../pd-externals/nusmuk-audio;
#X declare -path ../bin;
#X declare -path ../puremapping;
#X declare -path ../puremapping;
#X declare -path ../puremapping;
#X declare -path ../puremapping;
#X declare -path ../puremapping;
#X declare -path ../puremapping;
#X declare -path ../puremapping;
#X declare -path ../puremapping;
#X declare -path ../puremapping;
#X declare -path ../pd-externals/puremapping -path ../av;
#X declare -path ../pd-externals/nusmuk-audio;
#X declare -path ../pd-externals/puremapping -path ../av;
#X declare -path ../pd-externals/nusmuk-audio;
#X declare -path ../pd-externals/puremapping -path ../av;
#X declare -path ../pd-externals/nusmuk-audio;
#X declare -path ../pd-externals/puremapping -path ../av;
#X declare -path ../pd-externals/nusmuk-audio;
#X declare -path ../pd-externals/puremapping -path ../av;
#X declare -path ../pd-externals/nusmuk-audio;
#X declare -path ../pd-externals/puremapping -path ../av;
#X declare -path ../pd-externals/nusmuk-audio;
#X declare -path ../pd-externals/puremapping -path ../av;
#X declare -path ../pd-externals/nusmuk-audio;
#X declare -path ../pd-externals/puremapping -path ../av;
#X declare -path ../pd-externals/nusmuk-audio;
#X declare -path ../pd-externals/puremapping -path ../av;
#X declare -path ../pd-externals/nusmuk-audio;
#X declare -path ../bin;
#X declare -path ../puremapping;
#X declare -path ../puremapping;
#X declare -path ../puremapping;
#X declare -path ../puremapping;
#X declare -path ../puremapping;
#X declare -path ../puremapping;
#X declare -path ../puremapping;
#X declare -path ../puremapping;
#X declare -path ../puremapping;
#X declare -path ../pd-externals/puremapping -path ../av;
#X declare -path ../pd-externals/nusmuk-audio;
#X declare -path ../pd-externals/puremapping -path ../av;
#X declare -path ../pd-externals/nusmuk-audio;
#X declare -path ../pd-externals/puremapping -path ../av;
#X declare -path ../pd-externals/nusmuk-audio;
#X declare -path ../pd-externals/puremapping -path ../av;
#X declare -path ../pd-externals/nusmuk-audio;
#X declare -path ../pd-externals/puremapping -path ../av;
#X declare -path ../pd-externals/nusmuk-audio;
#X declare -path ../pd-externals/puremapping -path ../av;
#X declare -path ../pd-externals/nusmuk-audio;
#X declare -path ../pd-externals/puremapping -path ../av;
#X declare -path ../pd-externals/nusmuk-audio;
#X declare -path ../pd-externals/puremapping -path ../av;
#X declare -path ../pd-externals/nusmuk-audio;
#X declare -path ../pd-externals/puremapping -path ../av;
#X declare -path ../pd-externals/nusmuk-audio;
#X declare -path ../bin;
#X declare -path ../puremapping;
#X declare -path ../puremapping;
#X declare -path ../puremapping;
#X declare -path ../puremapping;
#X declare -path ../puremapping;
#X declare -path ../puremapping;
#X declare -path ../puremapping;
#X declare -path ../puremapping;
#X declare -path ../puremapping;
#X declare -path ../pd-externals/puremapping -path ../av;
#X declare -path ../pd-externals/nusmuk-audio;
#X declare -path ../pd-externals/puremapping -path ../av;
#X declare -path ../pd-externals/nusmuk-audio;
#X declare -path ../pd-externals/puremapping -path ../av;
#X declare -path ../pd-externals/nusmuk-audio;
#X declare -path ../pd-externals/puremapping -path ../av;
#X declare -path ../pd-externals/nusmuk-audio;
#X declare -path ../pd-externals/puremapping -path ../av;
#X declare -path ../pd-externals/nusmuk-audio;
#X declare -path ../pd-externals/puremapping -path ../av;
#X declare -path ../pd-externals/nusmuk-audio;
#X declare -path ../pd-externals/puremapping -path ../av;
#X declare -path ../pd-externals/nusmuk-audio;
#X declare -path ../pd-externals/puremapping -path ../av;
#X declare -path ../pd-externals/nusmuk-audio;
#X declare -path ../pd-externals/puremapping -path ../av;
#X declare -path ../pd-externals/nusmuk-audio;
#X declare -path ../bin;
#X declare -path ../puremapping;
#X declare -path ../puremapping;
#X declare -path ../puremapping;
#X declare -path ../puremapping;
#X declare -path ../puremapping;
#X declare -path ../puremapping;
#X declare -path ../puremapping;
#X declare -path ../puremapping;
#X declare -path ../puremapping;
#X declare -path ../pd-externals/puremapping -path ../av;
#X declare -path ../pd-externals/nusmuk-audio;
#X declare -path ../pd-externals/puremapping -path ../av;
#X declare -path ../pd-externals/nusmuk-audio;
#X declare -path ../pd-externals/puremapping -path ../av;
#X declare -path ../pd-externals/nusmuk-audio;
#X declare -path ../pd-externals/puremapping -path ../av;
#X declare -path ../pd-externals/nusmuk-audio;
#X declare -path ../pd-externals/puremapping -path ../av;
#X declare -path ../pd-externals/nusmuk-audio;
#X declare -path ../pd-externals/puremapping -path ../av;
#X declare -path ../pd-externals/nusmuk-audio;
#X declare -path ../pd-externals/puremapping -path ../av;
#X declare -path ../pd-externals/nusmuk-audio;
#X declare -path ../pd-externals/puremapping -path ../av;
#X declare -path ../pd-externals/nusmuk-audio;
#X declare -path ../pd-externals/puremapping -path ../av;
#X declare -path ../pd-externals/nusmuk-audio;
#X declare -path ../bin;
#X declare -path pd-externals/puremapping;
#X declare -path abs -path bin -path av;
#X declare -path pd-externals/nusmuk-audio;
#X declare -path pd-externals;
#X floatatom 16 92 5 0 0 1 ms - -, f 5;
#N canvas 453 217 568 502 comports 0;
#X obj 285 64 r to-all-arduino;
#X obj 285 86 t a a a a a a;
#X obj 385 111 s to-arduino-ctl-5;
#X obj 365 131 s to-arduino-ctl-4;
#X obj 345 151 s to-arduino-ctl-3;
#X obj 325 171 s to-arduino-ctl-2;
#X obj 305 191 s to-arduino-ctl-1;
#X obj 286 212 s to-arduino-ctl-0;
#X obj 86 388 tgl 15 0 empty empty empty 17 7 0 10 -262144 -1 -1 0
1;
#X obj 52 427 print mon-\$1;
#X obj 52 407 spigot 1;
#X obj 51 292 t a b;
#X obj 61 318 f;
#X obj 61 340 + 1;
#X obj 61 362 < 100;
#X obj 78 267 s OSCdispatch;
#X obj 51 234 t a a;
#X obj 111 121 connect_board 3;
#X obj 151 12 tgl 15 0 empty empty empty 17 7 0 10 -262144 -1 -1 0
1;
#X obj 91 101 connect_board 2;
#X obj 51 61 connect_board 0;
#X obj 161 181 connect_board 6;
#X obj 71 81 connect_board 1;
#X obj 131 141 connect_board 4;
#X obj 151 161 connect_board 5;
#X connect 0 0 1 0;
#X connect 1 0 7 0;
#X connect 1 1 6 0;
#X connect 1 2 5 0;
#X connect 1 3 4 0;
#X connect 1 4 3 0;
#X connect 1 5 2 0;
#X connect 8 0 10 1;
#X connect 10 0 9 0;
#X connect 11 0 10 0;
#X connect 11 1 12 0;
#X connect 12 0 13 0;
#X connect 13 0 12 1;
#X connect 13 0 14 0;
#X connect 14 0 8 0;
#X connect 16 1 15 0;
#X connect 17 0 16 0;
#X connect 18 0 17 0;
#X connect 18 0 19 0;
#X connect 18 0 20 0;
#X connect 18 0 21 0;
#X connect 18 0 22 0;
#X connect 18 0 23 0;
#X connect 18 0 24 0;
#X connect 19 0 16 0;
#X connect 20 0 16 0;
#X connect 21 0 16 0;
#X connect 22 0 16 0;
#X connect 23 0 16 0;
#X connect 24 0 16 0;
#X restore 16 49 pd comports;
#X floatatom 16 132 5 0 0 1 ms - -, f 5;
#X floatatom 16 172 5 0 0 1 ms - -, f 5;
#X floatatom 16 212 5 0 0 1 ms - -, f 5;
#X floatatom 16 252 5 0 0 1 ms - -, f 5;
#X floatatom 16 292 5 0 0 1 ms - -, f 5;
#X obj 151 385 tgl 15 0 empty empty empty 17 7 0 10 -262144 -1 -1 0
1;
#X obj 117 404 spigot;
#X obj 117 424 print mon-\$1;
#X obj 15 340 r OSCdispatch;
#X obj 89 50 tgl 15 0 autoConnect empty auto_connect 17 7 0 10 -262144
-1 -1 0 1;
#X obj 15 362 routeOSC /*;
#X obj 15 384 routeOSC /s/t;
#N canvas 393 540 932 443 OSCout 1;
#X obj 155 26 r sendOSC;
#X obj 155 132 packOSC;
#X obj 155 192 spigot;
#X obj 155 315 udpsend;
#X obj 155 339 tgl 15 0 empty empty empty 17 7 0 10 -262144 -1 -1 0
1;
#X obj 178 339 sel 0;
#X obj 178 361 del 1000;
#X msg 200 196 disconnect;
#X obj 535 192 spigot;
#X obj 535 315 udpsend;
#X obj 535 339 tgl 15 0 empty empty empty 17 7 0 10 -262144 -1 -1 1
1;
#X obj 586 246 loadbang;
#X obj 558 339 sel 0;
#X obj 558 361 del 1000;
#X msg 580 196 disconnect;
#X obj 155 70 spigot 1;
#X obj 235 27 inlet;
#X obj 235 49 == 0;
#X msg 189 274 connect 239.200.200.200 9997 \, multicast_interface
eht0;
#X msg 607 286 multicast_interface lo;
#X msg 586 266 connect 239.200.200.200 9997;
#X connect 0 0 15 0;
#X connect 1 0 8 0;
#X connect 2 0 3 0;
#X connect 3 0 4 0;
#X connect 3 0 2 1;
#X connect 3 0 5 0;
#X connect 5 0 6 0;
#X connect 6 0 18 0;
#X connect 7 0 3 0;
#X connect 8 0 9 0;
#X connect 9 0 10 0;
#X connect 9 0 8 1;
#X connect 9 0 12 0;
#X connect 11 0 20 0;
#X connect 12 0 13 0;
#X connect 13 0 20 0;
#X connect 14 0 9 0;
#X connect 15 0 1 0;
#X connect 16 0 17 0;
#X connect 17 0 15 1;
#X connect 18 0 3 0;
#X connect 19 0 9 0;
#X connect 20 0 9 0;
#X restore 128 327 pd OSCout;
#X text 48 444 Das Körperrauschen - Antoine Villeret 2012 - 2014;
#X obj 16 69 board_receiver /b00;
#X obj 214 209 board_controler /*;
#X obj 214 69 board_controler /b00;
#X obj 214 89 board_controler /b01;
#X obj 214 109 board_controler /b02;
#X obj 214 129 board_controler /b03;
#X obj 214 149 board_controler /b04;
#X obj 214 169 board_controler /b05;
#X obj 16 229 board_receiver /b04;
#X obj 16 269 board_receiver /b05;
#X obj 16 149 board_receiver /b02;
#X obj 16 109 board_receiver /b01;
#X obj 16 189 board_receiver /b03;
#N canvas 1 96 450 300 init 0;
#X obj 138 42 declare -path pd-externals/puremapping;
#X obj 138 84 declare -path abs -path bin -path av;
#X obj 138 63 declare -path pd-externals/nusmuk-audio;
#X obj 138 22 declare -path pd-externals;
#X restore 256 32 pd init;
#X obj 128 308 tgl 15 0 empty empty empty 17 7 0 10 -262144 -1 -1 0
1;
#X text 144 306 Mute OSC out;
#N canvas 399 169 450 520 cpu 0;
#X floatatom 148 306 0 0 0 1 % - -;
#X obj 148 168 cputime;
#X obj 148 28 loadbang;
#X msg 148 56 1;
#X floatatom 148 84 0 0 0 0 - - -;
#X obj 148 140 t b b;
#X obj 148 278 * 0.1;
#X text 193 84 <-- on/off;
#X obj 148 221 iir 15;
#X obj 148 243 int;
#X obj 148 112 metro 1000;
#X obj 151 360 outlet;
#X text 97 307 CPU load;
#X connect 1 0 8 0;
#X connect 2 0 3 0;
#X connect 3 0 4 0;
#X connect 4 0 10 0;
#X connect 5 0 1 0;
#X connect 5 1 1 1;
#X connect 6 0 0 0;
#X connect 6 0 11 0;
#X connect 8 0 9 0;
#X connect 9 0 6 0;
#X connect 10 0 5 0;
#X coords 0 -1 1 1 85 30 1 100 300;
#X restore 249 267 pd cpu;
#N canvas 1127 195 742 236 dmx 1;
#X obj 226 183 s to-arduino-dmx;
#X msg 226 104 0 \$1;
#X floatatom 226 78 5 0 255 0 - - -, f 5;
#X floatatom 266 78 5 0 255 0 - - -, f 5;
#X floatatom 306 78 5 0 255 0 - - -, f 5;
#X msg 266 104 1 \$1;
#X msg 306 104 2 \$1;
#X obj 20 40 routeOSC /dmx;
#X obj 20 62 once;
#X obj 149 92 until;
#X msg 151 68 192;
#X obj 149 114 f;
#X obj 149 136 + 1;
#X obj 149 158 pack;
#X floatatom 137 15 5 0 0 0 - - -, f 5;
#X obj 143 38 t b f;
#X obj 357 184 s to-arduino-dmx;
#X floatatom 357 79 5 0 255 0 - - -, f 5;
#X floatatom 397 79 5 0 255 0 - - -, f 5;
#X floatatom 437 79 5 0 255 0 - - -, f 5;
#X obj 483 184 s to-arduino-dmx;
#X floatatom 483 79 5 0 255 0 - - -, f 5;
#X floatatom 523 79 5 0 255 0 - - -, f 5;
#X floatatom 563 79 5 0 255 0 - - -, f 5;
#X obj 610 184 s to-arduino-dmx;
#X floatatom 610 79 5 0 255 0 - - -, f 5;
#X floatatom 650 79 5 0 255 0 - - -, f 5;
#X floatatom 690 79 5 0 255 0 - - -, f 5;
#X msg 357 105 3 \$1;
#X msg 397 105 4 \$1;
#X msg 437 105 5 \$1;
#X msg 483 105 6 \$1;
#X msg 523 105 7 \$1;
#X msg 563 105 8 \$1;
#X msg 610 105 9 \$1;
#X msg 650 105 10 \$1;
#X msg 690 105 11 \$1;
#X obj 20 18 r OSCdmx;
#X obj 56 66 bng 15 250 50 0 empty empty empty 17 7 0 10 -262144 -1
-1;
#X connect 1 0 0 0;
#X connect 2 0 1 0;
#X connect 3 0 5 0;
#X connect 4 0 6 0;
#X connect 5 0 0 0;
#X connect 6 0 0 0;
#X connect 7 0 8 0;
#X connect 7 0 38 0;
#X connect 9 0 11 0;
#X connect 10 0 9 0;
#X connect 11 0 12 0;
#X connect 12 0 11 1;
#X connect 12 0 13 0;
#X connect 13 0 0 0;
#X connect 14 0 15 0;
#X connect 15 0 10 0;
#X connect 15 1 13 1;
#X connect 17 0 28 0;
#X connect 18 0 29 0;
#X connect 19 0 30 0;
#X connect 21 0 31 0;
#X connect 22 0 32 0;
#X connect 23 0 33 0;
#X connect 25 0 34 0;
#X connect 26 0 35 0;
#X connect 27 0 36 0;
#X connect 28 0 16 0;
#X connect 29 0 16 0;
#X connect 30 0 16 0;
#X connect 31 0 20 0;
#X connect 32 0 20 0;
#X connect 33 0 20 0;
#X connect 34 0 24 0;
#X connect 35 0 24 0;
#X connect 36 0 24 0;
#X connect 37 0 7 0;
#X restore 275 343 pd dmx;
#X connect 7 0 8 1;
#X connect 8 0 9 0;
#X connect 10 0 12 0;
#X connect 12 0 13 0;
#X connect 12 1 8 0;
#X connect 13 1 8 0;
#X connect 16 0 0 0;
#X connect 24 0 5 0;
#X connect 25 0 6 0;
#X connect 26 0 3 0;
#X connect 27 0 2 0;
#X connect 28 0 4 0;
#X connect 30 0 14 0;
