#N canvas 1457 585 423 467 10;
#X declare -path ../bin;
#X declare -path ../bin;
#X declare -path ../bin;
#X declare -path ../bin;
#X declare -path ../bin;
#X declare -path ../bin;
#X declare -path abs -path bin -path av -path puremapping;
#X declare -path nusmuk-audio;
#X declare -path ../puremapping;
#X declare -path ../puremapping;
#X declare -path ../puremapping;
#X declare -path ../puremapping;
#X declare -path ../puremapping;
#X declare -path ../puremapping;
#X declare -path ../puremapping;
#X declare -path ../puremapping;
#X declare -path ../puremapping;
#X declare -path ../nusmuk-audio;
#X declare -path ../puremapping -path ../av;
#X declare -path ../nusmuk-audio;
#X declare -path ../puremapping -path ../av;
#X declare -path ../nusmuk-audio;
#X declare -path ../puremapping -path ../av;
#X declare -path ../nusmuk-audio;
#X declare -path ../puremapping -path ../av;
#X declare -path ../nusmuk-audio;
#X declare -path ../puremapping -path ../av;
#X declare -path ../nusmuk-audio;
#X declare -path ../puremapping -path ../av;
#X declare -path ../nusmuk-audio;
#X declare -path ../puremapping -path ../av;
#X declare -path ../nusmuk-audio;
#X declare -path ../puremapping -path ../av;
#X declare -path ../nusmuk-audio;
#X declare -path ../puremapping -path ../av;
#X declare -path ../bin;
#X declare -path ../bin -path ../puremapping -path ../av;
#X declare -path ../bin -path ../puremapping -path ../av;
#X declare -path ../bin -path ../puremapping -path ../av;
#X declare -path ../bin -path ../puremapping -path ../av;
#X declare -path ../bin -path ../puremapping -path ../av;
#X declare -path ../bin -path ../puremapping -path ../av;
#X declare -path ../bin -path ../puremapping -path ../av;
#X declare -path ../puremapping;
#X declare -path ../puremapping;
#X declare -path ../puremapping;
#X declare -path ../puremapping;
#X declare -path ../puremapping;
#X declare -path ../puremapping;
#X declare -path ../puremapping;
#X declare -path ../puremapping;
#X declare -path ../puremapping;
#X declare -path ../nusmuk-audio;
#X declare -path ../puremapping -path ../av;
#X declare -path ../nusmuk-audio;
#X declare -path ../puremapping -path ../av;
#X declare -path ../nusmuk-audio;
#X declare -path ../puremapping -path ../av;
#X declare -path ../nusmuk-audio;
#X declare -path ../puremapping -path ../av;
#X declare -path ../nusmuk-audio;
#X declare -path ../puremapping -path ../av;
#X declare -path ../nusmuk-audio;
#X declare -path ../puremapping -path ../av;
#X declare -path ../nusmuk-audio;
#X declare -path ../puremapping -path ../av;
#X declare -path ../nusmuk-audio;
#X declare -path ../puremapping -path ../av;
#X declare -path ../nusmuk-audio;
#X declare -path ../puremapping -path ../av;
#X declare -path ../bin;
#X declare -path ../puremapping;
#X declare -path ../puremapping;
#X declare -path ../puremapping;
#X declare -path ../puremapping;
#X declare -path ../puremapping;
#X declare -path ../puremapping;
#X declare -path ../puremapping;
#X declare -path ../puremapping;
#X declare -path ../puremapping;
#X declare -path ../nusmuk-audio;
#X declare -path ../puremapping -path ../av;
#X declare -path ../nusmuk-audio;
#X declare -path ../puremapping -path ../av;
#X declare -path ../nusmuk-audio;
#X declare -path ../puremapping -path ../av;
#X declare -path ../nusmuk-audio;
#X declare -path ../puremapping -path ../av;
#X declare -path ../nusmuk-audio;
#X declare -path ../puremapping -path ../av;
#X declare -path ../nusmuk-audio;
#X declare -path ../puremapping -path ../av;
#X declare -path ../nusmuk-audio;
#X declare -path ../puremapping -path ../av;
#X declare -path ../nusmuk-audio;
#X declare -path ../puremapping -path ../av;
#X declare -path ../nusmuk-audio;
#X declare -path ../puremapping -path ../av;
#X declare -path ../bin;
#X declare -path ../puremapping;
#X declare -path ../puremapping;
#X declare -path ../puremapping;
#X declare -path ../puremapping;
#X declare -path ../puremapping;
#X declare -path ../puremapping;
#X declare -path ../puremapping;
#X declare -path ../puremapping;
#X declare -path ../puremapping;
#X declare -path ../nusmuk-audio;
#X declare -path ../puremapping -path ../av;
#X declare -path ../nusmuk-audio;
#X declare -path ../puremapping -path ../av;
#X declare -path ../nusmuk-audio;
#X declare -path ../puremapping -path ../av;
#X declare -path ../nusmuk-audio;
#X declare -path ../puremapping -path ../av;
#X declare -path ../nusmuk-audio;
#X declare -path ../puremapping -path ../av;
#X declare -path ../nusmuk-audio;
#X declare -path ../puremapping -path ../av;
#X declare -path ../nusmuk-audio;
#X declare -path ../puremapping -path ../av;
#X declare -path ../nusmuk-audio;
#X declare -path ../puremapping -path ../av;
#X declare -path ../nusmuk-audio;
#X declare -path ../puremapping -path ../av;
#X declare -path ../bin;
#X declare -path ../puremapping;
#X declare -path ../puremapping;
#X declare -path ../puremapping;
#X declare -path ../puremapping;
#X declare -path ../puremapping;
#X declare -path ../puremapping;
#X declare -path ../puremapping;
#X declare -path ../puremapping;
#X declare -path ../puremapping;
#X declare -path ../nusmuk-audio;
#X declare -path ../puremapping -path ../av;
#X declare -path ../nusmuk-audio;
#X declare -path ../puremapping -path ../av;
#X declare -path ../nusmuk-audio;
#X declare -path ../puremapping -path ../av;
#X declare -path ../nusmuk-audio;
#X declare -path ../puremapping -path ../av;
#X declare -path ../nusmuk-audio;
#X declare -path ../puremapping -path ../av;
#X declare -path ../nusmuk-audio;
#X declare -path ../puremapping -path ../av;
#X declare -path ../nusmuk-audio;
#X declare -path ../puremapping -path ../av;
#X declare -path ../nusmuk-audio;
#X declare -path ../puremapping -path ../av;
#X declare -path ../nusmuk-audio;
#X declare -path ../puremapping -path ../av;
#X declare -path ../bin;
#X declare -path ../puremapping;
#X declare -path ../puremapping;
#X declare -path ../puremapping;
#X declare -path ../puremapping;
#X declare -path ../puremapping;
#X declare -path ../puremapping;
#X declare -path ../puremapping;
#X declare -path ../puremapping;
#X declare -path ../puremapping;
#X declare -path ../nusmuk-audio;
#X declare -path ../puremapping -path ../av;
#X declare -path ../nusmuk-audio;
#X declare -path ../puremapping -path ../av;
#X declare -path ../nusmuk-audio;
#X declare -path ../puremapping -path ../av;
#X declare -path ../nusmuk-audio;
#X declare -path ../puremapping -path ../av;
#X declare -path ../nusmuk-audio;
#X declare -path ../puremapping -path ../av;
#X declare -path ../nusmuk-audio;
#X declare -path ../puremapping -path ../av;
#X declare -path ../nusmuk-audio;
#X declare -path ../puremapping -path ../av;
#X declare -path ../nusmuk-audio;
#X declare -path ../puremapping -path ../av;
#X declare -path ../nusmuk-audio;
#X declare -path ../puremapping -path ../av;
#X declare -path ../bin;
#X floatatom 16 92 5 0 0 1 ms - -, f 5;
#N canvas 60 684 561 299 comports 0;
#X obj 285 64 r to-all-arduino;
#X obj 285 86 t a a a a a a;
#X obj 385 111 s to-arduino-ctl-5;
#X obj 365 131 s to-arduino-ctl-4;
#X obj 345 151 s to-arduino-ctl-3;
#X obj 325 171 s to-arduino-ctl-2;
#X obj 305 191 s to-arduino-ctl-1;
#X obj 286 212 s to-arduino-ctl-0;
#X obj 51 61 connect_board 0;
#X obj 86 388 tgl 15 0 empty empty empty 17 7 0 10 -262144 -1 -1 0
1;
#X obj 52 427 print mon-\$1;
#X obj 52 407 spigot 1;
#X obj 51 292 t a b;
#X obj 61 318 f;
#X obj 61 340 + 1;
#X obj 61 362 < 100;
#X obj 78 267 s OSCdispatch;
#X obj 51 234 t a a;
#X obj 71 81 connect_board 1;
#X obj 91 101 connect_board 2;
#X obj 111 121 connect_board 3;
#X obj 131 141 connect_board 4;
#X obj 151 161 connect_board 5;
#X connect 0 0 1 0;
#X connect 1 0 7 0;
#X connect 1 1 6 0;
#X connect 1 2 5 0;
#X connect 1 3 4 0;
#X connect 1 4 3 0;
#X connect 1 5 2 0;
#X connect 8 0 17 0;
#X connect 9 0 11 1;
#X connect 11 0 10 0;
#X connect 12 0 11 0;
#X connect 12 1 13 0;
#X connect 13 0 14 0;
#X connect 14 0 13 1;
#X connect 14 0 15 0;
#X connect 15 0 9 0;
#X connect 17 1 16 0;
#X connect 18 0 17 0;
#X connect 19 0 17 0;
#X connect 20 0 17 0;
#X connect 21 0 17 0;
#X connect 22 0 17 0;
#X restore 16 49 pd comports;
#X floatatom 16 132 5 0 0 1 ms - -, f 5;
#X floatatom 16 172 5 0 0 1 ms - -, f 5;
#X floatatom 16 212 5 0 0 1 ms - -, f 5;
#X floatatom 16 252 5 0 0 1 ms - -, f 5;
#X floatatom 16 292 5 0 0 1 ms - -, f 5;
#X obj 151 385 tgl 15 0 empty empty empty 17 7 0 10 -262144 -1 -1 0
1;
#X obj 117 404 spigot;
#X obj 117 424 print mon-\$1;
#X obj 15 340 r OSCdispatch;
#X obj 89 50 tgl 15 0 autoConnect empty auto_connect 17 7 0 10 -262144
-1 -1 0 1;
#X obj 15 362 routeOSC /*;
#X obj 15 384 routeOSC /s/t;
#X obj 16 29 declare -path abs -path bin -path av -path puremapping
;
#N canvas 15 617 932 443 OSCout 0;
#X obj 136 68 r sendOSC;
#X obj 136 90 t a a a;
#X obj 155 132 packOSC;
#X obj 155 192 spigot;
#X obj 155 315 udpsend;
#X obj 155 339 tgl 15 0 empty empty empty 17 7 0 10 -262144 -1 -1 1
1;
#X obj 206 252 loadbang;
#X obj 178 339 sel 0;
#X obj 178 361 del 1000;
#X msg 200 196 disconnect;
#X obj 535 192 spigot;
#X obj 535 315 udpsend;
#X obj 535 339 tgl 15 0 empty empty empty 17 7 0 10 -262144 -1 -1 1
1;
#X obj 586 246 loadbang;
#X obj 558 339 sel 0;
#X obj 558 361 del 1000;
#X msg 580 196 disconnect;
#X msg 586 266 multicast_interface lo \, connect 239.200.200.200 9997
;
#X msg 206 272 multicast_interface eht1 \, connect 239.200.200.200
9997;
#X connect 0 0 1 0;
#X connect 1 1 2 0;
#X connect 2 0 3 0;
#X connect 2 0 10 0;
#X connect 3 0 4 0;
#X connect 4 0 5 0;
#X connect 4 0 3 1;
#X connect 4 0 7 0;
#X connect 6 0 18 0;
#X connect 7 0 8 0;
#X connect 8 0 18 0;
#X connect 9 0 4 0;
#X connect 10 0 11 0;
#X connect 11 0 12 0;
#X connect 11 0 10 1;
#X connect 11 0 14 0;
#X connect 13 0 17 0;
#X connect 14 0 15 0;
#X connect 15 0 17 0;
#X connect 16 0 11 0;
#X connect 17 0 11 0;
#X connect 18 0 4 0;
#X restore 16 309 pd OSCout;
#X text 48 444 Das Körperrauschen - Antoine Villeret 2012 - 2014;
#X obj 16 9 declare -path nusmuk-audio;
#X obj 16 69 board_receiver /b00;
#X obj 214 209 board_controler /*;
#X obj 214 69 board_controler /b00;
#X obj 214 89 board_controler /b01;
#X obj 214 109 board_controler /b02;
#X obj 214 129 board_controler /b03;
#X obj 214 149 board_controler /b04;
#X obj 214 169 board_controler /b05;
#X obj 16 229 board_receiver /b04;
#X obj 16 269 board_receiver /b05;
#X obj 16 149 board_receiver /b02;
#X obj 16 109 board_receiver /b01;
#X obj 16 189 board_receiver /b03;
#X connect 7 0 8 1;
#X connect 8 0 9 0;
#X connect 10 0 12 0;
#X connect 12 0 13 0;
#X connect 12 1 8 0;
#X connect 13 1 8 0;
#X connect 18 0 0 0;
#X connect 26 0 5 0;
#X connect 27 0 6 0;
#X connect 28 0 3 0;
#X connect 29 0 2 0;
#X connect 30 0 4 0;
