#N canvas 508 673 450 300 10;
#X obj 152 81 pix_share_read sensor_map 512 512 4;
#X obj 152 54 gemhead;
#X obj 152 233 pix_texture;
#X obj 152 255 rectangle 4 4;
#X floatatom 162 196 4 0 0 1 width - -, f 4;
#X floatatom 172 178 4 0 0 1 height - -, f 4;
#X floatatom 182 160 4 0 0 1 bytes/pixel - -, f 4;
#X floatatom 192 143 5 0 0 1 coulorspace - -, f 5;
#X obj 152 122 pix_info . . . .;
#X obj 37 63 gemwin;
#X msg 37 38 create \, 1;
#X connect 0 0 8 0;
#X connect 1 0 0 0;
#X connect 2 0 3 0;
#X connect 8 0 2 0;
#X connect 8 1 4 0;
#X connect 8 2 5 0;
#X connect 8 3 6 0;
#X connect 8 4 7 0;
#X connect 10 0 9 0;
