#N canvas 1 612 423 467 10;
#X declare -path ../bin;
#X declare -path ../bin;
#X declare -path ../bin;
#X declare -path ../bin;
#X declare -path ../bin;
#X declare -path ../bin;
#X declare -path ../bin;
#X declare -path ../bin -path ../puremapping -path ../av;
#X declare -path ../bin -path ../puremapping -path ../av;
#X declare -path ../bin -path ../puremapping -path ../av;
#X declare -path ../bin -path ../puremapping -path ../av;
#X declare -path ../bin -path ../puremapping -path ../av;
#X declare -path ../bin -path ../puremapping -path ../av;
#X declare -path ../bin -path ../puremapping -path ../av;
#X declare -path pd-externals/puremapping;
#X declare -path pd-externals/nusmuk-audio;
#X declare -path pd-externals;
#X declare -path pd-externals/iem_tab -lib iem_tab;
#X declare -path pd-externals/abs_light;
#X declare -path pd-externals/osc;
#X declare -path pd-externals/share_mem;
#X declare -path pd-externals/comport;
#X declare -path abs;
#X declare -path pd-externals/av;
#X declare -path pd-externals/net;
#X declare -path ../puremapping;
#X declare -path ../puremapping;
#X declare -path ../puremapping;
#X declare -path ../puremapping;
#X declare -path ../puremapping;
#X declare -path ../puremapping;
#X declare -path ../puremapping;
#X declare -path ../puremapping;
#X declare -path ../puremapping;
#X declare -path ../pd-externals/puremapping -path ../av;
#X declare -path ../pd-externals/nusmuk-audio;
#X declare -path ../pd-externals/puremapping -path ../av;
#X declare -path ../pd-externals/nusmuk-audio;
#X declare -path ../pd-externals/puremapping -path ../av;
#X declare -path ../pd-externals/nusmuk-audio;
#X declare -path ../pd-externals/puremapping -path ../av;
#X declare -path ../pd-externals/nusmuk-audio;
#X declare -path ../pd-externals/puremapping -path ../av;
#X declare -path ../pd-externals/nusmuk-audio;
#X declare -path ../pd-externals/puremapping -path ../av;
#X declare -path ../pd-externals/nusmuk-audio;
#X declare -path ../pd-externals/puremapping -path ../av;
#X declare -path ../pd-externals/nusmuk-audio;
#X declare -path ../pd-externals/puremapping -path ../av;
#X declare -path ../pd-externals/nusmuk-audio;
#X declare -path ../pd-externals/puremapping -path ../av;
#X declare -path ../pd-externals/nusmuk-audio;
#X declare -path ../bin;
#X declare -path ../puremapping;
#X declare -path ../puremapping;
#X declare -path ../puremapping;
#X declare -path ../puremapping;
#X declare -path ../puremapping;
#X declare -path ../puremapping;
#X declare -path ../puremapping;
#X declare -path ../puremapping;
#X declare -path ../puremapping;
#X declare -path ../pd-externals/puremapping -path ../av;
#X declare -path ../pd-externals/nusmuk-audio;
#X declare -path ../pd-externals/puremapping -path ../av;
#X declare -path ../pd-externals/nusmuk-audio;
#X declare -path ../pd-externals/puremapping -path ../av;
#X declare -path ../pd-externals/nusmuk-audio;
#X declare -path ../pd-externals/puremapping -path ../av;
#X declare -path ../pd-externals/nusmuk-audio;
#X declare -path ../pd-externals/puremapping -path ../av;
#X declare -path ../pd-externals/nusmuk-audio;
#X declare -path ../pd-externals/puremapping -path ../av;
#X declare -path ../pd-externals/nusmuk-audio;
#X declare -path ../pd-externals/puremapping -path ../av;
#X declare -path ../pd-externals/nusmuk-audio;
#X declare -path ../pd-externals/puremapping -path ../av;
#X declare -path ../pd-externals/nusmuk-audio;
#X declare -path ../pd-externals/puremapping -path ../av;
#X declare -path ../pd-externals/nusmuk-audio;
#X declare -path ../bin;
#X declare -path ../puremapping;
#X declare -path ../puremapping;
#X declare -path ../puremapping;
#X declare -path ../puremapping;
#X declare -path ../puremapping;
#X declare -path ../puremapping;
#X declare -path ../puremapping;
#X declare -path ../puremapping;
#X declare -path ../puremapping;
#X declare -path ../pd-externals/puremapping -path ../av;
#X declare -path ../pd-externals/nusmuk-audio;
#X declare -path ../pd-externals/puremapping -path ../av;
#X declare -path ../pd-externals/nusmuk-audio;
#X declare -path ../pd-externals/puremapping -path ../av;
#X declare -path ../pd-externals/nusmuk-audio;
#X declare -path ../pd-externals/puremapping -path ../av;
#X declare -path ../pd-externals/nusmuk-audio;
#X declare -path ../pd-externals/puremapping -path ../av;
#X declare -path ../pd-externals/nusmuk-audio;
#X declare -path ../pd-externals/puremapping -path ../av;
#X declare -path ../pd-externals/nusmuk-audio;
#X declare -path ../pd-externals/puremapping -path ../av;
#X declare -path ../pd-externals/nusmuk-audio;
#X declare -path ../pd-externals/puremapping -path ../av;
#X declare -path ../pd-externals/nusmuk-audio;
#X declare -path ../pd-externals/puremapping -path ../av;
#X declare -path ../pd-externals/nusmuk-audio;
#X declare -path ../bin;
#X declare -path ../puremapping;
#X declare -path ../puremapping;
#X declare -path ../puremapping;
#X declare -path ../puremapping;
#X declare -path ../puremapping;
#X declare -path ../puremapping;
#X declare -path ../puremapping;
#X declare -path ../puremapping;
#X declare -path ../puremapping;
#X declare -path ../pd-externals/puremapping -path ../av;
#X declare -path ../pd-externals/nusmuk-audio;
#X declare -path ../pd-externals/puremapping -path ../av;
#X declare -path ../pd-externals/nusmuk-audio;
#X declare -path ../pd-externals/puremapping -path ../av;
#X declare -path ../pd-externals/nusmuk-audio;
#X declare -path ../pd-externals/puremapping -path ../av;
#X declare -path ../pd-externals/nusmuk-audio;
#X declare -path ../pd-externals/puremapping -path ../av;
#X declare -path ../pd-externals/nusmuk-audio;
#X declare -path ../pd-externals/puremapping -path ../av;
#X declare -path ../pd-externals/nusmuk-audio;
#X declare -path ../pd-externals/puremapping -path ../av;
#X declare -path ../pd-externals/nusmuk-audio;
#X declare -path ../pd-externals/puremapping -path ../av;
#X declare -path ../pd-externals/nusmuk-audio;
#X declare -path ../pd-externals/puremapping -path ../av;
#X declare -path ../pd-externals/nusmuk-audio;
#X declare -path ../bin;
#X declare -path ../puremapping;
#X declare -path ../puremapping;
#X declare -path ../puremapping;
#X declare -path ../puremapping;
#X declare -path ../puremapping;
#X declare -path ../puremapping;
#X declare -path ../puremapping;
#X declare -path ../puremapping;
#X declare -path ../puremapping;
#X declare -path ../pd-externals/puremapping -path ../av;
#X declare -path ../pd-externals/nusmuk-audio;
#X declare -path ../pd-externals/puremapping -path ../av;
#X declare -path ../pd-externals/nusmuk-audio;
#X declare -path ../pd-externals/puremapping -path ../av;
#X declare -path ../pd-externals/nusmuk-audio;
#X declare -path ../pd-externals/puremapping -path ../av;
#X declare -path ../pd-externals/nusmuk-audio;
#X declare -path ../pd-externals/puremapping -path ../av;
#X declare -path ../pd-externals/nusmuk-audio;
#X declare -path ../pd-externals/puremapping -path ../av;
#X declare -path ../pd-externals/nusmuk-audio;
#X declare -path ../pd-externals/puremapping -path ../av;
#X declare -path ../pd-externals/nusmuk-audio;
#X declare -path ../pd-externals/puremapping -path ../av;
#X declare -path ../pd-externals/nusmuk-audio;
#X declare -path ../pd-externals/puremapping -path ../av;
#X declare -path ../pd-externals/nusmuk-audio;
#X declare -path ../bin;
#X declare -path ../puremapping;
#X declare -path ../puremapping;
#X declare -path ../puremapping;
#X declare -path ../puremapping;
#X declare -path ../puremapping;
#X declare -path ../puremapping;
#X declare -path ../puremapping;
#X declare -path ../puremapping;
#X declare -path ../puremapping;
#X declare -path ../pd-externals/puremapping -path ../av;
#X declare -path ../pd-externals/nusmuk-audio;
#X declare -path ../pd-externals/puremapping -path ../av;
#X declare -path ../pd-externals/nusmuk-audio;
#X declare -path ../pd-externals/puremapping -path ../av;
#X declare -path ../pd-externals/nusmuk-audio;
#X declare -path ../pd-externals/puremapping -path ../av;
#X declare -path ../pd-externals/nusmuk-audio;
#X declare -path ../pd-externals/puremapping -path ../av;
#X declare -path ../pd-externals/nusmuk-audio;
#X declare -path ../pd-externals/puremapping -path ../av;
#X declare -path ../pd-externals/nusmuk-audio;
#X declare -path ../pd-externals/puremapping -path ../av;
#X declare -path ../pd-externals/nusmuk-audio;
#X declare -path ../pd-externals/puremapping -path ../av;
#X declare -path ../pd-externals/nusmuk-audio;
#X declare -path ../pd-externals/puremapping -path ../av;
#X declare -path ../pd-externals/nusmuk-audio;
#X declare -path ../bin;
#X floatatom 16 92 5 0 0 1 ms - -, f 5;
#N canvas 508 577 568 502 comports 0;
#X obj 285 64 r to-all-arduino;
#X obj 285 86 t a a a a a a;
#X obj 385 111 s to-arduino-ctl-5;
#X obj 365 131 s to-arduino-ctl-4;
#X obj 345 151 s to-arduino-ctl-3;
#X obj 325 171 s to-arduino-ctl-2;
#X obj 305 191 s to-arduino-ctl-1;
#X obj 286 212 s to-arduino-ctl-0;
#X obj 86 388 tgl 15 0 empty empty empty 17 7 0 10 -262144 -1 -1 0
1;
#X obj 52 427 print mon-\$1;
#X obj 52 407 spigot 1;
#X obj 51 292 t a b;
#X obj 61 318 f;
#X obj 61 340 + 1;
#X obj 61 362 < 100;
#X obj 78 267 s OSCdispatch;
#X obj 51 234 t a a;
#N canvas 1211 410 391 669 find_port 1;
#X obj 114 135 route ports;
#X obj 114 229 sym-change;
#X obj 57 114 comport -1;
#X obj 114 188 route 0 1 2 3 4 5 6, f 24;
#X obj 30 5 loadbang;
#X obj 30 25 tgl 15 0 empty empty empty 17 7 0 10 -262144 -1 -1 1 1
;
#X obj 134 249 sym-change;
#X obj 154 269 sym-change;
#X obj 174 289 sym-change;
#X obj 194 309 sym-change;
#X obj 214 329 sym-change;
#X obj 234 349 sym-change;
#X obj 154 627 outlet;
#X obj 114 393 t b;
#X msg 57 94 ports;
#X obj 73 457 spigot;
#X msg 114 415 1;
#X obj 30 64 t b b b, f 20;
#X msg 147 414 0;
#X obj 154 572 loadbang;
#X msg 154 592 retries 0;
#X obj 73 524 t b b;
#X msg 100 550 close;
#X msg 57 550 ports;
#X obj 42 583 comport -1;
#X obj 30 44 metro 1000;
#X obj 297 182 f;
#X obj 282 262 change;
#X obj 114 157 t a b, f 31;
#X obj 297 204 + 1;
#X msg 312 131 0;
#X obj 282 241 f;
#X obj 30 135 t b b;
#X obj 73 479 t b b;
#X obj 175 481 realtime;
#X obj 183 448 t b b;
#X obj 175 526 print [comport];
#X msg 175 504 new interface detected ! \$1 ms;
#X obj 73 502 delay 10000;
#X obj 42 192 symbol foo;
#X obj 42 174 bng 15 250 50 0 empty empty empty 17 7 0 10 -262144 -1
-1;
#X connect 0 0 28 0;
#X connect 1 0 13 0;
#X connect 2 1 0 0;
#X connect 3 0 1 0;
#X connect 3 1 6 0;
#X connect 3 2 7 0;
#X connect 3 3 8 0;
#X connect 3 4 9 0;
#X connect 3 5 10 0;
#X connect 3 6 11 0;
#X connect 4 0 5 0;
#X connect 5 0 25 0;
#X connect 6 0 13 0;
#X connect 7 0 13 0;
#X connect 8 0 13 0;
#X connect 9 0 13 0;
#X connect 10 0 13 0;
#X connect 11 0 13 0;
#X connect 13 0 16 0;
#X connect 14 0 2 0;
#X connect 15 0 33 0;
#X connect 16 0 15 1;
#X connect 17 0 32 0;
#X connect 17 1 14 0;
#X connect 17 2 18 0;
#X connect 17 2 30 0;
#X connect 18 0 15 1;
#X connect 19 0 20 0;
#X connect 20 0 12 0;
#X connect 21 0 23 0;
#X connect 21 1 22 0;
#X connect 22 0 12 0;
#X connect 23 0 24 0;
#X connect 24 1 12 0;
#X connect 25 0 17 0;
#X connect 26 0 29 0;
#X connect 27 0 13 0;
#X connect 28 0 3 0;
#X connect 28 1 26 0;
#X connect 29 0 26 1;
#X connect 29 0 31 1;
#X connect 30 0 26 1;
#X connect 31 0 27 0;
#X connect 32 0 15 0;
#X connect 32 1 31 0;
#X connect 33 0 38 0;
#X connect 33 1 35 0;
#X connect 34 0 37 0;
#X connect 35 0 34 0;
#X connect 35 1 34 1;
#X connect 37 0 36 0;
#X connect 38 0 21 0;
#X connect 39 0 1 0;
#X connect 39 0 6 0;
#X connect 39 0 7 0;
#X connect 39 0 8 0;
#X connect 39 0 9 0;
#X connect 39 0 10 0;
#X connect 39 0 11 0;
#X connect 40 0 39 0;
#X restore 248 14 pd find_port;
#X obj 51 61 connect_board 0;
#X obj 161 181 connect_board 6;
#X obj 71 81 connect_board 1;
#X obj 111 121 connect_board 3;
#X obj 91 101 connect_board 2;
#X obj 131 141 connect_board 4;
#X obj 151 161 connect_board 5;
#X connect 0 0 1 0;
#X connect 1 0 7 0;
#X connect 1 1 6 0;
#X connect 1 2 5 0;
#X connect 1 3 4 0;
#X connect 1 4 3 0;
#X connect 1 5 2 0;
#X connect 8 0 10 1;
#X connect 10 0 9 0;
#X connect 11 0 10 0;
#X connect 11 1 12 0;
#X connect 12 0 13 0;
#X connect 13 0 12 1;
#X connect 13 0 14 0;
#X connect 14 0 8 0;
#X connect 16 1 15 0;
#X connect 17 0 18 1;
#X connect 17 0 19 1;
#X connect 17 0 20 1;
#X connect 17 0 21 1;
#X connect 17 0 22 1;
#X connect 17 0 23 1;
#X connect 17 0 24 1;
#X connect 18 0 16 0;
#X connect 19 0 16 0;
#X connect 20 0 16 0;
#X connect 21 0 16 0;
#X connect 22 0 16 0;
#X connect 23 0 16 0;
#X connect 24 0 16 0;
#X restore 16 49 pd comports;
#X floatatom 16 132 5 0 0 1 ms - -, f 5;
#X floatatom 16 172 5 0 0 1 ms - -, f 5;
#X floatatom 16 212 5 0 0 1 ms - -, f 5;
#X floatatom 16 252 5 0 0 1 ms - -, f 5;
#X floatatom 16 292 5 0 0 1 ms - -, f 5;
#X obj 89 50 tgl 15 0 autoConnect empty auto_connect 17 7 0 10 -262144
-1 -1 0 1;
#X text 48 444 Das Körperrauschen - Antoine Villeret 2012 - 2014;
#X obj 214 209 board_controler /*;
#X obj 214 69 board_controler /b00;
#X obj 214 89 board_controler /b01;
#X obj 214 109 board_controler /b02;
#X obj 214 129 board_controler /b03;
#X obj 214 149 board_controler /b04;
#X obj 214 169 board_controler /b05;
#N canvas 357 424 450 433 init 0;
#X obj 88 124 declare -path pd-externals/puremapping;
#X obj 88 165 declare -path pd-externals/nusmuk-audio;
#X obj 88 84 declare -path pd-externals;
#X obj 88 145 declare -path pd-externals/iem_tab -lib iem_tab;
#X obj 88 185 declare -path pd-externals/abs_light;
#X obj 88 205 declare -path pd-externals/osc;
#X obj 88 246 declare -path pd-externals/share_mem;
#X obj 88 266 declare -path pd-externals/comport;
#X obj 88 64 declare -path abs;
#X obj 88 104 declare -path pd-externals/av;
#X obj 88 226 declare -path pd-externals/net;
#X restore 214 238 pd init;
#N canvas 399 169 450 520 cpu 0;
#X floatatom 148 306 0 0 0 1 % - -;
#X obj 148 168 cputime;
#X obj 148 28 loadbang;
#X msg 148 56 1;
#X floatatom 148 84 0 0 0 0 - - -;
#X obj 148 140 t b b;
#X obj 148 278 * 0.1;
#X text 193 84 <-- on/off;
#X obj 148 221 iir 15;
#X obj 148 243 int;
#X obj 148 112 metro 1000;
#X obj 151 360 outlet;
#X text 97 307 CPU load;
#X connect 1 0 8 0;
#X connect 2 0 3 0;
#X connect 3 0 4 0;
#X connect 4 0 10 0;
#X connect 5 0 1 0;
#X connect 5 1 1 1;
#X connect 6 0 0 0;
#X connect 6 0 11 0;
#X connect 8 0 9 0;
#X connect 9 0 6 0;
#X connect 10 0 5 0;
#X coords 0 -1 1 1 104 26 1 100 300;
#X restore 214 259 pd cpu;
#N canvas 1031 337 450 282 dmx 0;
#X obj 20 40 routeOSC /dmx;
#X obj 20 62 once;
#X obj 20 18 r OSCdmx;
#X obj 56 66 bng 15 250 50 0 empty empty empty 17 7 0 10 -262144 -1
-1;
#X obj 56 85 outlet;
#N canvas 615 681 777 279 hop_mapping 0;
#X obj 35 242 bus lumiere-R1;
#X obj 60 135 hsv2rgb;
#X obj 60 12 r sendOSC;
#X obj 60 34 routeOSC /hop/eros;
#X floatatom 60 56 5 0 0 0 - - -, f 5;
#X obj 60 157 unpack f f f;
#X msg 60 109 \$1 0.25 1;
#X obj 60 87 mapping2float 0.5 1;
#X obj 128 243 bus lumiere-G1;
#X obj 222 243 bus lumiere-B1;
#X obj 35 199 * 100;
#X obj 128 199 * 100;
#X obj 222 199 * 100;
#N canvas 1 96 902 300 color_preview 0;
#X obj 100 100 cnv 15 50 50 empty eros_cnv empty 20 12 0 14 -196288
-196288 0;
#X floatatom 477 140 3 0 255 0 - - -, f 3;
#X text 492 122 blue;
#N canvas 199 462 606 448 RGB_____________ 0;
#X obj 172 132 inlet;
#X obj 249 134 inlet;
#X obj 315 135 inlet;
#X obj 234 385 outlet;
#X text 177 107 red;
#X text 247 109 green;
#X text 319 109 blue;
#X obj 249 239 +;
#X obj 234 295 +;
#X obj 172 158 * -65536;
#X obj 249 159 * -256;
#X obj 315 159 * -1;
#X obj 234 326 - 1;
#X connect 0 0 9 0;
#X connect 1 0 10 0;
#X connect 2 0 11 0;
#X connect 7 0 8 1;
#X connect 8 0 12 0;
#X connect 9 0 8 0;
#X connect 10 0 7 0;
#X connect 11 0 7 1;
#X connect 12 0 3 0;
#X restore 366 172 pd RGB_____________;
#X floatatom 366 142 5 0 255 0 - - -, f 5;
#X floatatom 421 139 3 0 255 0 - - -, f 3;
#X text 401 123 red;
#X text 444 122 green;
#X msg 366 222 \; eros_cnv color \$1 \$1;
#X obj 365 27 unpack 0 0 0;
#X obj 365 55 * 255;
#X obj 405 56 * 255;
#X obj 445 56 * 255;
#X obj 365 1 inlet;
#X obj 365 77 i;
#X obj 405 76 i;
#X obj 445 77 i;
#X obj 366 194 change;
#X connect 1 0 3 2;
#X connect 3 0 17 0;
#X connect 4 0 3 0;
#X connect 5 0 3 1;
#X connect 9 0 10 0;
#X connect 9 1 11 0;
#X connect 9 2 12 0;
#X connect 10 0 14 0;
#X connect 11 0 15 0;
#X connect 12 0 16 0;
#X connect 13 0 9 0;
#X connect 14 0 4 0;
#X connect 15 0 5 0;
#X connect 16 0 1 0;
#X connect 17 0 8 0;
#X coords 0 -1 1 1 50 50 1 100 100;
#X restore 195 125 pd color_preview;
#X text 266 22 high order parameter mapping;
#X connect 1 0 5 0;
#X connect 1 0 13 0;
#X connect 2 0 3 0;
#X connect 3 0 4 0;
#X connect 4 0 7 0;
#X connect 5 0 10 0;
#X connect 5 1 11 0;
#X connect 5 2 12 0;
#X connect 6 0 1 0;
#X connect 7 0 6 0;
#X connect 10 0 0 0;
#X connect 11 0 8 0;
#X connect 12 0 9 0;
#X restore 19 155 pd hop_mapping;
#N canvas 225 215 577 756 patch_bay_and_DMX_out 0;
#N canvas 38 345 431 370 test_dmx 0;
#X floatatom 121 204 5 0 0 0 - - -, f 5;
#X obj 121 224 t f f b;
#X obj 89 74 bng 15 250 50 0 empty empty empty 17 7 0 10 -262144 -1
-1;
#X obj 174 75 key;
#X obj 174 100 spigot;
#X obj 213 77 tgl 15 0 empty empty empty 17 7 0 10 -262144 -1 -1 0
1;
#X obj 89 203 +;
#X msg 89 175 1;
#X msg 132 174 -1;
#X obj 174 123 select 122 97;
#X text 27 12 DMX channel tester;
#X obj 89 92 t b b;
#X obj 89 142 until;
#X msg 121 122 0;
#X text 42 72 panic;
#X msg 89 122 1024;
#X msg 121 247 100;
#X msg 167 248 0;
#X obj 121 283 dmx_out;
#X obj 303 184 s init_all_dmx;
#X obj 303 153 bng 15 250 50 0 empty empty empty 17 7 0 10 -262144
-1 -1;
#X text 319 153 reset all;
#X connect 0 0 1 0;
#X connect 0 0 6 1;
#X connect 1 0 16 0;
#X connect 1 1 18 1;
#X connect 1 2 17 0;
#X connect 2 0 11 0;
#X connect 3 0 4 0;
#X connect 4 0 9 0;
#X connect 5 0 4 1;
#X connect 6 0 0 0;
#X connect 7 0 6 0;
#X connect 8 0 6 0;
#X connect 9 0 7 0;
#X connect 9 1 8 0;
#X connect 11 0 15 0;
#X connect 11 1 13 0;
#X connect 12 0 7 0;
#X connect 13 0 0 0;
#X connect 15 0 12 0;
#X connect 16 0 18 0;
#X connect 17 0 18 0;
#X connect 20 0 19 0;
#X restore 11 22 pd test_dmx _______________________;
#X obj 12 5 tgl 15 1 empty empty empty 17 7 0 10 -262144 -1 -1 1 1
;
#X text 325 19 bus_master :;
#X text 345 32 arg1 : num circuit;
#X text 346 44 arg2 : num metro (0 = debut univer1;
#X text 437 55 1 = fin univers 1;
#X text 437 65 2 = debut univers 2;
#N canvas 846 103 810 584 metronomes 0;
#X obj 39 27 loadbang;
#X obj 134 24 tgl 15 0 empty empty empty 17 7 0 10 -262144 -1 -1 0
1;
#X obj 39 48 metro 20;
#X obj 251 9 notein;
#X obj 39 100 spigot 1;
#X obj 251 32 pack f f;
#X obj 251 72 route 60;
#X obj 251 92 route 0;
#X obj 251 133 == 0;
#X obj 441 18 loadbang;
#X obj 536 15 tgl 15 0 empty empty empty 17 7 0 10 -262144 -1 -1 0
1;
#X obj 441 39 metro 20;
#X obj 650 10 notein;
#X obj 441 91 spigot 1;
#X obj 650 33 pack f f;
#X obj 650 93 route 0;
#X obj 650 167 == 0;
#X obj 436 330 s metro_dmx_int2;
#X obj 650 73 route 61;
#X obj 45 401 loadbang;
#X obj 140 398 tgl 15 0 empty empty empty 17 7 0 10 -262144 -1 -1 0
1;
#X obj 45 422 metro 20;
#X obj 188 396 notein;
#X obj 45 474 spigot 1;
#X obj 188 419 pack f f;
#X obj 188 459 route 60;
#X obj 188 520 == 0;
#X obj 45 501 t b b b;
#X obj 446 369 loadbang;
#X obj 541 366 tgl 15 0 empty empty empty 17 7 0 10 -262144 -1 -1 0
1;
#X obj 446 390 metro 20;
#X obj 589 364 notein;
#X obj 446 442 spigot 1;
#X obj 589 387 pack f f;
#X obj 589 488 == 0;
#X obj 446 469 t b b b;
#X obj 589 427 route 61;
#X obj 45 548 s metro_dmx_int1;
#X obj 446 536 s metro_dmx_int3;
#X obj 39 319 s metro_dmx_int0;
#X obj 188 479 route 127;
#X obj 589 447 route 127;
#X floatatom 653 202 5 0 0 0 - - -, f 5;
#X obj 76 237 s metro_bus0;
#X obj 473 231 s metro_bus2;
#X obj 88 258 s metro_bus\$2;
#X obj 49 340 s metro_dmx_int\$2;
#X obj 61 278 s metro_get_bus0;
#X obj 71 298 s metro_get_bus\$2;
#X obj 115 143 s metro_effet0;
#X obj 127 166 s metro_effet\$2;
#X obj 39 122 t b b b b b;
#X obj 96 188 s metro_get_effet0;
#X obj 107 211 s metro_get_effet\$2;
#X obj 441 121 t b b b b b;
#X obj 505 149 s metro_effet2;
#X obj 488 178 s metro_get_effet2;
#X obj 456 279 s metro_get_bus2;
#X obj 251 113 stream_check;
#X obj 188 500 stream_check;
#X obj 589 468 stream_check;
#X obj 650 114 stream_check;
#X connect 0 0 2 0;
#X connect 1 0 2 0;
#X connect 2 0 4 0;
#X connect 3 0 5 0;
#X connect 3 1 5 1;
#X connect 4 0 51 0;
#X connect 5 0 6 0;
#X connect 6 0 7 0;
#X connect 7 0 51 0;
#X connect 7 0 58 0;
#X connect 8 0 4 1;
#X connect 9 0 11 0;
#X connect 10 0 11 0;
#X connect 11 0 13 0;
#X connect 12 0 14 0;
#X connect 12 1 14 1;
#X connect 13 0 54 0;
#X connect 14 0 18 0;
#X connect 15 0 54 0;
#X connect 15 0 61 0;
#X connect 16 0 13 1;
#X connect 16 0 42 0;
#X connect 18 0 15 0;
#X connect 19 0 21 0;
#X connect 20 0 21 0;
#X connect 21 0 23 0;
#X connect 22 0 24 0;
#X connect 22 1 24 1;
#X connect 23 0 27 0;
#X connect 24 0 25 0;
#X connect 25 0 40 0;
#X connect 26 0 23 1;
#X connect 27 0 37 0;
#X connect 28 0 30 0;
#X connect 29 0 30 0;
#X connect 30 0 32 0;
#X connect 31 0 33 0;
#X connect 31 1 33 1;
#X connect 32 0 35 0;
#X connect 33 0 36 0;
#X connect 34 0 32 1;
#X connect 35 0 38 0;
#X connect 36 0 41 0;
#X connect 40 0 27 0;
#X connect 40 0 59 0;
#X connect 41 0 35 0;
#X connect 41 0 60 0;
#X connect 51 0 39 0;
#X connect 51 0 46 0;
#X connect 51 1 47 0;
#X connect 51 1 48 0;
#X connect 51 2 43 0;
#X connect 51 2 45 0;
#X connect 51 3 52 0;
#X connect 51 3 53 0;
#X connect 51 4 49 0;
#X connect 51 4 50 0;
#X connect 54 0 17 0;
#X connect 54 1 57 0;
#X connect 54 2 44 0;
#X connect 54 3 56 0;
#X connect 54 4 55 0;
#X connect 58 0 8 0;
#X connect 59 0 26 0;
#X connect 60 0 34 0;
#X connect 61 0 16 0;
#X restore 11 40 pd metronomes _____________________;
#N canvas 795 404 1467 584 univers_2 0;
#X text 34 22 patch droit pour l'univers 2;
#X obj 21 61 bus_master2 1;
#X obj 151 61 bus_master2 25;
#X obj 801 240 bus_master2 154;
#X obj 541 61 bus_master2 97;
#X obj 151 181 bus_master2 31;
#X obj 281 61 bus_master2 49;
#X obj 21 221 bus_master2 9;
#X obj 21 80 bus_master2 2;
#X obj 21 101 bus_master2 3;
#X obj 21 120 bus_master2 4;
#X obj 21 141 bus_master2 5;
#X obj 21 160 bus_master2 6;
#X obj 21 181 bus_master2 7;
#X obj 21 200 bus_master2 8;
#X obj 21 240 bus_master2 10;
#X obj 21 261 bus_master2 11;
#X obj 21 280 bus_master2 12;
#X obj 21 301 bus_master2 13;
#X obj 21 320 bus_master2 14;
#X obj 21 341 bus_master2 15;
#X obj 21 360 bus_master2 16;
#X obj 21 381 bus_master2 17;
#X obj 21 400 bus_master2 18;
#X obj 21 421 bus_master2 19;
#X obj 21 440 bus_master2 20;
#X obj 21 461 bus_master2 21;
#X obj 21 480 bus_master2 22;
#X obj 21 501 bus_master2 23;
#X obj 21 520 bus_master2 24;
#X obj 151 80 bus_master2 26;
#X obj 151 101 bus_master2 27;
#X obj 151 120 bus_master2 28;
#X obj 151 141 bus_master2 29;
#X obj 151 160 bus_master2 30;
#X obj 151 200 bus_master2 32;
#X obj 151 221 bus_master2 33;
#X obj 151 240 bus_master2 34;
#X obj 151 261 bus_master2 35;
#X obj 151 280 bus_master2 36;
#X obj 151 301 bus_master2 37;
#X obj 151 320 bus_master2 38;
#X obj 151 341 bus_master2 39;
#X obj 151 360 bus_master2 40;
#X obj 151 381 bus_master2 41;
#X obj 151 400 bus_master2 42;
#X obj 151 421 bus_master2 43;
#X obj 151 440 bus_master2 44;
#X obj 151 461 bus_master2 45;
#X obj 151 480 bus_master2 46;
#X obj 151 501 bus_master2 47;
#X obj 151 520 bus_master2 48;
#X obj 281 80 bus_master2 50;
#X obj 281 101 bus_master2 51;
#X obj 281 120 bus_master2 52;
#X obj 281 141 bus_master2 53;
#X obj 281 160 bus_master2 54;
#X obj 281 181 bus_master2 55;
#X obj 281 200 bus_master2 56;
#X obj 281 221 bus_master2 57;
#X obj 281 240 bus_master2 58;
#X obj 281 261 bus_master2 59;
#X obj 281 280 bus_master2 60;
#X obj 281 301 bus_master2 61;
#X obj 281 320 bus_master2 62;
#X obj 281 341 bus_master2 63;
#X obj 281 360 bus_master2 64;
#X obj 281 381 bus_master2 65;
#X obj 281 400 bus_master2 66;
#X obj 281 421 bus_master2 67;
#X obj 281 440 bus_master2 68;
#X obj 281 461 bus_master2 69;
#X obj 281 480 bus_master2 70;
#X obj 281 501 bus_master2 71;
#X obj 281 520 bus_master2 72;
#X obj 411 61 bus_master2 73;
#X obj 411 80 bus_master2 74;
#X obj 411 101 bus_master2 75;
#X obj 411 120 bus_master2 76;
#X obj 411 141 bus_master2 77;
#X obj 411 160 bus_master2 78;
#X obj 411 181 bus_master2 79;
#X obj 411 200 bus_master2 80;
#X obj 411 221 bus_master2 81;
#X obj 411 240 bus_master2 82;
#X obj 411 261 bus_master2 83;
#X obj 411 280 bus_master2 84;
#X obj 411 301 bus_master2 85;
#X obj 411 320 bus_master2 86;
#X obj 411 341 bus_master2 87;
#X obj 411 360 bus_master2 88;
#X obj 411 381 bus_master2 89;
#X obj 411 400 bus_master2 90;
#X obj 411 421 bus_master2 91;
#X obj 411 440 bus_master2 92;
#X obj 411 461 bus_master2 93;
#X obj 411 480 bus_master2 94;
#X obj 411 501 bus_master2 95;
#X obj 411 520 bus_master2 96;
#X obj 541 80 bus_master2 98;
#X obj 541 101 bus_master2 99;
#X obj 540 120 bus_master2 100;
#X obj 541 141 bus_master2 101;
#X obj 541 160 bus_master2 102;
#X obj 541 181 bus_master2 103;
#X obj 541 200 bus_master2 104;
#X obj 541 221 bus_master2 105;
#X obj 541 240 bus_master2 106;
#X obj 541 261 bus_master2 107;
#X obj 540 280 bus_master2 108;
#X obj 541 301 bus_master2 109;
#X obj 541 320 bus_master2 110;
#X obj 541 341 bus_master2 111;
#X obj 541 360 bus_master2 112;
#X obj 541 381 bus_master2 113;
#X obj 541 400 bus_master2 114;
#X obj 541 421 bus_master2 115;
#X obj 541 440 bus_master2 116;
#X obj 541 461 bus_master2 117;
#X obj 541 480 bus_master2 118;
#X obj 541 501 bus_master2 119;
#X obj 541 520 bus_master2 120;
#X obj 671 61 bus_master2 121;
#X obj 671 80 bus_master2 122;
#X obj 671 101 bus_master2 123;
#X obj 671 120 bus_master2 124;
#X obj 671 141 bus_master2 125;
#X obj 671 160 bus_master2 126;
#X obj 671 181 bus_master2 127;
#X obj 671 200 bus_master2 128;
#X obj 671 221 bus_master2 129;
#X obj 671 240 bus_master2 130;
#X obj 671 261 bus_master2 131;
#X obj 671 280 bus_master2 132;
#X obj 671 301 bus_master2 133;
#X obj 671 320 bus_master2 134;
#X obj 671 341 bus_master2 135;
#X obj 671 360 bus_master2 136;
#X obj 671 381 bus_master2 137;
#X obj 671 400 bus_master2 138;
#X obj 671 421 bus_master2 139;
#X obj 671 440 bus_master2 140;
#X obj 671 461 bus_master2 141;
#X obj 669 480 bus_master2 142;
#X obj 671 501 bus_master2 143;
#X obj 671 520 bus_master2 144;
#X obj 801 61 bus_master2 145;
#X obj 801 80 bus_master2 146;
#X obj 801 101 bus_master2 147;
#X obj 801 120 bus_master2 148;
#X obj 801 141 bus_master2 149;
#X obj 801 160 bus_master2 150;
#X obj 801 181 bus_master2 151;
#X obj 801 200 bus_master2 152;
#X obj 801 221 bus_master2 153;
#X obj 801 261 bus_master2 155;
#X obj 801 280 bus_master2 156;
#X obj 801 301 bus_master2 157;
#X obj 801 320 bus_master2 158;
#X obj 801 341 bus_master2 159;
#X obj 801 360 bus_master2 160;
#X obj 800 381 bus_master2 161;
#X obj 801 400 bus_master2 162;
#X obj 801 421 bus_master2 163;
#X obj 801 440 bus_master2 164;
#X obj 801 461 bus_master2 165;
#X obj 801 480 bus_master2 166;
#X obj 801 501 bus_master2 167;
#X obj 801 520 bus_master2 168;
#X obj 931 61 bus_master2 169;
#X obj 931 80 bus_master2 170;
#X obj 931 101 bus_master2 171;
#X obj 931 120 bus_master2 172;
#X obj 931 141 bus_master2 173;
#X obj 931 160 bus_master2 174;
#X obj 931 181 bus_master2 175;
#X obj 931 200 bus_master2 176;
#X obj 931 221 bus_master2 177;
#X obj 931 240 bus_master2 178;
#X obj 931 261 bus_master2 179;
#X obj 931 280 bus_master2 180;
#X obj 931 301 bus_master2 181;
#X obj 931 320 bus_master2 182;
#X obj 931 341 bus_master2 183;
#X obj 931 360 bus_master2 184;
#X obj 931 381 bus_master2 185;
#X obj 931 400 bus_master2 186;
#X obj 931 421 bus_master2 187;
#X obj 931 440 bus_master2 188;
#X obj 931 461 bus_master2 189;
#X obj 931 480 bus_master2 190;
#X obj 931 501 bus_master2 191;
#X obj 931 520 bus_master2 192;
#X obj 1061 61 bus_master2 193;
#X obj 1061 80 bus_master2 194;
#X obj 1061 101 bus_master2 195;
#X obj 1061 120 bus_master2 196;
#X obj 1061 141 bus_master2 197;
#X obj 1061 160 bus_master2 198;
#X obj 1061 181 bus_master2 199;
#X obj 1061 200 bus_master2 200;
#X obj 1061 221 bus_master2 201;
#X obj 1060 240 bus_master2 202;
#X obj 1061 261 bus_master2 203;
#X obj 1061 280 bus_master2 204;
#X obj 1061 301 bus_master2 205;
#X obj 1061 320 bus_master2 206;
#X obj 1061 341 bus_master2 207;
#X obj 1061 360 bus_master2 208;
#X obj 1060 381 bus_master2 209;
#X obj 1061 400 bus_master2 210;
#X obj 1061 421 bus_master2 211;
#X obj 1061 440 bus_master2 212;
#X obj 1061 461 bus_master2 213;
#X obj 1061 480 bus_master2 214;
#X obj 1061 501 bus_master2 215;
#X obj 1061 520 bus_master2 216;
#X obj 1192 61 bus_master2 217;
#X obj 1191 80 bus_master2 218;
#X obj 1191 101 bus_master2 219;
#X obj 1191 120 bus_master2 220;
#X obj 1191 141 bus_master2 221;
#X obj 1191 160 bus_master2 222;
#X obj 1191 181 bus_master2 223;
#X obj 1191 200 bus_master2 224;
#X obj 1191 221 bus_master2 225;
#X obj 1191 240 bus_master2 226;
#X obj 1191 261 bus_master2 227;
#X obj 1191 280 bus_master2 228;
#X obj 1191 301 bus_master2 229;
#X obj 1191 320 bus_master2 230;
#X obj 1191 341 bus_master2 231;
#X obj 1191 360 bus_master2 232;
#X obj 1191 381 bus_master2 233;
#X obj 1191 400 bus_master2 234;
#X obj 1191 421 bus_master2 235;
#X obj 1189 441 bus_master2 236;
#X obj 1191 461 bus_master2 237;
#X obj 1191 480 bus_master2 238;
#X obj 1191 501 bus_master2 239;
#X obj 1191 520 bus_master2 240;
#X restore 11 58 pd univers_2 ______________________;
#X obj 36 5 s master_light _______________;
#X obj 16 88 cnv 15 550 650 empty empty empty 20 12 0 14 -261682 -66577
0;
#X obj 128 145 nbx 3 14 -1 512 0 1 empty empty empty 0 -8 0 10 -262144
-1 -1 1 256;
#X obj 113 212 nbx 3 14 -1 512 0 1 empty empty empty 0 -8 0 10 -262144
-1 -1 2 256;
#X obj 113 289 nbx 3 14 -1 512 0 1 empty empty empty 0 -8 0 10 -262144
-1 -1 3 256;
#X obj 113 367 nbx 3 14 -1 512 0 1 empty empty empty 0 -8 0 10 -262144
-1 -1 4 256;
#X obj 112 445 nbx 3 14 -1 512 0 1 empty empty empty 0 -8 0 10 -262144
-1 -1 5 256;
#X obj 112 523 nbx 3 14 -1 512 0 1 empty empty empty 0 -8 0 10 -262144
-1 -1 6 256;
#X obj 112 600 nbx 3 14 -1 512 0 1 empty empty empty 0 -8 0 10 -262144
-1 -1 7 256;
#X obj 112 694 nbx 3 14 -1 512 0 1 empty empty empty 0 -8 0 10 -262144
-1 -1 8 256;
#X obj 279 146 nbx 3 14 -1 512 0 1 empty empty empty 0 -8 0 10 -262144
-1 -1 15 256;
#X obj 278 213 nbx 3 14 -1 512 0 1 empty empty empty 0 -8 0 10 -262144
-1 -1 -1 256;
#X obj 277 292 nbx 3 14 -1 512 0 1 empty empty empty 0 -8 0 10 -262144
-1 -1 -1 256;
#X obj 280 369 nbx 3 14 -1 512 0 1 empty empty empty 0 -8 0 10 -262144
-1 -1 -1 256;
#X obj 278 447 nbx 3 14 -1 512 0 1 empty empty empty 0 -8 0 10 -262144
-1 -1 -1 256;
#X obj 278 527 nbx 3 14 -1 512 0 1 empty empty empty 0 -8 0 10 -262144
-1 -1 -1 256;
#X obj 279 602 nbx 3 14 -1 512 0 1 empty empty empty 0 -8 0 10 -262144
-1 -1 -1 256;
#X obj 279 691 nbx 3 14 -1 512 0 1 empty empty empty 0 -8 0 10 -262144
-1 -1 -1 256;
#X obj 446 143 nbx 3 14 -1 512 0 1 empty empty empty 0 -8 0 10 -262144
-1 -1 -1 256;
#X obj 445 213 nbx 3 14 -1 512 0 1 empty empty empty 0 -8 0 10 -262144
-1 -1 -1 256;
#X obj 449 291 nbx 3 14 -1 512 0 1 empty empty empty 0 -8 0 10 -262144
-1 -1 -1 256;
#X obj 448 367 nbx 3 14 -1 512 0 1 empty empty empty 0 -8 0 10 -262144
-1 -1 -1 256;
#X obj 445 445 nbx 3 14 -1 512 0 1 empty empty empty 0 -8 0 10 -262144
-1 -1 -1 256;
#X obj 446 522 nbx 3 14 -1 512 0 1 empty empty empty 0 -8 0 10 -262144
-1 -1 -1 256;
#X obj 446 601 nbx 3 14 -1 512 0 1 empty empty empty 0 -8 0 10 -262144
-1 -1 -1 256;
#X obj 444 689 nbx 3 14 -1 512 0 1 empty empty empty 0 -8 0 10 -262144
-1 -1 -1 256;
#N canvas 1 107 450 300 (subpatch) 0;
#X obj 28 32 inlet;
#X msg 28 56 R1;
#X obj 28 81 outlet;
#X connect 0 0 1 0;
#X connect 1 0 2 0;
#X restore 193 145 pd;
#N canvas 1 95 450 300 (subpatch) 0;
#X obj 28 32 inlet;
#X msg 28 56 G1;
#X obj 28 81 outlet;
#X connect 0 0 1 0;
#X connect 1 0 2 0;
#X restore 193 212 pd;
#N canvas 1 83 450 300 (subpatch) 0;
#X obj 28 32 inlet;
#X msg 28 56 B1;
#X obj 28 81 outlet;
#X connect 0 0 1 0;
#X connect 1 0 2 0;
#X restore 193 292 pd;
#N canvas 1 89 450 300 (subpatch) 0;
#X obj 28 32 inlet;
#X msg 28 56 R2;
#X obj 28 81 outlet;
#X connect 0 0 1 0;
#X connect 1 0 2 0;
#X restore 193 368 pd;
#N canvas 1 83 450 300 (subpatch) 0;
#X obj 28 32 inlet;
#X msg 28 56 G2;
#X obj 28 81 outlet;
#X connect 0 0 1 0;
#X connect 1 0 2 0;
#X restore 193 444 pd;
#N canvas 1 83 450 300 (subpatch) 0;
#X obj 28 32 inlet;
#X msg 28 56 B2;
#X obj 28 81 outlet;
#X connect 0 0 1 0;
#X connect 1 0 2 0;
#X restore 193 522 pd;
#N canvas 1 83 450 300 (subpatch) 0;
#X obj 28 32 inlet;
#X msg 28 56 blind1;
#X obj 28 81 outlet;
#X connect 0 0 1 0;
#X connect 1 0 2 0;
#X restore 193 601 pd;
#N canvas 1 83 450 300 (subpatch) 0;
#X obj 28 32 inlet;
#X msg 28 56 blind2;
#X obj 28 81 outlet;
#X connect 0 0 1 0;
#X connect 1 0 2 0;
#X restore 193 694 pd;
#N canvas 50 106 450 300 (subpatch) 0;
#X obj 28 32 inlet;
#X msg 28 56 _;
#X obj 28 81 outlet;
#X connect 0 0 1 0;
#X connect 1 0 2 0;
#X restore 357 147 pd;
#N canvas 1 95 450 300 (subpatch) 0;
#X obj 28 32 inlet;
#X msg 28 56 _;
#X obj 28 81 outlet;
#X connect 0 0 1 0;
#X connect 1 0 2 0;
#X restore 357 214 pd;
#N canvas 1 83 450 300 (subpatch) 0;
#X obj 28 32 inlet;
#X msg 28 56 _;
#X obj 28 81 outlet;
#X connect 0 0 1 0;
#X connect 1 0 2 0;
#X restore 357 294 pd;
#N canvas 1 89 450 300 (subpatch) 0;
#X obj 28 32 inlet;
#X msg 28 56 _;
#X obj 28 81 outlet;
#X connect 0 0 1 0;
#X connect 1 0 2 0;
#X restore 357 370 pd;
#N canvas 1 83 450 300 (subpatch) 0;
#X obj 28 32 inlet;
#X msg 28 56 _;
#X obj 28 81 outlet;
#X connect 0 0 1 0;
#X connect 1 0 2 0;
#X restore 357 446 pd;
#N canvas 1 83 450 300 (subpatch) 0;
#X obj 28 32 inlet;
#X msg 28 56 _;
#X obj 28 81 outlet;
#X connect 0 0 1 0;
#X connect 1 0 2 0;
#X restore 357 524 pd;
#N canvas 1 83 450 300 (subpatch) 0;
#X obj 28 32 inlet;
#X msg 28 56 _;
#X obj 28 81 outlet;
#X connect 0 0 1 0;
#X connect 1 0 2 0;
#X restore 357 603 pd;
#N canvas 1 83 450 300 (subpatch) 0;
#X obj 28 32 inlet;
#X msg 28 56 _;
#X obj 28 81 outlet;
#X connect 0 0 1 0;
#X connect 1 0 2 0;
#X restore 357 696 pd;
#N canvas 1 95 450 300 (subpatch) 0;
#X obj 28 32 inlet;
#X msg 28 56 _;
#X obj 28 81 outlet;
#X connect 0 0 1 0;
#X connect 1 0 2 0;
#X restore 523 145 pd;
#N canvas 1 95 450 300 (subpatch) 0;
#X obj 28 32 inlet;
#X msg 28 56 _;
#X obj 28 81 outlet;
#X connect 0 0 1 0;
#X connect 1 0 2 0;
#X restore 523 212 pd;
#N canvas 1 83 450 300 (subpatch) 0;
#X obj 28 32 inlet;
#X msg 28 56 _;
#X obj 28 81 outlet;
#X connect 0 0 1 0;
#X connect 1 0 2 0;
#X restore 523 292 pd;
#N canvas 1 89 450 300 (subpatch) 0;
#X obj 28 32 inlet;
#X msg 28 56 _;
#X obj 28 81 outlet;
#X connect 0 0 1 0;
#X connect 1 0 2 0;
#X restore 523 368 pd;
#N canvas 1 83 450 300 (subpatch) 0;
#X obj 28 32 inlet;
#X msg 28 56 _;
#X obj 28 81 outlet;
#X connect 0 0 1 0;
#X connect 1 0 2 0;
#X restore 522 450 pd;
#N canvas 1 83 450 300 (subpatch) 0;
#X obj 28 32 inlet;
#X msg 28 56 _;
#X obj 28 81 outlet;
#X connect 0 0 1 0;
#X connect 1 0 2 0;
#X restore 523 522 pd;
#N canvas 1 83 450 300 (subpatch) 0;
#X obj 28 32 inlet;
#X msg 28 56 _;
#X obj 28 81 outlet;
#X connect 0 0 1 0;
#X connect 1 0 2 0;
#X restore 523 601 pd;
#N canvas 1 83 450 300 (subpatch) 0;
#X obj 28 32 inlet;
#X msg 28 56 _;
#X obj 28 81 outlet;
#X connect 0 0 1 0;
#X connect 1 0 2 0;
#X restore 523 694 pd;
#X obj 50 110 bus_master R1 0;
#X obj 50 444 dmx_out;
#X obj 216 145 dmx_out;
#X obj 50 211 dmx_out;
#X obj 50 289 dmx_out;
#X obj 50 367 dmx_out;
#X obj 50 522 dmx_out;
#X obj 50 600 dmx_out;
#X obj 50 693 dmx_out;
#X obj 215 213 dmx_out;
#X obj 215 292 dmx_out;
#X obj 215 369 dmx_out;
#X obj 215 446 dmx_out;
#X obj 215 527 dmx_out;
#X obj 216 602 dmx_out;
#X obj 215 691 dmx_out;
#X obj 379 143 dmx_out;
#X obj 379 689 dmx_out;
#X obj 379 212 dmx_out;
#X obj 379 289 dmx_out;
#X obj 379 367 dmx_out;
#X obj 379 445 dmx_out;
#X obj 379 523 dmx_out;
#X obj 379 601 dmx_out;
#X obj 216 110 bus_master 9 0;
#X obj 50 334 bus_master 4 0;
#X obj 379 110 bus_master 17 0;
#X obj 379 178 bus_master 18 0;
#X obj 50 411 bus_master 5 0;
#X obj 50 489 bus_master 6 0;
#X obj 50 567 bus_master 7 0;
#X obj 50 659 bus_master 8 0;
#X obj 215 179 bus_master 10 0;
#X obj 215 257 bus_master 11 0;
#X obj 215 335 bus_master 12 0;
#X obj 215 411 bus_master 13 0;
#X obj 215 491 bus_master 14 0;
#X obj 216 568 bus_master 15 0;
#X obj 215 657 bus_master 16 0;
#X obj 379 255 bus_master 19 0;
#X obj 379 333 bus_master 20 0;
#X obj 378 415 bus_master 21 0;
#X obj 379 488 bus_master 22 0;
#X obj 379 567 bus_master 23 0;
#X obj 379 655 bus_master 24 0;
#X obj 50 178 bus_master G1 0;
#X obj 50 256 bus_master B1 0;
#X obj 49 143 dmx_out 0.5;
#X connect 1 0 9 0;
#X connect 11 0 106 1;
#X connect 12 0 62 1;
#X connect 13 0 63 1;
#X connect 14 0 64 1;
#X connect 15 0 60 1;
#X connect 16 0 65 1;
#X connect 17 0 66 1;
#X connect 18 0 67 1;
#X connect 19 0 61 1;
#X connect 20 0 68 1;
#X connect 21 0 69 1;
#X connect 22 0 70 1;
#X connect 23 0 71 1;
#X connect 24 0 72 1;
#X connect 25 0 73 1;
#X connect 26 0 74 1;
#X connect 27 0 75 1;
#X connect 28 0 77 1;
#X connect 29 0 78 1;
#X connect 30 0 79 1;
#X connect 31 0 80 1;
#X connect 32 0 81 1;
#X connect 33 0 82 1;
#X connect 34 0 76 1;
#X connect 35 0 59 1;
#X connect 36 0 104 1;
#X connect 37 0 105 1;
#X connect 38 0 84 1;
#X connect 39 0 87 1;
#X connect 40 0 88 1;
#X connect 41 0 89 1;
#X connect 42 0 90 1;
#X connect 43 0 83 1;
#X connect 44 0 91 1;
#X connect 45 0 92 1;
#X connect 46 0 93 1;
#X connect 47 0 94 1;
#X connect 48 0 95 1;
#X connect 49 0 96 1;
#X connect 50 0 97 1;
#X connect 51 0 85 1;
#X connect 52 0 86 1;
#X connect 53 0 98 1;
#X connect 54 0 99 1;
#X connect 55 0 100 1;
#X connect 56 0 101 1;
#X connect 57 0 102 1;
#X connect 58 0 103 1;
#X connect 59 0 106 0;
#X connect 59 1 35 0;
#X connect 83 0 61 0;
#X connect 83 1 43 0;
#X connect 84 0 64 0;
#X connect 84 1 38 0;
#X connect 85 0 75 0;
#X connect 85 1 51 0;
#X connect 86 0 77 0;
#X connect 86 1 52 0;
#X connect 87 0 60 0;
#X connect 87 1 39 0;
#X connect 88 0 65 0;
#X connect 88 1 40 0;
#X connect 89 0 66 0;
#X connect 89 1 41 0;
#X connect 90 0 67 0;
#X connect 90 1 42 0;
#X connect 91 0 68 0;
#X connect 91 1 44 0;
#X connect 92 0 69 0;
#X connect 92 1 45 0;
#X connect 93 0 70 0;
#X connect 93 1 46 0;
#X connect 94 0 71 0;
#X connect 94 1 47 0;
#X connect 95 0 72 0;
#X connect 95 1 48 0;
#X connect 96 0 73 0;
#X connect 96 1 49 0;
#X connect 97 0 74 0;
#X connect 97 1 50 0;
#X connect 98 0 78 0;
#X connect 98 1 53 0;
#X connect 99 0 79 0;
#X connect 99 1 54 0;
#X connect 100 0 80 0;
#X connect 100 1 55 0;
#X connect 101 0 81 0;
#X connect 101 1 56 0;
#X connect 102 0 82 0;
#X connect 102 1 57 0;
#X connect 103 0 76 0;
#X connect 103 1 58 0;
#X connect 104 0 62 0;
#X connect 104 1 36 0;
#X connect 105 0 63 0;
#X connect 105 1 37 0;
#X restore 19 136 pd patch_bay_and_DMX_out ___________;
#N canvas 50 96 566 252 test 0;
#X obj 17 181 s to-arduino-dmx;
#X msg 17 102 0 \$1;
#X floatatom 17 76 5 0 255 0 - - -, f 5;
#X floatatom 57 76 5 0 255 0 - - -, f 5;
#X floatatom 97 76 5 0 255 0 - - -, f 5;
#X msg 57 102 1 \$1;
#X msg 97 102 2 \$1;
#X obj 148 182 s to-arduino-dmx;
#X floatatom 148 77 5 0 255 0 - - -, f 5;
#X floatatom 188 77 5 0 255 0 - - -, f 5;
#X floatatom 228 77 5 0 255 0 - - -, f 5;
#X obj 274 182 s to-arduino-dmx;
#X floatatom 274 77 5 0 255 0 - - -, f 5;
#X floatatom 314 77 5 0 255 0 - - -, f 5;
#X floatatom 354 77 5 0 255 0 - - -, f 5;
#X obj 401 182 s to-arduino-dmx;
#X floatatom 401 77 5 0 255 0 - - -, f 5;
#X floatatom 441 77 5 0 255 0 - - -, f 5;
#X floatatom 481 77 5 0 255 0 - - -, f 5;
#X msg 148 103 3 \$1;
#X msg 188 103 4 \$1;
#X msg 228 103 5 \$1;
#X msg 274 103 6 \$1;
#X msg 314 103 7 \$1;
#X msg 354 103 8 \$1;
#X msg 401 103 9 \$1;
#X msg 441 103 10 \$1;
#X msg 481 103 11 \$1;
#X connect 1 0 0 0;
#X connect 2 0 1 0;
#X connect 3 0 5 0;
#X connect 4 0 6 0;
#X connect 5 0 0 0;
#X connect 6 0 0 0;
#X connect 8 0 19 0;
#X connect 9 0 20 0;
#X connect 10 0 21 0;
#X connect 12 0 22 0;
#X connect 13 0 23 0;
#X connect 14 0 24 0;
#X connect 16 0 25 0;
#X connect 17 0 26 0;
#X connect 18 0 27 0;
#X connect 19 0 7 0;
#X connect 20 0 7 0;
#X connect 21 0 7 0;
#X connect 22 0 11 0;
#X connect 23 0 11 0;
#X connect 24 0 11 0;
#X connect 25 0 15 0;
#X connect 26 0 15 0;
#X connect 27 0 15 0;
#X restore 19 116 pd test;
#X obj 316 80 vsl 15 128 0 1 0 1 mul empty empty 0 -9 0 10 -262144
-1 -1 12700 1;
#X text 290 60 grand master;
#X connect 0 0 1 0;
#X connect 0 0 3 0;
#X connect 2 0 0 0;
#X connect 3 0 4 0;
#X restore 214 308 pd dmx;
#X obj 16 69 board_receiver /b00;
#X obj 214 328 bng 15 250 50 0 empty empty empty 17 7 0 10 -262144
-1 -1;
#N canvas 1 144 450 300 master_clock 0;
#X obj 157 105 metro 10;
#X obj 157 127 s master_clock;
#X obj 157 42 loadbang;
#X msg 157 64 1;
#X obj 157 85 tgl 15 0 empty empty empty 17 7 0 10 -262144 -1 -1 1
1;
#X connect 0 0 1 0;
#X connect 2 0 3 0;
#X connect 3 0 4 0;
#X connect 4 0 0 0;
#X restore 214 49 pd master_clock;
#N canvas 403 368 425 338 hop-processing 1;
#N canvas 864 159 483 911 eros 0;
#X obj 73 -2 r sendOSC;
#X msg 73 64 \$7;
#X obj 73 42 t a;
#X obj 103 121 vsl 15 128 0 1 0 0 empty empty empty 0 -9 0 10 -262144
-1 -1 0 1;
#X obj 73 20 route /b00/cs /b01/cs;
#X msg 134 84 \$7;
#X msg 164 84 \$8;
#X msg 194 84 \$9;
#X obj 134 121 vsl 15 128 0 1 0 0 empty empty empty 0 -9 0 10 -262144
-1 -1 0 1;
#X obj 164 121 vsl 15 128 0 1 0 0 empty empty empty 0 -9 0 10 -262144
-1 -1 0 1;
#X obj 194 121 vsl 15 128 0 1 0 0 empty empty empty 0 -9 0 10 -262144
-1 -1 0 1;
#X obj 206 448 hysteresis;
#X obj 205 423 moses 0.01;
#X obj 318 396 f;
#X obj 134 42 t a a a;
#X obj 30 354 gemreceive master_clock 100;
#X obj 135 442 f;
#X obj 135 421 +;
#X obj 120 469 f;
#X obj 135 334 t f;
#X obj 207 380 correlation 20;
#X floatatom 207 402 5 0 0 0 - - -, f 5;
#X floatatom 159 492 5 0 0 0 - - -, f 5;
#X msg 47 394 0;
#X obj 207 497 speedlimiter;
#X obj 120 491 t f b;
#X obj 147 514 f;
#X obj 147 536 + 1;
#X obj 147 558 % 1000;
#X obj 30 374 t b b b;
#X obj 206 473 mean_n;
#X floatatom 106 702 5 0 0 0 - - -, f 5;
#X obj 47 733 timeroll;
#N canvas 1 96 450 300 filter 0;
#X obj 124 147 iir 15;
#X obj 157 167 abs;
#X obj 157 188 outlet;
#X obj 124 126 inlet;
#X obj 171 126 inlet;
#X connect 0 1 1 0;
#X connect 1 0 2 0;
#X connect 3 0 0 0;
#X connect 4 0 0 1;
#X restore 73 275 pd filter;
#N canvas 1 96 450 300 filter 0;
#X obj 124 147 iir 15;
#X obj 157 167 abs;
#X obj 157 188 outlet;
#X obj 124 126 inlet;
#X obj 171 126 inlet;
#X connect 0 1 1 0;
#X connect 1 0 2 0;
#X connect 3 0 0 0;
#X connect 4 0 0 1;
#X restore 133 275 pd filter;
#N canvas 1 96 450 300 filter 0;
#X obj 124 147 iir 15;
#X obj 157 167 abs;
#X obj 157 188 outlet;
#X obj 124 126 inlet;
#X obj 171 126 inlet;
#X connect 0 1 1 0;
#X connect 1 0 2 0;
#X connect 3 0 0 0;
#X connect 4 0 0 1;
#X restore 163 295 pd filter;
#N canvas 1 112 450 300 filter 0;
#X obj 124 147 iir 15;
#X obj 157 167 abs;
#X obj 157 188 outlet;
#X obj 124 126 inlet;
#X obj 171 126 inlet;
#X connect 0 1 1 0;
#X connect 1 0 2 0;
#X connect 3 0 0 0;
#X connect 4 0 0 1;
#X restore 193 315 pd filter;
#X obj 106 680 / 1000;
#X obj 244 246 nbx 5 14 -1e+37 1e+37 0 1 empty empty empty 0 -8 0 10
-262144 -1 -1 60 256;
#X obj 287 769 s sendOSC;
#X msg 287 748 /hop/eros \$1;
#X obj 223 42 table eros 1000;
#X obj 105 618 tabwrite eros;
#X obj 30 659 tab_sum eros;
#X text 237 615 computes erotic excitement;
#N canvas 377 470 450 300 README 0;
#X text 28 29 Il y a une zone érotique \, lorsqu'on la caresse \,
l'excitation augmente. Si on a un geste brusque (coup) \, l'excitation
retombe brutalement.;
#X restore 278 660 pd README;
#X obj 344 472 r reset_eros;
#X connect 0 0 4 0;
#X connect 1 0 3 0;
#X connect 2 0 1 0;
#X connect 3 0 33 0;
#X connect 4 0 2 0;
#X connect 4 1 14 0;
#X connect 5 0 8 0;
#X connect 6 0 9 0;
#X connect 7 0 10 0;
#X connect 8 0 34 0;
#X connect 9 0 35 0;
#X connect 10 0 36 0;
#X connect 14 0 5 0;
#X connect 14 1 6 0;
#X connect 14 2 7 0;
#X connect 15 0 29 0;
#X connect 16 0 17 1;
#X connect 16 0 18 1;
#X connect 17 0 16 0;
#X connect 18 0 22 0;
#X connect 18 0 25 0;
#X connect 19 0 17 0;
#X connect 20 0 21 0;
#X connect 23 0 17 1;
#X connect 25 0 42 0;
#X connect 25 1 26 0;
#X connect 26 0 27 0;
#X connect 27 0 28 0;
#X connect 28 0 26 1;
#X connect 28 0 42 1;
#X connect 29 0 43 0;
#X connect 29 1 23 0;
#X connect 29 2 18 0;
#X connect 31 0 32 0;
#X connect 33 0 19 0;
#X connect 34 0 19 0;
#X connect 35 0 19 0;
#X connect 36 0 19 0;
#X connect 37 0 31 0;
#X connect 37 0 40 0;
#X connect 38 0 36 1;
#X connect 38 0 35 1;
#X connect 38 0 34 1;
#X connect 38 0 33 1;
#X connect 40 0 39 0;
#X connect 43 1 37 0;
#X restore 40 45 pd eros;
#N canvas 470 226 1285 853 beat 1;
#X obj 60 35 gemreceive master_clock 20;
#X text 236 303 1.arg: <symbol> source-name;
#X floatatom 130 369 5 0 0 0 - - -, f 5;
#X floatatom 179 370 5 0 0 0 - - -, f 5;
#X msg 124 75 src src;
#X msg 154 99 amp_sort;
#X msg 156 121 freq_sort;
#X floatatom 234 368 5 0 0 0 - - -, f 5;
#X obj 299 366 pack 0 0 0;
#X text 105 382 sort_index;
#X text 240 379 amp;
#X text 183 384 index;
#X msg 207 146 max_peaks 9;
#X msg 325 213 width_range 1 1;
#X obj 347 66 loadbang;
#X text 254 58 of an array;
#X text 254 293 initial arguments:;
#X text 226 108 kind of order;
#X text 293 145 maximum number of peaks detected;
#X text 431 168 vertical difference between peak;
#X text 433 177 and noise;
#X text 449 202 width range of peak in bins;
#X obj 96 299 tab_find_peaks FSR;
#X obj 60 138 t b b;
#X text 821 294 1.arg: <symbol> source-name;
#X floatatom 715 360 5 0 0 0 - - -, f 5;
#X floatatom 764 361 5 0 0 0 - - -, f 5;
#X msg 709 66 src src;
#X msg 739 90 amp_sort;
#X msg 741 112 freq_sort;
#X floatatom 819 359 5 0 0 0 - - -, f 5;
#X obj 884 357 pack 0 0 0;
#X text 690 373 sort_index;
#X text 825 370 amp;
#X text 768 375 index;
#X msg 792 137 max_peaks 9;
#X msg 910 204 width_range 1 1;
#X obj 932 57 loadbang;
#X text 839 49 of an array;
#X text 839 284 initial arguments:;
#X text 811 99 kind of order;
#X text 878 136 maximum number of peaks detected;
#X text 1016 159 vertical difference between peak;
#X text 1018 168 and noise;
#X text 1034 193 width range of peak in bins;
#X obj 681 290 tab_find_peaks CS;
#X msg 910 182 width_range 1 1;
#X msg 325 191 width_range 1 1;
#X msg 854 161 abs_min_height_diff 0.2;
#X msg 269 170 abs_min_height_diff 0.2;
#X obj 884 380 print CS-peaks;
#X obj 299 389 print FSR-peaks;
#X obj 96 493 tab_min_max FSR;
#X floatatom 183 541 5 0 0 0 - - -, f 5;
#X floatatom 768 533 5 0 0 0 - - -, f 5;
#X obj 681 485 tab_min_max CS;
#X obj 325 608 table FSR-mul 54;
#X obj 325 628 table FSR-diff 54;
#X msg 96 630 -1;
#X obj 96 651 tab_mul_scalar FSR FSR-mul;
#X obj 96 600 tab_add FSR FSR-mul FSR-diff;
#X obj 96 673 tab_min_max FSR-diff;
#X obj 154 705 abs;
#X obj 213 705 abs;
#X obj 184 731 max;
#X obj 184 772 moses 0.3;
#X obj 235 808 print beat;
#X obj 360 814 s reset_eros;
#X obj 360 793 t b;
#X obj 297 750 speedlimit 200;
#X floatatom 297 772 5 0 0 0 - - -, f 5;
#X connect 0 0 23 0;
#X connect 4 0 22 0;
#X connect 5 0 22 0;
#X connect 6 0 22 0;
#X connect 8 0 51 0;
#X connect 12 0 22 0;
#X connect 13 0 22 0;
#X connect 14 0 5 0;
#X connect 14 0 12 0;
#X connect 14 0 49 0;
#X connect 14 0 47 0;
#X connect 22 0 52 0;
#X connect 22 1 2 0;
#X connect 22 1 8 0;
#X connect 22 2 3 0;
#X connect 22 2 8 1;
#X connect 22 3 7 0;
#X connect 22 3 8 2;
#X connect 23 0 52 0;
#X connect 27 0 45 0;
#X connect 28 0 45 0;
#X connect 29 0 45 0;
#X connect 31 0 50 0;
#X connect 35 0 45 0;
#X connect 36 0 45 0;
#X connect 37 0 28 0;
#X connect 37 0 35 0;
#X connect 37 0 48 0;
#X connect 37 0 46 0;
#X connect 45 0 55 0;
#X connect 45 1 25 0;
#X connect 45 1 31 0;
#X connect 45 2 26 0;
#X connect 45 2 31 1;
#X connect 45 3 30 0;
#X connect 45 3 31 2;
#X connect 46 0 45 0;
#X connect 47 0 22 0;
#X connect 48 0 45 0;
#X connect 49 0 22 0;
#X connect 52 0 60 0;
#X connect 52 2 53 0;
#X connect 55 2 54 0;
#X connect 58 0 59 0;
#X connect 59 0 61 0;
#X connect 60 0 58 0;
#X connect 61 1 62 0;
#X connect 61 2 63 0;
#X connect 62 0 64 0;
#X connect 63 0 64 1;
#X connect 64 0 65 0;
#X connect 64 0 69 0;
#X connect 65 1 68 0;
#X connect 68 0 67 0;
#X connect 69 0 70 0;
#X restore 40 66 pd beat;
#X restore 214 288 pd hop-processing;
#N canvas 1 208 450 300 tables 0;
#X obj 96 77 table CS 54;
#X obj 96 97 table FSR 54;
#X obj 203 254 shmem 1234 54;
#X obj 304 254 shmem 4321 54;
#X obj 203 104 gemreceive master_clock 1000;
#X obj 203 176 t b b;
#X msg 304 234 memset FSR;
#X msg 203 234 memset CS;
#X connect 4 0 5 0;
#X connect 5 0 7 0;
#X connect 5 1 6 0;
#X connect 6 0 3 0;
#X connect 7 0 2 0;
#X restore 214 29 pd tables;
#X msg 176 410 \; board_ontop bang;
#N canvas 399 502 932 443 OSCout 0;
#X obj 155 26 r sendOSC;
#X obj 155 132 packOSC;
#X obj 155 192 spigot;
#X obj 155 339 tgl 15 0 empty empty empty 17 7 0 10 -262144 -1 -1 0
1;
#X obj 178 339 sel 0;
#X obj 178 361 del 1000;
#X msg 200 196 disconnect;
#X obj 535 192 spigot;
#X obj 535 339 tgl 15 0 empty empty empty 17 7 0 10 -262144 -1 -1 1
1;
#X obj 586 246 loadbang;
#X obj 558 339 sel 0;
#X obj 558 361 del 1000;
#X msg 580 196 disconnect;
#X obj 155 70 spigot 1;
#X obj 235 27 inlet;
#X obj 235 49 == 0;
#X msg 189 274 connect 239.200.200.200 9997 \, multicast_interface
eht0;
#X msg 607 286 multicast_interface lo;
#X msg 585 266 connect 239.200.200.200 9997;
#X obj 155 315 udpsend;
#X obj 535 315 udpsend;
#X connect 0 0 13 0;
#X connect 1 0 7 0;
#X connect 2 0 19 0;
#X connect 4 0 5 0;
#X connect 5 0 16 0;
#X connect 6 0 19 0;
#X connect 7 0 20 0;
#X connect 9 0 18 0;
#X connect 10 0 11 0;
#X connect 11 0 18 0;
#X connect 12 0 20 0;
#X connect 13 0 1 0;
#X connect 14 0 15 0;
#X connect 15 0 13 1;
#X connect 16 0 19 0;
#X connect 17 0 20 0;
#X connect 18 0 20 0;
#X connect 19 0 3 0;
#X connect 19 0 2 1;
#X connect 19 0 4 0;
#X connect 20 0 8 0;
#X connect 20 0 7 1;
#X connect 20 0 10 0;
#X restore 219 375 pd OSCout;
#X obj 202 376 tgl 15 0 empty mute_osc empty 17 7 0 10 -262144 -1 -1
0 1;
#X text 123 375 Mute OSC out;
#X obj 16 109 board_receiver /b01;
#X obj 16 229 board_receiver /b04;
#X obj 16 269 board_receiver /b05;
#X obj 16 149 board_receiver /b02;
#X obj 16 189 board_receiver /b03;
#X connect 18 0 20 0;
#X connect 19 0 0 0;
#X connect 26 0 25 0;
#X connect 28 0 2 0;
#X connect 29 0 5 0;
#X connect 30 0 6 0;
#X connect 31 0 3 0;
#X connect 32 0 4 0;
