#N canvas 906 686 434 174 10;
#X declare -path ../av;
#X declare -path ../av;
#X declare -path ../av;
#X declare -path ../av;
#X declare -path ../av;
#X declare -path ../av;
#X declare -path ../av;
#X declare -path ../av;
#X declare -path ../av;
#X declare -path ../av;
#X declare -path ../av;
#X declare -path ../av;
#X declare -path ../av;
#X declare -path ../av;
#X declare -path ../av;
#X declare -path ../av;
#X declare -path ../av;
#X declare -path ../av;
#X declare -path ../av;
#X declare -path ../av;
#X declare -path ../av;
#X declare -path ../av;
#X declare -path ../av;
#X declare -path ../av;
#X declare -path ../av;
#X declare -path ../av;
#X declare -path ../av;
#X declare -path ../av;
#X declare -path ../av;
#X declare -path ../av;
#X declare -path ../av;
#X declare -path ../av;
#X declare -path ../av;
#X declare -path ../av;
#X declare -path ../av;
#X declare -path ../av;
#X declare -path ../av;
#X declare -path ../av;
#X declare -path ../av;
#X declare -path ../av;
#X declare -path ../av;
#X declare -path ../av;
#X declare -path ../av;
#X declare -path ../av;
#X declare -path ../av;
#X declare -path ../av;
#X declare -path ../av;
#X declare -path ../av;
#X declare -path ../av;
#X declare -path ../av;
#X declare -path ../av;
#X declare -path ../av;
#X declare -path ../av;
#X declare -path ../av;
#X declare -path ../av;
#X declare -path ../av;
#X declare -path ../av;
#X declare -path ../av;
#X declare -path ../av;
#X declare -path ../av;
#X declare -path ../av;
#X declare -path ../av;
#X declare -path ../av;
#X declare -path ../av;
#X declare -path ../av;
#X declare -path ../av;
#X declare -path ../av;
#X declare -path ../av;
#X declare -path ../av;
#X declare -path ../av;
#X declare -path ../av;
#X declare -path ../av;
#X declare -path ../av;
#X declare -path ../av;
#X declare -path ../av;
#X declare -path ../av;
#X declare -path ../av;
#X declare -path ../av;
#X declare -path ../av;
#X declare -path ../av;
#X declare -path ../av;
#X declare -path ../av;
#X declare -path ../av;
#X declare -path ../av;
#X declare -path ../av;
#X declare -path ../av;
#X declare -path ../av;
#X declare -path ../av;
#X declare -path ../av;
#X declare -path ../av;
#X declare -path ../av;
#X declare -path ../av;
#X declare -path ../av;
#X declare -path ../av;
#X declare -path ../av;
#X declare -path ../av;
#X declare -path ../av;
#X declare -path ../av;
#X declare -path ../av;
#X declare -path ../av;
#X declare -path ../av;
#X declare -path ../av;
#X declare -path ../av;
#X declare -path ../av;
#X declare -path ../av;
#X declare -path ../av;
#X declare -path ../av;
#X declare -path ../av;
#X declare -path ../av;
#X declare -path ../av;
#X declare -path ../data;
#X declare -path bin -path abs -path data -path av;
#X declare -path pd-externals/puremapping;
#X declare -path ../pd-externals/puremapping;
#N canvas 660 770 704 247 gemwin 0;
#X obj 67 99 outlet;
#X obj 67 10 inlet;
#X msg 67 70 set destroy;
#X msg 145 70 set create;
#X obj 201 197 route dimen;
#X obj 201 219 s gemwin_dimen;
#X obj 132 173 t a a;
#X msg 321 136 destroy;
#X obj 67 41 sel 1 0;
#X msg 132 96 reset \, dimen 1024 256 \, lighting 1 \, create \, 1
;
#X msg 48 134 frame 60;
#X msg 186 132 frame 15;
#X obj 132 196 gemwin 15;
#X connect 1 0 8 0;
#X connect 2 0 0 0;
#X connect 3 0 0 0;
#X connect 4 0 5 0;
#X connect 6 0 12 0;
#X connect 6 1 4 0;
#X connect 7 0 6 0;
#X connect 8 0 2 0;
#X connect 8 0 9 0;
#X connect 8 1 3 0;
#X connect 8 1 7 0;
#X connect 9 0 6 0;
#X connect 10 0 6 0;
#X connect 11 0 6 0;
#X restore 51 65 pd gemwin;
#N canvas 87 620 782 393 tables 1;
#X obj 308 76 bng 15 250 50 0 empty empty empty 17 7 0 10 -262144 -1
-1;
#X obj 308 56 loadbang;
#X text 327 75 load coord tables;
#X text 546 64 save coord tables;
#N canvas 577 387 634 543 (subpatch) 0;
#X floatatom 105 115 5 0 0 2 id - -, f 5;
#X floatatom 145 115 5 0 0 2 x - -, f 5;
#X floatatom 183 115 5 0 0 2 y - -, f 5;
#X msg 145 82 set \$1;
#X msg 241 82 set \$1;
#X obj 261 183 t b;
#X obj 261 205 speedlimit 200;
#X obj 241 60 tabread CSposY;
#X obj 145 60 tabread CSposX;
#X obj 145 172 tabwrite CSposX;
#X obj 183 142 tabwrite CSposY;
#X obj 324 262 s CSposY;
#X obj 184 262 s CSposX;
#X text 206 99 CS, f 3;
#X obj 76 338 outlet;
#X obj 22 335 outlet;
#X obj 76 259 t f f;
#X obj 76 281 % 9;
#X obj 132 286 / 9;
#X obj 132 308 int;
#X msg 184 240 write data/CSposX.txt;
#X msg 323 240 write data/CSposY.txt;
#X connect 0 0 7 0;
#X connect 0 0 8 0;
#X connect 0 0 9 1;
#X connect 0 0 10 1;
#X connect 0 0 16 0;
#X connect 1 0 5 0;
#X connect 1 0 9 0;
#X connect 2 0 5 0;
#X connect 2 0 10 0;
#X connect 3 0 1 0;
#X connect 4 0 2 0;
#X connect 5 0 6 0;
#X connect 6 0 20 0;
#X connect 6 0 21 0;
#X connect 7 0 4 0;
#X connect 8 0 3 0;
#X connect 16 0 17 0;
#X connect 16 1 18 0;
#X connect 17 0 14 0;
#X connect 18 0 19 0;
#X connect 19 0 15 0;
#X connect 20 0 12 0;
#X connect 21 0 11 0;
#X coords 0 -1 1 1 130 30 2 100 100;
#X restore 217 315 pd;
#X obj 308 93 getdir;
#X obj 43 82 table CSposX 100;
#X obj 43 102 table CSposY 100;
#X obj 43 122 table FSRposX 100;
#X obj 43 142 table FSRposY 100;
#X msg 308 137 CSposX \, CSposY \, FSRposX \, FSRposY;
#X obj 308 158 pack s s;
#X obj 308 115 t b a;
#X obj 308 180 t a a;
#X msg 308 205 read \$2/data/\$1.txt;
#X obj 308 282 send;
#X obj 338 260 symbol;
#X obj 528 66 bng 15 250 50 0 empty empty empty 17 7 0 10 -262144 -1
-1;
#X obj 528 83 getdir;
#X msg 528 127 CSposX \, CSposY \, FSRposX \, FSRposY;
#X obj 528 148 pack s s;
#X obj 528 105 t b a;
#X obj 528 170 t a a;
#X obj 528 242 send;
#X obj 549 219 symbol;
#X msg 528 195 wrie \$2/data/\$1.txt;
#N canvas 1 186 634 543 (subpatch) 0;
#X floatatom 105 115 5 0 0 2 id - -, f 5;
#X floatatom 145 115 5 0 0 2 x - -, f 5;
#X floatatom 183 115 5 0 0 2 y - -, f 5;
#X msg 145 82 set \$1;
#X msg 246 82 set \$1;
#X obj 261 183 t b;
#X obj 261 205 speedlimit 200;
#X obj 145 60 tabread FSRposX;
#X obj 106 167 tabwrite FSRposX;
#X obj 108 145 tabwrite FSRposY;
#X obj 246 60 tabread FSRposY;
#X obj 181 266 s FSRposX;
#X obj 329 266 s FSRposY;
#X text 200 101 FSR;
#X msg 181 243 write data/FSRposX.txt;
#X msg 329 244 write data/FSRposY.txt;
#X obj 76 338 outlet;
#X obj 22 335 outlet;
#X obj 76 259 t f f;
#X obj 76 281 % 9;
#X obj 132 286 / 9;
#X obj 132 308 int;
#X connect 0 0 7 0;
#X connect 0 0 8 1;
#X connect 0 0 9 1;
#X connect 0 0 10 0;
#X connect 0 0 18 0;
#X connect 1 0 5 0;
#X connect 1 0 8 0;
#X connect 2 0 5 0;
#X connect 2 0 9 0;
#X connect 3 0 1 0;
#X connect 4 0 2 0;
#X connect 5 0 6 0;
#X connect 6 0 14 0;
#X connect 6 0 15 0;
#X connect 7 0 3 0;
#X connect 10 0 4 0;
#X connect 14 0 11 0;
#X connect 15 0 12 0;
#X connect 18 0 19 0;
#X connect 18 1 20 0;
#X connect 19 0 16 0;
#X connect 20 0 21 0;
#X connect 21 0 17 0;
#X coords 0 -1 1 1 130 30 2 100 100;
#X restore 30 289 pd;
#X floatatom 349 352 5 0 0 0 - - -, f 5;
#X floatatom 313 352 5 0 0 0 cs - -, f 5;
#X msg 338 240 \$1;
#X floatatom 152 336 5 0 0 0 - - -, f 5;
#X floatatom 116 336 5 0 0 0 fsr - -, f 5;
#N canvas 1 212 634 543 (subpatch) 0;
#X floatatom 105 115 5 0 0 2 id - -, f 5;
#X floatatom 145 115 5 0 0 2 x - -, f 5;
#X floatatom 183 115 5 0 0 2 y - -, f 5;
#X msg 145 82 set \$1;
#X msg 246 82 set \$1;
#X obj 261 183 t b;
#X obj 261 205 speedlimit 200;
#X obj 76 338 outlet;
#X obj 22 335 outlet;
#X obj 76 259 t f f;
#X obj 76 281 % 9;
#X obj 132 286 / 9;
#X obj 132 308 int;
#X msg 329 244 write data/CSposY.txt;
#X msg 181 243 write data/CSposX.txt;
#X obj 106 167 tabwrite CSposX;
#X obj 99 145 tabwrite CSposY;
#X obj 145 60 tabread CSposX;
#X obj 246 60 tabread CSposY;
#X obj 181 266 s CSposX;
#X obj 329 266 s CSposY;
#X text 200 101 CS;
#X connect 0 0 9 0;
#X connect 0 0 15 1;
#X connect 0 0 16 1;
#X connect 0 0 17 0;
#X connect 0 0 18 0;
#X connect 1 0 5 0;
#X connect 1 0 15 0;
#X connect 2 0 5 0;
#X connect 2 0 16 0;
#X connect 3 0 1 0;
#X connect 4 0 2 0;
#X connect 5 0 6 0;
#X connect 6 0 14 0;
#X connect 6 0 13 0;
#X connect 9 0 10 0;
#X connect 9 1 11 0;
#X connect 10 0 7 0;
#X connect 11 0 12 0;
#X connect 12 0 8 0;
#X connect 13 0 20 0;
#X connect 14 0 19 0;
#X connect 17 0 3 0;
#X connect 18 0 4 0;
#X coords 0 -1 1 1 130 30 2 100 100;
#X restore 30 219 pd;
#X floatatom 152 266 5 0 0 0 - - -, f 5;
#X floatatom 116 266 5 0 0 0 cs - -, f 5;
#X connect 0 0 5 0;
#X connect 1 0 0 0;
#X connect 4 0 28 0;
#X connect 4 1 27 0;
#X connect 5 0 12 0;
#X connect 10 0 11 0;
#X connect 11 0 13 0;
#X connect 12 0 10 0;
#X connect 12 1 11 1;
#X connect 13 0 14 0;
#X connect 13 1 29 0;
#X connect 14 0 15 0;
#X connect 16 0 15 1;
#X connect 17 0 18 0;
#X connect 18 0 21 0;
#X connect 19 0 20 0;
#X connect 20 0 22 0;
#X connect 21 0 19 0;
#X connect 21 1 20 1;
#X connect 22 0 25 0;
#X connect 22 1 24 0;
#X connect 24 0 23 1;
#X connect 25 0 23 0;
#X connect 26 0 31 0;
#X connect 26 1 30 0;
#X connect 29 0 16 0;
#X connect 32 0 34 0;
#X connect 32 1 33 0;
#X restore 190 45 pd tables;
#X obj 348 79 gemhead;
#N canvas 1295 438 596 550 receiveOSC 1;
#X obj 39 110 unpackOSC;
#X obj 39 253 routeOSC /cs /fsr;
#X obj 39 483 s cs_processed;
#X obj 189 481 s fsr_processed;
#X obj 39 132 routeOSC /b00 /b01 /b02 /b03 /b04 /b05;
#X obj 130 438 print;
#X obj 130 413 spigot;
#X obj 164 392 tgl 15 0 empty empty empty 17 7 0 10 -262144 -1 -1 0
1;
#X obj 76 233 routeOSC /cs /fsr;
#X obj 114 213 routeOSC /cs /fsr;
#X obj 151 193 routeOSC /cs /fsr;
#X obj 189 173 routeOSC /cs /fsr;
#X obj 226 153 routeOSC /cs /fsr;
#X obj 39 90 spigot 1;
#X obj 236 46 inlet;
#X obj 236 68 == 0;
#X msg 117 106 /*/* 1 1 1 1 1 1 1 1 1;
#X floatatom 292 54 5 0 0 0 - - -, f 5;
#X floatatom 296 101 5 0 0 0 - - -, f 5;
#X msg 294 126 /*/cs \$1 \$1 \$1 \$1 \$1 \$1 \$1 \$1 \$1;
#X msg 290 79 /*/fsr \$1 \$1 \$1 \$1 \$1 \$1 \$1 \$1 \$1;
#X obj 189 431 spigot 1;
#X obj 234 406 tgl 15 0 empty empty empty 17 7 0 10 -262144 -1 -1 0
1;
#X obj 39 431 spigot 1;
#X obj 84 406 tgl 15 0 empty empty empty 17 7 0 10 -262144 -1 -1 0
1;
#N canvas 33 504 719 300 prepend 0;
#X obj 115 16 inlet;
#X obj 115 223 outlet;
#X obj 155 16 inlet;
#X obj 195 16 inlet;
#X obj 235 16 inlet;
#X obj 275 16 inlet;
#X obj 314 16 inlet;
#X obj 115 59 list prepend 0;
#X obj 155 79 list prepend 1;
#X obj 195 99 list prepend 2;
#X obj 235 119 list prepend 3;
#X obj 275 139 list prepend 4;
#X obj 314 159 list prepend 5;
#X connect 0 0 7 0;
#X connect 2 0 8 0;
#X connect 3 0 9 0;
#X connect 4 0 10 0;
#X connect 5 0 11 0;
#X connect 6 0 12 0;
#X connect 7 0 1 0;
#X connect 8 0 1 0;
#X connect 9 0 1 0;
#X connect 10 0 1 0;
#X connect 11 0 1 0;
#X connect 12 0 1 0;
#X restore 39 349 pd prepend;
#N canvas 37 479 719 300 prepend 0;
#X obj 115 16 inlet;
#X obj 115 223 outlet;
#X obj 155 16 inlet;
#X obj 195 16 inlet;
#X obj 235 16 inlet;
#X obj 275 16 inlet;
#X obj 314 16 inlet;
#X obj 115 59 list prepend 0;
#X obj 155 79 list prepend 1;
#X obj 195 99 list prepend 2;
#X obj 235 119 list prepend 3;
#X obj 275 139 list prepend 4;
#X obj 314 159 list prepend 5;
#X connect 0 0 7 0;
#X connect 2 0 8 0;
#X connect 3 0 9 0;
#X connect 4 0 10 0;
#X connect 5 0 11 0;
#X connect 6 0 12 0;
#X connect 7 0 1 0;
#X connect 8 0 1 0;
#X connect 9 0 1 0;
#X connect 10 0 1 0;
#X connect 11 0 1 0;
#X connect 12 0 1 0;
#X restore 189 349 pd prepend;
#X obj 327 445 pack f f f f f f f f f;
#X obj 329 219 metro 100;
#X obj 326 195 tgl 15 0 empty empty empty 17 7 0 10 -262144 -1 -1 1
1;
#X floatatom 377 269 5 0 0 0 - - -, f 5;
#X floatatom 387 289 5 0 0 0 - - -, f 5;
#X floatatom 397 309 5 0 0 0 - - -, f 5;
#X floatatom 407 329 5 0 0 0 - - -, f 5;
#X floatatom 417 349 5 0 0 0 - - -, f 5;
#X floatatom 427 369 5 0 0 0 - - -, f 5;
#X floatatom 437 389 5 0 0 0 - - -, f 5;
#X floatatom 447 409 5 0 0 0 - - -, f 5;
#X floatatom 367 249 5 0 0 0 - - -, f 5;
#X text 402 250 CSx-0;
#X text 421 290 CSx-2;
#X text 441 330 CSx-4;
#X text 461 370 CSx-6;
#X text 481 410 CSx-8;
#X msg 355 45 0;
#X obj 355 25 loadbang;
#X obj 492 213 tgl 15 0 empty empty empty 17 7 0 10 -262144 -1 -1 0
1;
#X obj 39 46 udpreceive 239.200.200.200 9997;
#X msg 327 467 /b04/fsr \$1 \$2 \$3 \$4 \$5 \$6 \$7 \$8 \$9;
#X connect 0 0 4 0;
#X connect 1 0 25 0;
#X connect 1 1 26 0;
#X connect 4 0 1 0;
#X connect 4 1 8 0;
#X connect 4 2 9 0;
#X connect 4 3 10 0;
#X connect 4 4 11 0;
#X connect 4 5 12 0;
#X connect 6 0 5 0;
#X connect 7 0 6 1;
#X connect 8 0 25 1;
#X connect 8 1 26 1;
#X connect 9 0 25 2;
#X connect 9 1 26 2;
#X connect 10 0 25 3;
#X connect 10 1 26 3;
#X connect 11 0 25 4;
#X connect 11 1 26 4;
#X connect 12 0 25 5;
#X connect 12 1 26 5;
#X connect 13 0 0 0;
#X connect 14 0 15 0;
#X connect 15 0 13 1;
#X connect 16 0 4 0;
#X connect 17 0 20 0;
#X connect 18 0 19 0;
#X connect 19 0 4 0;
#X connect 20 0 4 0;
#X connect 21 0 3 0;
#X connect 22 0 21 1;
#X connect 23 0 2 0;
#X connect 24 0 23 1;
#X connect 25 0 6 0;
#X connect 25 0 23 0;
#X connect 26 0 21 0;
#X connect 26 0 6 0;
#X connect 27 0 48 0;
#X connect 28 0 27 0;
#X connect 29 0 28 0;
#X connect 30 0 27 1;
#X connect 31 0 27 2;
#X connect 32 0 27 3;
#X connect 33 0 27 4;
#X connect 34 0 27 5;
#X connect 35 0 27 6;
#X connect 36 0 27 7;
#X connect 37 0 27 8;
#X connect 38 0 27 0;
#X connect 44 0 17 0;
#X connect 44 0 18 0;
#X connect 45 0 44 0;
#X connect 46 0 38 0;
#X connect 46 0 30 0;
#X connect 46 0 31 0;
#X connect 46 0 32 0;
#X connect 46 0 33 0;
#X connect 46 0 34 0;
#X connect 46 0 35 0;
#X connect 46 0 36 0;
#X connect 46 0 37 0;
#X connect 47 0 13 0;
#X connect 48 0 4 0;
#X restore 50 85 pd receiveOSC;
#N canvas 539 208 748 352 show_raw_data 0;
#X obj 29 33 r fsr_processed;
#X obj 77 245 f;
#X obj 102 245 + 1;
#X obj 29 124 list split 1;
#X obj 69 179 list;
#X obj 29 146 t b a;
#X obj 29 104 t a b;
#X obj 56 313 send;
#X msg 77 267 fsr-\$1;
#X obj 77 289 symbol;
#X obj 56 211 t a b;
#X obj 197 244 f;
#X obj 222 244 + 1;
#X obj 149 123 list split 1;
#X obj 189 178 list;
#X obj 149 145 t b a;
#X obj 149 103 t a b;
#X obj 176 312 send;
#X obj 197 288 symbol;
#X obj 176 210 t a b;
#X obj 149 33 r cs_processed;
#X msg 197 266 cs-\$1;
#N canvas 1289 412 450 429 script 0;
#X obj 169 333 s pd-60displays;
#X msg 346 189 clear;
#X obj 169 110 f;
#X obj 194 110 + 1;
#X msg 199 63 0;
#X obj 151 22 t b b b;
#X obj 175 -43 bng 15 250 50 0 empty empty empty 17 7 0 10 -262144
-1 -1;
#X obj 126 247 + 10;
#X obj 126 269 pack 0 0 0;
#X obj 126 180 / 10;
#X obj 126 202 i;
#X obj 166 247 + 10;
#X obj 166 180 % 10;
#X obj 166 225 * 20;
#X obj 126 225 * 100;
#X obj 117 -44 loadbang;
#X obj 169 132 t a a a a;
#X obj 169 88 until;
#X obj 10 118 s gem_oscillo_loadbang;
#X obj 117 -23 t b b;
#X obj 16 50 outlet;
#X obj 16 26 del 10000;
#X obj 231 169 sel 54;
#X obj 179 2 bng 15 250 50 0 empty empty empty 17 7 0 10 -262144 -1
-1;
#X msg 126 289 obj \$1 \$2 gem_display \$3;
#X obj 7 146 s gem_display_loadbang;
#X connect 1 0 0 0;
#X connect 2 0 3 0;
#X connect 2 0 16 0;
#X connect 3 0 2 1;
#X connect 4 0 2 1;
#X connect 5 0 18 0;
#X connect 5 0 25 0;
#X connect 5 1 17 0;
#X connect 5 2 4 0;
#X connect 5 2 1 0;
#X connect 6 0 19 0;
#X connect 7 0 8 0;
#X connect 8 0 24 0;
#X connect 9 0 10 0;
#X connect 10 0 14 0;
#X connect 11 0 8 1;
#X connect 12 0 13 0;
#X connect 13 0 11 0;
#X connect 14 0 7 0;
#X connect 15 0 19 0;
#X connect 16 0 9 0;
#X connect 16 1 12 0;
#X connect 16 2 8 2;
#X connect 16 3 22 0;
#X connect 17 0 2 0;
#X connect 19 0 21 0;
#X connect 19 1 5 0;
#X connect 21 0 20 0;
#X connect 22 0 17 1;
#X connect 23 0 5 0;
#X connect 24 0 0 0;
#X restore 515 19 pd script;
#N canvas 1036 278 618 225 60displays 1;
#X obj 10 10 gem_display 0;
#X obj 10 30 gem_display 1;
#X obj 10 50 gem_display 2;
#X obj 10 70 gem_display 3;
#X obj 10 90 gem_display 4;
#X obj 10 110 gem_display 5;
#X obj 10 130 gem_display 6;
#X obj 10 150 gem_display 7;
#X obj 10 170 gem_display 8;
#X obj 10 190 gem_display 9;
#X obj 110 10 gem_display 10;
#X obj 110 30 gem_display 11;
#X obj 110 50 gem_display 12;
#X obj 110 70 gem_display 13;
#X obj 110 90 gem_display 14;
#X obj 110 110 gem_display 15;
#X obj 110 130 gem_display 16;
#X obj 110 150 gem_display 17;
#X obj 110 170 gem_display 18;
#X obj 110 190 gem_display 19;
#X obj 210 10 gem_display 20;
#X obj 210 30 gem_display 21;
#X obj 210 50 gem_display 22;
#X obj 210 70 gem_display 23;
#X obj 210 90 gem_display 24;
#X obj 210 110 gem_display 25;
#X obj 210 130 gem_display 26;
#X obj 210 150 gem_display 27;
#X obj 210 170 gem_display 28;
#X obj 210 190 gem_display 29;
#X obj 310 10 gem_display 30;
#X obj 310 30 gem_display 31;
#X obj 310 50 gem_display 32;
#X obj 310 70 gem_display 33;
#X obj 310 90 gem_display 34;
#X obj 310 110 gem_display 35;
#X obj 310 130 gem_display 36;
#X obj 310 150 gem_display 37;
#X obj 310 170 gem_display 38;
#X obj 310 190 gem_display 39;
#X obj 410 10 gem_display 40;
#X obj 410 30 gem_display 41;
#X obj 410 50 gem_display 42;
#X obj 410 70 gem_display 43;
#X obj 410 90 gem_display 44;
#X obj 410 110 gem_display 45;
#X obj 410 130 gem_display 46;
#X obj 410 150 gem_display 47;
#X obj 410 170 gem_display 48;
#X obj 410 190 gem_display 49;
#X obj 510 10 gem_display 50;
#X obj 510 30 gem_display 51;
#X obj 510 50 gem_display 52;
#X obj 510 70 gem_display 53;
#X obj 510 90 gem_display 54;
#X restore 265 99 pd 60displays;
#X obj 309 181 inlet;
#X obj 309 203 s raw_display;
#X obj 149 75 list split 1;
#X obj 314 273 list split 1;
#X msg 313 232 1 2 3 4 5;
#X obj 314 295 print;
#X obj 149 55 t a a;
#X msg 231 73 \$1;
#X obj 231 157 * 9;
#X obj 29 74 list split 1;
#X obj 29 54 t a a;
#X msg 111 72 \$1;
#X obj 111 166 * 9;
#X obj 426 148 pack 0 0;
#X obj 426 170 s oscillo-translate;
#X obj 466 99 t b f;
#X obj 556 148 pack 0 0;
#X obj 596 99 t b f;
#X obj 556 170 s oscillo-scale;
#X obj 426 69 nbx 3 14 -1e+37 1e+37 0 1 empty empty empty 0 -8 0 10
-262144 -1 -1 -15 256;
#X obj 466 69 nbx 3 14 -1e+37 1e+37 0 1 empty empty empty 0 -8 0 10
-262144 -1 -1 0 256;
#X obj 556 69 nbx 3 14 -1e+37 1e+37 0 1 empty empty empty 0 -8 0 10
-262144 -1 -1 10 256;
#X obj 596 69 nbx 3 14 -1e+37 1e+37 0 1 empty empty empty 0 -8 0 10
-262144 -1 -1 1 256;
#X obj 515 42 bng 15 250 50 0 empty empty empty 17 7 0 10 -262144 -1
-1;
#X obj 505 226 bng 15 250 50 0 empty empty empty 17 7 0 10 -262144
-1 -1;
#X msg 529 218 loadbang;
#X obj 507 262 s pd-gem_osccillo 3;
#X connect 0 0 34 0;
#X connect 1 0 2 0;
#X connect 1 0 8 0;
#X connect 2 0 1 1;
#X connect 3 0 5 0;
#X connect 3 1 4 1;
#X connect 4 0 3 0;
#X connect 5 0 4 0;
#X connect 5 1 10 0;
#X connect 6 0 3 0;
#X connect 8 0 9 0;
#X connect 9 0 7 1;
#X connect 10 0 7 0;
#X connect 10 1 1 0;
#X connect 11 0 12 0;
#X connect 11 0 21 0;
#X connect 12 0 11 1;
#X connect 13 0 15 0;
#X connect 13 1 14 1;
#X connect 14 0 13 0;
#X connect 15 0 14 0;
#X connect 15 1 19 0;
#X connect 16 0 13 0;
#X connect 18 0 17 1;
#X connect 19 0 17 0;
#X connect 19 1 11 0;
#X connect 20 0 30 0;
#X connect 21 0 18 0;
#X connect 22 0 47 0;
#X connect 24 0 25 0;
#X connect 26 1 16 0;
#X connect 27 0 29 0;
#X connect 28 0 27 0;
#X connect 30 0 26 0;
#X connect 30 1 31 0;
#X connect 31 0 32 0;
#X connect 32 0 11 1;
#X connect 33 1 6 0;
#X connect 34 0 33 0;
#X connect 34 1 35 0;
#X connect 35 0 36 0;
#X connect 36 0 1 1;
#X connect 37 0 38 0;
#X connect 39 0 37 0;
#X connect 39 1 37 1;
#X connect 40 0 42 0;
#X connect 41 0 40 0;
#X connect 41 1 40 1;
#X connect 43 0 37 0;
#X connect 44 0 39 0;
#X connect 45 0 40 0;
#X connect 46 0 41 0;
#X connect 47 0 40 0;
#X connect 47 0 37 0;
#X connect 48 0 50 0;
#X connect 49 0 50 0;
#X restore 50 125 pd show_raw_data;
#X obj 33 105 tgl 15 0 empty empty empty 17 7 0 10 -262144 -1 -1 0
1;
#X obj 220 83 vradio 15 1 0 3 colorMode empty empty 0 -8 0 10 -262144
-1 -1 2;
#X text 237 96 light blue;
#X text 239 81 geeky green;
#X text 237 113 full color;
#X obj 50 105 show_model;
#X obj 33 85 tgl 15 0 empty empty mute -26 7 0 10 -262144 -1 -1 1 1
;
#X obj 33 125 tgl 15 0 empty empty empty 17 7 0 10 -262144 -1 -1 0
1;
#X obj 33 65 tgl 15 0 empty empty empty 17 7 0 10 -262144 -1 -1 1 1
;
#N canvas 1 128 450 300 init 0;
#X obj 62 58 declare -path bin -path abs -path data -path av;
#X obj 62 78 declare -path pd-externals/puremapping;
#X restore 257 45 pd init;
#X obj 34 10 _fps;
#X obj 348 118 world_light;
#X connect 2 0 16 0;
#X connect 5 0 10 0;
#X connect 11 0 3 0;
#X connect 12 0 4 0;
#X connect 13 0 0 0;
