#N canvas 1366 245 434 203 10;
#X declare -path ../data;
#X declare -path bin -path abs -path data -path av;
#X declare -path pd-externals/puremapping;
#X declare -path pd-externals/osc;
#X declare -path pd-externals/net;
#X declare -path pd-externals/ggee;
#X declare -path ../pd-externals/puremapping;
#X declare -path ../av;
#X declare -path ../av;
#X declare -path ../av;
#X declare -path ../av;
#X declare -path ../av;
#X declare -path ../av;
#X declare -path ../av;
#X declare -path ../av;
#X declare -path ../av;
#X declare -path ../av;
#X declare -path ../av;
#X declare -path ../av;
#X declare -path ../av;
#X declare -path ../av;
#X declare -path ../av;
#X declare -path ../av;
#X declare -path ../av;
#X declare -path ../av;
#X declare -path ../av;
#X declare -path ../av;
#X declare -path ../av;
#X declare -path ../av;
#X declare -path ../av;
#X declare -path ../av;
#X declare -path ../av;
#X declare -path ../av;
#X declare -path ../av;
#X declare -path ../av;
#X declare -path ../av;
#X declare -path ../av;
#X declare -path ../av;
#X declare -path ../av;
#X declare -path ../av;
#X declare -path ../av;
#X declare -path ../av;
#X declare -path ../av;
#X declare -path ../av;
#X declare -path ../av;
#X declare -path ../av;
#X declare -path ../av;
#X declare -path ../av;
#X declare -path ../av;
#X declare -path ../av;
#X declare -path ../av;
#X declare -path ../av;
#X declare -path ../av;
#X declare -path ../av;
#X declare -path ../av;
#X declare -path ../av;
#X declare -path ../av;
#X declare -path ../av;
#X declare -path ../av;
#X declare -path ../av;
#X declare -path ../av;
#X declare -path ../av;
#X declare -path ../av;
#X declare -path ../av;
#X declare -path ../av;
#X declare -path ../av;
#X declare -path ../av;
#X declare -path ../av;
#X declare -path ../av;
#X declare -path ../av;
#X declare -path ../av;
#X declare -path ../av;
#X declare -path ../av;
#X declare -path ../av;
#X declare -path ../av;
#X declare -path ../av;
#X declare -path ../av;
#X declare -path ../av;
#X declare -path ../av;
#X declare -path ../av;
#X declare -path ../av;
#X declare -path ../av;
#X declare -path ../av;
#X declare -path ../av;
#X declare -path ../av;
#X declare -path ../av;
#X declare -path ../av;
#X declare -path ../av;
#X declare -path ../av;
#X declare -path ../av;
#X declare -path ../av;
#X declare -path ../av;
#X declare -path ../av;
#X declare -path ../av;
#X declare -path ../av;
#X declare -path ../av;
#X declare -path ../av;
#X declare -path ../av;
#X declare -path ../av;
#X declare -path ../av;
#X declare -path ../av;
#X declare -path ../av;
#X declare -path ../av;
#X declare -path ../av;
#X declare -path ../av;
#X declare -path ../av;
#X declare -path ../av;
#X declare -path ../av;
#X declare -path ../av;
#X declare -path ../av;
#X declare -path ../av;
#X declare -path ../av;
#X declare -path ../av;
#X declare -path ../av;
#X declare -path ../av;
#X declare -path ../av;
#X declare -path ../av;
#N canvas 607 523 704 247 gemwin 0;
#X obj 67 10 inlet;
#X obj 201 197 route dimen;
#X obj 201 219 s gemwin_dimen;
#X obj 132 173 t a a;
#X msg 321 136 destroy;
#X obj 67 41 sel 1 0;
#X msg 132 96 reset \, dimen 1024 256 \, lighting 1 \, create \, 1
;
#X msg 48 134 frame 60;
#X msg 186 132 frame 15;
#X obj 132 196 gemwin 15;
#X obj 132 7 loadbang;
#X connect 0 0 5 0;
#X connect 1 0 2 0;
#X connect 3 0 9 0;
#X connect 3 1 1 0;
#X connect 4 0 3 0;
#X connect 5 0 6 0;
#X connect 5 1 4 0;
#X connect 6 0 3 0;
#X connect 7 0 3 0;
#X connect 8 0 3 0;
#X connect 10 0 6 0;
#X restore 51 65 pd gemwin;
#N canvas 3008 561 782 393 tables 0;
#X obj 308 76 bng 15 250 50 0 empty empty empty 17 7 0 10 -262144 -1
-1;
#X obj 308 56 loadbang;
#X text 327 75 load coord tables;
#X text 546 64 save coord tables;
#X obj 308 93 getdir;
#X obj 43 82 table CSposX 100;
#X obj 43 102 table CSposY 100;
#X obj 43 122 table FSRposX 100;
#X obj 43 142 table FSRposY 100;
#X msg 308 137 CSposX \, CSposY \, FSRposX \, FSRposY;
#X obj 308 158 pack s s;
#X obj 308 115 t b a;
#X obj 308 180 t a a;
#X msg 308 205 read \$2/data/\$1.txt;
#X obj 308 282 send;
#X obj 338 260 symbol;
#X obj 528 66 bng 15 250 50 0 empty empty empty 17 7 0 10 -262144 -1
-1;
#X obj 528 83 getdir;
#X msg 528 127 CSposX \, CSposY \, FSRposX \, FSRposY;
#X obj 528 148 pack s s;
#X obj 528 105 t b a;
#X obj 528 170 t a a;
#X obj 528 242 send;
#X obj 549 219 symbol;
#X msg 528 195 wrie \$2/data/\$1.txt;
#N canvas 564 536 634 543 (subpatch) 0;
#X floatatom 106 133 5 0 0 2 id - -, f 5;
#X floatatom 146 133 5 0 0 2 x - -, f 5;
#X floatatom 184 133 5 0 0 2 y - -, f 5;
#X msg 146 69 set \$1;
#X msg 247 69 set \$1;
#X obj 262 201 t b;
#X obj 262 223 speedlimit 200;
#X obj 146 47 tabread FSRposX;
#X obj 120 214 tabwrite FSRposX;
#X obj 122 192 tabwrite FSRposY;
#X obj 247 47 tabread FSRposY;
#X obj 182 284 s FSRposX;
#X obj 330 284 s FSRposY;
#X text 104 103 FSR;
#X msg 182 261 write data/FSRposX.txt;
#X msg 330 262 write data/FSRposY.txt;
#X obj 77 356 outlet;
#X obj 23 353 outlet;
#X obj 77 277 t f f;
#X obj 77 299 % 9;
#X obj 133 304 / 9;
#X obj 133 326 int;
#X floatatom 130 103 5 0 5 0 - - -, f 5;
#X msg -21 -11 set \$1;
#X floatatom 182 103 5 0 8 0 - - -, f 5;
#X msg 31 -12 set \$1;
#X obj 26 87 t b f;
#X obj 6 60 * 9;
#X obj 27 124 +;
#X connect 0 0 7 0;
#X connect 0 0 8 1;
#X connect 0 0 9 1;
#X connect 0 0 10 0;
#X connect 0 0 18 0;
#X connect 1 0 5 0;
#X connect 1 0 8 0;
#X connect 2 0 5 0;
#X connect 2 0 9 0;
#X connect 3 0 1 0;
#X connect 4 0 2 0;
#X connect 5 0 6 0;
#X connect 6 0 14 0;
#X connect 6 0 15 0;
#X connect 7 0 3 0;
#X connect 10 0 4 0;
#X connect 14 0 11 0;
#X connect 15 0 12 0;
#X connect 18 0 19 0;
#X connect 18 1 20 0;
#X connect 19 0 16 0;
#X connect 19 0 23 0;
#X connect 20 0 21 0;
#X connect 21 0 17 0;
#X connect 21 0 25 0;
#X connect 22 0 27 0;
#X connect 23 0 24 0;
#X connect 24 0 28 0;
#X connect 25 0 22 0;
#X connect 26 0 28 0;
#X connect 26 1 28 1;
#X connect 27 0 26 0;
#X connect 28 0 0 0;
#X coords 0 -1 1 1 130 50 2 100 100;
#X restore 30 252 pd;
#X msg 338 240 \$1;
#N canvas 1 276 634 543 (subpatch) 0;
#X floatatom 105 133 5 0 0 2 id - -, f 5;
#X floatatom 145 133 5 0 0 2 x - -, f 5;
#X floatatom 183 133 5 0 0 2 y - -, f 5;
#X msg 145 60 set \$1;
#X msg 246 60 set \$1;
#X obj 366 185 t b;
#X obj 366 207 speedlimit 200;
#X obj 76 356 outlet;
#X obj 22 353 outlet;
#X obj 76 277 t f f;
#X obj 76 299 % 9;
#X obj 132 304 / 9;
#X obj 132 326 int;
#X msg 434 246 write data/CSposY.txt;
#X msg 286 245 write data/CSposX.txt;
#X obj 145 209 tabwrite CSposX;
#X obj 183 187 tabwrite CSposY;
#X obj 145 38 tabread CSposX;
#X obj 246 38 tabread CSposY;
#X obj 286 268 s CSposX;
#X obj 434 268 s CSposY;
#X text 106 103 CS;
#X floatatom 126 104 5 0 5 0 - - -, f 5;
#X msg 18 10 set \$1;
#X floatatom 178 103 5 0 8 0 - - -, f 5;
#X msg 70 9 set \$1;
#X obj 38 79 t b f;
#X obj 18 52 * 9;
#X obj 39 116 +;
#X connect 0 0 9 0;
#X connect 0 0 15 1;
#X connect 0 0 16 1;
#X connect 0 0 17 0;
#X connect 0 0 18 0;
#X connect 1 0 5 0;
#X connect 1 0 15 0;
#X connect 2 0 5 0;
#X connect 2 0 16 0;
#X connect 3 0 1 0;
#X connect 4 0 2 0;
#X connect 5 0 6 0;
#X connect 6 0 14 0;
#X connect 6 0 13 0;
#X connect 9 0 10 0;
#X connect 9 1 11 0;
#X connect 10 0 7 0;
#X connect 10 0 25 0;
#X connect 11 0 12 0;
#X connect 12 0 8 0;
#X connect 12 0 23 0;
#X connect 13 0 20 0;
#X connect 14 0 19 0;
#X connect 17 0 3 0;
#X connect 18 0 4 0;
#X connect 22 0 27 0;
#X connect 23 0 22 0;
#X connect 24 0 28 0;
#X connect 25 0 24 0;
#X connect 26 0 28 0;
#X connect 26 1 28 1;
#X connect 27 0 26 0;
#X connect 28 0 0 0;
#X coords 0 -1 1 1 120 54 2 100 100;
#X restore 31 179 pd;
#X connect 0 0 4 0;
#X connect 1 0 0 0;
#X connect 4 0 11 0;
#X connect 9 0 10 0;
#X connect 10 0 12 0;
#X connect 11 0 9 0;
#X connect 11 1 10 1;
#X connect 12 0 13 0;
#X connect 12 1 26 0;
#X connect 13 0 14 0;
#X connect 15 0 14 1;
#X connect 16 0 17 0;
#X connect 17 0 20 0;
#X connect 18 0 19 0;
#X connect 19 0 21 0;
#X connect 20 0 18 0;
#X connect 20 1 19 1;
#X connect 21 0 24 0;
#X connect 21 1 23 0;
#X connect 23 0 22 1;
#X connect 24 0 22 0;
#X connect 26 0 15 0;
#X restore 190 45 pd tables;
#N canvas 313 457 596 550 receiveOSC 0;
#X obj 39 110 unpackOSC;
#X obj 39 253 routeOSC /cs /fsr;
#X obj 39 483 s cs_processed;
#X obj 189 481 s fsr_processed;
#X obj 130 438 print;
#X obj 130 413 spigot;
#X obj 164 392 tgl 15 0 empty empty empty 17 7 0 10 -262144 -1 -1 0
1;
#X obj 76 233 routeOSC /cs /fsr;
#X obj 114 213 routeOSC /cs /fsr;
#X obj 151 193 routeOSC /cs /fsr;
#X obj 189 173 routeOSC /cs /fsr;
#X obj 226 153 routeOSC /cs /fsr;
#X obj 39 90 spigot 1;
#X obj 236 1 inlet;
#X obj 236 68 == 0;
#X msg 117 106 /*/* 1 1 1 1 1 1 1 1 1;
#X floatatom 292 54 5 0 0 0 - - -, f 5;
#X floatatom 296 101 5 0 0 0 - - -, f 5;
#X msg 294 126 /*/cs \$1 \$1 \$1 \$1 \$1 \$1 \$1 \$1 \$1;
#X msg 290 79 /*/fsr \$1 \$1 \$1 \$1 \$1 \$1 \$1 \$1 \$1;
#X obj 189 431 spigot 1;
#X obj 234 406 tgl 15 0 empty empty empty 17 7 0 10 -262144 -1 -1 0
1;
#X obj 39 431 spigot 1;
#X obj 84 406 tgl 15 0 empty empty empty 17 7 0 10 -262144 -1 -1 0
1;
#N canvas 33 504 719 300 prepend 0;
#X obj 115 16 inlet;
#X obj 115 223 outlet;
#X obj 155 16 inlet;
#X obj 195 16 inlet;
#X obj 235 16 inlet;
#X obj 275 16 inlet;
#X obj 314 16 inlet;
#X obj 115 59 list prepend 0;
#X obj 155 79 list prepend 1;
#X obj 195 99 list prepend 2;
#X obj 235 119 list prepend 3;
#X obj 275 139 list prepend 4;
#X obj 314 159 list prepend 5;
#X connect 0 0 7 0;
#X connect 2 0 8 0;
#X connect 3 0 9 0;
#X connect 4 0 10 0;
#X connect 5 0 11 0;
#X connect 6 0 12 0;
#X connect 7 0 1 0;
#X connect 8 0 1 0;
#X connect 9 0 1 0;
#X connect 10 0 1 0;
#X connect 11 0 1 0;
#X connect 12 0 1 0;
#X restore 39 349 pd prepend;
#N canvas 37 479 719 300 prepend 0;
#X obj 115 16 inlet;
#X obj 115 223 outlet;
#X obj 155 16 inlet;
#X obj 195 16 inlet;
#X obj 235 16 inlet;
#X obj 275 16 inlet;
#X obj 314 16 inlet;
#X obj 115 59 list prepend 0;
#X obj 155 79 list prepend 1;
#X obj 195 99 list prepend 2;
#X obj 235 119 list prepend 3;
#X obj 275 139 list prepend 4;
#X obj 314 159 list prepend 5;
#X connect 0 0 7 0;
#X connect 2 0 8 0;
#X connect 3 0 9 0;
#X connect 4 0 10 0;
#X connect 5 0 11 0;
#X connect 6 0 12 0;
#X connect 7 0 1 0;
#X connect 8 0 1 0;
#X connect 9 0 1 0;
#X connect 10 0 1 0;
#X connect 11 0 1 0;
#X connect 12 0 1 0;
#X restore 189 349 pd prepend;
#X obj 327 445 pack f f f f f f f f f;
#X obj 329 219 metro 100;
#X obj 326 195 tgl 15 0 empty empty empty 17 7 0 10 -262144 -1 -1 0
1;
#X floatatom 377 269 5 0 0 0 - - -, f 5;
#X floatatom 387 289 5 0 0 0 - - -, f 5;
#X floatatom 397 309 5 0 0 0 - - -, f 5;
#X floatatom 407 329 5 0 0 0 - - -, f 5;
#X floatatom 417 349 5 0 0 0 - - -, f 5;
#X floatatom 427 369 5 0 0 0 - - -, f 5;
#X floatatom 437 389 5 0 0 0 - - -, f 5;
#X floatatom 447 409 5 0 0 0 - - -, f 5;
#X floatatom 367 249 5 0 0 0 - - -, f 5;
#X text 402 250 CSx-0;
#X text 421 290 CSx-2;
#X text 441 330 CSx-4;
#X text 461 370 CSx-6;
#X text 481 410 CSx-8;
#X msg 355 45 0;
#X obj 355 25 loadbang;
#X obj 492 213 tgl 15 0 empty empty empty 17 7 0 10 -262144 -1 -1 0
1;
#X obj 236 24 tgl 15 0 empty empty mute 17 7 0 10 -262144 -1 -1 0 1
;
#X msg 327 467 /b0*/cs \$1 \$2 \$3 \$4 \$5 \$6 \$7 \$8 \$9;
#X obj 39 46 udpreceive 239.200.200.200 9997;
#X obj 39 132 routeOSC /b00 /b01 /b02 /b03 /b04 /b05 /hop;
#X obj 383 177 s hop;
#X connect 0 0 49 0;
#X connect 1 0 24 0;
#X connect 1 1 25 0;
#X connect 5 0 4 0;
#X connect 6 0 5 1;
#X connect 7 0 24 1;
#X connect 7 1 25 1;
#X connect 8 0 24 2;
#X connect 8 1 25 2;
#X connect 9 0 24 3;
#X connect 9 1 25 3;
#X connect 10 0 24 4;
#X connect 10 1 25 4;
#X connect 11 0 24 5;
#X connect 11 1 25 5;
#X connect 12 0 0 0;
#X connect 13 0 46 0;
#X connect 14 0 12 1;
#X connect 15 0 49 0;
#X connect 16 0 19 0;
#X connect 17 0 18 0;
#X connect 18 0 49 0;
#X connect 19 0 49 0;
#X connect 20 0 3 0;
#X connect 21 0 20 1;
#X connect 22 0 2 0;
#X connect 23 0 22 1;
#X connect 24 0 5 0;
#X connect 24 0 22 0;
#X connect 25 0 20 0;
#X connect 25 0 5 0;
#X connect 26 0 47 0;
#X connect 27 0 26 0;
#X connect 28 0 27 0;
#X connect 29 0 26 1;
#X connect 30 0 26 2;
#X connect 31 0 26 3;
#X connect 32 0 26 4;
#X connect 33 0 26 5;
#X connect 34 0 26 6;
#X connect 35 0 26 7;
#X connect 36 0 26 8;
#X connect 37 0 26 0;
#X connect 43 0 16 0;
#X connect 43 0 17 0;
#X connect 44 0 43 0;
#X connect 45 0 37 0;
#X connect 45 0 29 0;
#X connect 45 0 30 0;
#X connect 45 0 31 0;
#X connect 45 0 32 0;
#X connect 45 0 33 0;
#X connect 45 0 34 0;
#X connect 45 0 35 0;
#X connect 45 0 36 0;
#X connect 46 0 14 0;
#X connect 47 0 49 0;
#X connect 48 0 12 0;
#X connect 49 0 1 0;
#X connect 49 1 7 0;
#X connect 49 2 8 0;
#X connect 49 3 9 0;
#X connect 49 4 10 0;
#X connect 49 5 11 0;
#X connect 49 6 50 0;
#X restore 50 85 pd receiveOSC;
#X obj 33 105 tgl 15 0 empty empty empty 17 7 0 10 -262144 -1 -1 0
1;
#X obj 220 83 vradio 15 1 0 3 colorMode empty empty 0 -8 0 10 -262144
-1 -1 2;
#X text 237 96 light blue;
#X text 239 81 geeky green;
#X text 237 113 full color;
#X obj 50 105 show_model;
#X obj 33 85 tgl 15 0 empty empty mute -26 7 0 10 -262144 -1 -1 0 1
;
#X obj 33 65 tgl 15 0 empty empty empty 17 7 0 10 -262144 -1 -1 0 1
;
#N canvas 1 192 450 300 init 1;
#X obj 62 58 declare -path bin -path abs -path data -path av;
#X obj 62 78 declare -path pd-externals/puremapping;
#X obj 62 98 declare -path pd-externals/osc;
#X obj 62 118 declare -path pd-externals/net;
#X obj 62 138 declare -path pd-externals/ggee;
#X restore 257 45 pd init;
#X obj 34 10 _fps;
#N canvas 1 144 450 300 light 0;
#X obj 49 65 gemhead;
#X obj 49 204 world_light;
#X obj 49 111 translate -10 4 0;
#X msg 112 178 0.7 0.7 0.7;
#X obj 112 155 loadbang;
#X connect 0 0 2 0;
#X connect 2 0 1 0;
#X connect 3 0 1 1;
#X connect 4 0 3 0;
#X restore 51 165 pd light;
#N canvas 749 644 748 362 show_raw_data 0;
#X obj 29 33 r fsr_processed;
#X obj 77 245 f;
#X obj 102 245 + 1;
#X obj 29 124 list split 1;
#X obj 69 179 list;
#X obj 29 146 t b a;
#X obj 29 104 t a b;
#X obj 56 313 send;
#X msg 77 267 fsr-\$1;
#X obj 77 289 symbol;
#X obj 56 211 t a b;
#X obj 197 244 f;
#X obj 222 244 + 1;
#X obj 149 123 list split 1;
#X obj 189 178 list;
#X obj 149 145 t b a;
#X obj 149 103 t a b;
#X obj 176 312 send;
#X obj 197 288 symbol;
#X obj 176 210 t a b;
#X obj 149 33 r cs_processed;
#X msg 197 266 cs-\$1;
#N canvas 1289 412 450 429 script 0;
#X obj 169 333 s pd-60displays;
#X msg 346 189 clear;
#X obj 169 110 f;
#X obj 194 110 + 1;
#X msg 199 63 0;
#X obj 151 22 t b b b;
#X obj 175 -43 bng 15 250 50 0 empty empty empty 17 7 0 10 -262144
-1 -1;
#X obj 126 247 + 10;
#X obj 126 269 pack 0 0 0;
#X obj 126 180 / 10;
#X obj 126 202 i;
#X obj 166 247 + 10;
#X obj 166 180 % 10;
#X obj 166 225 * 20;
#X obj 126 225 * 100;
#X obj 117 -44 loadbang;
#X obj 169 132 t a a a a;
#X obj 169 88 until;
#X obj 10 118 s gem_oscillo_loadbang;
#X obj 117 -23 t b b;
#X obj 16 50 outlet;
#X obj 16 26 del 10000;
#X obj 231 169 sel 54;
#X obj 179 2 bng 15 250 50 0 empty empty empty 17 7 0 10 -262144 -1
-1;
#X msg 126 289 obj \$1 \$2 gem_display \$3;
#X obj 7 146 s gem_display_loadbang;
#X connect 1 0 0 0;
#X connect 2 0 3 0;
#X connect 2 0 16 0;
#X connect 3 0 2 1;
#X connect 4 0 2 1;
#X connect 5 0 18 0;
#X connect 5 0 25 0;
#X connect 5 1 17 0;
#X connect 5 2 4 0;
#X connect 5 2 1 0;
#X connect 6 0 19 0;
#X connect 7 0 8 0;
#X connect 8 0 24 0;
#X connect 9 0 10 0;
#X connect 10 0 14 0;
#X connect 11 0 8 1;
#X connect 12 0 13 0;
#X connect 13 0 11 0;
#X connect 14 0 7 0;
#X connect 15 0 19 0;
#X connect 16 0 9 0;
#X connect 16 1 12 0;
#X connect 16 2 8 2;
#X connect 16 3 22 0;
#X connect 17 0 2 0;
#X connect 19 0 21 0;
#X connect 19 1 5 0;
#X connect 21 0 20 0;
#X connect 22 0 17 1;
#X connect 23 0 5 0;
#X connect 24 0 0 0;
#X restore 515 19 pd script;
#N canvas 718 346 618 225 60displays 0;
#X obj 10 10 gem_display 0;
#X obj 10 30 gem_display 1;
#X obj 10 50 gem_display 2;
#X obj 10 70 gem_display 3;
#X obj 10 90 gem_display 4;
#X obj 10 110 gem_display 5;
#X obj 10 130 gem_display 6;
#X obj 10 150 gem_display 7;
#X obj 10 170 gem_display 8;
#X obj 10 190 gem_display 9;
#X obj 110 10 gem_display 10;
#X obj 110 30 gem_display 11;
#X obj 110 50 gem_display 12;
#X obj 110 70 gem_display 13;
#X obj 110 90 gem_display 14;
#X obj 110 110 gem_display 15;
#X obj 110 130 gem_display 16;
#X obj 110 150 gem_display 17;
#X obj 110 170 gem_display 18;
#X obj 110 190 gem_display 19;
#X obj 210 10 gem_display 20;
#X obj 210 30 gem_display 21;
#X obj 210 50 gem_display 22;
#X obj 210 70 gem_display 23;
#X obj 210 90 gem_display 24;
#X obj 210 110 gem_display 25;
#X obj 210 130 gem_display 26;
#X obj 210 150 gem_display 27;
#X obj 210 170 gem_display 28;
#X obj 210 190 gem_display 29;
#X obj 310 10 gem_display 30;
#X obj 310 30 gem_display 31;
#X obj 310 50 gem_display 32;
#X obj 310 70 gem_display 33;
#X obj 310 90 gem_display 34;
#X obj 310 110 gem_display 35;
#X obj 310 130 gem_display 36;
#X obj 310 150 gem_display 37;
#X obj 310 170 gem_display 38;
#X obj 310 190 gem_display 39;
#X obj 410 10 gem_display 40;
#X obj 410 30 gem_display 41;
#X obj 410 50 gem_display 42;
#X obj 410 70 gem_display 43;
#X obj 410 90 gem_display 44;
#X obj 410 110 gem_display 45;
#X obj 410 130 gem_display 46;
#X obj 410 150 gem_display 47;
#X obj 410 170 gem_display 48;
#X obj 410 190 gem_display 49;
#X obj 510 10 gem_display 50;
#X obj 510 30 gem_display 51;
#X obj 510 50 gem_display 52;
#X obj 510 70 gem_display 53;
#X obj 510 90 gem_display 54;
#X restore 265 99 pd 60displays;
#X obj 309 181 inlet;
#X obj 309 203 s raw_display;
#X obj 149 75 list split 1;
#X obj 314 273 list split 1;
#X msg 313 232 1 2 3 4 5;
#X obj 314 295 print;
#X obj 149 55 t a a;
#X msg 231 73 \$1;
#X obj 231 157 * 9;
#X obj 29 74 list split 1;
#X obj 29 54 t a a;
#X msg 111 72 \$1;
#X obj 111 166 * 9;
#X obj 426 148 pack 0 0;
#X obj 426 170 s oscillo-translate;
#X obj 466 99 t b f;
#X obj 556 148 pack 0 0;
#X obj 596 99 t b f;
#X obj 556 170 s oscillo-scale;
#X obj 426 69 nbx 3 14 -1e+37 1e+37 0 1 empty empty empty 0 -8 0 10
-262144 -1 -1 -15 256;
#X obj 466 69 nbx 3 14 -1e+37 1e+37 0 1 empty empty empty 0 -8 0 10
-262144 -1 -1 0 256;
#X obj 556 69 nbx 3 14 -1e+37 1e+37 0 1 empty empty empty 0 -8 0 10
-262144 -1 -1 10 256;
#X obj 596 69 nbx 3 14 -1e+37 1e+37 0 1 empty empty empty 0 -8 0 10
-262144 -1 -1 1 256;
#X obj 515 42 bng 15 250 50 0 empty empty empty 17 7 0 10 -262144 -1
-1;
#X obj 505 226 bng 15 250 50 0 empty empty empty 17 7 0 10 -262144
-1 -1;
#X msg 529 218 loadbang;
#X obj 507 262 s pd-gem_osccillo 3;
#X connect 0 0 34 0;
#X connect 1 0 2 0;
#X connect 1 0 8 0;
#X connect 2 0 1 1;
#X connect 3 0 5 0;
#X connect 3 1 4 1;
#X connect 4 0 3 0;
#X connect 5 0 4 0;
#X connect 5 1 10 0;
#X connect 6 0 3 0;
#X connect 8 0 9 0;
#X connect 9 0 7 1;
#X connect 10 0 7 0;
#X connect 10 1 1 0;
#X connect 11 0 12 0;
#X connect 11 0 21 0;
#X connect 12 0 11 1;
#X connect 13 0 15 0;
#X connect 13 1 14 1;
#X connect 14 0 13 0;
#X connect 15 0 14 0;
#X connect 15 1 19 0;
#X connect 16 0 13 0;
#X connect 18 0 17 1;
#X connect 19 0 17 0;
#X connect 19 1 11 0;
#X connect 20 0 30 0;
#X connect 21 0 18 0;
#X connect 22 0 47 0;
#X connect 24 0 25 0;
#X connect 26 1 16 0;
#X connect 27 0 29 0;
#X connect 28 0 27 0;
#X connect 30 0 26 0;
#X connect 30 1 31 0;
#X connect 31 0 32 0;
#X connect 32 0 11 1;
#X connect 33 1 6 0;
#X connect 34 0 33 0;
#X connect 34 1 35 0;
#X connect 35 0 36 0;
#X connect 36 0 1 1;
#X connect 37 0 38 0;
#X connect 39 0 37 0;
#X connect 39 1 37 1;
#X connect 40 0 42 0;
#X connect 41 0 40 0;
#X connect 41 1 40 1;
#X connect 43 0 37 0;
#X connect 44 0 39 0;
#X connect 45 0 40 0;
#X connect 46 0 41 0;
#X connect 47 0 40 0;
#X connect 47 0 37 0;
#X connect 48 0 50 0;
#X connect 49 0 50 0;
#X restore 50 125 pd show_raw_data;
#X obj 33 125 tgl 15 1 empty empty empty 17 7 0 10 -262144 -1 -1 0
1;
#N canvas 700 108 800 578 background 0;
#X text 10 39 background;
#N canvas 509 333 866 505 haut_gauche 0;
#X obj 101 276 list prepend set;
#X obj 101 305 list trim;
#X msg 101 331 0.609012 0.713856 0.780392;
#X obj 101 382 unpack f f f;
#X obj 101 405 * 255;
#X obj 140 405 * 255;
#X obj 180 405 * 255;
#X obj 141 138 / 255;
#X obj 101 201 pack f f f;
#X obj 141 161 t b f;
#X obj 181 138 / 255;
#X obj 181 161 t b f;
#X obj 101 138 / 255;
#X floatatom 238 102 5 0 255 0 - - -, f 5;
#X floatatom 278 102 5 0 255 0 - - -, f 5;
#X floatatom 318 102 5 0 255 0 - - -, f 5;
#X obj 64 436 outlet;
#X obj 169 306 inlet;
#X obj 310 24 inlet;
#X obj 370 24 inlet;
#X obj 428 24 inlet;
#X obj 310 49 i;
#X obj 370 49 i;
#X obj 428 48 i;
#X obj 101 353 rgb2hsv;
#X obj 101 223 hsv2rgb;
#X connect 0 0 1 0;
#X connect 1 0 2 0;
#X connect 2 0 24 0;
#X connect 3 0 4 0;
#X connect 3 1 5 0;
#X connect 3 2 6 0;
#X connect 4 0 13 0;
#X connect 5 0 14 0;
#X connect 6 0 15 0;
#X connect 7 0 9 0;
#X connect 8 0 25 0;
#X connect 9 0 8 0;
#X connect 9 1 8 1;
#X connect 10 0 11 0;
#X connect 11 0 8 0;
#X connect 11 1 8 2;
#X connect 12 0 8 0;
#X connect 13 0 12 0;
#X connect 14 0 7 0;
#X connect 15 0 10 0;
#X connect 17 0 2 0;
#X connect 18 0 21 0;
#X connect 19 0 22 0;
#X connect 20 0 23 0;
#X connect 21 0 13 0;
#X connect 22 0 14 0;
#X connect 23 0 15 0;
#X connect 24 0 3 0;
#X connect 25 0 0 0;
#X connect 25 0 16 0;
#X coords 0 -1 1 1 256 20 1 100 100;
#X restore 135 208 pd haut_gauche;
#N canvas 789 656 1023 377 back_ground 0;
#X msg 209 143 C1 \$1 \$2 \$3;
#X msg 343 145 C2 \$1 \$2 \$3;
#X msg 470 146 C3 \$1 \$2 \$3;
#X msg 605 146 C4 \$1 \$2 \$3;
#X obj 25 11 tgl 15 0 empty empty empty 17 7 0 10 -262144 -1 -1 0 1
;
#X obj 212 30 inlet;
#X obj 342 26 inlet;
#X obj 477 27 inlet;
#X obj 624 30 inlet;
#X obj 209 318 outlet;
#X obj 25 66 GEMglLoadIdentity;
#X obj 714 38 inlet;
#X obj 64 133 bng 15 250 50 0 empty empty empty 17 7 0 10 -262144 -1
-1;
#X obj 73 241 r rapport_h_l;
#X obj 25 104 scaleXYZ;
#X obj 768 34 inlet;
#X obj 858 42 inlet;
#X obj 25 34 gemhead 1;
#X obj 25 172 abs/_glsl_frag shader/color;
#X floatatom 170 208 5 0 0 0 - - -, f 5;
#X obj 25 202 translateXYZ 0 0 -18;
#X obj 74 274 * 18;
#X obj 25 306 rectangle 75 18;
#X connect 0 0 18 1;
#X connect 1 0 18 1;
#X connect 2 0 18 1;
#X connect 3 0 18 1;
#X connect 4 0 17 0;
#X connect 5 0 0 0;
#X connect 6 0 1 0;
#X connect 7 0 2 0;
#X connect 8 0 3 0;
#X connect 10 0 14 0;
#X connect 11 0 18 1;
#X connect 12 0 18 0;
#X connect 13 0 21 0;
#X connect 14 0 18 0;
#X connect 15 0 14 1;
#X connect 16 0 14 2;
#X connect 17 0 10 0;
#X connect 18 0 20 0;
#X connect 18 1 9 0;
#X connect 19 0 20 3;
#X connect 20 0 22 0;
#X connect 21 0 22 1;
#X restore 144 450 pd back_ground;
#N canvas 513 301 866 505 bas_gauche 0;
#X obj 101 266 list prepend set;
#X obj 101 295 list trim;
#X msg 101 321 -0 0.110357 0.180392;
#X obj 101 382 unpack f f f;
#X obj 101 405 * 255;
#X obj 140 405 * 255;
#X obj 180 405 * 255;
#X obj 141 138 / 255;
#X obj 101 201 pack f f f;
#X obj 141 161 t b f;
#X obj 181 138 / 255;
#X obj 181 161 t b f;
#X obj 101 138 / 255;
#X floatatom 238 102 5 0 255 0 - - -, f 5;
#X floatatom 278 102 5 0 255 0 - - -, f 5;
#X floatatom 318 102 5 0 255 0 - - -, f 5;
#X obj 64 436 outlet;
#X obj 169 296 inlet;
#X obj 310 24 inlet;
#X obj 370 24 inlet;
#X obj 428 24 inlet;
#X obj 310 49 i;
#X obj 370 49 i;
#X obj 428 48 i;
#X obj 101 343 rgb2hsv;
#X obj 101 223 hsv2rgb;
#X connect 0 0 1 0;
#X connect 1 0 2 0;
#X connect 2 0 24 0;
#X connect 3 0 4 0;
#X connect 3 1 5 0;
#X connect 3 2 6 0;
#X connect 4 0 13 0;
#X connect 5 0 14 0;
#X connect 6 0 15 0;
#X connect 7 0 9 0;
#X connect 8 0 25 0;
#X connect 9 0 8 0;
#X connect 9 1 8 1;
#X connect 10 0 11 0;
#X connect 11 0 8 0;
#X connect 11 1 8 2;
#X connect 12 0 8 0;
#X connect 13 0 12 0;
#X connect 14 0 7 0;
#X connect 15 0 10 0;
#X connect 17 0 2 0;
#X connect 18 0 21 0;
#X connect 19 0 22 0;
#X connect 20 0 23 0;
#X connect 21 0 13 0;
#X connect 22 0 14 0;
#X connect 23 0 15 0;
#X connect 24 0 3 0;
#X connect 25 0 0 0;
#X connect 25 0 16 0;
#X coords 0 -1 1 1 256 20 1 100 100;
#X restore 135 232 pd bas_gauche;
#N canvas 513 301 866 505 haut_droite 0;
#X obj 101 276 list prepend set;
#X obj 101 305 list trim;
#X msg 101 331 0.608627 0.701711 0.760784;
#X obj 101 392 unpack f f f;
#X obj 101 415 * 255;
#X obj 140 415 * 255;
#X obj 180 415 * 255;
#X obj 141 138 / 255;
#X obj 101 201 pack f f f;
#X obj 141 161 t b f;
#X obj 181 138 / 255;
#X obj 181 161 t b f;
#X obj 101 138 / 255;
#X floatatom 238 102 5 0 255 0 - - -, f 5;
#X floatatom 278 102 5 0 255 0 - - -, f 5;
#X floatatom 318 102 5 0 255 0 - - -, f 5;
#X obj 64 446 outlet;
#X obj 169 306 inlet;
#X obj 310 24 inlet;
#X obj 370 24 inlet;
#X obj 428 24 inlet;
#X obj 310 49 i;
#X obj 370 49 i;
#X obj 428 48 i;
#X obj 101 238 hsv2rgb;
#X obj 101 360 rgb2hsv;
#X connect 0 0 1 0;
#X connect 1 0 2 0;
#X connect 2 0 25 0;
#X connect 3 0 4 0;
#X connect 3 1 5 0;
#X connect 3 2 6 0;
#X connect 4 0 13 0;
#X connect 5 0 14 0;
#X connect 6 0 15 0;
#X connect 7 0 9 0;
#X connect 8 0 24 0;
#X connect 9 0 8 0;
#X connect 9 1 8 1;
#X connect 10 0 11 0;
#X connect 11 0 8 0;
#X connect 11 1 8 2;
#X connect 12 0 8 0;
#X connect 13 0 12 0;
#X connect 14 0 7 0;
#X connect 15 0 10 0;
#X connect 17 0 2 0;
#X connect 18 0 21 0;
#X connect 19 0 22 0;
#X connect 20 0 23 0;
#X connect 21 0 13 0;
#X connect 22 0 14 0;
#X connect 23 0 15 0;
#X connect 24 0 0 0;
#X connect 24 0 16 0;
#X connect 25 0 3 0;
#X coords 0 -1 1 1 256 20 1 100 100;
#X restore 395 208 pd haut_droite;
#N canvas 509 333 866 505 bas_droite 0;
#X obj 101 256 list prepend set;
#X obj 101 285 list trim;
#X msg 101 311 -0 0.105559 0.172549;
#X obj 101 372 unpack f f f;
#X obj 101 395 * 255;
#X obj 140 395 * 255;
#X obj 180 395 * 255;
#X obj 141 138 / 255;
#X obj 101 201 pack f f f;
#X obj 141 161 t b f;
#X obj 181 138 / 255;
#X obj 181 161 t b f;
#X obj 101 138 / 255;
#X floatatom 238 102 5 0 255 0 - - -, f 5;
#X floatatom 278 102 5 0 255 0 - - -, f 5;
#X floatatom 318 102 5 0 255 0 - - -, f 5;
#X obj 64 426 outlet;
#X obj 169 286 inlet;
#X obj 310 24 inlet;
#X obj 370 24 inlet;
#X obj 428 24 inlet;
#X obj 310 49 i;
#X obj 370 49 i;
#X obj 428 48 i;
#X obj 101 333 rgb2hsv;
#X obj 101 228 hsv2rgb;
#X connect 0 0 1 0;
#X connect 1 0 2 0;
#X connect 2 0 24 0;
#X connect 3 0 4 0;
#X connect 3 1 5 0;
#X connect 3 2 6 0;
#X connect 4 0 13 0;
#X connect 5 0 14 0;
#X connect 6 0 15 0;
#X connect 7 0 9 0;
#X connect 8 0 25 0;
#X connect 9 0 8 0;
#X connect 9 1 8 1;
#X connect 10 0 11 0;
#X connect 11 0 8 0;
#X connect 11 1 8 2;
#X connect 12 0 8 0;
#X connect 13 0 12 0;
#X connect 14 0 7 0;
#X connect 15 0 10 0;
#X connect 17 0 2 0;
#X connect 18 0 21 0;
#X connect 19 0 22 0;
#X connect 20 0 23 0;
#X connect 21 0 13 0;
#X connect 22 0 14 0;
#X connect 23 0 15 0;
#X connect 24 0 3 0;
#X connect 25 0 0 0;
#X connect 25 0 16 0;
#X coords 0 -1 1 1 256 20 1 100 100;
#X restore 395 232 pd bas_droite;
#X obj 205 255 nbx 5 14 -10 10 0 1 empty empty empty 0 -8 0 10 -262144
-1 -1 10 256;
#X obj 208 377 /;
#X msg 208 404 powX \$1;
#X msg 208 353 1 \$1;
#X obj 208 328 + 1;
#X obj 330 256 nbx 5 14 -10 80 0 1 empty empty empty 0 -8 0 10 -262144
-1 -1 -4 256;
#X obj 268 381 /;
#X msg 268 358 1 \$1;
#X obj 268 334 + 1;
#X msg 268 403 powY \$1;
#X obj 208 303 / 11;
#X obj 268 309 / 11;
#X text 267 255 centre Y;
#X text 143 256 centre X;
#X obj 518 360 nbx 5 14 1 10 0 1 empty empty empty 0 -8 0 10 -262144
-1 -1 1 256;
#X obj 643 361 nbx 5 14 1 11 0 1 empty empty empty 0 -8 0 10 -262144
-1 -1 1 256;
#X text 456 361 taille X;
#X text 580 360 taille Y;
#X obj 67 129 t b;
#X obj 217 163 r config-HG_R;
#X obj 303 161 r config-HG_G;
#X obj 249 183 r config-BG_R;
#X obj 337 180 r config-BG_G;
#X obj 382 161 r config-HG_B;
#X obj 416 179 r config-BG_B;
#X obj 677 179 r config-BD_B;
#X obj 643 159 r config-HD_B;
#X obj 598 179 r config-BD_G;
#X obj 564 159 r config-HD_G;
#X obj 512 181 r config-BD_R;
#X obj 478 161 r config-HD_R;
#X obj 238 279 r config-centreX;
#X obj 352 280 r config-centreY;
#X obj 66 110 bng 15 250 50 0 empty empty empty 17 7 0 10 -262144 -1
-1;
#X obj 310 50 r hop;
#X obj 67 86 loadbang;
#X obj 310 74 routeOSC /eros;
#X obj 474 62 mapping2float 0.1 1;
#X floatatom 310 131 5 0 0 0 - - -, f 5;
#X obj 310 95 mapping2float 136 255;
#X obj 49 62 inlet;
#X connect 1 0 2 1;
#X connect 2 0 24 0;
#X connect 3 0 2 0;
#X connect 4 0 2 3;
#X connect 5 0 2 2;
#X connect 6 0 16 0;
#X connect 7 0 8 0;
#X connect 8 0 2 4;
#X connect 9 0 7 0;
#X connect 10 0 9 0;
#X connect 11 0 17 0;
#X connect 12 0 15 0;
#X connect 13 0 12 0;
#X connect 14 0 13 0;
#X connect 15 0 2 4;
#X connect 16 0 10 0;
#X connect 17 0 14 0;
#X connect 20 0 2 5;
#X connect 21 0 2 6;
#X connect 24 0 1 0;
#X connect 24 0 3 0;
#X connect 24 0 6 0;
#X connect 24 0 11 0;
#X connect 24 0 4 0;
#X connect 24 0 5 0;
#X connect 25 0 1 1;
#X connect 26 0 1 2;
#X connect 27 0 3 1;
#X connect 28 0 3 2;
#X connect 29 0 1 3;
#X connect 30 0 3 3;
#X connect 31 0 5 3;
#X connect 32 0 4 3;
#X connect 33 0 5 2;
#X connect 34 0 4 2;
#X connect 35 0 5 1;
#X connect 36 0 4 1;
#X connect 37 0 6 0;
#X connect 38 0 11 0;
#X connect 39 0 24 0;
#X connect 40 0 42 0;
#X connect 41 0 39 0;
#X connect 42 0 45 0;
#X connect 45 0 44 0;
#X connect 45 0 1 1;
#X connect 45 0 4 1;
#X connect 45 0 5 1;
#X connect 45 0 3 1;
#X connect 46 0 39 0;
#X restore 51 145 pd background;
#X obj 32 148 bng 15 250 50 0 empty empty empty 17 7 0 10 -262144 -1
-1;
#X connect 3 0 8 0;
#X connect 9 0 2 0;
#X connect 10 0 0 0;
#X connect 15 0 14 0;
#X connect 17 0 16 0;
