#N canvas 1234 516 423 467 10;
#X declare -path ../bin;
#X declare -path ../bin;
#X declare -path ../bin;
#X declare -path ../bin;
#X declare -path ../bin;
#X declare -path ../bin;
#X declare -path ../puremapping;
#X declare -path ../puremapping;
#X declare -path ../puremapping;
#X declare -path ../puremapping;
#X declare -path ../puremapping;
#X declare -path ../puremapping;
#X declare -path ../puremapping;
#X declare -path ../puremapping;
#X declare -path ../puremapping;
#X declare -path ../puremapping;
#X declare -path ../puremapping;
#X declare -path ../puremapping;
#X declare -path ../puremapping -path ../av;
#X declare -path ../puremapping -path ../av;
#X declare -path ../puremapping -path ../av;
#X declare -path ../puremapping -path ../av;
#X declare -path ../puremapping -path ../av;
#X declare -path ../puremapping -path ../av;
#X declare -path ../puremapping -path ../av;
#X declare -path ../puremapping -path ../av;
#X declare -path ../puremapping -path ../av;
#X declare -path ../bin;
#X declare -path abs -path bin -path av -path puremapping;
#X declare -path ../bin -path ../puremapping -path ../av;
#X declare -path ../bin -path ../puremapping -path ../av;
#X declare -path ../bin -path ../puremapping -path ../av;
#X declare -path ../bin -path ../puremapping -path ../av;
#X declare -path ../bin -path ../puremapping -path ../av;
#X declare -path ../puremapping;
#X declare -path ../puremapping;
#X declare -path ../puremapping;
#X declare -path ../puremapping;
#X declare -path ../puremapping;
#X declare -path ../puremapping;
#X declare -path ../puremapping;
#X declare -path ../puremapping;
#X declare -path ../puremapping;
#X declare -path ../puremapping;
#X declare -path ../puremapping;
#X declare -path ../puremapping;
#X declare -path ../puremapping -path ../av;
#X declare -path ../puremapping -path ../av;
#X declare -path ../puremapping -path ../av;
#X declare -path ../puremapping -path ../av;
#X declare -path ../puremapping -path ../av;
#X declare -path ../puremapping -path ../av;
#X declare -path ../puremapping -path ../av;
#X declare -path ../puremapping -path ../av;
#X declare -path ../puremapping -path ../av;
#X declare -path ../bin;
#X declare -path ../puremapping;
#X declare -path ../puremapping;
#X declare -path ../puremapping;
#X declare -path ../puremapping;
#X declare -path ../puremapping;
#X declare -path ../puremapping;
#X declare -path ../puremapping;
#X declare -path ../puremapping;
#X declare -path ../puremapping;
#X declare -path ../puremapping;
#X declare -path ../puremapping;
#X declare -path ../puremapping;
#X declare -path ../puremapping -path ../av;
#X declare -path ../puremapping -path ../av;
#X declare -path ../puremapping -path ../av;
#X declare -path ../puremapping -path ../av;
#X declare -path ../puremapping -path ../av;
#X declare -path ../puremapping -path ../av;
#X declare -path ../puremapping -path ../av;
#X declare -path ../puremapping -path ../av;
#X declare -path ../puremapping -path ../av;
#X declare -path ../bin;
#X declare -path ../puremapping;
#X declare -path ../puremapping;
#X declare -path ../puremapping;
#X declare -path ../puremapping;
#X declare -path ../puremapping;
#X declare -path ../puremapping;
#X declare -path ../puremapping;
#X declare -path ../puremapping;
#X declare -path ../puremapping;
#X declare -path ../puremapping;
#X declare -path ../puremapping;
#X declare -path ../puremapping;
#X declare -path ../puremapping -path ../av;
#X declare -path ../puremapping -path ../av;
#X declare -path ../puremapping -path ../av;
#X declare -path ../puremapping -path ../av;
#X declare -path ../puremapping -path ../av;
#X declare -path ../puremapping -path ../av;
#X declare -path ../puremapping -path ../av;
#X declare -path ../puremapping -path ../av;
#X declare -path ../puremapping -path ../av;
#X declare -path ../bin;
#X declare -path ../puremapping;
#X declare -path ../puremapping;
#X declare -path ../puremapping;
#X declare -path ../puremapping;
#X declare -path ../puremapping;
#X declare -path ../puremapping;
#X declare -path ../puremapping;
#X declare -path ../puremapping;
#X declare -path ../puremapping;
#X declare -path ../puremapping;
#X declare -path ../puremapping;
#X declare -path ../puremapping;
#X declare -path ../puremapping -path ../av;
#X declare -path ../puremapping -path ../av;
#X declare -path ../puremapping -path ../av;
#X declare -path ../puremapping -path ../av;
#X declare -path ../puremapping -path ../av;
#X declare -path ../puremapping -path ../av;
#X declare -path ../puremapping -path ../av;
#X declare -path ../puremapping -path ../av;
#X declare -path ../puremapping -path ../av;
#X declare -path ../bin;
#X declare -path ../puremapping;
#X declare -path ../puremapping;
#X declare -path ../puremapping;
#X declare -path ../puremapping;
#X declare -path ../puremapping;
#X declare -path ../puremapping;
#X declare -path ../puremapping;
#X declare -path ../puremapping;
#X declare -path ../puremapping;
#X declare -path ../puremapping;
#X declare -path ../puremapping;
#X declare -path ../puremapping;
#X declare -path ../puremapping -path ../av;
#X declare -path ../puremapping -path ../av;
#X declare -path ../puremapping -path ../av;
#X declare -path ../puremapping -path ../av;
#X declare -path ../puremapping -path ../av;
#X declare -path ../puremapping -path ../av;
#X declare -path ../puremapping -path ../av;
#X declare -path ../puremapping -path ../av;
#X declare -path ../puremapping -path ../av;
#X declare -path ../bin;
#X declare -path ../bin -path ../puremapping -path ../av;
#X floatatom 16 72 5 0 0 1 ms - -, f 5;
#N canvas 70 651 561 299 comports 1;
#X obj 285 64 r to-all-arduino;
#X obj 285 86 t a a a a a a;
#X obj 385 111 s to-arduino-ctl-5;
#X obj 365 131 s to-arduino-ctl-4;
#X obj 345 151 s to-arduino-ctl-3;
#X obj 325 171 s to-arduino-ctl-2;
#X obj 305 191 s to-arduino-ctl-1;
#X obj 286 212 s to-arduino-ctl-0;
#X obj 51 61 connect_board 0;
#X obj 71 81 connect_board 1;
#X obj 91 101 connect_board 2;
#X obj 111 121 connect_board 3;
#X obj 131 141 connect_board 4;
#X obj 151 161 connect_board 5;
#X obj 86 388 tgl 15 0 empty empty empty 17 7 0 10 -262144 -1 -1 0
1;
#X obj 52 427 print mon-\$1;
#X obj 52 407 spigot 1;
#X obj 51 292 t a b;
#X obj 61 318 f;
#X obj 61 340 + 1;
#X obj 61 362 < 100;
#X obj 78 267 s OSCdispatch;
#X obj 51 234 t a a;
#X connect 0 0 1 0;
#X connect 1 0 7 0;
#X connect 1 1 6 0;
#X connect 1 2 5 0;
#X connect 1 3 4 0;
#X connect 1 4 3 0;
#X connect 1 5 2 0;
#X connect 8 0 22 0;
#X connect 9 0 22 0;
#X connect 10 0 22 0;
#X connect 11 0 22 0;
#X connect 12 0 22 0;
#X connect 13 0 22 0;
#X connect 14 0 16 1;
#X connect 16 0 15 0;
#X connect 17 0 16 0;
#X connect 17 1 18 0;
#X connect 18 0 19 0;
#X connect 19 0 18 1;
#X connect 19 0 20 0;
#X connect 20 0 14 0;
#X connect 22 1 21 0;
#X restore 16 29 pd comports;
#X floatatom 16 112 5 0 0 1 ms - -, f 5;
#X floatatom 16 152 5 0 0 1 ms - -, f 5;
#X floatatom 16 192 5 0 0 1 ms - -, f 5;
#X floatatom 16 232 5 0 0 1 ms - -, f 5;
#X floatatom 16 272 5 0 0 1 ms - -, f 5;
#X obj 16 49 board_receiver /b00;
#X obj 151 365 tgl 15 0 empty empty empty 17 7 0 10 -262144 -1 -1 0
1;
#X obj 117 384 spigot;
#X obj 117 404 print mon-\$1;
#X obj 15 320 r OSCdispatch;
#X obj 89 30 tgl 15 0 autoConnect empty auto_connect 17 7 0 10 -262144
-1 -1 0 1;
#X obj 15 342 routeOSC /*;
#X obj 15 364 routeOSC /s/t;
#X obj 16 9 declare -path abs -path bin -path av -path puremapping
;
#X obj 214 129 board_controler 4;
#X obj 214 89 board_controler 2;
#X obj 214 69 board_controler 1;
#X obj 214 109 board_controler 3;
#X obj 214 49 board_controler 0;
#N canvas 74 467 932 443 OSCout 0;
#X obj 136 68 r sendOSC;
#X obj 136 90 t a a a;
#X obj 155 132 packOSC;
#X obj 155 192 spigot;
#X obj 155 285 udpsend;
#X msg 206 243 connect 239.200.200 9997 \, multicast_interface eth0
;
#X obj 155 309 tgl 15 0 empty empty empty 17 7 0 10 -262144 -1 -1 1
1;
#X obj 206 222 loadbang;
#X obj 178 309 sel 0;
#X obj 178 331 del 1000;
#X msg 200 196 disconnect;
#X obj 535 192 spigot;
#X obj 535 285 udpsend;
#X obj 535 309 tgl 15 0 empty empty empty 17 7 0 10 -262144 -1 -1 1
1;
#X obj 586 222 loadbang;
#X obj 558 309 sel 0;
#X obj 558 331 del 1000;
#X msg 580 196 disconnect;
#X msg 586 243 connect 239.200.200 9997 \, multicast_interface lo;
#X connect 0 0 1 0;
#X connect 1 1 2 0;
#X connect 2 0 3 0;
#X connect 2 0 11 0;
#X connect 3 0 4 0;
#X connect 4 0 6 0;
#X connect 4 0 3 1;
#X connect 4 0 8 0;
#X connect 5 0 4 0;
#X connect 7 0 5 0;
#X connect 8 0 9 0;
#X connect 9 0 5 0;
#X connect 10 0 4 0;
#X connect 11 0 12 0;
#X connect 12 0 13 0;
#X connect 12 0 11 1;
#X connect 12 0 15 0;
#X connect 14 0 18 0;
#X connect 15 0 16 0;
#X connect 16 0 18 0;
#X connect 17 0 12 0;
#X connect 18 0 12 0;
#X restore 16 289 pd OSCout;
#X text 55 435 Das Körperrauschen - Antoine Villeret 2012 - 2014;
#X obj 16 89 board_receiver /b01;
#X obj 16 129 board_receiver /b02;
#X obj 16 169 board_receiver /b03;
#X obj 16 249 board_receiver /b05;
#X obj 16 209 board_receiver /b04;
#X obj 214 149 board_controler 5;
#X connect 7 0 0 0;
#X connect 8 0 9 1;
#X connect 9 0 10 0;
#X connect 11 0 13 0;
#X connect 13 0 14 0;
#X connect 13 1 9 0;
#X connect 14 1 9 0;
#X connect 23 0 2 0;
#X connect 24 0 3 0;
#X connect 25 0 4 0;
#X connect 26 0 6 0;
#X connect 27 0 5 0;
