#N canvas 2 313 481 252 10;
#X declare -path pd-externals/puremapping;
#X declare -path bin -path abs -path data -path av;
#X declare -path pd-externals/nusmuk-audio;
#X declare -path pd-externals/hcs;
#X declare -path pd-externals/iem_tab -lib iem_tab;
#X declare -path pd-externals/osc;
#X declare -path pd-externals/net;
#X declare -path pd-externals/mediasettings;
#X declare -path pd-externals/zexy -lib zexy;
#X declare -path pd-externals/nusmuk-utils;
#X declare -path ../pd-externals/puremapping;
#X declare -path ../puremapping;
#X declare -path ../puremapping;
#X declare -path ../puremapping;
#X declare -path ../puremapping;
#X declare -path ../pd-externals/nusmuk-audio;
#X declare -path ../pd-externals/nusmuk-audio;
#X declare -path ../pd-externals/nusmuk-audio;
#X declare -path ../pd-externals/nusmuk-audio;
#X declare -path ../pd-externals/nusmuk-audio;
#X declare -path ../pd-externals/nusmuk-audio;
#X declare -path ../pd-externals/nusmuk-audio;
#X declare -path ../pd-externals/nusmuk-audio;
#X declare -path ../pd-externals/nusmuk-audio;
#X declare -path ../pd-externals/nusmuk-audio;
#N canvas 1091 368 596 550 receiveOSC 0;
#X obj 39 110 unpackOSC;
#X obj 39 253 routeOSC /cs /fsr;
#X obj 39 483 s cs_processed;
#X obj 189 481 s fsr_processed;
#X obj 39 132 routeOSC /b00 /b01 /b02 /b03 /b04 /b05;
#X obj 130 438 print;
#X obj 130 413 spigot;
#X obj 164 392 tgl 15 0 empty empty empty 17 7 0 10 -262144 -1 -1 0
1;
#X obj 76 233 routeOSC /cs /fsr;
#X obj 114 213 routeOSC /cs /fsr;
#X obj 151 193 routeOSC /cs /fsr;
#X obj 189 173 routeOSC /cs /fsr;
#X obj 226 153 routeOSC /cs /fsr;
#X obj 39 90 spigot 1;
#X obj 236 46 inlet;
#X obj 236 68 == 0;
#X msg 117 106 /*/* 1 1 1 1 1 1 1 1 1;
#X floatatom 292 54 5 0 0 0 - - -, f 5;
#X floatatom 296 101 5 0 0 0 - - -, f 5;
#X msg 294 126 /*/cs \$1 \$1 \$1 \$1 \$1 \$1 \$1 \$1 \$1;
#X msg 290 79 /*/fsr \$1 \$1 \$1 \$1 \$1 \$1 \$1 \$1 \$1;
#X obj 189 431 spigot 1;
#X obj 234 406 tgl 15 0 empty empty empty 17 7 0 10 -262144 -1 -1 0
1;
#X obj 39 431 spigot 1;
#X obj 84 406 tgl 15 0 empty empty empty 17 7 0 10 -262144 -1 -1 0
1;
#N canvas 37 472 719 300 prepend 0;
#X obj 115 16 inlet;
#X obj 115 223 outlet;
#X obj 155 16 inlet;
#X obj 195 16 inlet;
#X obj 235 16 inlet;
#X obj 275 16 inlet;
#X obj 314 16 inlet, f 16;
#X obj 115 59 list prepend 0;
#X obj 155 79 list prepend 1;
#X obj 195 99 list prepend 2;
#X obj 235 119 list prepend 3;
#X obj 275 139 list prepend 4;
#X obj 314 159 list prepend 5;
#X connect 0 0 7 0;
#X connect 2 0 8 0;
#X connect 3 0 9 0;
#X connect 4 0 10 0;
#X connect 5 0 11 0;
#X connect 6 0 12 0;
#X connect 7 0 1 0;
#X connect 8 0 1 0;
#X connect 9 0 1 0;
#X connect 10 0 1 0;
#X connect 11 0 1 0;
#X connect 12 0 1 0;
#X restore 39 349 pd prepend;
#N canvas 39 463 719 300 prepend 0;
#X obj 115 16 inlet;
#X obj 115 223 outlet;
#X obj 155 16 inlet;
#X obj 195 16 inlet;
#X obj 235 16 inlet;
#X obj 275 16 inlet;
#X obj 314 16 inlet, f 16;
#X obj 115 59 list prepend 0;
#X obj 155 79 list prepend 1;
#X obj 195 99 list prepend 2;
#X obj 235 119 list prepend 3;
#X obj 275 139 list prepend 4;
#X obj 314 159 list prepend 5;
#X connect 0 0 7 0;
#X connect 2 0 8 0;
#X connect 3 0 9 0;
#X connect 4 0 10 0;
#X connect 5 0 11 0;
#X connect 6 0 12 0;
#X connect 7 0 1 0;
#X connect 8 0 1 0;
#X connect 9 0 1 0;
#X connect 10 0 1 0;
#X connect 11 0 1 0;
#X connect 12 0 1 0;
#X restore 189 352 pd prepend;
#X obj 327 445 pack f f f f f f f f f;
#X obj 329 219 metro 100;
#X obj 326 195 tgl 15 0 empty empty empty 17 7 0 10 -262144 -1 -1 0
1;
#X floatatom 377 269 5 0 0 0 - - -, f 5;
#X floatatom 387 289 5 0 0 0 - - -, f 5;
#X floatatom 397 309 5 0 0 0 - - -, f 5;
#X floatatom 407 329 5 0 0 0 - - -, f 5;
#X floatatom 417 349 5 0 0 0 - - -, f 5;
#X floatatom 427 369 5 0 0 0 - - -, f 5;
#X floatatom 437 389 5 0 0 0 - - -, f 5;
#X floatatom 447 409 5 0 0 0 - - -, f 5;
#X floatatom 367 249 5 0 0 0 - - -, f 5;
#X text 402 250 CSx-0;
#X text 421 290 CSx-2;
#X text 441 330 CSx-4;
#X text 461 370 CSx-6;
#X text 481 410 CSx-8;
#X msg 355 45 0;
#X obj 355 25 loadbang;
#X obj 492 213 tgl 15 0 empty empty empty 17 7 0 10 -262144 -1 -1 0
1;
#X msg 327 468 /b00/cs \$1 \$2 \$3 \$4 \$5 \$6 \$7 \$8 \$9;
#X obj 39 46 udpreceive 9997;
#X connect 0 0 4 0;
#X connect 1 0 25 0;
#X connect 1 1 26 0;
#X connect 4 0 1 0;
#X connect 4 1 8 0;
#X connect 4 2 9 0;
#X connect 4 3 10 0;
#X connect 4 4 11 0;
#X connect 4 5 12 0;
#X connect 6 0 5 0;
#X connect 7 0 6 1;
#X connect 8 0 25 1;
#X connect 8 1 26 1;
#X connect 9 0 25 2;
#X connect 9 1 26 2;
#X connect 10 0 25 3;
#X connect 10 1 26 3;
#X connect 11 0 25 4;
#X connect 11 1 26 4;
#X connect 12 0 25 5;
#X connect 12 1 26 5;
#X connect 13 0 0 0;
#X connect 14 0 15 0;
#X connect 15 0 13 1;
#X connect 16 0 4 0;
#X connect 17 0 20 0;
#X connect 18 0 19 0;
#X connect 19 0 4 0;
#X connect 20 0 4 0;
#X connect 21 0 3 0;
#X connect 22 0 21 1;
#X connect 23 0 2 0;
#X connect 24 0 23 1;
#X connect 25 0 6 0;
#X connect 25 0 23 0;
#X connect 26 0 21 0;
#X connect 26 0 6 0;
#X connect 27 0 47 0;
#X connect 28 0 27 0;
#X connect 29 0 28 0;
#X connect 30 0 27 1;
#X connect 31 0 27 2;
#X connect 32 0 27 3;
#X connect 33 0 27 4;
#X connect 34 0 27 5;
#X connect 35 0 27 6;
#X connect 36 0 27 7;
#X connect 37 0 27 8;
#X connect 38 0 27 0;
#X connect 44 0 17 0;
#X connect 44 0 18 0;
#X connect 45 0 44 0;
#X connect 46 0 38 0;
#X connect 46 0 30 0;
#X connect 46 0 31 0;
#X connect 46 0 32 0;
#X connect 46 0 33 0;
#X connect 46 0 34 0;
#X connect 46 0 35 0;
#X connect 46 0 36 0;
#X connect 46 0 37 0;
#X connect 47 0 4 0;
#X connect 48 0 13 0;
#X restore 50 45 pd receiveOSC;
#X obj 33 45 tgl 15 0 empty empty mute -26 7 0 10 -262144 -1 -1 0 1
;
#N canvas 1 746 450 300 init 0;
#X obj 33 32 declare -path pd-externals/puremapping;
#X obj 33 12 declare -path bin -path abs -path data -path av;
#X obj 33 52 declare -path pd-externals/nusmuk-audio;
#X obj 33 72 declare -path pd-externals/hcs;
#X obj 33 92 declare -path pd-externals/iem_tab -lib iem_tab;
#X obj 33 242 selectAudioDevice GIGAPort_HD+_(hardware);
#X obj 33 132 declare -path pd-externals/osc;
#X obj 33 112 declare -path pd-externals/net;
#X obj 33 152 declare -path pd-externals/mediasettings;
#X obj 33 172 declare -path pd-externals/zexy -lib zexy;
#X obj 33 192 declare -path pd-externals/nusmuk-utils;
#X restore 51 25 pd init;
#X obj 28 208 _fps;
#N canvas 534 371 400 414 fill-table 0;
#X obj 83 235 f;
#X obj 108 235 + 1;
#X obj 29 114 list split 1;
#X obj 69 169 list;
#X obj 29 136 t b a;
#X obj 29 94 t a b;
#X obj 56 201 t a b;
#X obj 203 244 f;
#X obj 228 244 + 1;
#X obj 149 123 list split 1;
#X obj 189 178 list;
#X obj 149 145 t b a;
#X obj 149 103 t a b;
#X obj 176 210 t a b;
#X obj 149 33 r cs_processed;
#X obj 149 75 list split 1;
#X obj 149 55 t a a;
#X msg 231 73 \$1;
#X obj 231 157 * 9;
#X obj 29 74 list split 1;
#X obj 29 54 t a a;
#X msg 111 72 \$1;
#X obj 111 156 * 9;
#X obj 302 236 table cs 54;
#X obj 302 256 table fsr 54;
#X obj 176 351 tabwrite cs;
#X obj 56 344 tabwrite fsr;
#X obj 29 33 r fsr_processed;
#X obj 176 300 max 0;
#X obj 176 331 curve_log;
#X connect 0 0 1 0;
#X connect 0 0 26 1;
#X connect 1 0 0 1;
#X connect 2 0 4 0;
#X connect 2 1 3 1;
#X connect 3 0 2 0;
#X connect 4 0 3 0;
#X connect 4 1 6 0;
#X connect 5 0 2 0;
#X connect 6 0 26 0;
#X connect 6 1 0 0;
#X connect 7 0 8 0;
#X connect 7 0 25 1;
#X connect 8 0 7 1;
#X connect 9 0 11 0;
#X connect 9 1 10 1;
#X connect 10 0 9 0;
#X connect 11 0 10 0;
#X connect 11 1 13 0;
#X connect 12 0 9 0;
#X connect 13 0 28 0;
#X connect 13 1 7 0;
#X connect 14 0 16 0;
#X connect 15 1 12 0;
#X connect 16 0 15 0;
#X connect 16 1 17 0;
#X connect 17 0 18 0;
#X connect 18 0 7 1;
#X connect 19 1 5 0;
#X connect 20 0 19 0;
#X connect 20 1 21 0;
#X connect 21 0 22 0;
#X connect 22 0 0 1;
#X connect 27 0 20 0;
#X connect 28 0 29 0;
#X connect 29 0 25 0;
#X restore 50 65 pd fill-table;
#N canvas 664 306 1121 598 output~ 0;
#X obj 309 406 dac~ 1 2 3 4, f 20;
#X obj 55 19 catch~ analog-1;
#X obj 95 39 catch~ analog-2;
#X obj 135 59 catch~ analog-3;
#X obj 174 79 catch~ analog-4;
#X obj 305 19 catch~ wave-1;
#X obj 344 39 catch~ wave-2;
#X obj 383 59 catch~ wave-3;
#X obj 424 79 catch~ wave-4;
#X obj 127 230 compress_limit_sidechain~;
#X obj 290 231 compress_limit_sidechain~;
#X obj 447 230 compress_limit_sidechain~;
#X obj 607 230 compress_limit_sidechain~;
#X obj 362 303 s main_amplitude;
#X obj 367 167 r main_amplitude;
#X obj 660 463 dac~ 6, f 7;
#X obj 966 128 catch~ sampler-1;
#X obj 878 287 *~;
#X obj 830 333 dac~ 1 2 3 4, f 20;
#X floatatom 913 254 5 0 0 0 - - -, f 5;
#X obj 25 490 r master-vol;
#X obj 25 550 s master-vol_num_in;
#X obj 197 481 t b f b;
#X obj 25 510 - 100;
#X obj 197 459 r master-vol_num_out;
#X obj 25 530 spigot 1;
#X obj 216 505 + 100;
#X msg 264 536 0;
#X msg 194 536 1;
#X obj 216 567 s master-vol_in;
#X obj 128 272 volmute master;
#X obj 244 269 volmute master;
#X obj 448 278 volmute master;
#X obj 607 278 volmute master;
#X obj 659 426 volmute master;
#X obj 659 396 volmute sub;
#X obj 507 474 t b f b;
#X obj 335 503 - 100;
#X obj 335 523 spigot 1;
#X obj 526 498 + 100;
#X msg 574 529 0;
#X msg 504 529 1;
#X obj 335 483 r sub-vol;
#X obj 338 543 s sub-vol_num_in;
#X obj 507 452 r sub-vol_num_out;
#X obj 526 560 s sub-vol_in;
#X obj 967 225 volmute master;
#X obj 966 272 dac~ 5, f 7;
#X obj 1016 272 dac~ 7, f 7;
#X obj 660 367 /~ 1;
#X obj 678 489 dac~ 8, f 7;
#X obj 32 131 volmute master;
#X obj 31 178 dac~ 5, f 7;
#X obj 81 178 dac~ 7, f 7;
#X obj 80 154 volmute master;
#X connect 1 0 9 0;
#X connect 1 0 51 0;
#X connect 2 0 10 0;
#X connect 2 0 51 0;
#X connect 3 0 11 0;
#X connect 3 0 54 0;
#X connect 4 0 12 0;
#X connect 4 0 54 0;
#X connect 5 0 9 0;
#X connect 6 0 10 0;
#X connect 7 0 11 0;
#X connect 8 0 12 0;
#X connect 9 0 30 0;
#X connect 9 0 49 0;
#X connect 9 1 13 0;
#X connect 10 0 31 0;
#X connect 10 0 49 0;
#X connect 10 1 13 0;
#X connect 11 0 32 0;
#X connect 11 0 49 0;
#X connect 11 1 13 0;
#X connect 12 0 33 0;
#X connect 12 0 49 0;
#X connect 12 1 13 0;
#X connect 14 0 9 1;
#X connect 14 0 10 1;
#X connect 14 0 11 1;
#X connect 14 0 12 1;
#X connect 16 0 17 0;
#X connect 16 0 46 0;
#X connect 16 0 49 0;
#X connect 17 0 18 0;
#X connect 17 0 18 1;
#X connect 17 0 18 2;
#X connect 17 0 18 3;
#X connect 19 0 17 1;
#X connect 20 0 23 0;
#X connect 22 0 28 0;
#X connect 22 1 26 0;
#X connect 22 2 27 0;
#X connect 23 0 25 0;
#X connect 24 0 22 0;
#X connect 25 0 21 0;
#X connect 26 0 29 0;
#X connect 27 0 25 1;
#X connect 28 0 25 1;
#X connect 30 0 0 0;
#X connect 31 0 0 1;
#X connect 32 0 0 2;
#X connect 33 0 0 3;
#X connect 34 0 15 0;
#X connect 34 0 50 0;
#X connect 35 0 34 0;
#X connect 36 0 41 0;
#X connect 36 1 39 0;
#X connect 36 2 40 0;
#X connect 37 0 38 0;
#X connect 38 0 43 0;
#X connect 39 0 45 0;
#X connect 40 0 38 1;
#X connect 41 0 38 1;
#X connect 42 0 37 0;
#X connect 44 0 36 0;
#X connect 46 0 47 0;
#X connect 46 0 48 0;
#X connect 49 0 35 0;
#X connect 51 0 52 0;
#X connect 54 0 53 0;
#X restore 50 165 pd output~;
#X obj 197 3 tgl 15 1 analog-mute empty mute 17 7 0 10 -262144 -1 -1
0 1;
#X obj 197 35 vsl 15 128 0 100 0 1 analog-vol empty volume 0 -9 0 10
-262144 -1 -1 12700 1;
#X obj 244 3 tgl 15 1 wave-mute empty mute 17 7 0 10 -262144 -1 -1
0 1;
#X obj 244 35 vsl 15 128 0 100 0 1 wave-vol empty volume 0 -9 0 10
-262144 -1 -1 12700 1;
#X obj 50 85 analog_synth_main;
#X obj 50 105 wave_synth_main;
#N canvas 234 158 1394 580 sampler 1;
#X obj 138 66 readsf~;
#X obj 438 126 readsf~;
#X msg 438 69 open sounds/jingle_sternum.wav \, 1;
#X obj 209 95 r sampler-metro;
#N canvas 1 92 450 300 metro 0;
#X obj 162 48 loadbang;
#X obj 162 90 metro 10;
#X obj 162 112 s sampler-metro;
#X obj 162 70 tgl 15 0 empty empty empty 17 7 0 10 -262144 -1 -1 1
1;
#X connect 0 0 3 0;
#X connect 1 0 2 0;
#X connect 3 0 1 0;
#X restore 142 546 pd metro;
#X obj 189 307 max;
#X msg 257 144 0;
#X obj 189 264 tabread fsr;
#N canvas 1 132 450 300 output 0;
#X obj 135 180 *~;
#X obj 283 118 line~ 1;
#X obj 283 75 == 0;
#X msg 283 97 \$1 10;
#X obj 135 250 *~;
#X obj 284 191 line~ 1;
#X msg 284 169 \$1 10;
#X obj 284 211 dbtorms~;
#X obj 283 55 r sampler-mute;
#X obj 284 149 r sampler-vol;
#X obj 135 44 inlet~;
#X obj 135 272 throw~ sampler-1;
#X obj 135 137 *~;
#X obj 185 100 line~;
#X obj 185 44 inlet;
#X connect 0 0 4 0;
#X connect 1 0 0 1;
#X connect 2 0 3 0;
#X connect 3 0 1 0;
#X connect 4 0 11 0;
#X connect 5 0 7 0;
#X connect 6 0 5 0;
#X connect 7 0 4 1;
#X connect 8 0 2 0;
#X connect 9 0 6 0;
#X connect 10 0 12 0;
#X connect 12 0 0 0;
#X connect 13 0 12 1;
#X connect 14 0 13 0;
#X restore 438 524 pd output;
#X obj 189 328 f;
#X obj 209 115 t b b;
#X obj 179 176 unpack;
#X obj 179 210 * 9;
#X obj 189 242 +;
#X obj 189 442 dbtorms;
#X floatatom 243 311 5 0 0 0 - - -, f 5;
#X obj 507 124 r sampler-metro;
#X msg 555 173 0;
#X obj 507 144 t b b;
#X obj 477 205 unpack;
#X obj 477 239 * 9;
#X obj 487 271 +;
#N canvas 1 97 450 300 output 0;
#X obj 135 180 *~;
#X obj 283 118 line~ 1;
#X obj 283 75 == 0;
#X msg 283 97 \$1 10;
#X obj 135 250 *~;
#X obj 284 191 line~ 1;
#X msg 284 169 \$1 10;
#X obj 284 211 dbtorms~;
#X obj 283 55 r sampler-mute;
#X obj 284 149 r sampler-vol;
#X obj 135 44 inlet~;
#X obj 135 272 throw~ sampler-1;
#X obj 134 98 *~;
#X obj 185 44 inlet~;
#X connect 0 0 4 0;
#X connect 1 0 0 1;
#X connect 2 0 3 0;
#X connect 3 0 1 0;
#X connect 4 0 11 0;
#X connect 5 0 7 0;
#X connect 6 0 5 0;
#X connect 7 0 4 1;
#X connect 8 0 2 0;
#X connect 9 0 6 0;
#X connect 10 0 12 0;
#X connect 12 0 0 0;
#X connect 13 0 12 1;
#X restore 138 512 pd output;
#X obj 658 126 readsf~;
#X obj 727 124 r sampler-metro;
#X msg 775 173 0;
#X obj 727 144 t b b;
#X obj 697 205 unpack;
#X obj 697 239 * 9;
#X obj 707 271 +;
#X obj 878 96 readsf~;
#N canvas 1 97 450 300 output 0;
#X obj 135 180 *~;
#X obj 283 118 line~ 1;
#X obj 283 75 == 0;
#X msg 283 97 \$1 10;
#X obj 135 250 *~;
#X obj 284 191 line~ 1;
#X msg 284 169 \$1 10;
#X obj 284 211 dbtorms~;
#X obj 283 55 r sampler-mute;
#X obj 284 149 r sampler-vol;
#X obj 135 44 inlet~;
#X obj 135 272 throw~ sampler-1;
#X obj 134 98 *~;
#X obj 185 44 inlet~;
#X connect 0 0 4 0;
#X connect 1 0 0 1;
#X connect 2 0 3 0;
#X connect 3 0 1 0;
#X connect 4 0 11 0;
#X connect 5 0 7 0;
#X connect 6 0 5 0;
#X connect 7 0 4 1;
#X connect 8 0 2 0;
#X connect 9 0 6 0;
#X connect 10 0 12 0;
#X connect 12 0 0 0;
#X connect 13 0 12 1;
#X restore 876 544 pd output;
#X obj 947 124 r sampler-metro;
#X obj 927 336 max;
#X msg 974 213 0;
#X obj 927 293 tabread fsr;
#X obj 927 357 f;
#X obj 947 144 t b b;
#X obj 917 205 unpack;
#X obj 917 239 * 9;
#X obj 927 271 +;
#X obj 927 471 dbtorms;
#X msg 927 493 \$1 10;
#X obj 927 515 line~;
#X floatatom 978 514 5 0 0 0 - - -, f 5;
#X floatatom 981 340 5 0 0 0 - - -, f 5;
#X obj 927 403 mapping2float 70 112;
#X obj 487 293 tabread cs;
#X obj 487 417 once;
#X obj 527 345 < 0.4;
#X obj 527 416 once;
#X obj 487 367 sel 1;
#X obj 527 367 sel 1;
#X obj 487 439 t b b;
#X msg 189 464 \$1 10;
#X obj 189 486 line~;
#X msg 537 477 0 200;
#X msg 477 177 5 4;
#X obj 487 345 > 0.8;
#X msg 487 477 1 10;
#X msg 179 148 1 4 \, 1 7;
#X obj 189 411 mapping2float 70 112;
#X obj 189 361 float2mapping 0 0.5;
#X obj 189 383 curve_log;
#X msg 138 39 open sounds/battement_coeur01.wav \, 1;
#X obj 138 12 loadbang;
#X msg 658 69 open sounds/scratch0\$1.wav \, 1;
#X obj 658 25 random 6;
#X obj 658 47 + 1;
#X obj 707 397 once;
#X obj 747 396 once;
#X obj 707 347 sel 1;
#X obj 747 347 sel 1;
#X obj 707 419 t b b;
#X msg 757 457 0 200;
#N canvas 1 142 450 300 output 0;
#X obj 135 180 *~;
#X obj 283 118 line~ 1;
#X obj 283 75 == 0;
#X msg 283 97 \$1 10;
#X obj 135 250 *~;
#X obj 284 191 line~ 1;
#X msg 284 169 \$1 10;
#X obj 284 211 dbtorms~;
#X obj 283 55 r sampler-mute;
#X obj 284 149 r sampler-vol;
#X obj 135 44 inlet~;
#X obj 135 272 throw~ sampler-1;
#X obj 135 137 *~;
#X obj 185 100 line~;
#X obj 185 44 inlet;
#X connect 0 0 4 0;
#X connect 1 0 0 1;
#X connect 2 0 3 0;
#X connect 3 0 1 0;
#X connect 4 0 11 0;
#X connect 5 0 7 0;
#X connect 6 0 5 0;
#X connect 7 0 4 1;
#X connect 8 0 2 0;
#X connect 9 0 6 0;
#X connect 10 0 12 0;
#X connect 12 0 0 0;
#X connect 13 0 12 1;
#X connect 14 0 13 0;
#X restore 659 548 pd output;
#X obj 707 297 tabread cs;
#X msg 696 178 0 4;
#X obj 747 325 < 0.1;
#X obj 710 325 > 0.9;
#X msg 917 177 5 4;
#X obj 878 42 loadbang;
#X msg 878 68 open sounds/gargouillis01.wav \, 1;
#X obj 927 379 / 0.2;
#X obj 1126 108 readsf~;
#N canvas 1 97 450 300 output 0;
#X obj 135 180 *~;
#X obj 283 118 line~ 1;
#X obj 283 75 == 0;
#X msg 283 97 \$1 10;
#X obj 135 250 *~;
#X obj 284 191 line~ 1;
#X msg 284 169 \$1 10;
#X obj 284 211 dbtorms~;
#X obj 283 55 r sampler-mute;
#X obj 284 149 r sampler-vol;
#X obj 135 44 inlet~;
#X obj 135 272 throw~ sampler-1;
#X obj 134 98 *~;
#X obj 185 44 inlet~;
#X connect 0 0 4 0;
#X connect 1 0 0 1;
#X connect 2 0 3 0;
#X connect 3 0 1 0;
#X connect 4 0 11 0;
#X connect 5 0 7 0;
#X connect 6 0 5 0;
#X connect 7 0 4 1;
#X connect 8 0 2 0;
#X connect 9 0 6 0;
#X connect 10 0 12 0;
#X connect 12 0 0 0;
#X connect 13 0 12 1;
#X restore 1124 556 pd output;
#X obj 1195 136 r sampler-metro;
#X obj 1175 348 max;
#X msg 1307 193 0;
#X obj 1175 305 tabread fsr;
#X obj 1175 369 f;
#X obj 1195 156 t b b;
#X obj 1165 217 unpack;
#X obj 1165 251 * 9;
#X obj 1175 283 +;
#X obj 1175 483 dbtorms;
#X msg 1175 505 \$1 10;
#X obj 1175 527 line~;
#X floatatom 1229 352 5 0 0 0 - - -, f 5;
#X obj 1175 439 mapping2float 70 112;
#X obj 1126 54 loadbang;
#X obj 1175 391 / 0.2;
#X obj 927 434 min 100;
#X msg 707 457 3 10;
#X floatatom 251 443 5 0 0 0 - - -, f 5;
#X msg 1165 189 1 6 \, 1 7 \, 0 4 \, 0 8;
#X msg 1127 79 open sounds/respiration01.wav \, 1;
#X floatatom 1222 527 5 0 0 0 - - -, f 5;
#X obj 1175 461 min 112;
#X connect 0 0 22 0;
#X connect 0 1 64 0;
#X connect 1 0 8 0;
#X connect 2 0 1 0;
#X connect 3 0 10 0;
#X connect 5 0 9 0;
#X connect 6 0 5 1;
#X connect 7 0 5 0;
#X connect 9 0 5 1;
#X connect 9 0 62 0;
#X connect 10 0 60 0;
#X connect 10 1 6 0;
#X connect 11 0 12 0;
#X connect 11 1 13 1;
#X connect 12 0 13 0;
#X connect 13 0 7 0;
#X connect 14 0 54 0;
#X connect 15 0 61 1;
#X connect 16 0 18 0;
#X connect 18 0 57 0;
#X connect 18 1 17 0;
#X connect 19 0 20 0;
#X connect 19 1 21 1;
#X connect 20 0 21 0;
#X connect 21 0 47 0;
#X connect 23 0 75 0;
#X connect 24 0 26 0;
#X connect 26 0 77 0;
#X connect 26 1 25 0;
#X connect 27 0 28 0;
#X connect 27 1 29 1;
#X connect 28 0 29 0;
#X connect 29 0 76 0;
#X connect 30 0 31 0;
#X connect 30 1 82 0;
#X connect 32 0 37 0;
#X connect 33 0 36 0;
#X connect 34 0 33 1;
#X connect 35 0 33 0;
#X connect 36 0 33 1;
#X connect 36 0 83 0;
#X connect 37 0 80 0;
#X connect 37 1 34 0;
#X connect 38 0 39 0;
#X connect 38 1 40 1;
#X connect 39 0 40 0;
#X connect 40 0 35 0;
#X connect 41 0 42 0;
#X connect 42 0 43 0;
#X connect 43 0 31 1;
#X connect 45 0 46 1;
#X connect 46 0 102 0;
#X connect 47 0 49 0;
#X connect 47 0 58 0;
#X connect 48 0 50 1;
#X connect 48 0 53 0;
#X connect 49 0 52 0;
#X connect 50 0 48 1;
#X connect 50 0 56 0;
#X connect 51 0 48 0;
#X connect 52 0 50 0;
#X connect 53 0 59 0;
#X connect 53 1 2 0;
#X connect 54 0 55 0;
#X connect 55 0 22 1;
#X connect 56 0 8 1;
#X connect 57 0 19 0;
#X connect 58 0 51 0;
#X connect 59 0 8 1;
#X connect 60 0 11 0;
#X connect 61 0 14 0;
#X connect 61 0 104 0;
#X connect 62 0 63 0;
#X connect 63 0 61 0;
#X connect 64 0 0 0;
#X connect 65 0 64 0;
#X connect 66 0 23 0;
#X connect 67 0 68 0;
#X connect 68 0 66 0;
#X connect 69 0 70 1;
#X connect 69 0 73 0;
#X connect 70 0 69 1;
#X connect 70 0 74 0;
#X connect 71 0 69 0;
#X connect 72 0 70 0;
#X connect 73 0 103 0;
#X connect 73 1 67 0;
#X connect 74 0 75 1;
#X connect 76 0 78 0;
#X connect 76 0 79 0;
#X connect 77 0 27 0;
#X connect 78 0 72 0;
#X connect 79 0 71 0;
#X connect 80 0 38 0;
#X connect 81 0 82 0;
#X connect 82 0 30 0;
#X connect 83 0 46 0;
#X connect 84 0 85 0;
#X connect 84 1 106 0;
#X connect 86 0 91 0;
#X connect 87 0 90 0;
#X connect 88 0 87 1;
#X connect 89 0 87 0;
#X connect 90 0 87 1;
#X connect 90 0 101 0;
#X connect 91 0 105 0;
#X connect 91 1 88 0;
#X connect 92 0 93 0;
#X connect 92 1 94 1;
#X connect 93 0 94 0;
#X connect 94 0 89 0;
#X connect 95 0 96 0;
#X connect 96 0 97 0;
#X connect 97 0 85 1;
#X connect 98 0 99 1;
#X connect 99 0 108 0;
#X connect 100 0 106 0;
#X connect 101 0 99 0;
#X connect 102 0 41 0;
#X connect 102 0 44 0;
#X connect 103 0 75 1;
#X connect 105 0 92 0;
#X connect 106 0 84 0;
#X connect 108 0 95 0;
#X connect 108 0 107 0;
#X restore 50 125 pd sampler;
#X text 177 168 analog;
#X text 222 169 wavetable;
#X obj 294 3 tgl 15 1 sampler-mute empty mute 17 7 0 10 -262144 -1
-1 0 1;
#X obj 294 35 vsl 15 128 0 100 0 1 sampler-vol empty volume 0 -9 0
10 -262144 -1 -1 12700 1;
#X text 280 169 sampler;
#X obj 374 3 tgl 15 1 master-mute empty mute 17 7 0 10 -262144 -1 -1
0 1;
#X obj 374 35 vsl 15 128 30 100 0 1 master-vol master-vol_in volume
0 -9 0 10 -262144 -1 -1 11000 1;
#X text 360 189 master;
#X floatatom 367 171 5 0 0 0 - master-vol_num_in master-vol_num_out
, f 5;
#X obj 424 3 tgl 15 1 sub-mute empty mute 17 7 0 10 -262144 -1 -1 0
1;
#X obj 424 35 vsl 15 128 0 100 0 1 sub-vol sub-vol_in volume 0 -9 0
10 -262144 -1 -1 12700 1;
#X floatatom 417 171 5 -100 0 0 - sub-vol_num_in sub-vol_num_out,
f 5;
#X text 420 189 sub;
#X connect 1 0 0 0;
