#N canvas 627 134 920 470 10;
#X declare -path bin -path abs;
#N canvas 1019 286 438 179 gemwin 0;
#X obj 132 156 gemwin;
#X obj 67 99 outlet;
#X obj 67 10 inlet;
#X obj 67 41 route create;
#X msg 67 70 set destroy;
#X msg 145 70 set create;
#X msg 294 118 destroy;
#X msg 132 96 reset \, dimen 1024 256 \, lighting 1 \, create \, 1
;
#X connect 2 0 3 0;
#X connect 3 0 4 0;
#X connect 3 0 7 0;
#X connect 3 1 5 0;
#X connect 3 1 6 0;
#X connect 4 0 1 0;
#X connect 5 0 1 0;
#X connect 6 0 0 0;
#X connect 7 0 0 0;
#X restore 731 17 pd gemwin;
#X msg 731 -2 destroy;
#X obj 323 398 model;
#X msg 344 363 rescale 1 \, material 0 \, open model.obj;
#X obj 323 317 rotateXYZ 45 -45 0, f 19;
#X obj 323 226 pix_texture;
#X obj 344 343 loadbang;
#X obj 43 -56 gemhead 49;
#X obj 43 8 gemframebuffer;
#X obj 51 -36 loadbang;
#X obj 732 98 declare -path bin -path abs;
#X obj 43 261 pix_texture;
#X obj 43 169 separator;
#N canvas 621 180 450 435 coord&val 0;
#X obj 229 286 f;
#X obj 254 286 + 1;
#X msg 244 266 0;
#X obj 43 27 inlet GEMLIST;
#X obj 77 367 outlet GEMLIST;
#X obj 43 387 outlet BANG;
#X obj 227 84 r cs_proc;
#X obj 183 113 list;
#X obj 183 135 list split 1;
#X obj 223 190 list;
#X obj 183 157 t b a;
#X obj 174 60 bng 15 250 50 0 empty empty empty 17 7 0 10 -262144 -1
-1;
#X obj 43 68 t b a b;
#X obj 210 222 t b b a;
#X obj 229 328 tabread posX;
#X obj 256 348 tabread posY;
#X obj 229 409 outlet;
#X obj 210 26 loadbang;
#X msg 206 53 1 1 1 1;
#X obj 229 387 pack 0 0 0 0;
#X obj 229 308 t a a a;
#X connect 0 0 1 0;
#X connect 0 0 20 0;
#X connect 1 0 0 1;
#X connect 2 0 0 1;
#X connect 3 0 12 0;
#X connect 6 0 7 1;
#X connect 7 0 8 0;
#X connect 8 0 10 0;
#X connect 8 1 9 1;
#X connect 9 0 8 0;
#X connect 10 0 9 0;
#X connect 10 1 13 0;
#X connect 11 0 7 0;
#X connect 12 0 7 0;
#X connect 12 1 4 0;
#X connect 12 2 2 0;
#X connect 13 0 5 0;
#X connect 13 1 0 0;
#X connect 13 2 19 2;
#X connect 14 0 19 0;
#X connect 15 0 19 1;
#X connect 17 0 18 0;
#X connect 18 0 7 1;
#X connect 19 0 16 0;
#X connect 20 0 14 0;
#X connect 20 1 15 0;
#X connect 20 2 19 3;
#X restore 43 126 pd coord&val;
#N canvas 143 720 450 300 tables 0;
#X obj 84 92 table posX 100;
#X obj 84 112 table posY 100;
#X msg 209 57 write posX.txt;
#X obj 209 79 s posX;
#X obj 309 79 s posY;
#X msg 309 57 write posY.txt;
#X obj 278 23 t b;
#X obj 278 5 bng 15 250 50 0 empty empty empty 17 7 0 10 -262144 -1
-1;
#X obj 241 238 s posX;
#X obj 341 238 s posY;
#X obj 310 182 t b;
#X obj 310 164 bng 15 250 50 0 empty empty empty 17 7 0 10 -262144
-1 -1;
#X msg 341 216 read posY.txt;
#X msg 241 216 read posX.txt;
#X obj 310 144 loadbang;
#X text 329 163 load coord tables;
#X text 299 4 save coord tables;
#N canvas 1 90 450 300 (subpatch) 0;
#X floatatom 105 115 5 0 0 2 id - -, f 5;
#X floatatom 148 114 5 0 0 2 x - -, f 5;
#X obj 106 167 tabwrite posX;
#X obj 100 145 tabwrite posY;
#X floatatom 186 115 5 0 0 2 y - -, f 5;
#X obj 145 60 tabread posX;
#X msg 145 82 set \$1;
#X msg 226 82 set \$1;
#X obj 226 60 tabread posY;
#X obj 261 183 t b;
#X obj 261 205 speedlim 200;
#X msg 194 240 write posX.txt;
#X obj 194 262 s posX;
#X obj 294 262 s posY;
#X msg 294 240 write posY.txt;
#X connect 0 0 2 1;
#X connect 0 0 3 1;
#X connect 0 0 5 0;
#X connect 0 0 8 0;
#X connect 1 0 2 0;
#X connect 1 0 9 0;
#X connect 4 0 3 0;
#X connect 4 0 9 0;
#X connect 5 0 6 0;
#X connect 6 0 1 0;
#X connect 7 0 4 0;
#X connect 8 0 7 0;
#X connect 9 0 10 0;
#X connect 10 0 11 0;
#X connect 10 0 14 0;
#X connect 11 0 12 0;
#X connect 14 0 13 0;
#X coords 0 -1 1 1 130 30 2 100 100;
#X restore 55 185 pd;
#X connect 2 0 3 0;
#X connect 5 0 4 0;
#X connect 6 0 2 0;
#X connect 6 0 5 0;
#X connect 7 0 6 0;
#X connect 10 0 13 0;
#X connect 10 0 12 0;
#X connect 11 0 10 0;
#X connect 12 0 9 0;
#X connect 13 0 8 0;
#X connect 14 0 11 0;
#X restore 732 78 pd tables;
#X floatatom 151 194 5 0 0 0 - - -, f 5;
#X floatatom 88 198 5 0 0 0 - - -, f 5;
#X obj 43 148 gemlist;
#X obj 166 249 / 2000;
#X msg 117 325 0 1 0 \$1;
#X obj 43 345 color 1 0 0 1;
#X obj 112 169 unpack 0 0 0 0;
#X msg 193 350 text \$1;
#X obj 43 385 text2d;
#X obj 43 325 circle 0.3;
#X obj 323 121 gemhead 1;
#X obj 323 246 scaleXYZ 1 1 1;
#X obj 323 103 tgl 15 0 empty empty empty 17 7 0 10 -262144 -1 -1 0
1;
#X obj 323 173 gemframebuffer;
#X obj 474 154 pix_texture;
#X obj 474 134 translateXYZ;
#N canvas 1 105 531 396 repeat 1;
#X obj 108 47 inlet;
#X obj 108 69 t b a b;
#X msg 108 91 4;
#X obj 108 113 until;
#X obj 108 275 outlet;
#X obj 108 225 gemlist;
#X obj 108 135 t b b;
#X obj 252 166 f;
#X obj 280 166 + 1;
#X msg 267 111 0;
#X obj 272 333 outlet rotate;
#X obj 416 311 outlet translate;
#X msg 346 286 45 -45;
#X obj 108 247 separator;
#X obj 416 266 * 2;
#X obj 416 288 - 3;
#X obj 236 195 sel 0 1 2 3;
#N canvas 596 218 450 430 rotate 0;
#X obj 204 213 f;
#X obj 229 213 + 1;
#X obj 177 192 t b b;
#X obj 177 151 inlet;
#X obj 134 233 f;
#X obj 134 326 abs;
#X obj 134 374 outlet;
#X obj 134 350 pack 0 0;
#X obj 229 235 % 360;
#X obj 134 304 - 90;
#X obj 159 233 + 0.2;
#X floatatom 214 344 5 0 0 0 - - -, f 5;
#X obj 159 255 moses 180;
#X obj 210 275 t b;
#X msg 210 297 0;
#X connect 0 0 1 0;
#X connect 0 0 7 1;
#X connect 1 0 8 0;
#X connect 2 0 4 0;
#X connect 2 1 0 0;
#X connect 3 0 2 0;
#X connect 4 0 9 0;
#X connect 4 0 10 0;
#X connect 5 0 7 0;
#X connect 5 0 11 0;
#X connect 7 0 6 0;
#X connect 8 0 0 1;
#X connect 9 0 5 0;
#X connect 10 0 12 0;
#X connect 12 0 4 1;
#X connect 12 1 13 0;
#X connect 13 0 14 0;
#X connect 14 0 4 1;
#X restore 212 235 pd rotate;
#X msg 204 289 \$1 \$2;
#X msg 258 286 90 0;
#X msg 296 286 0 -90;
#X connect 0 0 1 0;
#X connect 1 0 2 0;
#X connect 1 1 5 1;
#X connect 1 2 9 0;
#X connect 2 0 3 0;
#X connect 3 0 6 0;
#X connect 5 0 13 0;
#X connect 6 0 5 0;
#X connect 6 1 7 0;
#X connect 7 0 8 0;
#X connect 7 0 14 0;
#X connect 7 0 16 0;
#X connect 8 0 7 1;
#X connect 9 0 7 1;
#X connect 12 0 10 0;
#X connect 13 0 4 0;
#X connect 14 0 15 0;
#X connect 15 0 11 0;
#X connect 16 0 17 0;
#X connect 16 1 19 0;
#X connect 16 2 20 0;
#X connect 16 3 12 0;
#X connect 17 0 18 0;
#X connect 18 0 10 0;
#X connect 19 0 10 0;
#X connect 20 0 10 0;
#X restore 447 26 pd repeat;
#X obj 360 293 unpack;
#X obj 497 80 unpack 0 0;
#X obj 323 200 translateXYZ 0 0 -1.4;
#N canvas 137 516 450 300 fb_param 0;
#X obj -362 80 loadbang;
#X obj -362 136 outlet;
#X msg -362 102 color 0 0 0 0 \, dimen 256 256 \, format RGBA \, perspec
-0.2 0.2 -0.2 0.2 0.2 5;
#X connect 0 0 2 0;
#X connect 2 0 1 0;
#X restore 273 66 pd fb_param;
#X obj 474 176 rectangle 4 4;
#X obj 497 102 * 4;
#X obj 447 -47 tgl 15 0 empty empty empty 17 7 0 10 -262144 -1 -1 0
1;
#X obj 447 -2 alpha;
#X obj 447 -27 gemhead -1;
#X obj 359 50 loadbang;
#X msg 359 72 0;
#X obj 447 48 t a b;
#X floatatom 384 149 5 0 0 0 - - -, f 5;
#X obj 340 147 alpha;
#X obj 43 305 color 1 1 1 1;
#X obj 43 241 pix_image point.png;
#X msg 118 285 1 0 0 \$1;
#X obj 43 98 alpha, f 6;
#X obj 43 222 translateXYZ 0 0 -4;
#X msg 51 -16 color 1 1 1 1 \, dimen 512 512 \, format RGB;
#X obj 731 38 gemhead;
#X obj 731 57 world_light;
#X connect 0 0 1 0;
#X connect 1 0 0 0;
#X connect 3 0 2 0;
#X connect 4 0 2 0;
#X connect 5 0 26 0;
#X connect 6 0 3 0;
#X connect 7 0 8 0;
#X connect 8 0 49 0;
#X connect 8 1 5 1;
#X connect 9 0 51 0;
#X connect 11 0 46 0;
#X connect 12 0 50 0;
#X connect 13 0 17 0;
#X connect 13 1 17 1;
#X connect 13 2 21 0;
#X connect 15 0 50 2;
#X connect 16 0 50 1;
#X connect 17 0 12 0;
#X connect 18 0 48 0;
#X connect 18 0 19 0;
#X connect 19 0 20 1;
#X connect 21 0 50 1;
#X connect 21 1 50 2;
#X connect 21 2 18 0;
#X connect 21 3 22 0;
#X connect 22 0 23 0;
#X connect 24 0 20 0;
#X connect 25 0 28 0;
#X connect 26 0 4 0;
#X connect 27 0 25 0;
#X connect 28 0 34 0;
#X connect 28 1 29 1;
#X connect 29 0 36 0;
#X connect 30 0 29 0;
#X connect 31 0 43 0;
#X connect 31 1 32 0;
#X connect 31 2 33 0;
#X connect 32 0 4 1;
#X connect 32 1 4 2;
#X connect 33 0 37 0;
#X connect 33 1 30 2;
#X connect 34 0 5 0;
#X connect 35 0 28 0;
#X connect 37 0 30 1;
#X connect 38 0 40 0;
#X connect 39 0 31 0;
#X connect 40 0 39 0;
#X connect 41 0 42 0;
#X connect 42 0 25 0;
#X connect 43 0 30 0;
#X connect 43 1 25 0;
#X connect 44 0 45 1;
#X connect 45 0 28 0;
#X connect 46 0 24 0;
#X connect 47 0 11 0;
#X connect 48 0 46 1;
#X connect 49 0 13 0;
#X connect 50 0 47 0;
#X connect 51 0 8 0;
#X connect 52 0 53 0;
